<?xml version="1.0" encoding="UTF-8"?>
<svg version="1.1" xmlns="http://www.w3.org/2000/svg" width="270" height="270">
<path d="M0 0 C1.36679398 -0.01925285 1.36679398 -0.01925285 2.76119995 -0.03889465 C4.24863205 -0.04997505 4.24863205 -0.04997505 5.76611328 -0.0612793 C6.77860138 -0.06935104 7.79108948 -0.07742279 8.83425903 -0.08573914 C10.98128538 -0.09959739 13.12833392 -0.11031171 15.27539062 -0.11816406 C18.56568938 -0.13538949 21.85498699 -0.17926191 25.14501953 -0.22338867 C27.22704336 -0.23351386 29.30907577 -0.24203051 31.39111328 -0.2487793 C32.37868622 -0.26628738 33.36625916 -0.28379547 34.38375854 -0.30183411 C35.760009 -0.29744576 35.760009 -0.29744576 37.1640625 -0.29296875 C38.37532303 -0.30176811 38.37532303 -0.30176811 39.61105347 -0.31074524 C41.71142578 0.17700195 41.71142578 0.17700195 43.45388794 1.98347473 C44.90437793 4.513569 45.26314025 6.83929552 45.63232422 9.71044922 C46.06406838 12.99637018 46.73722016 16.000724 47.71142578 19.17700195 C50.86195447 21.17637593 52.2036131 21.48480746 55.71142578 22.17700195 C58.19384567 23.09754296 60.63889435 24.04778478 63.08642578 25.05200195 C63.73329346 25.31005615 64.38016113 25.56811035 65.04663086 25.83398438 C70.41888468 27.99301586 75.59839141 30.45807073 80.71142578 33.17700195 C81.33017578 32.68200195 81.94892578 32.18700195 82.58642578 31.67700195 C84.71142578 30.17700195 84.71142578 30.17700195 86.71142578 30.17700195 C86.91767578 29.57887695 87.12392578 28.98075195 87.33642578 28.36450195 C89.28383015 25.26635864 91.32099252 24.44010454 94.71142578 23.17700195 C100.27278408 23.19395362 103.34272238 27.1965198 107.01611328 30.88012695 C107.69948761 31.55493103 108.38286194 32.22973511 109.08694458 32.92498779 C110.52577887 34.35235194 111.95942173 35.78496574 113.38818359 37.22241211 C115.58221268 39.42277668 117.80157362 41.59513563 120.02392578 43.7668457 C121.41877447 45.15714986 122.81205908 46.54902535 124.20361328 47.94262695 C124.87117645 48.59177063 125.53873962 49.24091431 126.22653198 49.909729 C130.71607338 54.4917789 130.71607338 54.4917789 130.69238281 57.98461914 C129.18378135 61.35625705 127.48586582 64.24956278 125.10986328 67.0949707 C124.26294922 68.12557617 124.26294922 68.12557617 123.39892578 69.17700195 C122.84591797 69.81637695 122.29291016 70.45575195 121.72314453 71.11450195 C120.43460574 73.17053367 120.43460574 73.17053367 121.33642578 75.5246582 C121.79017578 76.39993164 122.24392578 77.27520508 122.71142578 78.17700195 C123.22318359 79.18633789 123.73494141 80.19567383 124.26220703 81.2355957 C125.16711841 82.97117961 126.07265214 84.70646942 126.98901367 86.43603516 C128.62329569 89.62393986 129.91029072 92.60100867 130.71923828 96.09887695 C131.67607223 99.97445647 132.45670795 102.87069475 134.71142578 106.17700195 C138.61569559 108.09217923 142.81391885 108.39225953 147.09423828 108.7199707 C150.71142578 109.17700195 150.71142578 109.17700195 152.41125488 110.42333984 C154.0632777 112.65157754 154.10236646 113.93372839 154.13134766 116.69262695 C154.14725952 117.60367188 154.16317139 118.5147168 154.17956543 119.45336914 C154.17986755 120.92531738 154.17986755 120.92531738 154.18017578 122.42700195 C154.18778931 123.43666016 154.19540283 124.44631836 154.20324707 125.48657227 C154.2140544 127.62163824 154.21689862 129.75675711 154.21240234 131.8918457 C154.21142939 135.16487338 154.25305792 138.43556257 154.29736328 141.70825195 C154.30256959 143.78116372 154.30525849 145.85408365 154.30517578 147.92700195 C154.32157104 148.90830078 154.33796631 149.88959961 154.3548584 150.90063477 C154.32906683 153.42575232 154.26567162 155.71338058 153.71142578 158.17700195 C150.50285866 161.0192353 147.32972901 161.68417653 143.14892578 162.36450195 C142.21951172 162.52305664 141.29009766 162.68161133 140.33251953 162.8449707 C137.71142578 163.17700195 137.71142578 163.17700195 133.71142578 163.17700195 C133.46392578 164.41450195 133.21642578 165.65200195 132.96142578 166.92700195 C130.74816493 176.66534969 127.86541981 184.69626514 121.90673828 192.80200195 C120.44014885 195.0507374 120.44014885 195.0507374 121.25830078 197.1184082 C121.97759766 198.13741211 121.97759766 198.13741211 122.71142578 199.17700195 C123.35337891 200.11415039 123.99533203 201.05129883 124.65673828 202.0168457 C126.11036626 204.08266468 127.56871045 206.14517307 129.03173828 208.2043457 C131.56268326 212.68352972 131.56268326 212.68352972 130.71142578 216.17700195 C128.84221328 218.25423972 127.07856869 219.95279052 124.96142578 221.73950195 C123.76674683 222.79326159 122.57408754 223.84931473 121.38330078 224.9074707 C120.77292969 225.44549316 120.16255859 225.98351562 119.53369141 226.5378418 C116.66656789 229.11687011 113.93321189 231.82114322 111.21142578 234.55200195 C110.7322168 235.02710205 110.25300781 235.50220215 109.75927734 235.99169922 C107.38352818 238.37536755 105.22039194 240.7982117 103.18017578 243.46606445 C100.71142578 246.17700195 100.71142578 246.17700195 98.24658203 247.25512695 C94.76599271 247.14786688 93.00595342 245.88201948 90.14892578 243.92700195 C88.75480469 242.99114258 88.75480469 242.99114258 87.33251953 242.03637695 C85.6936169 240.8737575 84.08488122 239.66590299 82.52783203 238.39575195 C81.92841797 237.99356445 81.32900391 237.59137695 80.71142578 237.17700195 C78.15431206 237.86631862 78.15431206 237.86631862 75.71142578 239.17700195 C74.3846607 239.53558711 73.05306657 239.87885956 71.71142578 240.17700195 C71.71142578 240.83700195 71.71142578 241.49700195 71.71142578 242.17700195 C71.12651367 242.3785791 70.54160156 242.58015625 69.93896484 242.7878418 C67.2787974 243.70639624 64.62010666 244.62915405 61.96142578 245.55200195 C61.04103516 245.86911133 60.12064453 246.1862207 59.17236328 246.51293945 C58.28291016 246.82231445 57.39345703 247.13168945 56.47705078 247.45043945 C55.66010742 247.73322754 54.84316406 248.01601562 54.00146484 248.30737305 C49.66121843 249.66019505 49.66121843 249.66019505 46.921875 252.93286133 C46.78797363 253.62186523 46.65407227 254.31086914 46.51611328 255.02075195 C46.35755859 255.77227539 46.19900391 256.52379883 46.03564453 257.2980957 C45.88740234 258.08313477 45.73916016 258.86817383 45.58642578 259.67700195 C43.9437516 267.94467613 43.9437516 267.94467613 41.71142578 270.17700195 C39.73803711 270.43096924 39.73803711 270.43096924 37.29345703 270.43579102 C35.92193481 270.4452475 35.92193481 270.4452475 34.52270508 270.45489502 C33.03830933 270.44882233 33.03830933 270.44882233 31.52392578 270.44262695 C30.00375854 270.44549713 30.00375854 270.44549713 28.45288086 270.44842529 C26.30761467 270.44978786 24.16234025 270.44608642 22.01708984 270.43774414 C18.72491006 270.42704577 15.433276 270.43763715 12.14111328 270.45043945 C10.0603829 270.44911787 7.97965287 270.44655551 5.89892578 270.44262695 C4.90932861 270.44667542 3.91973145 270.45072388 2.90014648 270.45489502 C1.98579834 270.4485907 1.0714502 270.44228638 0.12939453 270.43579102 C-1.08067261 270.43340424 -1.08067261 270.43340424 -2.31518555 270.43096924 C-4.28857422 270.17700195 -4.28857422 270.17700195 -6.28857422 268.17700195 C-6.90796011 266.09438791 -7.43816791 263.98462199 -7.91357422 261.86450195 C-8.30416016 260.16874023 -8.30416016 260.16874023 -8.70263672 258.4387207 C-9.21531812 255.58479424 -9.40772097 253.06360288 -9.28857422 250.17700195 C-9.94341797 250.01844727 -10.59826172 249.85989258 -11.27294922 249.6965332 C-20.4681048 247.34579428 -29.09911468 244.18576091 -37.22607422 239.23950195 C-40.45117587 237.28814306 -40.45117587 237.28814306 -44.16357422 237.80200195 C-44.86482422 238.25575195 -45.56607422 238.70950195 -46.28857422 239.17700195 C-47.27857422 239.50700195 -48.26857422 239.83700195 -49.28857422 240.17700195 C-49.61857422 241.16700195 -49.94857422 242.15700195 -50.28857422 243.17700195 C-53.16364394 244.80204136 -56.23423553 245.92945516 -59.28857422 247.17700195 C-65.49121389 241.92737482 -71.26160752 236.3251017 -76.97607422 230.55200195 C-78.2184082 229.30290039 -78.2184082 229.30290039 -79.48583984 228.02856445 C-81.06836416 226.43717091 -82.64965712 224.84455157 -84.22949219 223.25048828 C-85.90475448 221.5635067 -87.58795992 219.88544417 -89.27685547 218.2121582 C-92.65366348 214.79600874 -92.65366348 214.79600874 -93.28857422 212.17700195 C-91.51595542 207.09549474 -88.08097791 203.44527908 -84.51904297 199.52075195 C-82.97289491 197.17717753 -82.97289491 197.17717753 -83.87841797 194.30981445 C-85.37135727 190.99309058 -86.96914659 187.77067452 -88.66357422 184.55200195 C-96.28857422 169.7427075 -96.28857422 169.7427075 -96.28857422 163.17700195 C-97.24119141 163.05583008 -98.19380859 162.9346582 -99.17529297 162.80981445 C-101.05667969 162.55844727 -101.05667969 162.55844727 -102.97607422 162.30200195 C-104.838125 162.05836914 -104.838125 162.05836914 -106.73779297 161.80981445 C-113.93917663 160.52639954 -113.93917663 160.52639954 -116.28857422 158.17700195 C-116.40225352 156.7507835 -116.44810106 155.3190628 -116.46557617 153.88842773 C-116.47841141 152.97723175 -116.49124664 152.06603577 -116.50447083 151.12722778 C-116.51185776 150.13560638 -116.51924469 149.14398499 -116.52685547 148.12231445 C-116.53492722 147.10982635 -116.54299896 146.09733826 -116.55131531 145.0541687 C-116.56517356 142.90714236 -116.57588788 140.76009382 -116.58374023 138.61303711 C-116.60096566 135.32273836 -116.64483808 132.03344075 -116.68896484 128.7434082 C-116.69909004 126.66138437 -116.70760668 124.57935197 -116.71435547 122.49731445 C-116.73186356 121.50974152 -116.74937164 120.52216858 -116.76741028 119.50466919 C-116.76302193 118.12841873 -116.76302193 118.12841873 -116.75854492 116.72436523 C-116.76441116 115.91685822 -116.7702774 115.1093512 -116.77632141 114.27737427 C-116.28857422 112.17700195 -116.28857422 112.17700195 -114.40715027 110.43844604 C-112.04189895 109.03012639 -110.11635044 108.48206398 -107.41357422 107.98950195 C-106.59115234 107.83094727 -105.76873047 107.67239258 -104.92138672 107.5090332 C-102.02003856 107.14313618 -99.20990816 107.1216414 -96.28857422 107.17700195 C-96.11841797 106.42676758 -95.94826172 105.6765332 -95.77294922 104.90356445 C-93.35566612 94.69440074 -90.29169921 86.14119774 -84.26513672 77.5012207 C-83.0228574 75.19282779 -83.0228574 75.19282779 -83.90185547 72.70043945 C-85.88505054 69.09158306 -88.28186505 65.88252015 -90.72998047 62.5793457 C-92.18755251 60.3327121 -93.04398226 58.8333844 -93.28857422 56.17700195 C-91.41357422 54.05200195 -91.41357422 54.05200195 -89.99169922 52.77075195 C-87.90157697 50.81485774 -86.05434454 48.70122289 -84.16357422 46.55200195 C-79.8804846 41.75408354 -75.38857854 37.23722871 -70.79248047 32.7434082 C-68.66060751 30.55832156 -66.85777226 28.36715293 -65.03857422 25.92700195 C-63.67732422 24.56575195 -63.67732422 24.56575195 -62.28857422 23.17700195 C-55.03334502 23.25455191 -51.43203483 26.9230532 -46.15576172 31.4387207 C-45.20958984 32.01235352 -44.26341797 32.58598633 -43.28857422 33.17700195 C-40.54756352 32.6111053 -40.54756352 32.6111053 -38.28857422 31.17700195 C-36.96180914 30.8184168 -35.63021501 30.47514435 -34.28857422 30.17700195 C-34.28857422 29.51700195 -34.28857422 28.85700195 -34.28857422 28.17700195 C-17.58014597 21.65763977 -17.58014597 21.65763977 -9.28857422 20.17700195 C-9.25119141 19.55954102 -9.21380859 18.94208008 -9.17529297 18.3059082 C-7.76164592 0.09480798 -7.76164592 0.09480798 0 0 Z M49.71142578 60.17700195 C49.71142578 60.83700195 49.71142578 61.49700195 49.71142578 62.17700195 C49.03080078 62.38325195 48.35017578 62.58950195 47.64892578 62.80200195 C43.79503203 64.60595222 40.63354814 67.07803645 37.71142578 70.17700195 C37.71142578 70.83700195 37.71142578 71.49700195 37.71142578 72.17700195 C37.12232422 72.38454102 36.53322266 72.59208008 35.92626953 72.8059082 C28.90717875 77.15105964 26.15906843 89.3780274 24.23486328 96.99731445 C24.02329086 97.81909683 23.81171844 98.64087921 23.59373474 99.48756409 C21.36258184 108.30400589 19.54276007 117.19599565 17.77392578 126.11450195 C17.09036256 129.53170067 16.40355254 132.94823838 15.71533203 136.36450195 C15.4626506 137.62199501 15.4626506 137.62199501 15.2048645 138.90489197 C14.15904425 144.07476782 13.04709485 149.22444019 11.86376953 154.36450195 C5.92055 176.58298553 5.92055 176.58298553 11.16064453 198.13012695 C13.63169201 201.39166065 16.30457809 203.91882322 19.71142578 206.17700195 C21.24863281 207.24047852 21.24863281 207.24047852 22.81689453 208.32543945 C27.31674105 210.85973963 31.60512307 210.62645271 36.64892578 210.42700195 C37.52355469 210.40895508 38.39818359 210.3909082 39.29931641 210.37231445 C41.43716686 210.32558548 43.57444624 210.25385636 45.71142578 210.17700195 C45.71142578 209.51700195 45.71142578 208.85700195 45.71142578 208.17700195 C47.02820313 208.0087793 47.02820313 208.0087793 48.37158203 207.8371582 C56.20170006 206.28945066 63.25574539 201.79527686 68.16064453 195.52075195 C80.29097167 177.18776383 85.94703802 146.00935432 81.96142578 124.30200195 C80.7216351 119.44687762 78.55136059 116.49855513 74.46533203 113.5637207 C67.10092369 109.85540161 57.35440613 112.10432932 49.71142578 114.17700195 C48.55835712 109.99688662 48.94755618 107.16269902 50.03955078 102.9934082 C50.34505859 101.81842773 50.65056641 100.64344727 50.96533203 99.43286133 C51.45839844 97.60464844 51.45839844 97.60464844 51.96142578 95.73950195 C52.27466797 94.52456055 52.58791016 93.30961914 52.91064453 92.05786133 C56.67806084 77.7932664 56.67806084 77.7932664 61.14892578 74.23950195 C63.71142578 73.17700195 63.71142578 73.17700195 65.96142578 73.36450195 C67.71142578 74.17700195 67.71142578 74.17700195 68.71142578 76.17700195 C68.86231796 80.77921342 68.61201231 84.67406932 67.71142578 89.17700195 C67.67751195 90.56204264 67.66891228 91.94784191 67.68017578 93.33325195 C67.69048828 94.60168945 67.70080078 95.87012695 67.71142578 97.17700195 C71.1696892 97.23489202 74.62782872 97.27056016 78.08642578 97.30200195 C79.56369141 97.32713867 79.56369141 97.32713867 81.07080078 97.3527832 C82.01181641 97.35922852 82.95283203 97.36567383 83.92236328 97.37231445 C84.7916748 97.38278809 85.66098633 97.39326172 86.55664062 97.40405273 C88.92488517 97.38295304 88.92488517 97.38295304 90.71142578 95.17700195 C93.07929636 87.88456482 93.00598581 76.65245378 90.46142578 69.36450195 C87.4328943 63.84824818 83.47002073 60.71612926 77.71142578 58.17700195 C69.10940976 56.30019846 57.79332677 56.13605146 49.71142578 60.17700195 Z M-42.28857422 60.17700195 C-45.06148147 70.5921582 -45.06148147 70.5921582 -46.28857422 81.17700195 C-34.40857422 81.50700195 -22.52857422 81.83700195 -10.28857422 82.17700195 C-9.24272419 86.36040205 -9.36641444 87.27187377 -10.69482422 91.1496582 C-11.02321289 92.12281982 -11.35160156 93.09598145 -11.68994141 94.09863281 C-12.05249023 95.13511963 -12.41503906 96.17160645 -12.78857422 97.23950195 C-13.15370117 98.30628174 -13.51882812 99.37306152 -13.89501953 100.47216797 C-16.21473839 107.20788842 -18.59592558 113.92237912 -21.03857422 120.61450195 C-21.30734375 121.35128174 -21.57611328 122.08806152 -21.85302734 122.84716797 C-23.1791697 126.41463752 -24.59861433 129.90529593 -26.18139648 133.36694336 C-28.22794808 137.94964814 -29.9733601 142.59870987 -31.64404297 147.3293457 C-32.09907196 148.60467918 -32.09907196 148.60467918 -32.56329346 149.90577698 C-33.53788899 152.64072986 -34.50723979 155.37750349 -35.47607422 158.11450195 C-36.14593206 159.99997029 -36.81593612 161.88538668 -37.48608398 163.77075195 C-39.42702402 169.23711613 -41.35959153 174.70640811 -43.28857422 180.17700195 C-43.69184937 181.32014862 -43.69184937 181.32014862 -44.10327148 182.48638916 C-45.65242317 186.88041214 -47.1929205 191.2773647 -48.72607422 195.67700195 C-49.09692139 196.73653076 -49.46776855 197.79605957 -49.84985352 198.88769531 C-50.34352417 200.31480835 -50.34352417 200.31480835 -50.84716797 201.77075195 C-51.12874756 202.5822168 -51.41032715 203.39368164 -51.70043945 204.22973633 C-52.38495128 206.15707428 -52.38495128 206.15707428 -52.28857422 208.17700195 C-49.05948416 208.23534548 -45.83053083 208.2707131 -42.60107422 208.30200195 C-41.6890625 208.31875977 -40.77705078 208.33551758 -39.83740234 208.3527832 C-33.18781576 208.63316373 -33.18781576 208.63316373 -27.28857422 206.17700195 C-24.22988541 200.47444116 -22.14761373 194.2500343 -20.05810547 188.1418457 C-19.76321732 187.28968979 -19.46832916 186.43753387 -19.164505 185.55955505 C-18.20048173 182.76718631 -17.24350137 179.97249379 -16.28857422 177.17700195 C-15.95662048 176.2059552 -15.62466675 175.23490845 -15.28265381 174.23443604 C-12.472819 166.0059332 -9.68073751 157.77142253 -6.89086914 149.53613281 C-5.84098176 146.43817057 -4.78946876 143.3407637 -3.73779297 140.2434082 C-3.42009445 139.30388809 -3.10239594 138.36436798 -2.77507019 137.39637756 C-1.611403 133.97074725 -0.45507333 130.57992378 0.92700195 127.23535156 C1.88948106 125.07690565 1.88948106 125.07690565 1.71142578 122.17700195 C2.37142578 122.17700195 3.03142578 122.17700195 3.71142578 122.17700195 C16.07209079 91.83423895 16.07209079 91.83423895 21.71142578 60.17700195 C0.59142578 60.17700195 -20.52857422 60.17700195 -42.28857422 60.17700195 Z " fill="#FCBD0E" transform="translate(116.28857421875,-0.177001953125)"/>
<path d="M0 0 C4.54011877 6.81017815 1.38259927 16.63312896 -0.125 24.1875 C-0.34655762 25.31502686 -0.56811523 26.44255371 -0.79638672 27.60424805 C-2.33901895 35.23765478 -4.10376117 42.79183376 -6.125 50.3125 C-6.36621582 51.21830811 -6.60743164 52.12411621 -6.85595703 53.05737305 C-8.38157097 58.51590083 -9.83024656 63.13160121 -14.25 66.9375 C-18.14640577 68.4429295 -20.23408729 67.63426401 -24 66 C-25.88457189 63.46375372 -26.00702361 62.12498824 -25.828125 58.94140625 C-25.63734375 57.82636719 -25.4465625 56.71132812 -25.25 55.5625 C-25.06953125 54.45003906 -24.8890625 53.33757812 -24.703125 52.19140625 C-24 49 -24 49 -23.07104492 46.79418945 C-21.73245441 43.30201522 -20.94856928 39.7467294 -20.16015625 36.1015625 C-19.81588832 34.55465787 -19.47148299 33.00778381 -19.12695312 31.4609375 C-18.59369246 29.04348916 -18.06262872 26.6255894 -17.53442383 24.20703125 C-17.01974049 21.85802511 -16.49662642 19.51101191 -15.97265625 17.1640625 C-15.81942398 16.45029449 -15.66619171 15.73652649 -15.50831604 15.00112915 C-12.97434614 3.7075426 -12.97434614 3.7075426 -8.6875 0 C-5.31250734 -1.25581122 -3.4191007 -1.06372022 0 0 Z " fill="#FDBE0F" transform="translate(172,128)"/>
</svg>
