<?xml version="1.0" encoding="UTF-8"?>
<svg id="Layer_1" xmlns="http://www.w3.org/2000/svg" version="1.1" xmlns:ffdec="https://www.free-decompiler.com/flash" viewBox="0 0 128 128">
  <!-- Generator: Adobe Illustrator 29.6.1, SVG Export Plug-In . SVG Version: 2.1.1 Build 9)  -->
  <defs>
    <style>
      .st0 {
        fill: #6c674e;
      }

      .st0, .st1, .st2, .st3, .st4, .st5, .st6, .st7 {
        fill-rule: evenodd;
      }

      .st1 {
        fill: #fff773;
      }

      .st2 {
        fill: #faf079;
      }

      .st3 {
        fill: #afafaf;
      }

      .st4 {
        fill: #d29456;
      }

      .st6 {
        fill: #0068ae;
      }

      .st7 {
        fill-opacity: 0;
      }
    </style>
  </defs>
  <g id="Sizer_mc" ffdec:characterId="2">
    <g id="sprite0">
      <g ffdec:characterId="1">
        <g id="shape0">
          <path class="st7" d="M0,0h127.99v127.99H0V0"/>
        </g>
      </g>
    </g>
  </g>
  <g ffdec:characterId="2893">
    <g id="shape1">
      <path class="st5" d="M64,57.55v1.2h.5l.2-.35v-.15c-.17-.13-.25-.32-.25-.55v-.15h-.45M99.95,115.2c.17.6.05,1.23-.35,1.9l-1.5,1.4-1.3.3c-1.13,0-2.17-.65-3.1-1.95l-.05-.05-3.9-9.9-.15-.1-5.8-7.15-.6.25h-1.55v.3l-.05.1-.65,1.1-1.35.6h-.05l-1.1.1-1-.55h-.95l-.5-.25h-8.05l-.55.25h-.95l-1,.55-1.1-.1h-.05l-1.35-.6-.65-1.05v-.45h-1.6c-.2,0-.37-.07-.5-.2l-.2-.5v-4.45h-20.2l-10.2,12.05-.15.15-3.9,9.75-.1.15c-.9,1.3-1.93,1.95-3.1,1.95l-1.25-.3c-.6-.3-1.1-.77-1.5-1.4-.4-.7-.52-1.33-.35-1.9l7.2-17.45c-.53-.37-.95-.92-1.25-1.65-.23-.63-.35-1.33-.35-2.1l-.45-.55c-.13-.13-.3-.28-.5-.45l-1.6.45-.55-.05-.35-.45-3.45-13,.1-.55.45-.35,3.6-.75v-8.8l-4.4,2.3-.65.05-.4-.5-1.25-5.65.05-.4.3-.35,6.35-4v-4.25l.2-.55.5-.2h.35v-2.1l.2-.5.5-.2h1.3v-2.25h-.65c-.2,0-.37-.08-.5-.25l-.2-.5v-5.95l.2-.5.5-.2h.35v-2.6c-.23-.17-.35-.38-.35-.65v-2.6c0-.27.12-.48.35-.65v-5.15l-.1-.35v-2.1l.1-.3v-4.4l-.15-.05c-.67-.6-1.07-1.72-1.2-3.35l-.7-.25c-.73-.53-1.1-1.77-1.1-3.7v-.1c0-.3.12-.52.35-.65l12.25-6.75.35-.1h13.5l.5.2.2.5v10.15c0,.2-.07.37-.2.5s-.3.2-.5.2h-1.15v4.6h.5l.5.2.2.5v2.05l-.2.5-.5.2h-2.35v2.4c0,.27-.1.47-.3.6v.05h.15l.5.2.2.5v.25l-.05.95c-.17.63-.43,1.15-.8,1.55l-.75.5v2.7l-.2.55c-.13.13-.3.2-.5.2h-1.45l-.5-.2-.2-.55v-2.8c-.5-.27-.9-.68-1.2-1.25l-.35-1.65v-.25l.15-.4.35-.25-.35-.25-.15-.45v-2.4h-6.6c-.2,0-.37-.07-.5-.2l-.2-.5v-2.05l.15-.45-.55-.3v17.65h.7l.5.2.25.5v.4h11.6l1.75-.7.7.1c.2.13.3.33.3.6v3.4l-.2.5-.5.2h-12.95v1.3l-.2.5c-.13.17-.3.25-.5.25h-.3c-.13.1-.28.15-.45.15h-.55v2.3l.4.65v.35h6.85c.2,0,.37.07.5.2l.2.5v1l.15.05h5.95c.23,0,.42.1.55.3l2.3,3.25.15.45v12.3h1.2c.2,0,.37.07.5.2l.2.55v1.75h4.85l.8-3.95v-3.2l.2-.5.5-.2h.9v-4.85h-2.1l-.5-.2-.2-.5v-4.75l.2-.5.5-.25h1.95c.23,0,.43.1.6.3l.25-.05h6.15l.5.2.2.55v.15h1.95l.5.2.2.5v1.2l-.2.55-.5.2h-1.95l-.25.4-.45.15h-.5v6.7h16.7l.85-1.55h-1.4c-.2,0-.37-.07-.5-.2l-.2-.5v-3.4l.2-.5.5-.2h9.55l.5.2.25.5v3.4l-.25.5c-.13.13-.3.2-.5.2h-2.1l-.85,1.55.35.3.15.4v3.35l.7,3.8h4.75v-1.75l.2-.55c.13-.13.3-.2.5-.2h2.05l.8.15.5.55.2.4-.05.4-.35.35-.1,8.15v7.35l-.05.2-.45,1-.05.3c-.4.9-1,1.67-1.8,2.3l-.45.6c0,.77-.12,1.47-.35,2.1-.27.73-.68,1.3-1.25,1.7l7.15,17.3.05.1M48.45,87.8c0,1.37.33,2.37,1,3l1.15.6.6.05h1.9v-4.3h2.65v4.3h4.2v-5.3h6.05v5.3h11.9v-5.3h6.1v5.3h4.4v-4.3h2.65v4.3h2.35c.63,0,1.2-.2,1.7-.6l.1-.55.5-.8v-4.85l-.4.4c-.6.53-1.38.85-2.35.95h-40.05l-.7.05c-1.27,0-2.27-.33-3-1l-.75-.95v3.7M85.9,78.45l-.4-1.05h-9v1.05h9.4M50.4,77.25v4.8l.05.4.3.75c.43.7,1.12,1.05,2.05,1.05h38.9c.93,0,1.62-.35,2.05-1.05l.35-1.15v-4.85l-1.95.4-1.05,1.35h-37.95l-1.05-1.35-1.7-.35M87.3,75.45l-.8-4.15h-3.9v4.15h4.7M50.4,76.2v.55l2,.45,1,1.25h4.45l.55-1.55h27.45l.55,1.55h4.45l1.05-1.25,2.2-.5v-.5h-6.05c-.2,0-.37-.08-.5-.25h-4.95v.1h-.45v-.1h-25.05c-.17.17-.35.25-.55.25h-6.15M85,73.4l-.35.1-.1.35.1.3.35.1.3-.1.15-.3-.15-.35-.3-.1M85,74.75l-.65-.25c-.2-.2-.3-.42-.3-.65,0-.27.1-.5.3-.7.17-.17.38-.25.65-.25l.65.25.25.7-.25.65-.65.25M57.3,75.45h2.35v-4.95h12.7v.3h14.1v-2.5h-.2c-.23,0-.42-.07-.55-.2h-3.3c-.13.13-.3.2-.5.2h-17.9c-.23,0-.42-.07-.55-.2h-3.85l-.55.2h-.85v2.55l-.9,4.6M83.75,67.2v.3h.95l.1-.1v-.2h-1.05M86.8,64.7l-1.4,2.6.15.05.05-.1,1.4-2.55h-.2M48.45,73.7v.95l.1,7.55c0,1.1.32,1.93.95,2.5.53.47,1.25.73,2.15.8h41.2c.9-.07,1.62-.33,2.15-.8l.7-1.05v-.45l-.05-.35.05-.65.15-8.5h-1v1.75l-.25.55v6.05l-.45,1.35c-.53.87-1.35,1.3-2.45,1.3h-38.9c-1.13,0-1.95-.43-2.45-1.3l-.35-.9-.1-.4v-6.1l-.25-.55v-1.75h-1.2M81.55,63.9h1.9l.55.25h3.35l.5-.25h1.85v-1.95h-8.15v1.95M88.9,91.3h1.65v-3.7h-1.65v3.7M64.3,71h-4.2v4.15h4.2v-4.15M83.35,66.7l1.1-2h-.3l-.05.25-1.3,2.4.2.05.25-.5v-.2h.1M71.85,73.45v-2.45h-7v2.45h7M64.95,73.95v.3h8.5v-.3h-8.5M82,90.3c.4.27.67.57.8.9h.7v-4.55h-5.1v4.55h.7c.2-.57.5-.9.9-1l.25-.55.05-1.05v-.25h1.65l-.05.25-.05,1.05.15.65M67.75,77.4h-9l-.4,1.05h9.4v-1.05M75.6,77.4h-6.95v.95h6.95v-.95M80.8,88.8c.03,1.17-.2,1.8-.7,1.9-.17.03-.32.18-.45.45l-.15.35-.05,2.7h3l-.1-2.6-.15-.5-.45-.4c-.33-.23-.45-.87-.35-1.9h-.6M82.85,92.1l.1,1.5h.9l-1-1.5M82.7,97.25v-2.35h-3.3v3.8h.95c.17-.17.35-.25.55-.25h1.6v-.7l.2-.5M79,91.95h-14.1v1.65h14.1v-1.65M77.4,97.85l.2-.3.5-.45c-.33-.53-.67-.83-1-.9l-.25,1.5.1,2.3.1.1h.35v-2.25M80.2,100.15v-.95h-1.3l-.05-1.85-.1.05.05.05h-.2c-.5.3-.73.77-.7,1.4v1.25c.17.03.32.12.45.25.23.3.47.4.7.3h.05l.85-.35.25-.15M83.75,97.3l5.5,6.75-.6-1.5-5-6.45v1.1l.1.1M76.2,99.85v-2.05h-8.7l-.05,2.05h8.75M61.5,93.55l.2.5v.1h1.25l1.5.05-.05-2.75-.15-.35-.45-.4c-.27-.07-.47-.32-.6-.75l-.1-1.15h-.6c.13,1.03.02,1.67-.35,1.9l-.45.4-.15.5-.1,1.9.05.05M60.4,91.2h.75c.1-.33.35-.63.75-.9l.15-.65c.03-.33.02-.68-.05-1.05l-.05-.25h1.65v.25l.05,1.05.25.55c.43.1.73.43.9,1h.75v-4.55h-5.15v4.55M63,98.45c.23,0,.42.08.55.25h.95v-3.8h-3l-.05.05v3.5h1.55M66,98.9c.03-.67-.18-1.15-.65-1.45h-.25l.05-.05-.1-.05-.05,1.85h-1.25v.95c.03.1.38.27,1.05.5h.05c.23.1.48,0,.75-.3.1-.13.23-.22.4-.25v-1.2M67,97.35l-.2-1.15c-.3.07-.63.37-1,.9l.7.75v2.25h.35l.1-.1.05-2.65M93.8,92.35l.05-.05v-.15h-10.4l2.95,4.45-1.1-2.7h5.05l1.2,2.85c.53-.17.92-.6,1.15-1.3l.2-1.7c0-.27.1-.47.3-.6l.35-.5.25-.3M94.3,91.9l.15-.15-.15.05v.1M97.45,117.2l.85-.8.25-.75-7.4-17.95c-.1-.2-.1-.38,0-.55v-.05l-1.15-2.75h-3.95l4.45,11.25.4.4,4.05,10.05c.6.87,1.22,1.3,1.85,1.3l.65-.15M89.05,97.1l.55-.25.25-.55-.25-.5c-.13-.17-.32-.25-.55-.25-.2,0-.37.08-.5.25l-.25.5.25.55c.13.17.3.25.5.25M89.05,95.1c.37,0,.67.12.9.35s.35.52.35.85l-.35.9c-.23.23-.53.35-.9.35l-.85-.35c-.23-.23-.35-.53-.35-.9,0-.33.12-.62.35-.85s.52-.35.85-.35M46.75,27.9v-.55h-.45l-.55-.25h-10.35c-.13.17-.3.25-.5.25h-1.05v.55h12.9M24.9,20.65c.07,1.53.32,2.5.75,2.9l.15.1.25.15h5.2v.1l.35.1,3.6,2,.35.45h10v-5.8h-20.65M23.3,79.4v8.4h1.95v-15.55h-1.15v-2.65h1.05v-7.95h-1.7l-.15.2v5.9c.17.13.25.3.25.5v10.6l-.25.55M39.45,12.55v6.05h5.5v-6.05h-5.5M39,19.05v-7h6.4v7h-6.4M24.75,20.1h21l.55-.25h1.1v-8.65h-12.55l-11.7,6.45.25,1.8.25.4h.55l.55.25M26.3,25.75h4.25v-1.15l.05-.25h-4.3v1.4M43.8,34.8c.23-.23.38-.55.45-.95h-.15c-.2,0-.37-.08-.5-.25h-1.85c-.13.17-.3.25-.5.25h-.05c.17.67.5,1.08,1,1.25l.35.25h.3l.35-.2c.23-.07.43-.18.6-.35M30.55,26.2h-4.25v3.2h4.25v-3.2M30.55,38.1h-4.45l-.05.05v1.6l.05.05h4.45v-1.7M30.55,29.9h-4.35v1.15h4.35v-1.15M30.55,31.5h-4.25v6.15h4.25v-6.15M43.3,38.95v-3.1h-1.15v3.1h1.15M43.4,31.75h-1.45v1.15h1.45v-1.15M41.65,31.2h2l.05-.05v-2.5h-2.55v2.4h.1l.4.15M30.55,40.25h-4.25v3.95h4.25v-3.95M32.2,45.85l-.75.25c-.33.2-.5.48-.5.85,0,.47.23.83.7,1.1l.7.25.2.05v.3l.15-.05v-.6l.2-.5.55-.25h12.9v-1.6l-.9.35-.25.05h-12.5c-.17,0-.33-.07-.5-.2M32,45.35v-.4h-.75c-.2,0-.37-.08-.5-.25h-4.65c-.13.17-.32.25-.55.25h-.3v4.5h.65l.5.25h4.5l.5-.25h.6l.05-.7-1.05-.6c-.37-.33-.55-.73-.55-1.2s.18-.83.55-1.1c.27-.23.6-.4,1-.5M38.65,55.65h-6.8c-.23,0-.42-.08-.55-.25h-4.95v3.35h1.55v-2.55h9.05v2.55h.9l.95-2-.15-.4v-.7M30.7,50.25h-4.1v3.3h4.1v-3.3M24.6,54.6v2.1h1.3v-1.8h5.2v-.4l-.2-.15h-4.5c-.13.17-.3.25-.5.25h-1.3M23.55,57.4v3.75h1.65l1.25-1.9h-.55v-2.1h-1.5c-.13.17-.32.25-.55.25h-.3M36.75,60.95h-9.45v.4h9.25l.2-.4M27.9,60.45v-1.2h-.9l-1.35,2.15v8.2h.85v-8.2h.35v-.95h1.05M39.75,57.3l-.55-.25-4.4,8.95.7.35,4.45-8.95-.2-.1M28.35,60.45h8.15v-3.75h-8.15v3.75M39.2,69.6h1.95v-7.05h-1.95v7.05M25.7,89.2l.1.25c.2.27.65.4,1.35.4h17.15v-29.95h-5.05l-.5,1v.5h.45v.65h2.4v7.55h1.65v2.65h-4.05v.1h-4.25v3.85h1v3.55h3.75v8.4h-9.5v-8.4h2.9v-3.25h-1.05v-2.05l-1.95,3.9-1.55-.75,2.55-5.25h-4.6v-.1h-.8v16.95M36.95,60.45h.05l.6-1.2h-.65v1.2M38.75,71.85v-9.95h-.5l-2.35,4.75,1.3.6-.95,1.95-1.3-.65-1.6,3.3h5.4M40.5,57.4l-1,2h5.25v2.2h3v-1.45l-1.95-2.75h-5.3M32.55,64.95l1.8.9,1.95-3.95h-9.3v9.95h4.35l2-4.05-1.8-.9,1-1.95M59.8,58.1c0,.17-.05.32-.15.45l.15.45v8.45h3.45v-7.95l.25-.55v-1.4h-3.7v.55M47.95,73.45h-.4l.25-.2-.05-.25v-10.95h-3v25.5h3.15l.1-.1v-12.7l-.05-1.25v-.05M57.45,59l.15-.45-.15-.45v-.8h-.45v3.3h.45v-1.6M24.65,91.45h21.5c.63,0,1.08-.15,1.35-.45l.25-.6v-2.4h-3v2.35h-17.6c-.87,0-1.45-.2-1.75-.6-.17-.23-.22-.5-.15-.8v-.7h-1.95v1.1c0,.67.2,1.2.6,1.6l.75.5M55.3,87.6h-1.7v3.7h1.7v-3.7M42.75,70.1h-3.55v1.7h3.55v-1.7M34.45,76.05v-3.7h-1.35l-.55,1.1v2.6h1.9M36.55,67.5l-3.8-1.9-.55,1.1,3.85,1.85.5-1.05M32.75,72l-.1-.15h.15l1.6-3.3-.7-.3-4.5,9.1.7.4,2.85-5.75M26.45,70.1h-1.85v1.7h1.85v-1.7M39.5,93.3l.45-.5h-1.2l-8.2,9.75-.65,1.65,9-10.65c.13-.17.32-.25.55-.25h.05M35.45,82.65v-5.95h-1.85v5.95h1.85M35.95,80.95h.95v2h-.95v.15h-2.85v-2.9h-2.4v7.5h8.5v-7.5h-3.25v.75M35.35,93.6h2.05l1.4-1.65h-2.35l-1.1,1.65M61,93.3l.05-1.35h-9.9l-.8-.1-1.2-.7-.95-1.55v.45c.07,0,.08.13.05.4-.03.33-.15.62-.35.85-.37.43-.95.65-1.75.65h-4.95l-1.15,1.35h20.95M30.1,95.1c.37,0,.67.12.9.35s.35.52.35.85c0,.37-.12.67-.35.9-.23.23-.53.35-.9.35-.33,0-.62-.12-.85-.35-.23-.23-.35-.53-.35-.9,0-.33.12-.62.35-.85s.52-.35.85-.35M30.1,97.1l.55-.25.2-.55-.2-.5c-.13-.17-.32-.25-.55-.25-.2,0-.37.08-.5.25l-.25.5.25.55.5.25M26.3,93.75c-.07.6,0,1.17.2,1.7.23.67.62,1.1,1.15,1.3l1.2-2.85h5.05l-1.1,2.7,2.95-4.45h-10.4v.15l.05.1.25.3.35.45c.2.13.3.33.3.6M28.7,105.6l4.45-11.25h-3.95l-1.15,2.75v.05c.1.17.1.35,0,.55l-7.4,17.95.25.75.85.8.6.15c.67,0,1.3-.42,1.9-1.25l4-10.1.45-.4M22.6,91.9l1.05-.3-.25-.45h.05c-.43-.5-.65-1.1-.65-1.8v-9.75l-3.25.7,3.05,11.6M17.85,70.1l4.65-2.45.3-.1v-5.35l-5.85,3.7.9,4.2"/>
      <path class="st0" d="M64,57.55h.45v.15c0,.23.08.42.25.55v.15l-.2.35h-.5v-1.2M81.55,63.9v-1.95h8.15v1.95h-1.85l-.5.25h-3.35l-.55-.25h-1.9M48.45,73.7h1.2v1.75l.25.55v6.1l.1.4.35.9c.5.87,1.32,1.3,2.45,1.3h38.9c1.1,0,1.92-.43,2.45-1.3l.45-1.35v-6.05l.25-.55v-1.75h1l-.15,8.5-.05.65.05.35v.45l-.7,1.05c-.53.47-1.25.73-2.15.8h-41.2c-.9-.07-1.62-.33-2.15-.8-.63-.57-.95-1.4-.95-2.5l-.1-7.55v-.95M86.8,64.7h.2l-1.4,2.55-.05.1-.15-.05,1.4-2.6M83.75,67.2h1.05v.2l-.1.1h-.95v-.3M57.3,75.45l.9-4.6v-2.55h.85l.55-.2h3.85c.13.13.32.2.55.2h17.9c.2,0,.37-.07.5-.2h3.3c.13.13.32.2.55.2h.2v2.5h-14.1v-.3h-12.7v4.95h-2.35M85,74.75l.65-.25.25-.65-.25-.7-.65-.25c-.27,0-.48.08-.65.25-.2.2-.3.43-.3.7,0,.23.1.45.3.65l.65.25M85,73.4l.3.1.15.35-.15.3-.3.1-.35-.1-.1-.3.1-.35.35-.1M50.4,76.2h6.15c.2,0,.38-.08.55-.25h25.05v.1h.45v-.1h4.95c.13.17.3.25.5.25h6.05v.5l-2.2.5-1.05,1.25h-4.45l-.55-1.55h-27.45l-.55,1.55h-4.45l-1-1.25-2-.45v-.55M87.3,75.45h-4.7v-4.15h3.9l.8,4.15M50.4,77.25l1.7.35,1.05,1.35h37.95l1.05-1.35,1.95-.4v4.85l-.35,1.15c-.43.7-1.12,1.05-2.05,1.05h-38.9c-.93,0-1.62-.35-2.05-1.05l-.3-.75-.05-.4v-4.8M85.9,78.45h-9.4v-1.05h9l.4,1.05M48.45,87.8v-3.7l.75.95c.73.67,1.73,1,3,1l.7-.05h40.05c.97-.1,1.75-.42,2.35-.95l.4-.4v4.85l-.5.8-.1.55c-.5.4-1.07.6-1.7.6h-2.35v-4.3h-2.65v4.3h-4.4v-5.3h-6.1v5.3h-11.9v-5.3h-6.05v5.3h-4.2v-4.3h-2.65v4.3h-1.9l-.6-.05-1.15-.6c-.67-.63-1-1.63-1-3M83.35,66.7h-.1v.2l-.25.5-.2-.05,1.3-2.4.05-.25h.3l-1.1,2M64.3,71v4.15h-4.2v-4.15h4.2M75.6,77.4v.95h-6.95v-.95h6.95M67.75,77.4v1.05h-9.4l.4-1.05h9M82,90.3l-.15-.65.05-1.05.05-.25h-1.65v.25l-.05,1.05-.25.55c-.4.1-.7.43-.9,1h-.7v-4.55h5.1v4.55h-.7c-.13-.33-.4-.63-.8-.9M82.85,92.1l1,1.5h-.9l-.1-1.5M79,91.95v1.65h-14.1v-1.65h14.1M60.4,91.2v-4.55h5.15v4.55h-.75c-.17-.57-.47-.9-.9-1l-.25-.55-.05-1.05v-.25h-1.65l.05.25c.07.37.08.72.05,1.05l-.15.65c-.4.27-.65.57-.75.9h-.75M94.3,91.9v-.1l.15-.05-.15.15M24.75,20.1l-.55-.25h-.55l-.25-.4-.25-1.8,11.7-6.45h12.55v8.65h-1.1l-.55.25h-21M39,19.05h6.4v-7h-6.4v7M39.45,12.55h5.5v6.05h-5.5v-6.05M23.3,79.4l.25-.55v-10.6c0-.2-.08-.37-.25-.5v-5.9l.15-.2h1.7v7.95h-1.05v2.65h1.15v15.55h-1.95v-8.4M24.9,20.65h20.65v5.8h-10l-.35-.45-3.6-2-.35-.1v-.1h-5.2l-.25-.15-.15-.1c-.43-.4-.68-1.37-.75-2.9M46.75,27.9h-12.9v-.55h1.05c.2,0,.37-.08.5-.25h10.35l.55.25h.45v.55M30.55,26.2v3.2h-4.25v-3.2h4.25M30.55,31.5v6.15h-4.25v-6.15h4.25M30.55,40.25v3.95h-4.25v-3.95h4.25M30.7,50.25v3.3h-4.1v-3.3h4.1M38.65,55.65v.7l.15.4-.95,2h-.9v-2.55h-9.05v2.55h-1.55v-3.35h4.95c.13.17.32.25.55.25h6.8M27.9,60.45h-1.05v.95h-.35v8.2h-.85v-8.2l1.35-2.15h.9v1.2M36.75,60.95l-.2.4h-9.25v-.4h9.45M36.95,60.45v-1.2h.65l-.6,1.2h-.05M25.7,89.2v-16.95h.8v.1h4.6l-2.55,5.25,1.55.75,1.95-3.9v2.05h1.05v3.25h-2.9v8.4h9.5v-8.4h-3.75v-3.55h-1v-3.85h4.25v-.1h4.05v-2.65h-1.65v-7.55h-2.4v-.65h-.45v-.5l.5-1h5.05v29.95h-17.15c-.7,0-1.15-.13-1.35-.4l-.1-.25M39.2,69.6v-7.05h1.95v7.05h-1.95M47.95,73.45v.05l.05,1.25v12.7l-.1.1h-3.15v-25.5h3v10.95l.05.25-.25.2h.4M59.8,58.1v-.55h3.7v1.4l-.25.55v7.95h-3.45v-8.45l-.15-.45c.1-.13.15-.28.15-.45M42.75,70.1v1.7h-3.55v-1.7h3.55M26.45,70.1v1.7h-1.85v-1.7h1.85M61,93.3h-20.95l1.15-1.35h4.95c.8,0,1.38-.22,1.75-.65.2-.23.32-.52.35-.85.03-.27.02-.4-.05-.4v-.45l.95,1.55,1.2.7.8.1h9.9l-.05,1.35M35.35,93.6l1.1-1.65h2.35l-1.4,1.65h-2.05M17.85,70.1l-.9-4.2,5.85-3.7v5.35l-.3.1-4.65,2.45M22.6,91.9l-3.05-11.6,3.25-.7v9.75c0,.7.22,1.3.65,1.8h-.05l.25.45-1.05.3"/>
      <path class="st3" d="M88.9,91.3v-3.7h1.65v3.7h-1.65M64.95,73.95h8.5v.3h-8.5v-.3M71.85,73.45h-7v-2.45h7v2.45M76.2,99.85h-8.75l.05-2.05h8.7v2.05M83.75,97.3l-.1-.1v-1.1l5,6.45.6,1.5-5.5-6.75M93.8,92.35l-.25.3-.35.5c-.2.13-.3.33-.3.6l-.2,1.7c-.23.7-.62,1.13-1.15,1.3l-1.2-2.85h-5.05l1.1,2.7-2.95-4.45h10.4v.15l-.05.05M89.05,95.1c-.33,0-.62.12-.85.35s-.35.52-.35.85c0,.37.12.67.35.9l.85.35c.37,0,.67-.12.9-.35l.35-.9c0-.33-.12-.62-.35-.85s-.53-.35-.9-.35M89.05,97.1c-.2,0-.37-.08-.5-.25l-.25-.55.25-.5c.13-.17.3-.25.5-.25.23,0,.42.08.55.25l.25.5-.25.55-.55.25M97.45,117.2l-.65.15c-.63,0-1.25-.43-1.85-1.3l-4.05-10.05-.4-.4-4.45-11.25h3.95l1.15,2.75v.05c-.1.17-.1.35,0,.55l7.4,17.95-.25.75-.85.8M43.8,34.8c-.17.17-.37.28-.6.35l-.35.2h-.3l-.35-.25c-.5-.17-.83-.58-1-1.25h.05c.2,0,.37-.08.5-.25h1.85c.13.17.3.25.5.25h.15c-.07.4-.22.72-.45.95M26.3,25.75v-1.4h4.3l-.05.25v1.15h-4.25M30.55,29.9v1.15h-4.35v-1.15h4.35M30.55,38.1v1.7h-4.45l-.05-.05v-1.6l.05-.05h4.45M41.65,31.2l-.4-.15h-.1v-2.4h2.55v2.5l-.05.05h-2M43.4,31.75v1.15h-1.45v-1.15h1.45M43.3,38.95h-1.15v-3.1h1.15v3.1M32,45.35c-.4.1-.73.27-1,.5-.37.27-.55.63-.55,1.1s.18.87.55,1.2l1.05.6-.05.7h-.6l-.5.25h-4.5l-.5-.25h-.65v-4.5h.3c.23,0,.42-.08.55-.25h4.65c.13.17.3.25.5.25h.75v.4M32.2,45.85c.17.13.33.2.5.2h12.5l.25-.05.9-.35v1.6h-12.9l-.55.25-.2.5v.6l-.15.05v-.3l-.2-.05-.7-.25c-.47-.27-.7-.63-.7-1.1,0-.37.17-.65.5-.85l.75-.25M24.6,54.6h1.3c.2,0,.37-.08.5-.25h4.5l.2.15v.4h-5.2v1.8h-1.3v-2.1M28.35,60.45v-3.75h8.15v3.75h-8.15M39.75,57.3l.2.1-4.45,8.95-.7-.35,4.4-8.95.55.25M38.75,71.85h-5.4l1.6-3.3,1.3.65.95-1.95-1.3-.6,2.35-4.75h.5v9.95M32.55,64.95l-1,1.95,1.8.9-2,4.05h-4.35v-9.95h9.3l-1.95,3.95-1.8-.9M57.45,59v1.6h-.45v-3.3h.45v.8l.15.45-.15.45M55.3,87.6v3.7h-1.7v-3.7h1.7M32.75,72l-2.85,5.75-.7-.4,4.5-9.1.7.3-1.6,3.3h-.15l.1.15M36.55,67.5l-.5,1.05-3.85-1.85.55-1.1,3.8,1.9M34.45,76.05h-1.9v-2.6l.55-1.1h1.35v3.7M35.95,80.95v-.75h3.25v7.5h-8.5v-7.5h2.4v2.9h2.85v-.15h.95v-2h-.95M35.45,82.65h-1.85v-5.95h1.85v5.95M39.5,93.3h-.05c-.23,0-.42.08-.55.25l-9,10.65.65-1.65,8.2-9.75h1.2l-.45.5M28.7,105.6l-.45.4-4,10.1c-.6.83-1.23,1.25-1.9,1.25l-.6-.15-.85-.8-.25-.75,7.4-17.95c.1-.2.1-.38,0-.55v-.05l1.15-2.75h3.95l-4.45,11.25M26.3,93.75c0-.27-.1-.47-.3-.6l-.35-.45-.25-.3-.05-.1v-.15h10.4l-2.95,4.45,1.1-2.7h-5.05l-1.2,2.85c-.53-.2-.92-.63-1.15-1.3-.2-.53-.27-1.1-.2-1.7M30.1,97.1l-.5-.25-.25-.55.25-.5c.13-.17.3-.25.5-.25.23,0,.42.08.55.25l.2.5-.2.55-.55.25M30.1,95.1c-.33,0-.62.12-.85.35s-.35.52-.35.85c0,.37.12.67.35.9.23.23.52.35.85.35.37,0,.67-.12.9-.35.23-.23.35-.53.35-.9,0-.33-.12-.62-.35-.85s-.53-.35-.9-.35"/>
      <path class="st1" d="M80.8,88.8h.6c-.1,1.03.02,1.67.35,1.9l.45.4.15.5.1,2.6h-3l.05-2.7.15-.35c.13-.27.28-.42.45-.45.5-.1.73-.73.7-1.9M82.7,97.25l-.2.5v.7h-1.6c-.2,0-.38.08-.55.25h-.95v-3.8h3.3v2.35M80.2,100.15l-.25.15-.85.35h-.05c-.23.1-.47,0-.7-.3-.13-.13-.28-.22-.45-.25v-1.25c-.03-.63.2-1.1.7-1.4h.2l-.05-.05.1-.05.05,1.85h1.3v.95M77.4,97.85v2.25h-.35l-.1-.1-.1-2.3.25-1.5c.33.07.67.37,1,.9l-.5.45-.2.3M61.5,93.55l-.05-.05.1-1.9.15-.5.45-.4c.37-.23.48-.87.35-1.9h.6l.1,1.15c.13.43.33.68.6.75l.45.4.15.35.05,2.75-1.5-.05h-1.25v-.1l-.2-.5M67,97.35l-.05,2.65-.1.1h-.35v-2.25l-.7-.75c.37-.53.7-.83,1-.9l.2,1.15M66,98.9v1.2c-.17.03-.3.12-.4.25-.27.3-.52.4-.75.3h-.05c-.67-.23-1.02-.4-1.05-.5v-.95h1.25l.05-1.85.1.05-.05.05h.25c.47.3.68.78.65,1.45M63,98.45h-1.55v-3.5l.05-.05h3v3.8h-.95c-.13-.17-.32-.25-.55-.25M23.55,57.4h.3c.23,0,.42-.08.55-.25h1.5v2.1h.55l-1.25,1.9h-1.65v-3.75M40.5,57.4h5.3l1.95,2.75v1.45h-3v-2.2h-5.25l1-2M24.65,91.45l-.75-.5c-.4-.4-.6-.93-.6-1.6v-1.1h1.95v.7c-.07.3-.02.57.15.8.3.4.88.6,1.75.6h17.6v-2.35h3v2.4l-.25.6c-.27.3-.72.45-1.35.45h-21.5"/>
      <path class="st5" d="M64.55,20.25l-4.9-12.2-.1-.05-.25-.8-.45-.8c-.2-.23-.48-.35-.85-.35-.4,0-.6.18-.6.55l.15.25.1.25,1,2.2c8.73,19.07,13.62,37.02,14.65,53.85.27,4.87.38,10.25.35,16.15l-.55,16.15-.6,13.2-.8,13.1-.15,1.5v1.5c.07.37.28.55.65.55s.62-.18.75-.55v-.25l.15-2.65.65-8.3c.63-9.37.98-18.25,1.05-26.65l-.2-15.1c-.2-5.47-.62-10.48-1.25-15.05-1-7.53-2.48-15.3-4.45-23.3l-2-6.65-2.35-6.55M59.85,6.85l.3.85.15.05.05.05.5,1.2,6.55,16.75,2.3,7.65,1.75,7.8c2.13,10.37,3.4,20.02,3.8,28.95.47,9.6.42,20.27-.15,32l-1.3,20.5v1.2l-.3,1.1c-.17.3-.53.53-1.1.7-.57.13-1,.07-1.3-.2-.2-.1-.3-.32-.3-.65l.05-.85.5-9.05.85-15.9.55-15.95c.1-6.87.03-12.57-.2-17.1-.27-6.23-.88-11.92-1.85-17.05-1.77-9.5-4.63-19.33-8.6-29.5-1.5-3.87-3.1-7.63-4.8-11.3l-.45-.85-.05-.95c.17-.23.5-.42,1-.55l1.45.05.6,1.05"/>
      <path class="st4" d="M64.55,20.25l2.35,6.55,2,6.65c1.97,8,3.45,15.77,4.45,23.3.63,4.57,1.05,9.58,1.25,15.05l.2,15.1c-.07,8.4-.42,17.28-1.05,26.65l-.65,8.3-.15,2.65v.25c-.13.37-.38.55-.75.55s-.58-.18-.65-.55v-1.5l.15-1.5.8-13.1.6-13.2.55-16.15c.03-5.9-.08-11.28-.35-16.15-1.03-16.83-5.92-34.78-14.65-53.85l-1-2.2-.1-.25-.15-.25c0-.37.2-.55.6-.55.37,0,.65.12.85.35l.45.8.25.8.1.05,4.9,12.2"/>
    </g>
  </g>
  <g ffdec:characterId="2894">
    <g id="shape2">
      <path class="st5" d="M122.9,5.45l.55.05.35.55-.25.7-.55.35h-.05c-1.87.87-4.22,1.62-7.05,2.25l-7.5,1.35-7.35,1.5c-5.43,1.53-10.5,4.53-15.2,9l-5.55,5.8-5.65,5.65c-1.67,1.53-3.32,2.8-4.95,3.8l-.65.1c-.27-.07-.4-.25-.4-.55.03-2.27-.2-4.47-.7-6.6-.53-2.2-1.3-4.23-2.3-6.1l-2-3.2-.65-.85-.15-.1-.1-.15c-.27-.33-.23-.72.1-1.15l.95-.6,3.4-1.3,3.2-1.5,6.55-3.85c2.73-1.63,4.97-2.85,6.7-3.65,5.03-2.3,10.82-3.23,17.35-2.8l7.85.8,7.85.7,6.2-.2M63.5,18.25c1,1,2,2.45,3,4.35,2.07,3.9,3.08,8.28,3.05,13.15,1.97-1.33,4.05-3.05,6.25-5.15l5.8-5.95,5.9-5.8c2.17-1.97,4.28-3.48,6.35-4.55,1.97-1.13,4.28-2.05,6.95-2.75l7.35-1.55,7.5-1.4c2.8-.63,5.18-1.42,7.15-2.35l-7.95.2-8.15-.85-8.1-.6-7.8.55c-2.2.43-4.55,1.23-7.05,2.4l-6.75,3.65-6.6,3.8c-2.5,1.33-4.8,2.28-6.9,2.85"/>
      <path class="st6" d="M63.5,18.25c2.1-.57,4.4-1.52,6.9-2.85l6.6-3.8,6.75-3.65c2.5-1.17,4.85-1.97,7.05-2.4l7.8-.55,8.1.6,8.15.85,7.95-.2c-1.97.93-4.35,1.72-7.15,2.35l-7.5,1.4-7.35,1.55c-2.67.7-4.98,1.62-6.95,2.75-2.07,1.07-4.18,2.58-6.35,4.55l-5.9,5.8-5.8,5.95c-2.2,2.1-4.28,3.82-6.25,5.15.03-4.87-.98-9.25-3.05-13.15-1-1.9-2-3.35-3-4.35M67,19.55c.93,1.5,1.75,3.13,2.45,4.9.83,2.27,1.4,4.7,1.7,7.3,2.03-1.63,4.82-4.3,8.35-8,3.63-3.9,6.38-6.58,8.25-8.05,2.63-2.2,5.7-3.97,9.2-5.3,3-1.17,6.42-2.07,10.25-2.7l-11.25-.4c-3.9.23-7.33,1-10.3,2.3-2.07.87-5.17,2.53-9.3,5-4,2.4-7.12,4.05-9.35,4.95"/>
      <path class="st2" d="M67,19.55c2.23-.9,5.35-2.55,9.35-4.95,4.13-2.47,7.23-4.13,9.3-5,2.97-1.3,6.4-2.07,10.3-2.3l11.25.4c-3.83.63-7.25,1.53-10.25,2.7-3.5,1.33-6.57,3.1-9.2,5.3-1.87,1.47-4.62,4.15-8.25,8.05-3.53,3.7-6.32,6.37-8.35,8-.3-2.6-.87-5.03-1.7-7.3-.7-1.77-1.52-3.4-2.45-4.9"/>
    </g>
  </g>
</svg>