<?xml version="1.0" standalone="no"?>
<!DOCTYPE svg PUBLIC "-//W3C//DTD SVG 20010904//EN"
 "http://www.w3.org/TR/2001/REC-SVG-20010904/DTD/svg10.dtd">
<svg version="1.0" xmlns="http://www.w3.org/2000/svg"
 width="133.000000pt" height="132.000000pt" viewBox="0 0 133.000000 132.000000"
 preserveAspectRatio="xMidYMid meet">

<g transform="translate(0.000000,132.000000) scale(0.100000,-0.100000)"
fill="#000000" stroke="none">
<path d="M1100 1301 c-17 -5 -29 -19 -40 -48 -8 -23 -23 -50 -33 -60 -9 -11
-17 -25 -17 -31 0 -21 -16 -13 -64 29 -45 40 -47 41 -67 23 -11 -9 -18 -22
-16 -27 2 -6 -13 -25 -32 -43 -30 -27 -33 -34 -22 -47 7 -9 10 -20 7 -26 -3
-5 11 -20 31 -32 63 -38 73 -67 40 -113 -31 -43 -47 -76 -47 -95 0 -19 93 -91
118 -91 20 0 72 52 72 72 0 19 20 38 40 38 9 0 27 -12 41 -26 54 -58 109 -65
144 -20 35 46 47 82 31 95 -7 6 -16 8 -20 4 -4 -4 -4 0 -1 8 5 13 -54 72 -114
116 -2 1 8 20 23 41 14 21 26 45 26 54 0 9 5 20 10 23 6 4 8 10 5 15 -3 4 2
11 11 14 9 4 14 9 11 13 -4 3 -2 12 4 19 9 11 5 16 -14 23 -14 6 -31 19 -37
31 -6 11 -16 20 -22 20 -6 0 -19 6 -27 13 -10 9 -26 11 -41 8z"/>
<path d="M543 1293 c-13 -2 -33 -23 -48 -48 -36 -62 -60 -74 -86 -41 -33 41
-53 41 -111 -2 -76 -56 -84 -68 -58 -82 19 -10 45 -55 42 -72 -1 -3 5 -12 13
-18 19 -16 20 -50 2 -50 -14 0 -97 -92 -97 -107 0 -5 -13 -19 -30 -31 -16 -13
-30 -32 -30 -43 0 -28 18 -59 34 -59 7 0 27 -14 44 -30 18 -17 38 -30 45 -30
15 0 77 72 77 89 0 6 4 11 8 11 5 0 25 16 46 36 l37 35 26 -30 c15 -17 31 -31
35 -31 16 0 138 102 138 115 0 8 -11 22 -23 32 -13 10 -27 35 -31 55 -6 32 -3
41 24 71 16 19 30 41 30 49 0 8 14 29 32 46 l31 33 -28 29 c-16 17 -35 30 -42
30 -7 0 -13 7 -13 15 0 12 -32 38 -42 34 -2 -1 -13 -4 -25 -6z"/>
<path d="M125 589 c-4 -6 -13 -8 -20 -5 -21 8 -97 -54 -89 -73 3 -9 10 -30 15
-47 5 -18 16 -37 24 -44 8 -7 15 -18 15 -25 0 -7 16 -27 35 -44 19 -17 35 -36
35 -44 0 -16 61 -77 78 -77 6 0 21 -13 34 -30 12 -16 25 -30 30 -30 4 0 30
-16 57 -35 26 -19 52 -35 56 -35 4 0 19 -8 33 -18 49 -34 133 -54 247 -58 61
-3 115 -6 122 -9 7 -2 15 0 18 5 3 5 12 7 20 3 9 -3 22 0 29 6 8 7 29 13 48
14 57 4 147 56 242 139 50 44 94 88 97 97 4 9 18 27 32 41 14 14 27 39 29 55
3 25 -1 31 -22 33 -14 2 -29 10 -33 18 -4 8 -25 23 -46 33 -37 19 -38 19 -69
1 -20 -12 -30 -25 -26 -34 4 -9 -16 -37 -51 -73 -32 -32 -65 -66 -73 -76 -9
-10 -22 -15 -29 -13 -7 3 -16 0 -20 -7 -18 -28 -125 -52 -238 -52 -103 0 -131
5 -187 36 -10 5 -24 9 -31 9 -8 0 -22 9 -32 20 -10 11 -22 17 -26 14 -5 -3
-13 6 -19 21 -5 14 -18 29 -29 33 -10 4 -31 22 -46 40 -15 17 -31 32 -36 32
-12 0 -68 62 -69 75 0 6 -16 34 -35 63 -34 50 -57 64 -70 41z"/>
</g>
</svg>
