<svg xmlns:ffdec="https://www.free-decompiler.com/flash" xmlns:xlink="http://www.w3.org/1999/xlink" ffdec:objectType="frame" xmlns="http://www.w3.org/2000/svg" viewBox="-0.02 -0.02 128.03 128.03">
  <g transform="matrix(1.0, 0.0, 0.0, 1.0, 64.0, 64.5)">
    <use ffdec:characterId="2" height="128.0" id="Sizer_mc" transform="matrix(1.0, 0.0, 0.0, 1.0, -64.0, -64.5)" width="128.0" xlink:href="#sprite0"/>
    <use ffdec:characterId="79" height="104.5" transform="matrix(1.0, 0.0, 0.0, 1.0, -52.25, -52.75)" width="104.5" xlink:href="#shape1"/>
    <use ffdec:characterId="2720" height="92.65" transform="matrix(0.8544, 0.0, 0.0, 0.8544, -32.5108, -26.789)" width="79.8" xlink:href="#sprite1"/>
    <use ffdec:characterId="2722" height="49.75" transform="matrix(-0.285, -0.5673, 0.5673, -0.285, 6.3267, 33.7574)" width="15.65" xlink:href="#sprite2"/>
    <use ffdec:characterId="2722" height="49.75" transform="matrix(-0.1062, 0.6301, -0.6301, -0.1062, -5.2632, 18.8234)" width="15.65" xlink:href="#sprite2"/>
    <use ffdec:characterId="2727" height="54.7" transform="matrix(0.7457, -0.1539, 0.1539, 0.7457, -62.077, -25.0649)" width="152.3" xlink:href="#sprite3"/>
    <use ffdec:characterId="2722" height="49.75" transform="matrix(-0.3657, -0.8145, 0.8145, -0.3657, 9.3621, 21.1418)" width="15.65" xlink:href="#sprite2"/>
    <use ffdec:characterId="2722" height="49.75" transform="matrix(-0.1329, 0.8888, -0.8888, -0.1329, -6.3254, 1.3705)" width="15.65" xlink:href="#sprite2"/>
  </g>
  <defs>
    <g id="sprite0" transform="matrix(1.0, 0.0, 0.0, 1.0, 64.0, 64.0)">
      <use ffdec:characterId="1" height="181.6" transform="matrix(0.7048, 0.0, 0.0, 0.7048, -64.0003, -64.0003)" width="181.6" xlink:href="#shape0"/>
    </g>
    <g id="shape0" transform="matrix(1.0, 0.0, 0.0, 1.0, 90.8, 90.8)">
      <path d="M-90.8 -90.8 L90.8 -90.8 90.8 90.8 -90.8 90.8 -90.8 -90.8" fill="#000000" fill-opacity="0.003921569" fill-rule="evenodd" stroke="none"/>
    </g>
    <g id="shape1" transform="matrix(1.0, 0.0, 0.0, 1.0, 52.25, 52.25)">
      <path d="M52.25 0.0 Q52.25 21.65 36.95 36.95 21.65 52.25 0.0 52.25 -21.65 52.25 -36.95 36.95 -52.25 21.65 -52.25 0.0 -52.25 -21.65 -36.95 -36.95 -21.65 -52.25 0.0 -52.25 21.65 -52.25 36.95 -36.95 52.25 -21.65 52.25 0.0" fill="none" fill-opacity="0.32941177" fill-rule="evenodd" stroke="none"/>
    </g>
    <g id="sprite1" transform="matrix(1.0, 0.0, 0.0, 1.0, 40.8, 48.85)">
      <use ffdec:characterId="2719" height="92.65" transform="matrix(1.0, 0.0, 0.0, 1.0, -40.8, -48.85)" width="79.8" xlink:href="#shape2"/>
    </g>
    <g id="shape2" transform="matrix(1.0, 0.0, 0.0, 1.0, 40.8, 48.85)">
      <path d="M27.6 31.5 L27.6 31.45 Q25.95 34.65 24.4 36.75 L24.8 37.6 Q24.6 38.8 22.6 39.85 20.75 40.8 16.75 41.9 9.55 43.8 2.8 43.8 -1.8 43.8 -15.65 41.1 -28.7 38.55 -29.5 38.0 -31.1 36.75 -34.3 35.5 L-37.55 32.1 -34.4 27.2 -31.05 22.1 Q-28.75 18.6 -28.6 18.65 L-28.6 18.6 -28.4 15.8 -28.4 15.75 Q-28.4 14.8 -28.05 14.7 -28.9 14.65 -30.25 9.05 L-31.7 2.95 Q-32.4 0.0 -36.85 -8.6 -40.85 -16.3 -40.8 -22.35 L-40.55 -27.05 Q-40.35 -29.7 -39.75 -32.15 -38.55 -37.5 -36.55 -38.9 -28.15 -45.25 -18.65 -47.5 -13.25 -48.85 -6.35 -48.85 6.1 -48.85 18.7 -43.95 L18.75 -43.95 Q27.75 -40.45 30.75 -37.7 L36.4 -32.05 36.35 -32.05 37.9 -29.85 Q39.0 -27.65 39.0 -19.9 39.0 -16.4 37.75 -11.65 L37.7 -11.65 36.45 -7.3 Q36.45 -5.55 35.9 -5.2 L35.95 -5.2 Q35.6 -4.7 34.95 -0.9 L34.95 -0.95 Q34.55 1.85 33.2 6.8 32.1 10.65 31.65 16.7 31.15 24.7 27.6 31.5" fill="#000000" fill-rule="evenodd" stroke="none"/>
      <path d="M23.4 36.6 L22.75 36.05 Q21.85 35.65 21.45 35.0 L20.45 33.55 19.75 27.35 21.6 25.3 Q24.05 16.0 25.4 6.4 26.7 -3.0 22.25 -11.2 L22.55 -12.7 Q23.95 -16.3 26.65 -18.55 L27.2 -20.1 Q28.4 -23.55 32.15 -24.95 L33.55 -25.05 34.9 -25.85 Q35.5 -27.05 35.65 -28.4 35.8 -30.0 35.6 -31.4 L37.0 -29.45 Q38.0 -27.3 38.0 -19.9 38.0 -16.5 36.75 -11.95 L35.45 -7.4 35.2 -5.9 Q34.7 -5.35 33.95 -1.1 33.55 1.65 32.2 6.5 31.1 10.45 30.65 16.6 30.15 24.4 26.7 31.0 25.0 34.3 23.4 36.35 L23.4 36.6 M-39.55 -27.0 Q-37.5 -25.3 -36.4 -22.55 -34.8 -18.75 -31.4 -16.7 -29.8 -12.6 -29.15 -8.15 -28.7 -4.85 -27.05 -2.45 L-26.8 -0.85 -27.05 0.75 -27.0 1.9 -26.7 3.2 -26.35 3.7 -26.35 6.45 -26.25 11.5 Q-26.2 12.65 -26.8 13.35 L-27.05 14.95 -26.35 16.35 Q-26.25 17.1 -26.3 17.95 L-26.4 19.1 -26.6 20.25 -26.8 21.15 -27.3 21.6 Q-27.5 23.05 -28.35 24.45 -28.95 25.4 -30.35 30.0 L-32.15 35.75 -36.4 32.85 -31.7 25.25 -27.6 18.65 -27.4 15.8 Q-27.4 13.7 -28.0 13.7 L-29.3 8.8 -30.75 2.75 Q-31.4 -0.25 -35.95 -9.05 -39.8 -16.5 -39.8 -22.35 L-39.55 -27.0" fill="#3b3c39" fill-rule="evenodd" stroke="none"/>
      <path d="M35.6 -31.4 Q35.8 -30.0 35.65 -28.4 35.5 -27.05 34.9 -25.85 L33.55 -25.05 32.15 -24.95 Q28.4 -23.55 27.2 -20.1 L26.65 -18.55 Q23.95 -16.3 22.55 -12.7 L22.25 -11.2 Q26.7 -3.0 25.4 6.4 24.05 16.0 21.6 25.3 L19.75 27.35 20.45 33.55 21.45 35.0 Q21.85 35.65 22.75 36.05 L23.4 36.6 Q22.95 38.55 16.0 40.4 9.0 42.25 2.75 42.25 L-6.8 42.5 Q-12.15 42.5 -15.7 41.1 -18.5 40.05 -20.95 39.8 L-22.85 39.75 -26.45 38.55 Q-30.15 37.2 -32.15 35.75 L-30.35 30.0 Q-28.95 25.4 -28.35 24.45 -27.5 23.05 -27.3 21.6 L-26.8 21.15 -26.6 20.25 -26.4 19.1 -26.3 17.95 Q-26.25 17.1 -26.35 16.35 L-27.05 14.95 -26.8 13.35 Q-26.2 12.65 -26.25 11.5 L-26.35 6.45 -26.35 3.7 -26.7 3.2 -27.0 1.9 -27.05 0.75 -26.8 -0.85 -27.05 -2.45 Q-28.7 -4.85 -29.15 -8.15 -29.8 -12.6 -31.4 -16.7 -34.8 -18.75 -36.4 -22.55 -37.5 -25.3 -39.55 -27.0 L-38.8 -31.95 Q-37.7 -36.8 -35.95 -38.1 -27.75 -44.3 -18.45 -46.55 -13.1 -47.85 -6.35 -47.85 5.95 -47.85 18.35 -43.05 27.15 -39.6 30.05 -36.95 L35.6 -31.4" fill="#212121" fill-rule="evenodd" stroke="none"/>
      <path d="M22.35 38.65 L20.25 39.45 16.05 40.7 15.9 39.55 15.6 37.85 Q15.6 36.9 16.65 36.05 17.9 35.1 19.85 35.1 20.25 35.1 21.1 36.3 22.0 37.5 22.35 38.65" fill="#26201b" fill-rule="evenodd" stroke="none"/>
      <path d="M33.7 -18.6 L33.8 -18.85 34.35 -19.25 35.05 -15.8 Q35.25 -14.3 34.5 -14.05 L35.15 -12.65 34.75 -12.6 Q33.85 -13.45 33.4 -14.55 L32.8 -16.2 33.2 -16.15 Q33.45 -16.65 32.9 -18.2 L33.85 -18.1 33.7 -18.6 M33.35 -12.2 L34.85 -12.2 34.85 -11.25 33.35 -11.25 33.35 -12.2 M16.05 40.7 L14.5 41.05 14.15 39.3 Q14.25 38.25 15.9 35.65 17.6 33.05 17.75 31.2 L15.85 24.45 20.6 31.05 Q22.0 33.1 23.6 38.1 L22.35 38.65 Q22.0 37.5 21.1 36.3 20.25 35.1 19.85 35.1 17.9 35.1 16.65 36.05 15.6 36.9 15.6 37.85 L15.9 39.55 16.05 40.7 M-1.75 42.1 L-2.35 36.65 Q-2.75 32.7 -2.65 29.9 -2.35 24.55 0.5 22.9 1.25 23.45 1.25 24.9 L0.95 31.2 0.1 42.2 -1.75 42.1 M-30.7 -19.85 L-30.7 -19.55 Q-31.85 -19.55 -33.3 -20.45 L-33.55 -20.8 Q-33.25 -21.2 -32.25 -21.2 -31.1 -21.25 -30.7 -19.85 M-35.3 -19.9 Q-37.75 -20.95 -37.95 -22.8 L-37.65 -23.1 Q-36.9 -23.0 -36.1 -22.2 -35.1 -21.2 -35.3 -19.9 M-34.1 -17.4 L-36.5 -16.0 -37.1 -16.0 Q-37.3 -16.1 -37.3 -16.75 -37.3 -17.4 -37.1 -17.45 L-36.15 -17.4 Q-35.6 -17.4 -35.55 -18.1 -35.5 -18.9 -35.15 -19.05 -34.45 -18.35 -34.1 -17.4 M-36.9 -15.0 L-35.75 -15.0 -35.75 -13.85 -36.9 -13.85 -36.9 -15.0 M-33.05 -17.4 L-33.45 -14.7 -33.4 -14.05 -33.4 -14.15 -33.35 -14.65 -33.05 -14.65 -33.3 -14.2 -32.6 -13.75 -32.45 -11.4 -34.05 -11.3 -33.95 -11.9 Q-33.8 -12.5 -33.8 -13.05 L-33.9 -13.85 -34.7 -13.95 Q-34.15 -13.95 -34.3 -14.4 L-34.6 -15.15 -35.1 -15.3 -35.65 -15.65 Q-34.2 -17.0 -33.05 -17.4 M-11.2 10.4 L-11.2 10.45 -11.15 10.55 -11.8 10.6 -11.9 10.6 Q-13.4 10.4 -14.95 5.65 L-15.9 2.15 -16.25 0.55 -16.1 -0.5 -15.75 -0.7 -13.1 5.2 Q-11.2 9.5 -11.2 10.4 M-11.45 13.1 L-11.8 13.25 -12.15 13.1 -11.45 13.1 M-11.25 22.75 L-11.55 22.8 -13.65 21.4 Q-14.55 20.8 -14.55 20.25 -14.55 18.9 -13.8 17.95 -13.2 17.15 -12.55 17.15 -10.05 17.15 -10.2 19.55 -10.3 21.25 -11.25 22.75 M-24.15 16.4 Q-24.15 17.45 -24.55 18.2 -25.0 18.9 -25.6 18.9 -26.2 18.9 -26.6 18.2 -27.05 17.45 -27.05 16.4 L-26.85 15.2 -26.6 14.65 Q-26.2 13.9 -25.6 13.9 -25.0 13.9 -24.55 14.65 -24.15 15.35 -24.15 16.4 M-31.95 29.05 L-29.35 23.35 Q-27.7 20.2 -24.35 20.0 -24.75 21.4 -23.95 23.9 -23.05 26.75 -23.05 27.2 L-23.7 30.25 Q-24.45 33.1 -24.95 34.45 -28.5 31.95 -31.95 29.05 M-15.45 39.15 L-15.8 34.1 -15.5 27.95 Q-15.0 23.5 -14.0 22.7 -11.6 23.5 -11.3 28.95 -11.15 32.15 -11.85 40.35 L-15.45 39.15" fill="#424146" fill-rule="evenodd" stroke="none"/>
      <path d="M7.4 -21.05 Q6.85 -20.5 5.45 -20.4 5.95 -23.25 10.75 -26.05 L17.3 -29.85 17.7 -29.65 17.85 -28.45 17.55 -26.75 Q17.2 -25.65 17.2 -25.1 17.2 -24.75 16.4 -23.45 L14.75 -21.05 14.8 -20.8 Q14.65 -20.2 14.0 -19.35 L15.7 -21.0 Q16.95 -22.15 17.75 -22.35 17.5 -21.2 16.75 -19.75 15.45 -17.4 12.75 -14.15 8.5 -9.1 6.75 -9.1 L6.15 -9.1 6.25 -9.15 6.35 -10.55 5.55 -11.65 5.5 -11.8 5.25 -13.05 5.35 -13.7 5.1 -13.6 Q4.95 -13.65 4.95 -14.45 4.95 -15.25 5.25 -15.55 L5.8 -15.95 5.1 -16.3 Q4.85 -16.55 4.85 -17.4 4.85 -17.95 5.75 -19.05 L7.4 -21.05 M7.3 -5.0 L7.0 -5.2 Q6.85 -5.4 6.85 -6.2 6.85 -8.3 17.1 -16.9 L18.15 -17.8 19.2 -15.65 18.45 -14.65 17.65 -13.95 16.3 -13.1 16.05 -12.8 16.65 -12.25 17.0 -11.6 Q16.95 -10.55 16.1 -10.4 L15.4 -10.7 15.3 -10.8 Q14.85 -11.35 15.25 -11.95 L14.65 -11.2 15.05 -10.95 15.2 -10.5 15.2 -10.25 13.95 -8.8 13.8 -8.7 14.1 -8.75 14.8 -8.6 Q15.5 -7.7 15.15 -6.35 L15.2 -6.35 16.45 -7.25 16.55 -7.45 16.6 -7.05 16.55 -6.8 16.25 -5.9 15.9 -5.35 15.7 -5.15 16.35 -4.9 Q16.6 -4.65 16.45 -4.4 16.25 -4.15 15.7 -4.0 L14.8 -3.95 13.95 -3.0 11.8 -0.7 12.0 -0.3 14.25 -2.0 14.65 -2.1 14.8 -1.3 Q14.8 -0.3 12.25 1.35 L11.5 1.8 11.55 2.55 Q11.55 3.45 10.25 4.35 L8.7 5.05 8.45 5.15 8.5 5.1 8.05 5.2 8.0 5.25 7.85 5.3 Q7.7 5.25 7.7 4.45 7.7 3.65 7.9 3.55 L8.45 3.4 9.4 2.75 9.75 2.4 9.5 2.2 Q9.5 1.35 9.8 0.75 10.05 0.15 10.4 0.15 L11.2 -0.7 Q10.4 -0.3 10.15 0.1 L9.6 0.35 Q9.2 0.15 9.05 -0.6 L7.85 -1.9 Q7.45 -2.35 7.35 -3.0 7.2 -3.35 7.2 -3.8 L7.1 -4.3 7.05 -4.4 7.3 -5.0 M12.45 -9.35 L12.65 -9.5 12.55 -9.55 12.35 -9.4 12.45 -9.35 M11.6 -16.15 Q9.9 -14.95 8.8 -12.9 L11.6 -16.15 M12.25 3.6 L12.35 4.05 Q12.25 4.95 10.95 6.25 9.7 7.55 9.15 7.55 8.55 7.55 8.25 7.05 7.95 6.65 8.05 6.5 L10.25 5.85 Q11.55 5.2 11.55 4.5 L11.5 3.95 12.25 3.6 M-16.05 -6.85 L-16.05 -6.75 Q-16.95 -6.75 -18.75 -8.15 L-19.55 -8.85 -20.75 -9.95 Q-20.65 -10.85 -20.4 -10.95 L-20.0 -10.55 -18.8 -9.55 -18.75 -11.0 Q-18.65 -11.0 -18.5 -11.15 L-18.45 -11.2 -18.35 -11.4 -17.55 -10.6 -17.4 -10.55 -17.3 -11.45 -17.8 -12.25 -19.1 -14.3 -19.85 -15.6 -20.15 -16.5 -19.9 -17.55 -19.35 -17.8 Q-19.35 -18.2 -19.3 -17.85 L-19.2 -17.85 Q-19.0 -18.15 -18.55 -18.15 L-18.5 -18.05 Q-18.3 -19.55 -16.5 -20.85 L-16.7 -21.5 -19.55 -22.5 -20.0 -23.3 -19.55 -25.4 -19.3 -25.55 -18.6 -25.65 Q-18.25 -25.65 -16.45 -24.1 L-15.45 -23.15 Q-14.9 -23.15 -14.7 -22.85 L-14.4 -22.1 -13.2 -20.9 Q-13.05 -22.75 -11.9 -24.7 -9.05 -21.85 -10.0 -19.6 L-9.6 -17.1 -7.75 -14.7 Q-6.9 -13.4 -6.9 -12.3 -6.9 -11.45 -7.4 -10.85 -8.15 -10.1 -8.4 -9.2 L-8.5 -6.7 Q-8.75 -5.4 -10.85 -6.5 -10.05 -5.1 -9.9 -4.0 -8.9 -3.55 -8.5 -2.45 L-8.4 -2.1 -8.85 -2.0 -9.25 -2.1 -10.45 -2.65 -10.7 -2.6 -10.3 -2.15 -10.15 -1.95 Q-9.9 -1.5 -9.9 -0.7 L-9.9 -0.45 Q-9.95 0.25 -10.25 0.65 L-10.45 0.85 -11.35 1.1 Q-12.45 1.1 -12.6 0.45 L-12.95 -0.8 -13.55 -2.0 -16.05 -6.85 M-19.4 -12.25 L-18.85 -11.75 -18.85 -11.15 -18.85 -11.1 Q-19.1 -10.65 -19.9 -10.65 L-19.9 -10.7 -20.1 -11.45 -20.1 -12.45 -19.85 -13.7 -19.15 -13.9 -19.1 -12.8 -19.4 -12.25 M-16.35 -7.5 L-17.55 -10.1 -18.05 -9.4 -16.35 -7.5 M-13.55 1.05 L-12.95 1.95 -12.6 3.0 -13.1 3.35 -14.65 1.5 -14.6 0.85 -14.6 0.95 -13.55 1.05 M-12.05 4.1 L-12.15 4.45 -12.5 4.6 -12.8 4.45 -12.95 4.1 -12.8 3.75 Q-12.7 3.6 -12.5 3.6 -12.3 3.6 -12.15 3.75 L-12.05 4.1 M-10.25 4.65 L-10.45 5.1 -11.0 5.25 -11.5 5.1 -11.75 4.65 -11.5 4.25 -11.0 4.05 -10.45 4.25 -10.25 4.65 M-12.15 13.1 L-12.2 13.05 -12.35 12.55 -12.2 12.05 -11.8 11.85 Q-11.55 11.85 -11.4 12.05 -11.25 12.25 -11.25 12.55 -11.25 12.85 -11.4 13.05 L-11.45 13.1 -12.15 13.1" fill="#292826" fill-rule="evenodd" stroke="none"/>
    </g>
    <g id="sprite2" transform="matrix(1.0, 0.0, 0.0, 1.0, 7.8, 24.85)">
      <use ffdec:characterId="2721" height="49.75" transform="matrix(1.0, 0.0, 0.0, 1.0, -7.8, -24.85)" width="15.65" xlink:href="#shape3"/>
    </g>
    <g id="shape3" transform="matrix(1.0, 0.0, 0.0, 1.0, 7.8, 24.85)">
      <path d="M6.1 -12.3 Q6.55 -15.8 6.2 -18.85 5.7 -23.35 3.45 -23.35 1.9 -23.35 -0.55 -15.8 0.15 -15.65 2.7 -13.85 L5.2 -12.1 6.1 -12.3 M5.55 -10.6 L5.2 -10.6 5.15 -10.55 5.15 -10.45 5.4 -5.5 Q5.8 -3.3 3.75 -2.15 L3.4 -2.0 3.5 -0.85 3.5 -0.7 Q3.55 1.5 1.15 8.75 L-1.4 16.3 -1.45 16.4 -1.45 16.5 -2.1 20.95 -2.1 21.0 Q-2.5 23.5 -3.65 24.5 -4.1 24.9 -4.7 24.9 L-5.85 24.9 -6.55 24.75 -7.1 24.2 Q-7.7 23.4 -7.7 21.95 L-7.7 17.2 Q-7.45 13.3 -5.85 4.8 -4.6 -2.05 -4.3 -2.25 L-4.25 -2.25 -3.6 -2.75 -3.9 -4.6 Q-3.9 -7.0 -3.1 -8.75 L-3.15 -8.75 -0.3 -14.05 -0.85 -14.3 Q-1.3 -14.4 -1.6 -14.7 L-2.0 -15.4 -1.95 -16.25 Q0.95 -25.25 3.45 -24.85 7.0 -25.15 7.7 -19.0 8.05 -15.8 7.6 -12.1 L7.2 -11.3 6.45 -10.8 5.55 -10.6 M-0.55 -2.9 Q4.4 -2.9 3.9 -5.3 L3.65 -10.45 Q3.15 -13.3 1.15 -13.55 L-1.75 -8.2 Q-2.4 -6.65 -2.4 -4.6 L-2.15 -3.15 -0.55 -2.9 M1.9 -2.0 L-3.1 -1.35 -4.4 5.05 Q-5.95 13.45 -6.2 17.3 L-6.2 21.85 Q-6.2 22.85 -5.85 23.4 L-4.7 23.4 Q-3.9 22.65 -3.6 20.75 L-2.9 16.0 -0.3 8.25 Q2.0 1.4 2.0 -0.7 L1.9 -2.0" fill="#000000" fill-rule="evenodd" stroke="none"/>
      <path d="M6.1 -12.3 L5.2 -12.1 2.7 -13.85 Q0.15 -15.65 -0.55 -15.8 1.9 -23.35 3.45 -23.35 5.7 -23.35 6.2 -18.85 6.55 -15.8 6.1 -12.3 M0.9 -5.4 L1.95 -5.3 2.0 -5.5 0.9 -5.4 M1.9 -2.0 L2.0 -0.7 Q2.0 1.4 -0.3 8.25 L-2.9 16.0 -3.6 20.75 Q-3.9 22.65 -4.7 23.4 L-5.85 23.4 Q-6.2 22.85 -6.2 21.85 L-6.2 17.3 Q-5.95 13.45 -4.4 5.05 L-3.1 -1.35 1.9 -2.0 M-0.55 -2.9 L-2.15 -3.15 -2.4 -4.6 Q-2.4 -6.65 -1.75 -8.2 L1.15 -13.55 Q3.15 -13.3 3.65 -10.45 L3.9 -5.3 Q4.4 -2.9 -0.55 -2.9" fill="#424146" fill-rule="evenodd" stroke="none"/>
    </g>
    <g id="sprite3" transform="matrix(1.0, 0.0, 0.0, 1.0, 77.05, 35.9)">
      <use ffdec:characterId="2723" height="54.7" transform="matrix(1.0, 0.0, 0.0, 1.0, -77.05, -35.9)" width="152.3" xlink:href="#shape4"/>
      <filter id="filter0">
        <feColorMatrix in="SourceGraphic" result="filterResult0" type="matrix" values="0 0 0 0 0.7176471,0 0 0 0 0.48235294,0 0 0 0 0.7176471,0 0 0 1 0"/>
        <feConvolveMatrix divisor="256.0" in="filterResult0" kernelMatrix="1 1 1 1 1 1 1 1 1 1 1 1 1 1 1 1 1 1 1 1 1 1 1 1 1 1 1 1 1 1 1 1 1 1 1 1 1 1 1 1 1 1 1 1 1 1 1 1 1 1 1 1 1 1 1 1 1 1 1 1 1 1 1 1 1 1 1 1 1 1 1 1 1 1 1 1 1 1 1 1 1 1 1 1 1 1 1 1 1 1 1 1 1 1 1 1 1 1 1 1 1 1 1 1 1 1 1 1 1 1 1 1 1 1 1 1 1 1 1 1 1 1 1 1 1 1 1 1 1 1 1 1 1 1 1 1 1 1 1 1 1 1 1 1 1 1 1 1 1 1 1 1 1 1 1 1 1 1 1 1 1 1 1 1 1 1 1 1 1 1 1 1 1 1 1 1 1 1 1 1 1 1 1 1 1 1 1 1 1 1 1 1 1 1 1 1 1 1 1 1 1 1 1 1 1 1 1 1 1 1 1 1 1 1 1 1 1 1 1 1 1 1 1 1 1 1 1 1 1 1 1 1 1 1 1 1 1 1 1 1 1 1 1 1 1 1 1 1 1 1 1 1 1 1 1 1" order="16 16" result="filterResult1"/>
        <feComposite in="SourceGraphic" in2="filterResult1" operator="over" result="filterResult2"/>
      </filter>
      <use ffdec:characterId="2725" filter="url(#filter0)" height="15.9" transform="matrix(1.0, 0.0, 0.0, 1.0, -22.65, -13.25)" width="41.45" xlink:href="#sprite4"/>
      <use ffdec:characterId="2726" height="8.7" transform="matrix(1.0, 0.0, 0.0, 1.0, -14.55, -12.25)" width="32.8" xlink:href="#shape6"/>
    </g>
    <g id="shape4" transform="matrix(1.0, 0.0, 0.0, 1.0, 77.05, 35.9)">
      <path d="M-37.2 -16.4 Q-34.75 -21.85 -32.85 -23.55 -39.9 -27.0 -46.0 -24.75 -49.35 -23.6 -52.55 -20.95 L-52.65 -20.9 Q-56.5 -19.1 -60.6 -17.4 L-60.6 -17.35 Q-67.4 -14.6 -69.55 -14.65 L-72.3 -15.1 -73.7 -15.7 -74.7 -15.95 -74.75 -15.95 Q-76.15 -16.45 -76.1 -17.35 L-76.75 -17.55 -77.05 -18.3 -76.8 -19.55 -76.65 -19.9 -76.5 -20.2 -76.2 -20.4 -74.9 -20.65 -74.75 -20.6 -69.65 -19.5 Q-66.05 -19.55 -55.85 -24.9 -45.35 -30.5 -41.1 -30.45 -35.05 -30.45 -28.65 -26.7 -21.4 -31.2 -17.1 -33.0 -10.35 -35.9 -4.0 -35.9 L1.1 -35.85 10.35 -34.75 Q14.65 -33.95 20.4 -30.5 25.4 -27.6 26.2 -27.55 27.8 -27.55 30.6 -28.55 33.55 -29.7 34.95 -29.7 40.1 -29.75 49.75 -23.75 L49.7 -23.75 Q59.0 -18.05 66.35 -18.05 69.5 -18.05 70.75 -18.65 72.2 -19.35 73.3 -19.35 L74.35 -19.15 74.4 -19.15 74.5 -19.1 75.05 -18.9 75.2 -18.5 75.25 -17.7 Q75.25 -16.9 75.05 -16.6 L75.05 -16.55 74.85 -16.3 74.65 -16.15 74.4 -16.1 71.55 -14.6 Q68.7 -13.2 66.0 -13.2 60.05 -13.2 49.05 -19.05 38.3 -24.8 35.6 -24.85 L31.35 -24.3 35.05 -21.1 37.85 -18.55 Q38.65 -18.3 40.3 -15.85 42.45 -12.55 42.45 -8.8 L42.5 -6.3 Q42.35 -4.15 41.4 -4.15 L41.4 -3.8 41.65 -2.8 Q41.9 -2.05 41.6 -1.15 L41.6 -1.2 Q41.0 0.6 39.5 1.15 L39.4 1.15 38.6 1.1 Q38.65 1.45 35.35 2.8 32.2 4.05 31.4 4.6 L31.4 4.55 Q30.35 5.3 24.45 7.4 L13.85 10.9 Q6.25 13.15 1.15 16.3 -3.15 18.85 -3.65 18.8 L-11.25 14.05 -15.55 12.25 -15.5 12.3 Q-19.1 10.85 -19.95 10.1 -24.85 7.95 -29.75 4.9 -39.85 -1.3 -39.8 -8.4 -39.8 -10.5 -37.2 -16.4" fill="#000000" fill-rule="evenodd" stroke="none"/>
      <path d="M-4.55 16.95 L-5.4 16.05 Q-7.0 14.0 -10.65 12.65 L-13.65 11.6 -16.6 10.4 -19.15 8.8 Q-20.75 7.8 -21.75 7.35 L-24.75 6.15 -27.2 4.6 Q-28.75 3.6 -29.75 3.2 L-31.6 2.4 -33.0 0.9 -34.3 -0.7 -36.1 -1.9 Q-37.2 -2.55 -37.55 -3.3 L-37.85 -4.9 -37.85 -6.65 -38.3 -8.55 Q-38.4 -9.35 -37.85 -11.15 L-37.3 -12.1 -37.1 -12.65 -36.65 -13.85 -36.5 -15.05 Q-36.35 -15.95 -35.3 -17.65 L-32.45 -21.7 -29.7 -24.1 -29.0 -24.6 Q-25.75 -27.3 -21.35 -29.5 L-20.2 -30.05 Q-17.85 -31.25 -14.95 -32.3 L-12.5 -33.1 Q-8.45 -34.25 -4.95 -34.4 L-3.05 -34.4 -1.2 -34.35 2.7 -34.1 11.15 -33.1 Q13.95 -32.4 21.2 -28.9 23.5 -27.8 26.7 -25.6 29.35 -23.75 30.9 -22.85 31.4 -22.55 31.75 -22.35 L33.65 -21.2 36.8 -17.55 38.05 -15.9 38.55 -15.15 40.05 -13.15 40.3 -12.2 Q40.9 -10.65 40.95 -9.05 L40.75 -6.7 40.35 -5.15 39.9 -4.1 Q39.8 -3.6 40.2 -2.55 40.35 -1.65 39.5 -0.8 38.9 -0.25 37.8 0.1 L35.65 0.7 33.55 1.35 Q32.6 1.75 31.35 2.65 L29.25 4.15 Q25.7 6.55 17.25 8.45 8.75 10.3 5.2 12.7 L3.4 14.05 1.55 15.3 Q0.05 16.2 -1.25 16.35 L-1.85 16.7 -2.7 17.05 -3.45 17.05 -4.55 16.95" fill="#21211c" fill-rule="evenodd" stroke="none"/>
      <path d="M10.9 -20.05 Q9.9 -18.95 8.3 -17.9 6.75 -16.9 5.95 -16.8 L5.45 -16.75 Q5.3 -16.75 5.3 -17.35 5.3 -18.0 5.45 -18.25 L6.05 -18.95 5.0 -19.8 3.05 -28.7 Q1.35 -23.7 -0.15 -20.8 -0.95 -19.25 -1.85 -15.05 L-1.8 -14.85 Q-1.8 -14.65 -2.4 -14.65 L-3.65 -16.0 Q-4.8 -17.55 -5.95 -18.1 L-7.15 -17.05 -8.25 -15.75 -8.6 -15.7 -12.25 -20.1 Q-13.5 -21.6 -14.85 -21.25 -15.9 -22.25 -15.8 -23.0 L-15.55 -23.9 Q-15.55 -24.4 -16.2 -24.25 -16.9 -24.15 -16.9 -24.65 L-15.6 -27.1 -12.85 -31.3 Q-13.9 -31.0 -18.1 -29.15 -23.6 -26.8 -26.35 -24.95 L-25.95 -24.65 -26.2 -24.25 -26.6 -23.3 -26.7 -22.85 -26.85 -23.2 Q-27.4 -20.9 -31.05 -15.2 L-35.45 -8.75 -35.75 -8.75 -35.85 -9.8 -35.65 -11.8 -36.55 -11.75 -36.9 -11.75 -37.05 -12.5 Q-34.1 -23.15 -21.35 -29.5 -10.65 -34.85 -1.2 -34.35 L11.15 -33.1 Q13.95 -32.4 21.2 -28.9 23.5 -27.8 26.7 -25.6 30.25 -23.15 31.75 -22.35 L33.65 -21.2 Q35.4 -19.6 38.2 -15.55 L40.05 -13.15 Q40.45 -12.25 40.6 -7.75 L40.35 -6.55 40.0 -5.3 Q39.05 -6.1 36.2 -10.05 32.75 -14.8 28.95 -18.8 L22.6 -25.3 Q20.35 -27.1 17.15 -27.1 15.3 -27.1 14.4 -25.5 13.1 -23.25 11.9 -22.5 L11.85 -21.75 11.85 -21.35 11.05 -20.15 10.85 -19.75 10.9 -20.05 M11.9 -21.5 L11.95 -21.5 11.9 -21.45 11.9 -21.5 M-5.85 -6.1 L-5.65 -7.25 -5.0 -8.2 -5.85 -8.35 Q-6.45 -8.35 -6.55 -7.85 L-6.65 -7.35 Q-8.2 -8.4 -8.45 -11.3 -8.45 -12.5 -8.1 -12.7 -7.35 -13.2 -6.85 -14.05 L-6.15 -14.05 -5.9 -12.4 -5.5 -10.55 -5.5 -13.0 -5.45 -13.65 -5.3 -13.75 -4.95 -13.8 Q-4.5 -13.7 -4.5 -10.65 L-4.25 -11.95 -4.1 -14.15 -2.35 -14.3 Q-1.7 -14.3 -1.5 -13.75 -1.05 -12.55 -1.05 -8.25 -1.05 -7.6 -1.35 -7.6 L-2.15 -7.7 -1.85 -7.2 -1.6 -6.6 -1.5 -6.35 -2.15 -6.15 Q-2.7 -6.15 -3.15 -6.5 -3.65 -6.9 -4.05 -6.9 L-4.75 -5.6 Q-3.6 -6.2 -2.55 -5.4 -1.6 -4.6 -1.6 -3.25 L-2.8 4.9 -4.15 14.7 Q-6.3 13.05 -6.55 7.0 L-6.4 -1.2 Q-6.4 -3.95 -6.1 -5.0 L-5.85 -6.1 M-2.5 -9.55 L-2.5 -9.35 -2.6 -9.2 Q-2.45 -9.1 -2.5 -9.55" fill="#424146" fill-rule="evenodd" stroke="none"/>
      <path d="M11.1 -17.45 L13.7 -19.05 Q15.15 -19.9 15.7 -20.65 L15.4 -20.8 Q13.85 -19.95 10.5 -18.55 L4.95 -16.35 Q5.05 -16.9 5.95 -17.3 12.45 -20.0 15.8 -21.1 L18.8 -22.1 Q20.15 -22.65 23.55 -24.65 31.3 -29.0 37.45 -28.05 40.5 -27.6 44.25 -25.55 L50.65 -21.8 Q53.7 -20.15 57.5 -18.6 60.75 -17.3 62.85 -16.9 66.05 -16.25 70.25 -16.85 71.5 -17.05 72.05 -17.4 L73.25 -17.9 73.75 -17.6 71.9 -16.3 71.15 -15.9 69.0 -15.05 67.9 -14.8 66.4 -14.7 66.1 -14.75 65.55 -14.7 63.3 -14.9 Q60.95 -15.25 57.55 -16.6 52.5 -18.65 49.15 -20.5 L43.5 -23.9 Q40.15 -25.75 37.4 -26.25 31.6 -27.15 24.4 -23.05 L19.95 -20.6 15.0 -18.9 11.1 -17.45 M5.55 -15.55 L7.95 -16.1 7.0 -15.75 5.8 -15.5 5.55 -15.55 M-19.0 -17.6 L-22.3 -19.0 Q-23.75 -19.6 -25.6 -20.85 L-28.8 -23.0 Q-33.25 -25.85 -37.5 -26.75 -42.65 -27.75 -46.9 -26.05 -48.55 -25.4 -50.8 -23.9 L-54.6 -21.5 Q-56.95 -20.15 -61.7 -18.3 -65.75 -16.7 -68.05 -16.35 L-71.05 -16.2 -72.35 -16.75 -73.15 -17.1 -75.05 -18.25 -75.55 -18.45 Q-75.6 -18.85 -75.25 -19.05 L-73.9 -18.9 Q-71.4 -17.65 -68.05 -18.25 -66.25 -18.55 -62.35 -20.0 -58.0 -21.75 -56.5 -22.55 L-51.55 -25.6 Q-48.55 -27.45 -46.4 -28.2 -41.35 -29.85 -35.4 -28.05 -30.7 -26.65 -25.5 -23.0 L-21.95 -20.8 -18.95 -19.65 -16.25 -18.4 -18.25 -18.85 -21.05 -20.0 -21.15 -19.45 Q-21.15 -19.1 -20.35 -18.5 L-19.0 -17.6 M-13.0 -17.5 L-12.7 -17.5 -11.35 -17.45 Q-10.5 -17.25 -10.5 -16.55 L-10.5 -16.35 Q-12.0 -17.25 -13.0 -17.5 M-11.3 -15.55 L-12.3 -15.55 Q-14.25 -15.7 -16.1 -16.4 L-18.85 -17.55 -16.35 -16.75 -14.25 -16.25 -12.7 -15.9 Q-11.7 -15.55 -11.3 -15.55" fill="#21211c" fill-rule="evenodd" stroke="none"/>
      <path d="M4.95 -16.35 L10.5 -18.55 Q13.85 -19.95 15.4 -20.8 L15.7 -20.65 Q15.15 -19.9 13.7 -19.05 L11.1 -17.45 10.9 -17.35 10.5 -17.2 Q9.15 -16.35 7.95 -16.1 L5.55 -15.55 3.05 -14.8 2.9 -15.0 3.5 -15.8 Q4.05 -16.2 4.95 -16.35 M-16.25 -18.4 L-13.0 -17.5 Q-12.0 -17.25 -10.5 -16.35 L-10.05 -15.35 -10.65 -15.45 -11.3 -15.55 Q-11.7 -15.55 -12.7 -15.9 L-14.25 -16.25 -16.35 -16.75 -18.85 -17.55 -19.0 -17.6 -20.35 -18.5 Q-21.15 -19.1 -21.15 -19.45 L-21.05 -20.0 -18.25 -18.85 -16.25 -18.4" fill="#424146" fill-rule="evenodd" stroke="none"/>
      <path d="M5.6 -0.15 Q7.0 2.7 9.15 2.7 14.15 2.7 16.7 -0.05 18.85 -2.55 18.75 -6.95 18.7 -8.7 16.45 -10.75 L16.45 -10.8 Q14.15 -13.0 12.1 -12.95 L12.05 -12.95 Q8.05 -12.85 6.0 -9.75 L5.8 -9.6 Q4.4 -7.5 4.4 -5.4 4.4 -2.65 5.6 -0.15 M3.4 -5.4 Q3.4 -7.9 5.15 -10.35 L5.25 -10.45 Q7.6 -13.85 12.05 -13.95 14.45 -14.05 17.15 -11.5 19.8 -9.1 19.75 -6.95 19.85 -2.15 17.45 0.6 14.65 3.7 9.15 3.7 6.4 3.8 4.7 0.3 3.4 -2.45 3.4 -5.4 M-8.5 -5.65 Q-8.5 -7.65 -10.3 -10.1 -12.55 -13.2 -15.85 -13.2 -18.15 -13.2 -20.35 -11.5 -22.7 -9.7 -22.7 -7.55 -22.7 -3.05 -20.7 -0.5 -18.35 2.45 -13.4 2.45 -11.25 2.45 -9.8 -0.4 -8.5 -2.95 -8.5 -5.65 M-8.9 0.05 Q-10.65 3.55 -13.4 3.45 -18.95 3.45 -21.5 0.1 -23.7 -2.65 -23.7 -7.55 -23.8 -10.2 -20.95 -12.3 -18.45 -14.2 -15.85 -14.2 -12.05 -14.2 -9.5 -10.7 -7.5 -7.95 -7.5 -5.65 -7.5 -2.75 -8.9 0.05" fill="#000000" fill-rule="evenodd" stroke="none"/>
      <path d="M6.05 -0.4 Q4.9 -2.75 4.9 -5.4 4.9 -7.45 6.35 -9.5 8.3 -12.35 12.05 -12.45 L12.1 -12.45 Q14.0 -12.45 16.1 -10.45 L16.1 -10.4 Q18.15 -8.5 18.25 -6.95 L18.25 -6.9 Q18.35 -2.75 16.3 -0.4 13.9 2.2 9.15 2.2 7.3 2.15 6.05 -0.4 M-9.0 -5.65 Q-9.0 -3.05 -10.25 -0.65 -11.55 1.9 -13.4 1.95 -18.05 1.95 -20.3 -0.8 -22.2 -3.25 -22.2 -7.55 -22.15 -9.45 -20.05 -11.1 -18.0 -12.7 -15.85 -12.7 -12.8 -12.7 -10.7 -9.8 -9.0 -7.5 -9.0 -5.65" fill="#050305" fill-rule="evenodd" stroke="none"/>
      <path d="M5.6 -0.15 Q4.4 -2.65 4.4 -5.4 4.4 -7.5 5.8 -9.6 L6.0 -9.75 Q8.05 -12.85 12.05 -12.95 L12.1 -12.95 Q14.15 -13.0 16.45 -10.8 L16.45 -10.75 Q18.7 -8.7 18.75 -6.95 18.85 -2.55 16.7 -0.05 14.15 2.7 9.15 2.7 7.0 2.7 5.6 -0.15 M6.05 -0.4 Q7.3 2.15 9.15 2.2 13.9 2.2 16.3 -0.4 18.35 -2.75 18.25 -6.9 L18.25 -6.95 Q18.15 -8.5 16.1 -10.4 L16.1 -10.45 Q14.0 -12.45 12.1 -12.45 L12.05 -12.45 Q8.3 -12.35 6.35 -9.5 4.9 -7.45 4.9 -5.4 4.9 -2.75 6.05 -0.4 M-8.5 -5.65 Q-8.5 -2.95 -9.8 -0.4 -11.25 2.45 -13.4 2.45 -18.35 2.45 -20.7 -0.5 -22.7 -3.05 -22.7 -7.55 -22.7 -9.7 -20.35 -11.5 -18.15 -13.2 -15.85 -13.2 -12.55 -13.2 -10.3 -10.1 -8.5 -7.65 -8.5 -5.65 M-9.0 -5.65 Q-9.0 -7.5 -10.7 -9.8 -12.8 -12.7 -15.85 -12.7 -18.0 -12.7 -20.05 -11.1 -22.15 -9.45 -22.2 -7.55 -22.2 -3.25 -20.3 -0.8 -18.05 1.95 -13.4 1.95 -11.55 1.9 -10.25 -0.65 -9.0 -3.05 -9.0 -5.65" fill="#020102" fill-rule="evenodd" stroke="none"/>
    </g>
    <g id="sprite4" transform="matrix(1.0, 0.0, 0.0, 1.0, 20.75, 7.95)">
      <use ffdec:characterId="2724" height="15.9" transform="matrix(1.0, 0.0, 0.0, 1.0, -20.75, -7.95)" width="41.45" xlink:href="#shape5"/>
    </g>
    <g id="shape5" transform="matrix(1.0, 0.0, 0.0, 1.0, 20.75, 7.95)">
      <path d="M6.35 -0.15 Q6.35 -2.35 7.9 -4.55 10.0 -7.6 14.0 -7.7 16.1 -7.75 18.4 -5.55 20.65 -3.45 20.7 -1.7 20.8 2.7 18.6 5.15 16.1 7.95 11.1 7.95 8.95 7.95 7.55 5.05 6.35 2.6 6.35 -0.15" fill="url(#gradient0)" fill-rule="evenodd" stroke="none"/>
      <path d="M-6.55 -0.4 Q-6.55 2.3 -7.85 4.8 -9.3 7.7 -11.45 7.7 -16.4 7.7 -18.75 4.75 -20.75 2.2 -20.75 -2.3 -20.75 -4.45 -18.4 -6.25 -16.2 -7.95 -13.9 -7.95 -10.6 -7.95 -8.35 -4.85 -6.55 -2.4 -6.55 -0.4" fill="url(#gradient1)" fill-rule="evenodd" stroke="none"/>
    </g>
    <radialGradient cx="0" cy="0" gradientTransform="matrix(-0.0107, 0.0, 0.0, 0.0107, 13.5, -0.25)" gradientUnits="userSpaceOnUse" id="gradient0" r="819.2" spreadMethod="pad">
      <stop offset="0.5294117647058824" stop-color="#e0b6df"/>
      <stop offset="1.0" stop-color="#a56ea4"/>
    </radialGradient>
    <radialGradient cx="0" cy="0" gradientTransform="matrix(0.0104, 0.0, 0.0, 0.0104, -13.65, -0.1)" gradientUnits="userSpaceOnUse" id="gradient1" r="819.2" spreadMethod="pad">
      <stop offset="0.5294117647058824" stop-color="#e0b6df"/>
      <stop offset="1.0" stop-color="#a56ea4"/>
    </radialGradient>
    <g id="shape6" transform="matrix(1.0, 0.0, 0.0, 1.0, 14.55, 12.25)">
      <path d="M16.0 -9.7 L15.5 -9.4 14.8 -9.6 14.9 -10.2 15.7 -10.5 16.05 -10.15 16.0 -9.7 M16.9 -8.85 L16.35 -8.65 15.95 -9.1 16.05 -9.65 16.65 -9.75 17.05 -9.4 16.9 -8.85 M17.65 -7.75 L17.15 -7.45 16.6 -7.75 16.55 -8.25 17.1 -8.55 17.6 -8.35 17.65 -7.75 M18.25 -6.7 L17.8 -6.35 17.25 -6.65 17.25 -7.15 17.75 -7.45 18.2 -7.3 18.25 -6.7 M14.0 -11.4 L13.45 -11.15 13.05 -11.6 13.15 -12.15 13.75 -12.25 14.1 -11.9 14.0 -11.4 M15.05 -10.6 L14.45 -10.4 14.1 -10.85 14.2 -11.35 14.8 -11.5 15.15 -11.15 15.05 -10.6 M-12.35 -10.7 L-12.95 -10.6 -13.25 -11.1 -13.05 -11.6 -12.45 -11.6 -12.15 -11.2 -12.35 -10.7 M-11.45 -9.75 L-12.05 -9.65 -12.35 -10.15 -12.15 -10.65 -11.55 -10.65 -11.25 -10.25 -11.45 -9.75 M-10.7 -8.65 L-11.25 -8.45 -11.85 -8.8 -11.65 -9.4 -10.85 -9.55 -10.55 -9.1 -10.7 -8.65 M-9.95 -7.7 L-10.55 -7.6 -10.85 -8.1 -10.65 -8.6 -10.05 -8.6 -9.75 -8.2 -9.95 -7.7 M-9.45 -6.5 L-10.0 -6.25 -10.45 -6.65 -10.4 -7.15 -9.85 -7.35 -9.4 -7.1 -9.45 -6.5 M-9.0 -5.3 L-9.55 -5.05 -10.0 -5.45 -9.95 -5.95 -9.4 -6.15 -8.95 -5.9 -9.0 -5.3" fill="#ffffff" fill-rule="evenodd" stroke="none"/>
      <path d="M16.05 -7.75 L15.15 -7.25 14.1 -7.6 14.2 -8.8 15.5 -9.3 16.2 -8.6 16.05 -7.75 M17.2 -6.3 L16.5 -5.6 15.4 -5.65 15.15 -6.75 16.3 -7.5 17.1 -7.1 17.2 -6.3 M14.45 -9.1 L13.3 -8.8 12.1 -9.65 12.7 -10.7 12.25 -10.55 11.8 -11.0 12.0 -11.55 12.7 -11.65 13.1 -11.3 12.95 -10.75 12.85 -10.7 14.1 -10.65 14.7 -9.95 14.45 -9.1 M18.1 -5.2 L17.6 -4.75 16.9 -4.8 16.7 -5.5 17.5 -6.1 18.05 -5.75 18.1 -5.2 M-12.3 -8.35 L-13.5 -8.3 -14.5 -9.35 -13.75 -10.25 -14.2 -10.2 -14.55 -10.7 -14.3 -11.2 -13.6 -11.2 -13.25 -10.8 -13.5 -10.3 -13.6 -10.25 -12.4 -10.0 -11.9 -9.15 -12.3 -8.35 M-11.0 -6.75 L-11.95 -6.45 -12.95 -7.0 -12.65 -8.1 -11.25 -8.35 -10.7 -7.55 -11.0 -6.75 M-10.15 -5.1 L-10.95 -4.55 -12.0 -4.8 -12.05 -5.9 -10.8 -6.5 -10.1 -5.9 -10.15 -5.1 M-9.45 -3.9 L-10.0 -3.55 -10.7 -3.7 -10.75 -4.45 -9.9 -4.85 -9.4 -4.45 -9.45 -3.9" fill="#e6c8e6" fill-rule="evenodd" stroke="none"/>
    </g>
  </defs>
</svg>