<?xml version="1.0" encoding="UTF-8" standalone="no"?>
<svg xmlns:ffdec="https://www.free-decompiler.com/flash" xmlns:xlink="http://www.w3.org/1999/xlink" ffdec:objectType="shape" height="570.45px" width="594.15px" xmlns="http://www.w3.org/2000/svg">
  <g transform="matrix(1.0, 0.0, 0.0, 1.0, 67.4, -5.35)">
    <path d="M-46.55 198.6 Q-52.15 197.7 -54.5 196.7 -58.45 195.15 -59.3 190.55 -59.95 187.1 -57.8 184.35 -55.7 181.7 -52.3 181.1 L-49.85 181.25 -47.85 181.55 -43.6 180.05 Q-40.05 178.65 -37.5 178.1 -38.2 177.35 -39.2 174.85 L-40.1 172.4 Q-40.45 170.45 -39.2 166.9 -37.9 163.15 -35.4 159.55 -29.1 150.25 -20.6 148.65 -18.1 148.2 -13.25 149.35 -7.9 150.55 -0.7 153.5 L3.7 155.35 11.7 158.65 Q13.3 155.7 16.15 152.2 18.55 149.2 19.9 148.25 L19.85 148.2 Q15.0 145.1 12.55 140.15 11.15 137.4 10.45 133.6 9.15 126.8 13.5 120.35 18.35 113.2 31.15 104.8 32.55 103.9 35.45 100.5 L41.1 93.6 Q48.85 84.45 53.45 83.55 L56.25 82.35 Q59.7 81.0 63.2 80.35 L67.85 79.75 Q71.9 79.35 74.75 79.65 L77.45 79.9 Q77.55 77.2 82.9 68.75 86.75 62.6 91.05 56.9 93.7 55.0 100.15 47.35 107.45 38.7 113.3 33.55 134.45 14.9 169.6 8.25 188.45 4.65 205.45 5.5 221.0 6.3 244.7 11.4 256.05 13.9 274.05 23.6 291.95 33.2 300.8 41.45 L308.9 48.45 Q314.85 53.8 317.45 56.7 326.0 66.55 330.5 72.5 L334.4 77.9 336.95 80.95 Q338.45 78.6 341.95 77.0 344.35 75.95 346.75 75.45 362.7 72.45 372.1 79.75 380.5 86.3 383.25 100.7 L383.55 104.4 Q422.85 84.15 436.55 78.6 442.4 76.25 447.7 74.8 L458.05 72.2 Q481.85 66.0 493.8 62.4 L502.4 60.1 Q512.8 58.15 519.1 59.65 525.6 61.2 526.55 66.2 527.0 68.65 526.4 70.25 525.65 72.4 522.4 75.65 516.0 82.05 489.4 101.8 L445.4 134.3 Q422.75 150.8 414.7 155.7 417.6 158.45 420.8 162.85 L423.4 166.6 Q425.2 166.3 434.75 204.5 446.75 252.6 448.5 258.3 L451.65 267.7 452.8 271.55 Q454.5 280.7 452.45 295.7 449.6 312.5 448.7 319.5 L448.45 324.65 Q448.4 328.45 448.65 329.85 L449.85 329.05 Q452.15 328.6 462.75 331.3 480.45 335.85 494.8 338.65 502.75 340.25 505.4 341.75 509.3 343.85 510.25 348.95 512.25 359.45 505.15 368.1 498.8 375.9 489.65 377.6 L481.05 378.2 468.45 376.5 Q474.75 378.9 479.45 384.9 484.0 390.7 485.3 397.45 486.6 404.3 483.95 409.0 481.45 413.5 475.4 415.9 476.35 420.2 477.45 428.35 478.9 439.6 477.45 439.85 L475.15 444.0 Q472.3 448.3 469.35 448.85 L466.05 449.25 460.55 448.9 461.25 450.5 Q462.45 456.85 460.7 461.05 458.0 467.2 448.3 472.65 L446.6 473.55 Q450.55 482.55 453.1 489.85 454.75 494.5 455.0 495.8 456.15 502.05 453.0 506.7 449.1 512.4 439.2 514.25 431.35 515.75 426.9 513.2 423.0 511.0 419.3 504.2 L411.3 487.95 Q405.1 475.75 397.65 465.1 399.85 488.15 393.3 507.1 388.15 522.2 376.35 537.15 372.35 542.15 368.65 547.45 L364.2 553.7 Q362.35 556.1 361.0 557.05 359.55 558.05 357.2 558.5 355.4 558.85 352.55 557.9 349.9 557.0 349.2 556.1 348.15 554.7 340.95 552.1 L330.0 548.35 Q318.85 543.7 313.4 540.4 307.7 536.85 300.05 529.85 294.0 525.3 286.95 516.05 L282.55 510.45 Q280.25 508.0 278.2 507.25 L281.3 521.2 282.65 527.65 283.85 534.6 284.55 539.1 285.1 544.7 Q285.6 550.65 285.3 554.65 L284.45 561.0 Q283.35 567.4 278.4 570.9 274.3 573.85 266.4 575.35 260.15 576.55 255.25 574.4 248.5 571.5 246.85 562.75 246.35 560.0 243.4 531.3 241.65 532.25 238.3 533.4 L234.5 534.55 Q231.9 535.05 228.55 533.25 225.0 531.35 222.6 527.9 220.8 526.85 218.7 522.6 216.7 518.5 216.0 514.75 215.0 509.7 216.45 505.45 217.9 501.05 223.1 493.45 L186.9 486.1 Q186.25 524.5 181.15 537.65 179.1 542.9 176.0 545.05 174.15 546.35 170.3 547.1 147.75 551.35 144.45 533.9 144.05 531.7 144.85 516.95 L145.95 497.65 146.85 476.05 117.85 464.0 Q114.7 469.15 110.05 474.9 106.25 479.6 104.4 481.2 99.9 485.85 97.35 487.45 95.4 488.65 92.55 489.2 L88.85 488.85 Q85.1 488.15 81.75 486.5 71.5 481.45 69.4 470.25 68.75 466.85 69.85 460.85 71.1 453.6 74.1 453.05 L77.35 449.25 82.9 442.65 Q75.35 436.45 70.3 431.45 65.6 426.6 63.1 424.3 57.0 415.95 52.6 413.1 51.1 412.05 47.1 410.05 L38.5 405.3 Q33.8 402.55 27.45 396.8 20.2 390.05 19.5 386.55 18.6 381.6 20.15 375.75 22.1 368.35 27.3 367.45 L26.8 364.6 Q12.1 368.0 1.2 367.3 -15.1 366.25 -17.1 355.7 -18.25 349.7 -16.75 343.65 -14.8 335.6 -8.65 334.45 L-0.1 333.45 11.0 332.5 Q1.5 313.15 -9.85 300.85 -14.9 295.45 -16.05 293.7 -18.6 290.05 -19.6 284.95 -21.05 277.25 -17.5 257.75 -15.85 248.65 -10.6 225.7 -26.95 230.25 -39.55 237.3 L-47.3 241.75 Q-50.9 243.75 -53.55 244.25 -57.0 244.9 -60.9 240.8 -65.4 236.15 -66.9 228.2 -68.9 217.75 -63.0 210.75 -58.75 205.75 -46.1 198.8 L-46.55 198.6 M45.9 133.6 Q45.15 133.95 44.75 134.85 L46.0 133.55 45.9 133.6 M448.15 440.9 Q444.35 434.85 443.0 430.9 L440.35 422.75 438.75 417.75 437.35 413.2 Q436.8 411.9 435.45 410.05 432.8 406.3 428.5 403.7 L422.2 411.65 415.6 419.85 Q418.25 423.85 425.9 429.2 432.45 433.8 436.85 435.65 L448.15 440.9" fill="#000000" fill-rule="evenodd" stroke="none"/>
    <path d="M369.8 118.8 Q343.5 137.5 317.5 157.0 298.25 171.4 295.5 173.8 283.2 160.0 279.35 153.7 L275.05 146.45 Q271.7 140.8 267.25 134.1 276.5 128.2 284.7 123.5 300.15 114.6 336.6 94.9 L338.5 98.65 Q339.5 100.7 341.15 100.4 L342.3 99.5 Q344.15 102.75 355.5 110.4 366.05 117.45 369.8 118.8 M412.65 240.45 L415.45 242.5 422.75 247.65 430.2 253.5 Q437.85 258.8 439.7 257.15 L441.8 263.35 Q441.95 264.0 439.4 265.95 L429.2 273.85 Q426.65 260.95 419.35 252.35 417.45 250.0 414.55 247.45 L412.35 245.15 Q412.1 243.7 412.35 242.1 L412.65 240.45 M399.45 176.7 Q405.65 185.45 408.35 190.25 413.75 199.9 415.5 209.15 L415.85 211.15 Q413.65 206.8 406.45 199.95 L399.7 194.0 Q398.2 186.0 398.6 181.3 398.85 178.9 399.45 176.7 M434.75 250.75 Q429.45 245.35 426.45 243.1 423.65 241.0 418.9 238.8 419.85 236.05 420.0 230.45 420.25 220.4 417.45 205.45 414.95 192.3 409.8 182.9 403.85 172.05 397.45 173.25 394.35 173.85 393.4 182.05 392.65 188.75 393.5 193.25 394.4 197.9 396.25 200.85 397.95 203.7 401.75 207.1 L400.6 198.1 Q401.65 200.2 403.9 203.2 L407.8 208.45 Q412.55 215.3 413.9 222.4 414.2 224.05 414.0 228.0 L413.65 233.95 Q408.05 211.85 399.6 205.5 397.7 204.15 394.3 202.9 392.05 202.1 391.8 200.8 391.15 197.55 390.9 191.5 390.55 184.8 390.9 178.7 391.9 162.5 396.8 161.4 412.6 179.95 420.65 196.05 428.7 212.0 432.6 232.6 L433.75 240.4 434.75 250.75 M390.25 200.05 L384.2 197.55 Q382.4 196.85 380.9 197.15 380.2 197.3 379.45 198.1 L378.8 198.9 378.85 198.45 378.8 197.35 378.65 195.85 Q377.75 191.2 373.9 180.95 L386.45 170.1 Q385.95 174.3 386.15 180.2 386.4 185.4 386.9 188.2 388.45 196.4 389.4 198.6 L390.25 200.05 M401.0 280.55 Q394.55 277.75 385.7 276.95 L372.25 277.35 370.5 277.75 Q371.5 268.65 372.35 255.85 373.15 243.9 373.7 238.8 375.6 221.6 382.25 200.7 393.35 204.25 398.25 209.65 402.1 213.9 403.5 221.25 407.35 241.75 404.7 262.5 403.9 269.0 402.4 275.15 L401.0 280.55 M357.05 308.3 Q359.3 320.15 360.2 330.05 361.5 344.8 360.2 358.4 359.5 366.6 356.6 376.15 354.3 383.7 353.3 385.1 352.15 386.25 345.9 385.2 339.2 384.15 331.65 381.3 311.35 373.6 304.9 360.85 303.55 358.1 298.0 350.1 L286.9 334.25 Q271.9 312.4 270.5 305.1 267.7 290.2 262.75 283.35 254.25 271.55 237.15 274.8 233.55 275.45 229.6 277.75 225.5 280.15 222.25 283.55 214.6 291.8 216.3 300.8 216.85 303.8 218.9 306.1 L226.7 313.05 221.4 316.7 Q220.4 317.35 215.15 321.85 214.7 320.25 199.25 292.95 216.0 280.85 221.15 265.0 225.65 251.4 222.0 232.35 L220.45 226.45 230.6 227.8 248.5 229.0 Q247.75 235.05 247.95 242.1 248.1 248.1 248.75 251.35 249.7 256.45 251.1 259.75 252.7 263.4 260.4 278.35 257.1 271.45 252.65 255.0 246.0 220.0 262.05 197.55 267.3 190.1 274.45 185.15 279.55 181.55 282.15 181.05 286.2 180.3 289.0 180.9 292.55 181.55 296.15 184.6 303.9 191.15 316.85 213.8 325.05 228.0 334.25 246.35 348.9 275.45 351.0 286.55 351.1 287.05 350.15 287.55 352.3 289.7 354.05 295.1 355.4 299.55 357.05 308.3 M368.25 265.1 Q369.7 272.8 369.4 276.0 369.15 278.7 367.3 279.5 L362.55 280.4 Q358.8 281.1 355.75 283.4 358.1 278.65 362.95 271.05 L366.9 264.45 365.85 263.25 366.4 263.4 367.8 264.15 Q368.05 264.2 368.25 265.1 M352.65 285.2 L351.55 285.4 Q343.55 259.15 341.75 254.25 L341.2 253.2 340.75 251.7 Q344.65 251.9 351.2 255.2 354.3 256.65 364.4 262.45 361.6 266.8 358.95 269.75 L355.7 273.15 Q354.45 274.65 353.9 276.95 353.25 279.4 352.65 285.2 M368.0 260.4 Q353.55 248.9 344.5 246.9 L340.0 246.35 Q338.55 246.1 338.0 244.75 335.1 237.6 330.1 227.0 325.25 216.75 322.6 212.1 L332.85 207.75 335.8 216.75 Q338.9 225.5 342.4 232.05 353.5 252.7 368.25 250.4 L368.0 260.4 M268.05 181.45 Q251.7 171.2 198.9 166.75 170.1 164.35 114.75 163.2 113.85 157.25 113.95 154.55 114.1 150.4 116.25 147.7 121.2 141.45 141.1 137.7 148.8 136.25 175.1 135.4 L221.45 134.0 233.95 133.4 Q242.2 133.35 248.15 135.35 264.9 140.9 269.3 164.15 270.0 167.95 269.7 170.7 L268.05 181.45 M333.35 89.35 Q301.65 106.55 289.85 113.95 280.2 120.05 265.8 131.4 L263.55 127.35 Q263.45 130.9 263.15 132.55 262.8 134.3 262.15 134.45 L257.45 134.15 247.4 132.65 Q226.95 130.2 187.6 130.75 L148.05 132.2 Q136.5 133.05 131.25 134.05 117.45 136.65 111.15 145.55 108.8 148.9 107.85 152.65 107.05 155.85 107.5 158.25 107.7 159.25 108.6 160.8 L110.1 163.2 71.95 164.2 72.4 162.9 Q72.5 161.9 72.2 160.35 70.85 153.05 62.2 147.7 L56.25 144.25 Q53.55 142.5 53.3 141.1 53.15 140.2 56.4 135.0 L64.15 123.0 Q76.7 103.7 80.25 95.2 94.45 61.35 119.95 40.4 142.3 22.0 168.2 17.1 213.05 8.6 252.3 23.95 296.95 41.4 333.35 89.35 M196.0 222.15 Q159.0 229.15 141.15 228.5 128.55 227.95 127.8 224.05 L127.85 222.65 127.8 221.2 127.0 218.8 122.65 208.15 Q133.7 209.4 165.85 215.9 L196.0 222.15 M8.2 307.45 Q-2.9 297.05 -6.8 292.2 -10.6 287.55 -11.4 283.4 L-11.6 279.75 Q-11.6 275.35 -10.95 269.35 -8.75 250.65 -0.45 224.25 L1.45 221.2 Q3.7 217.5 5.25 214.1 10.3 203.1 7.15 198.5 L62.6 201.5 Q92.9 203.7 117.85 207.5 L118.8 217.7 Q120.05 224.15 123.55 227.95 125.25 229.85 126.8 230.4 129.7 230.7 134.4 232.05 139.2 233.45 147.25 234.3 146.8 236.1 146.7 238.3 146.6 240.5 146.85 241.95 147.2 243.55 149.6 248.85 152.6 255.45 155.4 258.65 L141.85 254.75 Q130.6 252.05 124.4 253.2 119.1 254.2 115.1 256.4 L114.45 256.45 Q113.2 256.75 111.75 258.2 L109.9 260.35 Q108.25 262.05 107.05 264.15 106.0 265.95 105.3 267.95 L103.45 271.35 Q100.9 276.45 99.1 282.2 98.2 285.15 97.65 287.7 96.95 290.85 96.7 293.1 96.4 294.9 95.8 302.05 95.3 307.5 94.6 310.9 L94.0 313.35 92.05 300.9 Q83.85 257.45 62.9 243.2 47.45 232.7 22.4 237.45 20.05 237.9 16.65 243.05 12.75 249.0 10.2 257.75 2.9 281.45 9.05 309.9 L8.2 307.45 M211.55 325.6 Q208.1 328.4 203.65 333.15 L196.55 340.6 Q187.85 348.8 176.5 350.95 173.9 351.45 172.35 349.9 171.2 348.75 169.4 344.8 166.85 338.95 165.3 336.1 161.95 330.0 157.35 324.25 146.45 310.7 136.4 301.7 130.4 296.3 122.35 290.75 115.8 286.2 113.85 283.95 110.75 280.35 109.5 273.85 109.05 271.4 109.65 269.5 110.05 268.35 110.75 267.4 L111.0 267.1 Q113.3 264.35 118.7 263.35 143.2 258.7 162.8 268.15 180.35 276.6 193.55 296.05 196.9 301.05 199.8 306.8 L203.95 315.6 Q205.95 320.05 207.3 322.0 209.2 324.7 211.55 325.6 M46.5 310.3 Q44.3 298.75 47.55 292.0 50.35 286.05 56.2 285.75 61.95 285.45 67.0 290.6 72.6 296.3 74.4 305.8 75.8 313.2 71.15 321.5 66.6 329.7 60.95 330.75 57.95 331.3 52.5 323.1 47.5 315.5 46.5 310.3 M32.7 264.95 Q43.55 267.1 49.7 269.65 59.75 273.7 63.7 280.25 L63.0 279.95 Q62.55 279.3 58.95 279.1 L49.65 279.85 Q45.25 280.7 41.55 292.1 38.0 303.05 39.25 309.5 40.6 316.7 44.35 322.9 47.25 327.9 51.05 331.4 L50.65 331.25 Q44.0 333.2 35.4 321.2 31.8 316.15 29.15 310.2 26.4 304.2 25.5 299.4 23.95 291.4 25.45 283.65 27.1 275.1 32.7 264.95 M78.8 387.0 Q74.3 387.85 67.8 385.0 59.4 381.45 49.5 372.25 36.55 360.1 35.6 358.3 35.15 357.5 35.35 356.25 35.65 354.55 35.3 352.7 35.0 351.1 32.0 347.05 L25.5 337.95 Q15.65 323.5 12.9 308.95 10.1 294.35 10.75 281.2 11.35 268.05 15.3 259.8 L16.0 256.05 Q16.5 252.65 17.2 250.75 19.55 243.7 27.05 242.3 50.15 237.9 64.2 252.65 79.8 268.95 87.95 311.9 92.2 334.3 91.3 350.6 91.1 355.1 90.3 360.6 89.65 365.35 89.7 366.75 89.9 375.35 87.85 379.95 85.35 385.75 78.8 387.0 M80.2 300.6 Q72.0 272.15 53.35 263.0 46.95 259.85 39.85 259.3 L31.3 259.65 Q29.75 259.95 27.3 264.2 24.75 268.5 22.65 274.6 17.25 290.1 19.3 300.9 23.4 322.6 35.1 332.3 39.95 336.35 45.6 337.8 L55.75 338.2 Q71.3 335.25 76.05 323.9 77.75 319.75 78.65 312.85 L80.2 300.6 M90.55 438.1 Q81.0 430.75 73.55 423.35 69.35 419.1 63.7 412.4 59.15 406.95 56.95 405.1 53.55 402.3 49.2 401.4 43.85 400.25 35.65 393.1 28.05 386.45 27.6 384.0 26.95 380.85 28.2 378.55 29.0 377.05 31.2 375.15 L34.25 372.1 Q35.55 370.2 35.05 367.6 L34.55 365.9 Q40.6 371.6 48.6 377.9 57.6 385.05 61.7 386.9 69.2 390.35 74.3 392.35 L77.15 393.55 77.35 399.95 Q78.55 406.35 85.5 415.35 92.55 424.45 99.4 428.25 L90.55 438.1 M282.95 472.55 L282.7 490.15 282.25 499.45 Q277.15 497.95 275.55 497.25 272.2 495.85 271.95 494.35 L276.25 485.75 282.95 472.55 M221.15 300.95 Q220.05 292.8 225.35 286.35 230.65 280.05 239.55 278.35 249.5 276.5 256.7 282.05 264.0 287.65 266.15 299.05 L266.35 300.85 266.55 303.2 266.35 302.35 265.7 302.45 266.0 304.95 Q255.65 297.75 245.55 299.65 238.8 300.95 236.45 305.95 235.9 307.05 235.3 309.25 234.9 310.8 234.5 310.85 228.95 311.9 226.05 309.75 223.2 307.6 221.15 300.95 M138.0 463.55 L118.25 455.4 123.8 447.45 123.8 450.05 Q124.4 453.3 128.2 456.8 131.9 460.4 138.0 463.55 M388.4 447.5 L386.05 439.45 388.75 442.1 390.45 443.95 Q390.7 445.1 390.35 445.5 L388.4 447.5" fill="#7d96a8" fill-rule="evenodd" stroke="none"/>
    <path d="M283.5 446.7 Q284.2 447.75 284.9 448.05 285.55 448.3 285.55 448.45 287.4 458.3 279.3 473.35 273.75 483.55 262.55 497.65 259.35 501.75 255.95 507.5 L250.95 515.75 Q248.2 519.7 245.0 521.9 241.15 524.55 235.4 525.65 232.9 526.1 229.6 523.45 225.4 519.95 224.1 513.25 223.4 509.5 225.15 506.5 226.5 504.2 230.2 501.1 L237.7 495.05 Q242.6 490.95 246.05 486.45 L259.3 468.55 267.0 458.3 Q270.15 454.5 273.55 452.15 276.8 449.9 283.5 446.7 M271.75 516.4 L275.3 533.4 277.15 543.4 Q278.0 549.5 277.55 553.65 276.3 564.95 264.6 567.2 260.25 568.0 257.7 566.0 255.65 564.35 255.05 561.2 L254.2 550.2 Q253.25 539.05 252.75 536.3 L251.0 529.9 Q249.95 524.45 257.05 514.25 L263.05 506.3 268.0 499.6 271.35 516.45 271.75 516.4" fill="#cae4db" fill-rule="evenodd" stroke="none"/>
    <path d="M350.1 230.35 L348.5 226.1 Q357.15 230.1 359.45 230.85 363.95 232.25 368.45 231.4 L370.05 230.85 368.6 243.85 Q360.35 241.8 354.85 236.95 350.7 233.25 350.1 230.35 M198.1 291.4 L189.25 281.95 181.05 273.25 181.85 273.35 185.75 273.25 190.3 272.85 Q202.45 270.55 209.55 264.75 214.9 260.4 216.2 255.5 L216.2 256.65 Q216.3 263.35 211.65 272.75 206.55 283.15 198.1 291.4" fill="#996ca2" fill-rule="evenodd" stroke="none"/>
    <path d="M343.7 202.1 L348.75 199.35 Q348.35 201.05 348.3 202.2 L348.45 204.55 Q349.55 210.35 352.85 213.4 355.5 215.85 357.75 215.4 359.25 215.15 361.7 213.35 364.55 211.4 364.45 209.65 L367.75 209.6 Q365.3 224.45 350.9 217.9 347.85 216.5 346.2 213.9 344.1 210.4 344.05 205.85 344.05 203.65 343.7 202.1 M173.3 234.55 L176.7 234.25 Q175.4 235.55 175.0 238.2 174.75 240.2 175.05 241.65 L175.1 242.0 Q175.3 243.1 175.75 243.95 170.55 244.65 166.1 246.7 166.6 243.4 168.65 240.7 L173.3 234.55 M179.9 253.55 Q181.15 254.95 184.4 255.95 188.6 257.2 191.1 256.7 195.1 255.95 197.85 250.0 200.95 243.3 199.4 235.1 L198.4 232.95 196.85 230.8 199.6 230.05 Q202.7 237.1 204.05 245.2 204.55 248.25 202.75 250.75 191.05 267.1 171.9 257.6 L179.9 253.55" fill="#4e7377" fill-rule="evenodd" stroke="none"/>
    <path d="M503.95 68.35 L512.5 67.65 518.3 68.0 505.15 77.45 462.45 107.65 426.75 133.35 Q396.3 155.15 394.1 155.6 393.95 155.6 390.85 158.1 L382.15 164.45 321.75 210.4 Q315.9 197.75 309.5 189.5 304.15 182.55 300.2 180.9 318.05 160.8 351.25 137.5 361.3 130.4 375.25 121.4 L391.4 110.85 Q412.4 96.05 450.5 83.6 463.25 79.4 480.2 74.8 L503.95 68.35 M375.95 106.2 Q376.9 111.35 376.0 113.95 375.3 116.0 373.45 116.35 372.7 116.5 357.75 103.55 342.65 90.45 342.35 88.85 342.15 87.8 343.4 86.15 345.0 84.1 347.95 83.55 355.9 82.05 363.75 84.95 372.95 88.5 374.45 96.5 L375.45 102.45 Q375.55 104.2 375.95 106.2 M364.45 209.65 Q358.5 209.25 354.05 205.8 353.8 205.65 355.25 204.25 356.85 202.75 358.0 202.2 358.95 201.7 361.5 201.15 L364.8 200.2 363.6 198.5 362.85 197.3 361.75 194.6 360.65 191.55 Q360.5 191.0 360.8 189.7 361.15 188.05 361.85 187.6 363.05 186.75 364.8 185.85 367.15 184.65 367.55 184.85 368.75 185.4 370.6 192.1 L370.65 192.2 372.5 206.35 Q372.95 218.15 362.25 223.5 L359.8 224.65 Q353.95 226.95 348.85 223.35 344.85 220.6 339.55 213.5 335.0 207.5 334.8 206.5 334.7 205.8 335.95 204.6 337.1 203.35 338.8 202.35 343.1 199.8 343.7 202.1 344.05 203.65 344.05 205.85 344.1 210.4 346.2 213.9 347.85 216.5 350.9 217.9 365.3 224.45 367.75 209.6 L364.45 209.65 M444.45 272.6 Q444.7 295.8 441.6 307.6 438.3 320.5 429.55 326.7 428.1 327.75 422.25 334.6 415.4 342.8 409.95 347.95 390.4 366.7 367.35 371.05 L362.15 371.95 364.4 361.85 Q365.6 356.8 366.0 353.55 367.0 344.85 364.35 330.9 362.25 320.05 358.9 306.7 355.55 293.35 353.15 286.75 L359.35 285.4 Q376.4 282.15 392.8 284.85 L403.65 286.8 Q409.15 287.55 412.9 286.85 417.0 286.05 424.5 281.85 434.15 276.45 443.4 268.2 L444.45 272.6 M427.45 274.95 Q423.1 278.0 411.85 280.1 L409.25 280.5 403.95 281.1 Q407.8 271.25 410.05 261.4 411.95 253.3 412.0 248.85 L416.05 257.8 Q419.0 263.1 427.45 274.95 M442.75 332.25 Q470.2 342.1 490.95 346.8 L499.6 348.85 Q501.85 349.6 502.15 351.05 503.45 357.85 498.1 363.6 493.65 368.35 488.5 369.35 477.8 371.35 458.3 364.5 451.75 362.2 445.75 359.45 440.65 357.15 440.55 356.75 L442.15 347.0 Q443.6 336.55 442.95 332.95 L442.75 332.25 M411.8 353.05 Q416.8 349.5 439.15 318.05 435.85 330.85 435.85 337.95 435.8 339.85 436.1 341.8 L436.25 343.85 434.15 354.7 432.25 365.2 Q426.2 361.95 418.85 357.45 L411.8 353.05 M409.3 355.55 Q421.7 367.1 435.15 373.95 443.35 378.15 455.75 382.0 466.75 385.4 470.1 387.6 475.85 391.25 477.25 398.75 478.0 402.6 476.2 405.25 474.15 408.2 469.1 409.15 468.05 409.35 463.75 407.9 458.3 406.05 449.9 402.2 436.15 395.9 419.1 385.05 401.65 374.05 395.0 367.2 L403.6 360.45 409.3 355.55 M356.65 383.55 Q364.5 394.35 376.25 429.35 381.75 445.55 386.15 461.4 L389.5 474.0 Q391.5 484.55 389.1 493.1 388.05 497.1 385.45 503.15 L379.5 516.75 Q371.65 534.6 363.3 544.25 360.7 547.2 358.4 549.05 L356.55 550.3 355.4 550.1 355.45 546.75 Q333.7 541.2 326.35 538.1 322.45 536.4 319.05 534.1 L311.8 528.85 Q303.55 522.5 296.3 514.9 289.6 507.85 289.2 505.75 288.95 504.35 289.75 491.4 290.55 478.45 289.8 474.5 289.35 472.05 288.05 469.05 286.75 466.0 286.5 464.7 286.4 464.1 287.15 462.6 L288.75 459.45 Q291.05 454.35 290.05 449.0 289.9 448.1 288.55 446.2 L287.2 444.55 Q287.1 444.1 287.7 442.6 L289.05 438.95 Q290.8 432.65 289.2 424.2 288.05 418.25 286.55 413.2 285.0 407.85 283.6 405.2 295.85 400.7 302.05 396.3 309.35 391.15 318.75 379.35 L344.2 391.8 Q346.25 392.7 347.05 392.7 L348.8 392.35 Q351.15 391.9 352.85 389.95 354.4 388.15 356.65 383.55 M410.35 426.15 Q403.8 423.25 394.8 423.05 L389.3 423.2 387.1 423.4 Q386.25 423.55 385.35 425.7 384.15 428.45 382.85 429.95 L382.7 429.55 Q380.2 422.15 369.0 400.7 L358.25 380.65 Q358.05 379.5 358.25 379.2 358.4 378.95 359.05 378.7 360.75 377.6 362.05 372.25 363.35 372.55 364.6 373.3 L366.75 374.35 Q370.0 375.35 379.8 373.5 382.1 373.05 391.7 369.15 L394.2 372.15 397.15 375.6 Q402.95 381.35 424.2 396.4 L414.85 407.85 405.25 419.25 410.35 426.15 M-51.25 190.3 L-50.4 189.8 -50.35 189.85 -50.35 189.55 -51.15 189.0 -50.1 188.7 -46.6 188.6 -23.65 183.55 -19.9 183.45 -11.8 183.15 Q3.6 182.05 32.0 176.65 89.0 165.85 148.8 169.0 173.5 170.3 204.6 174.2 L263.2 182.45 Q263.2 183.0 264.15 184.95 265.2 187.0 265.5 187.05 262.5 191.75 256.4 204.9 249.1 220.5 249.1 224.95 245.45 223.6 244.95 222.7 L244.75 222.15 244.1 221.7 211.0 217.25 188.25 214.0 174.05 211.75 131.25 204.6 Q91.4 198.25 63.6 194.7 37.65 191.4 23.85 191.8 L13.8 192.5 3.0 192.8 -24.55 191.95 -51.25 190.3 M65.2 88.4 L69.9 88.05 74.25 87.8 Q61.3 110.2 54.3 125.3 52.45 129.35 51.65 130.35 50.8 131.5 48.2 133.3 43.0 136.85 39.7 141.95 L37.8 144.8 Q36.8 145.9 35.45 146.15 31.25 146.95 26.75 143.95 22.35 141.0 20.1 136.2 17.65 130.95 19.05 126.1 20.75 120.5 27.35 117.0 29.0 115.9 35.3 112.4 40.95 109.05 41.35 107.25 42.2 102.65 46.75 97.9 53.55 90.65 65.2 88.4 M35.65 148.3 Q42.55 147.0 49.9 150.85 57.3 154.7 66.95 164.65 L59.95 165.6 50.9 167.7 37.9 170.45 Q22.9 173.3 11.55 174.6 L-10.65 176.1 -17.85 176.5 -24.1 176.75 Q-30.35 176.5 -31.25 171.7 -31.75 169.15 -27.4 163.5 -23.0 157.75 -19.7 157.15 -18.25 156.85 -6.45 161.0 L5.05 165.25 15.8 169.45 Q16.05 168.75 18.05 164.9 20.4 160.45 21.9 158.6 25.0 154.4 28.7 151.65 32.35 148.95 35.65 148.3 M-51.95 234.85 Q-52.45 235.3 -52.85 235.35 -54.15 235.6 -55.7 233.95 -57.75 231.65 -58.7 226.65 -60.55 216.8 -49.6 209.7 -36.5 201.3 -3.7 195.45 L0.7 194.6 1.3 196.55 Q2.0 200.3 1.15 204.3 0.1 209.1 -3.0 213.8 -4.15 215.45 -6.15 216.2 L-14.35 218.4 Q-20.85 220.0 -29.75 223.65 -41.9 228.55 -51.95 234.85 M199.6 230.05 Q199.4 229.75 199.5 229.2 199.55 228.45 200.1 228.35 206.75 226.8 213.25 223.5 213.9 223.2 214.8 224.45 L215.6 225.95 216.25 230.6 216.25 230.8 215.2 241.1 212.55 247.15 Q210.0 252.55 208.55 254.4 203.25 261.05 194.7 265.0 189.45 267.45 184.65 268.2 L174.25 267.75 169.3 265.8 Q164.6 263.85 164.25 263.55 149.1 252.7 151.2 236.2 151.1 233.65 151.45 231.05 L159.95 231.85 174.15 232.45 Q174.45 232.45 174.0 233.35 L173.3 234.55 168.65 240.7 Q166.6 243.4 166.1 246.7 170.55 244.65 175.75 243.95 L183.15 243.5 Q186.4 243.55 188.4 245.7 190.65 248.1 187.4 249.75 L179.9 253.55 171.9 257.6 Q191.05 267.1 202.75 250.75 204.55 248.25 204.05 245.2 202.7 237.1 199.6 230.05 M104.6 280.55 Q105.95 287.5 110.35 291.9 112.15 293.75 115.5 296.15 L122.45 301.1 Q133.1 308.75 142.45 317.85 156.4 331.4 171.6 351.75 164.75 353.25 153.35 350.3 150.1 349.45 146.2 348.1 L143.05 347.1 Q141.65 347.35 141.25 352.0 140.95 356.0 141.45 358.65 143.0 366.9 153.1 375.2 162.65 382.9 178.55 389.85 193.9 396.45 212.8 401.3 231.8 406.15 251.1 408.35 249.85 413.4 244.95 424.2 240.0 435.1 233.9 446.2 218.45 474.2 211.55 475.55 L210.0 473.55 207.8 470.25 206.5 468.15 205.75 466.75 Q205.2 463.85 209.4 456.25 210.6 454.05 218.95 440.7 225.45 430.2 228.25 424.0 232.25 415.15 231.3 410.05 L230.85 408.65 229.65 405.85 Q225.4 414.75 218.9 425.5 212.0 436.45 209.2 441.3 204.55 449.45 202.9 455.4 200.9 462.8 202.25 470.0 203.5 476.5 207.45 478.45 210.6 480.05 216.15 479.0 219.65 478.35 225.5 472.2 231.7 465.75 237.5 456.25 252.3 432.25 253.95 408.6 L266.1 407.95 279.1 406.4 279.45 408.4 283.3 443.0 278.7 442.7 275.8 443.0 270.05 450.6 259.1 465.3 Q256.9 468.35 247.05 478.0 237.4 487.55 236.55 487.7 235.3 487.95 227.35 486.25 L179.7 476.15 Q180.4 472.25 180.1 467.1 179.95 463.7 179.5 461.55 177.7 451.9 169.55 444.65 166.05 441.6 162.5 440.05 158.9 438.55 156.35 439.05 152.35 439.8 149.55 461.95 140.8 453.7 137.8 452.0 136.55 451.3 133.05 449.85 L124.7 446.0 Q125.65 442.6 128.75 434.8 130.05 431.55 129.3 427.7 128.05 421.05 121.7 417.95 119.95 417.1 116.55 416.05 L112.55 414.5 103.25 424.1 98.7 417.55 Q93.95 411.15 80.0 393.5 L81.95 393.45 Q86.85 392.5 90.45 384.1 94.45 374.95 96.6 357.7 97.8 348.3 95.55 326.85 L95.25 324.15 96.9 318.5 98.95 310.7 100.6 295.75 Q101.6 287.35 104.4 279.45 L104.6 280.55 M-1.35 359.35 Q-5.0 360.0 -7.15 357.4 -8.55 355.6 -9.15 352.6 -9.9 348.6 -8.55 345.55 -7.45 342.75 -5.75 342.45 L2.9 341.75 15.55 340.3 Q18.85 339.7 21.9 345.55 L24.45 350.85 Q26.0 354.2 27.35 356.05 L11.8 358.65 1.55 359.45 -1.35 359.35 M269.5 399.4 L256.05 400.8 232.3 399.9 Q197.1 395.9 166.35 377.4 161.9 374.7 157.5 370.55 154.1 367.3 150.3 362.7 L146.1 357.0 143.7 353.2 147.8 354.35 152.45 355.55 Q158.35 357.45 165.1 358.1 171.0 358.75 174.0 358.15 177.25 357.55 188.8 349.35 196.4 343.95 212.45 331.65 L235.65 314.05 Q246.75 305.95 249.2 305.5 259.2 303.6 266.8 311.15 272.05 316.4 279.55 330.75 289.0 348.9 293.55 355.5 303.05 369.45 314.85 376.65 308.95 385.25 294.7 391.65 283.3 396.75 269.5 399.4 M168.45 458.9 Q171.85 476.95 172.4 494.6 L172.65 511.8 172.8 532.65 Q173.45 535.9 171.45 537.7 170.0 539.0 167.35 539.5 161.5 540.65 157.45 538.75 153.5 536.9 152.75 532.9 151.65 527.05 155.7 486.45 157.8 466.0 160.25 444.4 164.3 446.1 165.85 449.15 167.05 451.5 168.45 458.9 M116.6 420.2 Q121.05 425.35 124.5 428.65 L124.8 429.2 124.85 430.4 124.45 431.9 122.9 434.45 117.45 445.2 Q112.95 454.2 109.5 459.65 102.2 471.35 97.9 476.25 94.3 480.35 91.9 480.8 88.05 481.5 83.1 477.0 78.35 472.7 77.55 468.45 77.2 466.65 80.1 461.9 82.5 457.85 84.4 455.9 L90.95 447.55 Q92.8 445.2 99.75 437.45 L105.85 430.5 116.6 420.2 M443.85 407.15 Q450.95 411.4 457.0 414.05 L464.0 416.8 Q466.25 417.8 467.1 419.25 467.85 420.6 468.7 424.9 470.1 432.45 468.85 437.0 467.8 440.9 465.35 441.35 460.8 442.25 457.3 439.0 454.5 436.3 452.0 430.3 450.65 427.0 447.95 418.6 445.45 410.8 443.85 407.15 M390.75 428.3 Q393.9 427.7 404.1 430.95 413.25 433.8 424.95 438.7 436.3 443.45 444.25 447.7 452.8 452.25 453.1 453.95 453.7 457.15 450.8 461.15 448.2 464.75 446.3 465.1 444.45 465.45 434.05 459.15 421.85 451.75 417.9 450.25 L403.7 445.25 Q397.1 443.0 392.75 440.7 387.35 437.85 388.45 432.85 389.05 430.3 390.75 428.3 M433.95 465.9 L440.95 482.75 Q446.65 496.55 446.8 497.45 447.45 500.85 445.2 503.0 442.95 505.1 437.75 506.1 432.15 507.15 428.6 503.8 425.7 501.25 421.65 492.95 L412.15 473.95 Q404.75 460.35 395.35 447.55 L417.0 457.8 433.95 465.9" fill="#e2fff5" fill-rule="evenodd" stroke="none"/>
  </g>
</svg>
