<?xml version="1.0" encoding="UTF-8" standalone="no"?>
<svg xmlns:ffdec="https://www.free-decompiler.com/flash" xmlns:xlink="http://www.w3.org/1999/xlink" ffdec:objectType="shape" height="22.65px" width="23.4px" xmlns="http://www.w3.org/2000/svg">
  <g transform="matrix(1.0, 0.0, 0.0, 1.0, -0.2, -0.65)">
    <path d="M20.6 6.65 L21.7 7.25 23.1 8.45 23.6 9.05 23.25 9.7 20.4 13.4 19.5 13.45 17.55 11.75 Q16.75 11.05 16.9 10.3 L16.05 10.55 14.6 11.45 Q14.3 11.7 14.05 11.45 L10.95 8.65 Q11.9 7.7 11.8 6.4 11.65 4.15 9.35 3.85 L7.5 3.8 Q6.9 3.8 6.75 3.35 L7.0 2.75 Q8.15 1.25 9.75 0.9 L12.5 0.65 Q14.3 0.65 16.6 2.65 L19.95 5.65 Q20.6 6.2 20.6 6.65" fill="#f1c75f" fill-rule="evenodd" stroke="none"/>
    <path d="M13.05 12.9 L6.55 20.15 4.55 22.4 Q3.55 23.45 2.3 23.25 0.65 23.0 0.25 21.35 -0.05 20.0 0.95 19.0 L9.6 10.2 Q9.9 9.9 10.2 10.2 L13.05 12.9" fill="#f1c75f" fill-rule="evenodd" stroke="none"/>
  </g>
</svg>
