<?xml version="1.0" encoding="UTF-8" standalone="no"?>
<svg xmlns:ffdec="https://www.free-decompiler.com/flash" xmlns:xlink="http://www.w3.org/1999/xlink" ffdec:objectType="shape" height="17.0px" width="14.0px" xmlns="http://www.w3.org/2000/svg">
  <g transform="matrix(1.0, 0.0, 0.0, 1.0, -0.05, 0.0)">
    <path d="M12.3 17.0 L1.8 17.0 1.55 16.75 1.55 8.45 1.75 8.25 2.4 8.2 11.9 8.2 12.35 8.25 12.55 8.5 12.55 16.45 12.5 16.85 12.3 17.0 M5.55 14.15 L8.6 14.15 8.7 14.05 8.75 13.95 8.75 11.0 8.7 10.85 8.65 10.75 5.55 10.75 5.4 10.95 5.4 14.0 5.55 14.15" fill="#f1c75f" fill-rule="evenodd" stroke="none"/>
    <path d="M13.8 7.15 L0.25 7.15 0.05 6.95 0.1 6.7 6.85 0.1 Q7.05 -0.05 7.2 0.1 L13.95 6.7 14.0 7.0 13.8 7.15" fill="#f1c75f" fill-rule="evenodd" stroke="none"/>
  </g>
</svg>
