<?xml version="1.0" encoding="UTF-8" standalone="no"?>
<svg xmlns:ffdec="https://www.free-decompiler.com/flash" xmlns:xlink="http://www.w3.org/1999/xlink" ffdec:objectType="shape" height="24.0px" width="24.0px" xmlns="http://www.w3.org/2000/svg">
  <g transform="matrix(1.0, 0.0, 0.0, 1.0, 0.0, 0.0)">
    <path d="M3.65 4.85 L10.6 8.95 Q11.0 9.2 11.0 9.75 L11.0 23.4 10.9 23.95 10.4 23.9 0.7 18.55 Q0.0 18.2 0.0 17.2 L0.0 5.0 Q0.0 4.05 0.75 3.6 L7.45 0.2 8.35 0.1 8.9 0.8 Q9.3 1.9 8.2 2.5 L3.65 4.85" fill="#f1c75f" fill-rule="evenodd" stroke="none"/>
    <path d="M20.3 4.85 L15.65 2.45 Q14.7 1.85 15.1 0.75 15.45 -0.35 16.45 0.15 L23.2 3.6 Q24.0 4.0 24.0 5.0 L24.0 17.15 Q24.0 18.2 23.25 18.55 L13.6 23.85 13.05 23.95 12.95 23.3 12.95 9.8 Q12.95 9.2 13.45 8.9 L20.3 4.85" fill="#f1c75f" fill-rule="evenodd" stroke="none"/>
  </g>
</svg>
