<?xml version="1.0" encoding="UTF-8" standalone="no"?>
<svg xmlns:ffdec="https://www.free-decompiler.com/flash" xmlns:xlink="http://www.w3.org/1999/xlink" ffdec:objectType="shape" height="17.0px" width="15.0px" xmlns="http://www.w3.org/2000/svg">
  <g transform="matrix(1.0, 0.0, 0.0, 1.0, 0.0, 0.0)">
    <path d="M12.65 1.05 L12.75 1.3 13.1 2.8 13.1 2.9 14.9 10.25 15.0 10.55 0.0 10.55 0.0 10.3 2.45 0.3 2.65 0.1 2.7 0.1 2.85 0.05 11.9 0.0 12.0 0.05 12.1 0.05 12.55 0.45 12.65 0.85 12.65 1.05 M6.75 11.1 L8.2 11.1 Q8.35 11.1 8.35 11.2 L8.35 15.2 12.2 15.2 Q12.7 15.2 12.8 15.5 L12.85 15.55 12.9 15.75 12.9 17.0 2.05 17.0 2.05 15.8 2.1 15.6 2.1 15.5 Q2.35 15.2 2.65 15.2 L6.6 15.2 6.6 11.25 Q6.6 11.1 6.75 11.1" fill="#f1c75f" fill-rule="evenodd" stroke="none"/>
  </g>
</svg>
