<?xml version="1.0" encoding="UTF-8" standalone="no"?>
<svg xmlns:ffdec="https://www.free-decompiler.com/flash" xmlns:xlink="http://www.w3.org/1999/xlink" ffdec:objectType="shape" height="16.95px" width="16.0px" xmlns="http://www.w3.org/2000/svg">
  <g transform="matrix(1.0, 0.0, 0.0, 1.0, 0.0, -0.05)">
    <path d="M3.65 13.7 Q2.55 14.8 1.45 17.0 0.45 16.75 0.05 16.0 -0.05 15.85 0.1 15.65 L1.3 13.95 Q1.75 13.3 2.35 12.75 3.9 11.2 5.65 10.25 L7.8 9.1 10.75 7.35 12.1 6.0 13.25 4.15 13.25 4.1 13.0 4.45 Q11.95 5.95 10.35 6.85 L7.15 8.3 Q4.8 9.3 3.6 10.1 L1.8 11.5 1.5 10.75 Q1.2 9.85 1.3 8.75 L1.6 7.35 Q2.1 5.95 3.3 4.9 4.05 4.25 5.35 3.7 6.2 3.35 7.8 2.95 L10.0 2.45 Q11.7 2.05 12.45 1.65 L13.9 0.7 14.65 0.05 15.1 0.85 15.75 2.75 15.95 4.0 16.0 5.75 Q16.0 7.25 15.45 8.8 L13.9 11.6 Q12.7 13.05 10.85 13.8 L8.65 14.45 6.45 14.55 Q5.0 14.45 3.75 13.7 L3.65 13.7" fill="#f1c75f" fill-rule="evenodd" stroke="none"/>
  </g>
</svg>
