<?xml version="1.0" encoding="UTF-8" standalone="no"?>
<svg xmlns:ffdec="https://www.free-decompiler.com/flash" xmlns:xlink="http://www.w3.org/1999/xlink" ffdec:objectType="shape" height="23.95px" width="23.05px" xmlns="http://www.w3.org/2000/svg">
  <g transform="matrix(1.0, 0.0, 0.0, 1.0, 0.0, 0.0)">
    <path d="M16.45 6.8 L20.15 6.8 21.0 7.05 Q21.15 7.3 20.9 7.9 19.5 10.9 21.1 14.05 22.4 16.5 22.95 18.7 23.3 20.05 22.65 21.9 21.9 24.05 19.5 23.95 L13.75 23.95 Q12.05 23.95 11.0 22.95 10.0 22.0 9.9 20.25 9.85 19.15 10.2 17.85 L11.05 15.6 12.1 13.55 Q13.5 11.05 12.2 8.1 11.85 7.3 12.0 7.05 12.15 6.8 13.05 6.75 L16.45 6.75 16.45 6.8" fill="#f1c75f" fill-rule="evenodd" stroke="none"/>
    <path d="M8.95 23.75 L7.55 23.95 5.4 23.95 Q3.0 23.95 1.6 22.6 0.15 21.25 0.0 18.8 -0.15 16.4 1.45 12.7 L2.95 9.65 Q5.15 5.9 3.1 1.6 2.7 0.7 2.9 0.35 3.15 0.0 4.15 0.0 L7.95 0.0 Q9.35 0.0 8.85 1.35 8.05 3.75 7.8 4.8 7.35 7.2 9.0 9.85 10.8 12.6 9.1 15.0 8.9 15.25 8.25 17.1 7.1 20.8 8.95 23.75" fill="#f1c75f" fill-rule="evenodd" stroke="none"/>
  </g>
</svg>
