<?xml version="1.0" encoding="UTF-8" standalone="no"?>
<svg xmlns:ffdec="https://www.free-decompiler.com/flash" xmlns:xlink="http://www.w3.org/1999/xlink" ffdec:objectType="frame" height="346.7px" width="296.05px" xmlns="http://www.w3.org/2000/svg">
  <g transform="matrix(1.0, 0.0, 0.0, 1.0, 172.1, 121.4)">
    <use ffdec:characterId="1032" height="138.55" transform="matrix(1.0, 0.0, 0.0, 1.0, -172.1, 86.75)" width="136.95" xlink:href="#sprite0"/>
    <use ffdec:characterId="1033" height="327.8" transform="matrix(1.0, 0.0, 0.0, 1.0, -141.8, -119.4)" width="265.75" xlink:href="#shape1"/>
    <use ffdec:characterId="1035" height="20.4" transform="matrix(1.2396, 0.0, 0.0, 1.2396, -12.6563, -121.3942)" width="51.85" xlink:href="#sprite1"/>
  </g>
  <defs>
    <g id="sprite0" transform="matrix(1.0, 0.0, 0.0, 1.0, 68.5, 69.25)">
      <use ffdec:characterId="1031" height="138.55" transform="matrix(1.0, 0.0, 0.0, 1.0, -68.5, -69.25)" width="136.95" xlink:href="#shape0"/>
    </g>
    <g id="shape0" transform="matrix(1.0, 0.0, 0.0, 1.0, 68.5, 69.25)">
      <path d="M13.6 -31.25 L16.25 -31.75 12.7 -31.5 13.6 -31.25 M7.35 -31.15 L7.65 -31.3 2.8 -31.25 -5.95 -31.45 Q-5.65 -29.95 -4.35 -29.15 L-4.0 -28.95 -1.0 -28.85 0.1 -29.6 Q1.8 -30.75 2.45 -30.75 2.95 -30.75 3.55 -30.35 4.15 -30.0 4.65 -30.0 5.35 -30.0 7.35 -31.15 M-37.45 -42.25 Q-37.1 -41.9 -37.05 -40.9 L44.2 -40.9 46.2 -42.6 19.75 -42.6 17.6 -42.25 14.85 -42.6 -37.7 -42.6 -37.45 -42.25 M-37.9 -43.95 L-37.9 -43.9 12.25 -43.9 12.1 -44.0 Q10.7 -45.2 10.0 -45.6 L8.4 -45.6 6.8 -45.15 4.65 -44.55 Q-2.15 -44.55 -5.8 -45.6 L-38.95 -45.6 -38.8 -45.55 Q-37.9 -45.25 -37.9 -43.95 M-29.45 -35.65 L-28.2 -34.9 35.35 -34.9 38.0 -36.6 -31.25 -36.6 -29.45 -35.65 M30.65 -32.6 Q31.55 -32.6 35.1 -34.75 L29.95 -33.6 -21.9 -33.6 -21.15 -31.35 -18.9 -31.1 Q-17.8 -31.1 -16.05 -31.95 L-13.35 -33.1 -10.9 -31.9 8.75 -31.9 10.05 -32.35 11.75 -31.9 16.9 -31.9 19.0 -32.3 21.9 -30.15 26.05 -30.9 26.3 -31.05 Q29.4 -32.6 30.65 -32.6 M26.05 -44.2 L24.95 -43.9 47.55 -43.9 48.85 -45.6 31.45 -45.6 26.05 -44.2 M49.3 -47.1 L48.65 -48.6 36.9 -48.6 Q36.0 -48.1 35.3 -46.9 L49.3 -46.9 49.3 -47.1 M40.35 -38.15 L42.45 -39.6 -36.9 -39.6 Q-36.65 -38.55 -35.75 -37.9 L40.0 -37.9 40.35 -38.15 M39.6 -53.75 L40.65 -53.3 40.05 -52.9 46.25 -52.9 45.1 -54.6 43.0 -54.6 39.6 -53.75 M47.2 -51.2 L47.0 -51.6 38.15 -51.6 Q37.35 -50.8 37.35 -49.9 L47.95 -49.9 47.2 -51.2 M60.2 -36.75 Q60.2 -41.25 58.6 -45.3 54.6 -39.2 43.85 -34.4 26.9 -26.8 2.85 -26.8 -21.2 -26.8 -38.2 -34.4 -50.6 -39.95 -53.9 -47.2 -56.4 -42.3 -56.4 -36.75 -56.4 -22.25 -39.35 -12.05 -29.6 -6.2 -17.6 -3.7 -8.5 -1.8 1.9 -1.8 12.3 -1.8 21.4 -3.7 33.4 -6.2 43.1 -12.05 60.2 -22.25 60.2 -36.75 M-38.8 -61.9 Q-21.75 -69.25 2.3 -69.25 26.35 -69.25 43.35 -61.9 58.35 -55.4 60.15 -46.55 L60.45 -46.0 Q62.2 -41.65 62.2 -36.75 62.3 -24.0 50.05 -14.35 L58.7 14.0 58.8 14.2 68.25 45.3 68.25 45.4 Q68.7 46.95 68.05 48.55 L67.9 48.8 67.8 48.95 Q66.85 50.4 65.4 50.9 L64.9 51.0 62.0 50.75 61.95 50.7 61.75 50.6 61.6 50.55 Q59.95 49.45 59.6 47.8 L59.55 47.5 51.55 21.05 7.35 34.9 6.95 34.95 7.05 64.8 Q7.05 65.4 6.65 65.85 6.8 66.4 6.55 66.95 L5.95 67.8 5.85 67.9 5.75 67.95 Q4.4 69.3 2.55 69.3 0.85 69.3 -0.45 68.2 L-0.75 67.85 -1.4 66.85 Q-1.65 66.35 -1.5 65.85 -1.95 65.4 -1.95 64.8 L-2.05 36.7 -2.4 36.65 -50.2 20.85 -50.3 20.8 -59.25 43.45 -59.7 44.1 -59.8 44.9 Q-60.55 46.6 -62.1 47.3 L-62.15 47.35 Q-63.85 48.1 -65.65 47.35 L-65.7 47.35 Q-67.45 46.55 -68.0 45.1 L-67.95 45.25 Q-68.95 43.4 -68.1 41.45 L-67.7 40.9 -67.65 40.1 -57.35 13.9 -56.9 13.3 -56.8 12.5 -46.3 -14.35 Q-58.5 -24.0 -58.4 -36.75 -58.4 -42.8 -55.65 -48.1 L-54.8 -48.95 Q-51.65 -56.3 -38.8 -61.9 M62.2 48.25 L64.35 48.05 Q66.65 47.1 66.55 46.8 L55.9 15.1 55.85 14.9 47.6 -12.2 45.7 -11.0 45.5 -10.85 45.0 -10.45 52.5 14.15 52.6 14.1 53.75 14.0 54.4 14.6 54.85 15.25 Q55.05 15.7 54.6 16.8 L53.75 18.25 62.2 48.25 M7.9 2.25 L48.2 10.3 42.3 -9.25 Q33.0 -4.1 21.8 -1.75 14.65 -0.25 6.75 0.1 L6.75 2.5 6.8 2.45 Q7.3 2.1 7.9 2.25 M7.3 5.15 Q7.0 5.1 6.3 5.55 5.6 6.0 5.55 6.3 5.5 6.6 5.95 7.3 L6.7 8.1 46.25 16.0 46.45 15.85 47.5 15.45 52.4 14.15 7.3 5.15 M53.1 17.35 L53.5 17.4 53.6 14.8 52.8 14.9 5.25 29.25 3.9 30.7 Q3.75 31.05 4.85 32.55 L53.1 17.35 M0.95 35.75 Q0.3 65.9 0.6 66.2 L2.6 66.4 4.55 66.15 Q4.8 65.85 3.95 32.9 2.9 31.55 3.0 31.15 3.15 30.2 3.8 29.4 L3.9 29.3 3.75 0.3 Q2.3 0.5 0.75 0.3 L0.95 30.4 1.05 30.6 1.3 34.4 1.2 35.25 0.95 35.75 M6.4 9.6 L6.35 9.55 5.3 9.1 5.4 27.7 41.0 16.5 6.4 9.6 M-62.6 43.7 L-52.1 17.05 0.5 34.4 0.4 31.2 -49.65 14.2 -49.7 14.2 -50.25 13.95 -50.6 13.65 -50.8 13.7 -41.3 -10.55 Q-42.45 -11.45 -43.9 -12.25 L-65.4 42.6 Q-65.65 43.2 -65.35 43.75 L-64.55 44.55 Q-63.95 44.8 -63.4 44.55 -62.85 44.3 -62.6 43.7 M-24.3 -33.4 L-23.7 -33.6 -24.35 -33.6 -27.1 -34.15 -25.5 -33.05 -24.3 -33.4 M-39.65 -48.55 Q-38.75 -47.8 -38.65 -46.9 L-8.55 -46.9 -10.85 -48.6 -39.7 -48.6 -39.65 -48.55 M-9.15 -31.0 L-6.85 -31.5 -10.65 -31.75 -9.15 -31.0 M-40.65 -50.15 L-40.6 -49.9 -12.9 -49.9 -15.0 -51.05 -14.6 -51.6 -39.7 -51.6 Q-40.65 -50.55 -40.65 -50.15 M-34.6 -56.35 L-35.55 -55.9 -14.9 -55.9 Q-15.45 -57.0 -16.25 -57.6 L-20.2 -57.6 -23.85 -56.3 -24.9 -57.15 -25.35 -57.6 -31.5 -57.6 -34.6 -56.35 M-14.45 -54.6 L-37.1 -54.6 -38.45 -52.9 -14.25 -52.9 -14.45 -54.6 M-0.55 29.35 L-0.7 9.95 Q-1.3 10.5 -2.15 10.65 L-39.55 16.5 -0.55 29.35 M-3.3 3.3 Q-2.7 3.2 -2.2 3.55 L-2.25 0.15 Q-10.55 -0.2 -18.0 -1.75 -29.25 -4.1 -38.6 -9.3 L-46.05 10.0 -3.3 3.3 M-2.4 9.15 L-1.6 8.45 Q-1.1 7.75 -1.15 7.45 -1.2 7.1 -1.85 6.65 -2.55 6.15 -2.85 6.2 L-49.45 13.5 -44.05 15.6 -44.05 15.65 -2.4 9.15 M-1.05 66.95 L-1.0 67.1 -1.0 67.05 -1.05 66.95" fill="#222425" fill-rule="evenodd" stroke="none"/>
      <path d="M47.2 -51.2 L47.95 -49.9 37.35 -49.9 Q37.35 -50.8 38.15 -51.6 L47.0 -51.6 47.2 -51.2 M39.6 -53.75 L43.0 -54.6 45.1 -54.6 46.25 -52.9 40.05 -52.9 40.65 -53.3 39.6 -53.75 M40.35 -38.15 L40.0 -37.9 -35.75 -37.9 Q-36.65 -38.55 -36.9 -39.6 L42.45 -39.6 40.35 -38.15 M49.3 -47.1 L49.3 -46.9 35.3 -46.9 Q36.0 -48.1 36.9 -48.6 L48.65 -48.6 49.3 -47.1 M26.05 -44.2 L31.45 -45.6 48.85 -45.6 47.55 -43.9 24.95 -43.9 26.05 -44.2 M30.65 -32.6 Q29.4 -32.6 26.3 -31.05 L26.05 -30.9 21.9 -30.15 19.0 -32.3 16.9 -31.9 11.75 -31.9 10.05 -32.35 8.75 -31.9 -10.9 -31.9 -13.35 -33.1 -16.05 -31.95 Q-17.8 -31.1 -18.9 -31.1 L-21.15 -31.35 -21.9 -33.6 29.95 -33.6 35.1 -34.75 Q31.55 -32.6 30.65 -32.6 M-29.45 -35.65 L-31.25 -36.6 38.0 -36.6 35.35 -34.9 -28.2 -34.9 -29.45 -35.65 M-37.9 -43.95 Q-37.9 -45.25 -38.8 -45.55 L-38.95 -45.6 -5.8 -45.6 Q-2.15 -44.55 4.65 -44.55 L6.8 -45.15 8.4 -45.6 10.0 -45.6 Q10.7 -45.2 12.1 -44.0 L12.25 -43.9 -37.9 -43.9 -37.9 -43.95 M-37.45 -42.25 L-37.7 -42.6 14.85 -42.6 17.6 -42.25 19.75 -42.6 46.2 -42.6 44.2 -40.9 -37.05 -40.9 Q-37.1 -41.9 -37.45 -42.25 M7.35 -31.15 Q5.35 -30.0 4.65 -30.0 4.15 -30.0 3.55 -30.35 2.95 -30.75 2.45 -30.75 1.8 -30.75 0.1 -29.6 L-1.0 -28.85 -4.0 -28.95 -4.35 -29.15 Q-5.65 -29.95 -5.95 -31.45 L2.8 -31.25 7.65 -31.3 7.35 -31.15 M13.6 -31.25 L12.7 -31.5 16.25 -31.75 13.6 -31.25 M-14.45 -54.6 L-14.25 -52.9 -38.45 -52.9 -37.1 -54.6 -14.45 -54.6 M-34.6 -56.35 L-31.5 -57.6 -25.35 -57.6 -24.9 -57.15 -23.85 -56.3 -20.2 -57.6 -16.25 -57.6 Q-15.45 -57.0 -14.9 -55.9 L-35.55 -55.9 -34.6 -56.35 M-40.65 -50.15 Q-40.65 -50.55 -39.7 -51.6 L-14.6 -51.6 -15.0 -51.05 -12.9 -49.9 -40.6 -49.9 -40.65 -50.15 M-9.15 -31.0 L-10.65 -31.75 -6.85 -31.5 -9.15 -31.0 M-39.65 -48.55 L-39.7 -48.6 -10.85 -48.6 -8.55 -46.9 -38.65 -46.9 Q-38.75 -47.8 -39.65 -48.55 M-24.3 -33.4 L-25.5 -33.05 -27.1 -34.15 -24.35 -33.6 -23.7 -33.6 -24.3 -33.4" fill="#ff9933" fill-rule="evenodd" stroke="none"/>
      <path d="M62.2 48.25 L53.75 18.25 54.6 16.8 Q55.05 15.7 54.85 15.25 L54.4 14.6 53.75 14.0 52.6 14.1 52.5 14.15 45.0 -10.45 45.5 -10.85 45.7 -11.0 47.6 -12.2 55.85 14.9 55.9 15.1 66.55 46.8 Q66.65 47.1 64.35 48.05 L62.2 48.25 M0.95 35.75 L1.2 35.25 1.3 34.4 1.05 30.6 0.95 30.4 0.75 0.3 Q2.3 0.5 3.75 0.3 L3.9 29.3 3.8 29.4 Q3.15 30.2 3.0 31.15 2.9 31.55 3.95 32.9 4.8 65.85 4.55 66.15 L2.6 66.4 0.6 66.2 Q0.3 65.9 0.95 35.75 M53.1 17.35 L4.85 32.55 Q3.75 31.05 3.9 30.7 L5.25 29.25 52.8 14.9 53.6 14.8 53.5 17.4 53.1 17.35 M7.3 5.15 L52.4 14.15 47.5 15.45 46.45 15.85 46.25 16.0 6.7 8.1 5.95 7.3 Q5.5 6.6 5.55 6.3 5.6 6.0 6.3 5.55 7.0 5.1 7.3 5.15 M-62.6 43.7 Q-62.85 44.3 -63.4 44.55 -63.95 44.8 -64.55 44.55 L-65.35 43.75 Q-65.65 43.2 -65.4 42.6 L-43.9 -12.25 Q-42.45 -11.45 -41.3 -10.55 L-50.8 13.7 -50.6 13.65 -50.25 13.95 -49.7 14.2 -49.65 14.2 0.4 31.2 0.5 34.4 -52.1 17.05 -62.6 43.7 M-2.4 9.15 L-44.05 15.65 -44.05 15.6 -49.45 13.5 -2.85 6.2 Q-2.55 6.15 -1.85 6.65 -1.2 7.1 -1.15 7.45 -1.1 7.75 -1.6 8.45 L-2.4 9.15" fill="#999999" fill-rule="evenodd" stroke="none"/>
      <path d="M60.2 -36.75 Q60.2 -22.25 43.1 -12.05 33.4 -6.2 21.4 -3.7 12.3 -1.8 1.9 -1.8 -8.5 -1.8 -17.6 -3.7 -29.6 -6.2 -39.35 -12.05 -56.4 -22.25 -56.4 -36.75 -56.4 -42.3 -53.9 -47.2 -50.6 -39.95 -38.2 -34.4 -21.2 -26.8 2.85 -26.8 26.9 -26.8 43.85 -34.4 54.6 -39.2 58.6 -45.3 60.2 -41.25 60.2 -36.75" fill="#3d3f40" fill-rule="evenodd" stroke="none"/>
    </g>
    <g id="shape1" transform="matrix(1.0, 0.0, 0.0, 1.0, 141.8, 119.4)">
      <path d="M-112.7 28.85 Q-108.4 46.3 -111.15 59.9 -113.25 68.7 -113.65 75.3 -114.2 83.9 -112.65 90.8 L-117.45 90.95 Q-118.75 84.05 -117.9 75.6 -117.1 68.7 -114.85 59.9 -111.5 46.3 -115.1 28.85 -118.15 14.4 -113.65 -2.3 -110.85 -12.95 -111.45 -23.45 -111.65 -28.4 -112.7 -33.35 -111.5 -28.4 -111.0 -23.45 -110.05 -12.95 -112.55 -2.3 -116.4 14.4 -112.7 28.85 M-82.05 8.6 Q-72.6 30.8 -78.9 48.15 -83.55 59.3 -84.35 68.1 -85.6 79.0 -81.75 87.75 L-92.55 87.25 Q-95.45 78.45 -93.6 67.65 -91.85 59.4 -87.0 47.9 -78.9 30.8 -87.35 8.6 -94.2 -10.05 -84.35 -31.0 -75.2 -51.1 -82.15 -70.45 -73.7 -51.1 -81.75 -31.0 -90.25 -9.95 -82.05 8.6 M-138.35 67.95 Q-133.35 59.75 -138.35 50.5 -143.55 41.45 -138.2 33.15 -141.2 38.8 -136.65 50.55 -134.3 56.6 -133.95 59.45 -133.35 64.3 -135.25 68.2 -140.25 77.55 -134.9 85.65 -128.45 95.9 -132.1 103.2 L-138.35 102.6 Q-136.2 98.7 -136.65 94.15 -137.3 90.05 -140.1 85.5 -144.2 77.5 -138.35 67.95 M-63.9 44.85 Q-62.1 31.55 -63.8 17.95 -65.5 4.0 -63.8 -9.15 -65.2 4.15 -63.2 18.35 -61.25 31.25 -62.85 45.55 -64.45 58.95 -62.5 72.65 -60.55 86.1 -62.1 99.95 L-64.1 98.5 Q-62.5 86.1 -64.2 71.75 -65.7 58.7 -63.9 44.85" fill="#566167" fill-opacity="0.34901962" fill-rule="evenodd" stroke="none"/>
      <path d="M-140.2 105.75 Q-140.2 105.15 -137.75 102.1 L-134.2 98.25 -125.2 91.9 -115.05 85.85 Q-106.1 80.55 -106.1 80.45 -106.1 79.45 -100.25 77.95 L-94.35 76.65 -92.2 76.85 -87.75 78.45 Q-82.5 80.5 -79.5 84.0 -79.5 85.05 -73.75 88.8 -69.2 91.75 -64.95 94.0 L-60.1 95.95 Q-56.8 97.75 -56.8 101.5 -56.8 106.15 -63.95 111.55 -71.0 116.9 -76.65 116.9 L-78.6 116.8 -94.9 114.55 Q-96.65 114.3 -99.95 112.5 -100.75 112.5 -103.1 113.55 L-116.05 117.7 -121.05 119.35 -124.3 119.7 -127.85 119.4 Q-131.35 118.6 -134.7 115.9 L-135.35 112.0 Q-135.6 109.65 -136.7 109.2 L-139.2 108.2 Q-140.2 107.5 -140.2 105.75" fill="#181c1d" fill-rule="evenodd" stroke="none"/>
      <path d="M-63.2 104.0 L-65.6 105.0 -65.7 104.95 -65.8 104.95 -65.85 104.55 Q-65.85 104.45 -66.0 104.5 L-67.2 104.65 Q-66.5 104.15 -64.95 103.55 L-62.7 102.6 -62.5 102.55 -61.85 102.25 Q-61.15 101.75 -60.75 101.25 -59.7 99.85 -62.2 98.45 L-66.45 96.5 -71.15 94.35 -75.25 91.9 -82.05 85.5 Q-86.15 81.9 -91.05 80.35 L-93.9 79.7 -96.45 79.9 -99.85 81.0 Q-103.25 82.1 -108.0 84.65 -114.65 88.15 -122.05 93.0 L-129.8 98.45 -135.1 102.35 -130.85 105.65 -130.9 106.75 -131.25 106.7 -131.8 106.5 -132.5 105.75 -134.4 104.45 -136.1 103.95 Q-137.2 103.45 -137.0 102.85 L-135.75 101.5 -133.05 99.7 -128.15 96.25 Q-125.25 94.3 -123.1 93.0 L-115.65 88.25 -110.35 84.65 Q-107.5 82.7 -104.8 81.4 -101.25 79.5 -98.05 78.9 L-90.95 79.2 -89.4 79.7 Q-87.3 80.5 -85.1 81.9 -83.0 83.05 -80.2 85.25 -78.55 86.55 -76.25 88.5 L-72.35 91.8 -72.15 92.1 -71.85 92.2 Q-69.95 93.8 -67.15 94.9 L-61.05 97.05 Q-59.9 98.1 -59.5 98.95 -58.95 100.0 -59.2 101.0 -59.65 102.3 -62.75 103.85 L-62.85 103.75 -63.2 104.0 M-121.15 106.95 L-124.65 108.1 -125.55 108.1 Q-125.95 107.85 -125.95 107.95 L-126.1 107.95 -126.15 107.85 Q-121.3 106.5 -117.6 104.0 L-117.4 103.85 Q-117.55 103.7 -117.8 103.85 L-117.85 103.85 -128.35 106.3 -129.35 105.55 -114.65 101.45 -107.7 99.75 Q-103.5 98.65 -101.0 97.65 -97.85 96.3 -96.05 92.95 -94.05 88.75 -92.6 87.7 L-92.85 91.65 -93.15 93.7 Q-93.3 94.9 -93.1 95.6 L-92.5 96.45 -91.15 96.85 -88.45 97.5 Q-87.05 97.8 -86.0 98.25 L-94.3 99.3 -98.9 99.7 -103.6 100.15 -104.45 100.4 Q-106.55 100.9 -108.95 101.95 L-113.15 103.65 -121.15 106.95 M-67.5 104.8 L-66.45 104.95 -66.6 104.95 Q-68.2 107.0 -69.65 108.1 -71.4 109.4 -73.9 109.9 L-76.25 110.2 -76.4 110.2 -81.55 109.95 -85.95 109.7 -92.3 108.9 -94.7 108.5 -96.05 107.6 Q-96.05 107.55 -97.0 106.85 -97.55 106.15 -98.05 106.15 L-101.05 106.3 -103.8 106.75 -104.8 107.0 -108.65 108.3 -110.5 109.05 Q-111.05 109.45 -112.35 110.05 L-114.5 111.05 -116.25 111.9 -116.3 111.95 -118.45 113.05 Q-118.6 112.95 -119.6 113.65 L-121.1 114.0 Q-122.85 114.3 -123.75 114.0 L-124.2 113.8 -125.1 113.0 -125.65 112.0 Q-127.3 109.7 -129.95 107.7 L-129.85 106.4 -126.75 108.65 -126.4 108.85 -121.25 112.4 Q-121.35 112.55 -121.0 112.55 L-120.5 112.7 -119.85 112.4 Q-118.4 111.95 -116.7 111.0 -115.55 110.15 -109.7 108.15 L-108.55 107.7 -108.15 107.6 Q-106.55 106.95 -105.45 106.65 L-102.6 105.75 -100.75 105.2 -98.5 105.25 Q-97.8 105.4 -96.85 105.9 -95.45 106.7 -95.5 106.75 L-93.9 107.45 -84.3 108.65 -75.9 109.4 -71.75 107.3 -68.2 105.3 -67.6 105.05 Q-67.4 104.95 -67.5 104.8 M-73.9 110.15 L-70.25 108.85 Q-68.4 107.7 -66.25 105.25 -66.05 105.6 -66.15 106.45 L-66.05 111.55 Q-68.95 113.65 -71.9 114.7 L-73.3 115.0 -76.35 115.4 -79.65 115.25 -94.8 113.05 -98.05 111.6 -99.15 111.1 -100.25 111.0 -107.35 113.3 -116.35 116.25 -120.4 117.7 -121.5 117.95 -124.95 118.2 Q-127.3 118.15 -129.45 117.3 L-134.2 114.55 -134.1 112.9 -133.8 111.3 Q-133.4 110.7 -132.55 110.35 L-131.9 110.05 -131.25 109.7 -130.15 108.15 Q-128.1 109.75 -126.95 111.3 L-125.95 112.7 Q-125.45 113.65 -124.75 114.0 L-124.25 114.3 Q-123.05 114.7 -121.05 114.35 L-119.4 113.85 -115.9 112.1 Q-103.95 107.0 -103.25 107.0 -100.4 106.35 -98.35 106.95 L-97.05 107.6 -95.7 108.6 -94.5 109.1 -87.25 110.3 -79.8 111.05 -78.7 111.1 -77.6 110.7 -76.5 110.45 -73.9 110.15 M-132.1 107.0 Q-132.5 107.75 -132.5 108.5 -133.2 107.6 -133.9 107.6 L-136.2 107.75 -138.5 107.5 Q-139.55 105.9 -138.4 104.2 L-137.6 103.2 Q-137.75 103.65 -137.1 104.0 L-135.8 104.45 -134.2 105.25 -133.25 105.75 -132.1 107.0 M-133.8 108.7 L-132.95 109.95 -133.9 110.3 -134.8 110.45 -134.7 109.7 -134.9 108.3 Q-134.2 108.3 -133.8 108.7 M-63.8 109.75 L-63.5 106.75 Q-63.15 104.7 -62.7 103.9 -59.9 102.75 -59.05 101.65 -57.75 99.9 -59.7 97.6 -58.15 98.45 -57.85 100.8 -57.5 103.05 -58.55 104.65 -59.65 106.05 -62.65 108.7 L-63.5 109.5 -63.8 109.75 M-65.75 105.1 L-63.3 104.15 Q-63.8 105.0 -64.1 107.2 L-64.4 110.2 -65.5 111.1 -65.75 105.1" fill="#f9f0d3" fill-rule="evenodd" stroke="none"/>
      <path d="M-101.6 105.0 Q-101.6 104.1 -100.8 103.2 -100.25 102.45 -99.2 102.05 -97.0 101.15 -92.3 100.65 L-84.75 99.7 Q-80.85 98.9 -79.3 97.85 -77.45 96.3 -78.7 93.8 -79.55 91.8 -81.85 90.25 -83.8 88.7 -86.95 87.7 -86.85 86.35 -87.95 85.75 L-89.55 84.75 -91.0 83.65 Q-91.95 82.55 -92.5 80.75 L-90.55 81.35 Q-87.9 82.25 -85.8 83.75 -83.95 84.9 -82.05 86.8 -80.85 87.8 -78.75 90.15 L-75.0 93.4 -71.5 95.15 -67.7 96.85 -64.05 98.45 Q-61.8 99.5 -61.6 100.55 -61.6 101.0 -62.35 101.75 L-64.75 100.35 -65.15 100.3 Q-65.5 100.35 -65.65 100.55 L-65.8 100.85 -63.35 102.35 -65.35 103.1 -65.4 103.1 Q-65.85 102.25 -66.7 101.65 -67.6 100.9 -69.1 100.7 L-71.2 100.45 Q-71.95 100.25 -72.3 99.35 L-72.65 98.35 Q-72.9 97.85 -73.45 97.5 L-73.95 97.4 -74.4 97.65 -74.55 97.9 Q-73.95 98.4 -73.75 99.05 L-73.4 100.25 Q-73.25 100.7 -72.45 100.95 L-71.1 101.15 -69.8 101.35 Q-68.6 101.45 -67.7 102.05 L-66.9 103.0 -66.4 103.55 -66.85 103.7 -68.05 104.55 -72.75 101.95 Q-72.75 101.8 -73.1 101.95 L-73.65 102.05 Q-73.95 102.25 -73.75 102.3 L-68.9 105.1 -70.0 105.95 -72.8 107.5 -75.65 108.65 -75.7 108.7 -83.35 108.4 -89.75 107.6 -92.1 107.25 -94.7 106.2 -97.25 104.95 Q-98.5 104.3 -100.3 104.65 L-101.6 105.0 M-88.15 87.25 Q-94.4 85.55 -101.1 86.3 -108.35 87.05 -112.6 90.25 L-114.25 91.9 Q-114.6 92.05 -115.15 93.55 L-115.65 95.45 Q-115.65 97.65 -114.05 101.1 L-116.65 101.8 -129.65 105.25 -130.85 104.45 -132.1 103.55 -133.3 102.5 Q-133.6 101.95 -132.8 101.25 L-131.4 100.3 -127.9 97.8 Q-126.3 99.25 -123.55 100.3 L-123.1 100.15 -122.6 100.05 Q-122.45 99.75 -122.65 99.7 L-125.5 98.25 -127.2 97.3 -125.5 96.15 -124.2 97.6 -123.7 97.6 -123.2 97.5 Q-123.0 97.3 -123.1 97.15 L-124.6 95.5 -114.35 88.7 Q-108.35 84.9 -102.85 82.55 L-100.7 85.25 -100.2 85.25 -99.65 85.15 Q-99.45 84.95 -99.6 84.75 L-101.75 82.2 -100.0 81.35 -98.75 83.5 Q-98.65 83.65 -98.7 82.5 L-98.85 81.0 -96.7 80.35 -96.0 80.25 -93.6 80.45 -93.8 80.6 -92.75 83.3 Q-91.85 84.65 -90.2 85.5 L-88.65 86.6 -88.15 87.25 M-126.5 107.6 L-128.05 106.6 -119.15 104.55 Q-122.35 106.4 -126.5 107.6" fill="#b90506" fill-rule="evenodd" stroke="none"/>
      <path d="M-86.95 87.7 Q-83.8 88.7 -81.85 90.25 -79.55 91.8 -78.7 93.8 -77.45 96.3 -79.3 97.85 -80.85 98.9 -84.75 99.7 L-92.3 100.65 Q-97.0 101.15 -99.2 102.05 -100.25 102.45 -100.8 103.2 -101.6 104.1 -101.6 105.0 L-104.0 105.65 -104.45 105.9 -105.1 106.1 -108.4 107.15 Q-114.25 108.7 -115.2 109.25 L-117.6 110.75 Q-118.95 111.6 -120.2 111.9 L-125.0 108.7 -124.25 108.4 -118.2 106.15 Q-114.35 104.3 -112.35 103.55 -110.4 102.65 -109.4 102.3 -107.65 101.55 -106.35 101.25 L-104.4 100.65 -100.7 100.25 -96.95 100.05 -91.0 99.25 -85.05 98.6 -85.0 98.6 -84.45 98.4 -84.15 98.15 -87.4 96.85 -90.15 96.4 -91.65 95.85 -91.7 95.75 -92.05 94.5 -91.95 93.75 -91.9 90.75 -91.5 86.85 -91.7 86.8 -92.55 87.1 Q-94.15 88.05 -95.4 89.9 L-97.0 92.9 Q-99.05 96.75 -103.0 98.1 L-104.25 98.45 -107.35 99.35 -109.15 99.85 -112.3 100.65 -114.05 101.1 Q-115.65 97.65 -115.65 95.45 L-115.15 93.55 Q-114.6 92.05 -114.25 91.9 L-112.6 90.25 Q-108.35 87.05 -101.1 86.3 -94.4 85.55 -88.15 87.25 -87.95 87.65 -88.1 88.05 L-88.15 89.4 Q-88.15 90.15 -87.75 90.7 L-86.7 90.35 -86.65 90.25 Q-87.0 89.65 -87.0 88.2 L-86.95 87.7" fill="#640300" fill-rule="evenodd" stroke="none"/>
      <path d="M-106.25 101.45 L-106.7 101.15 Q-107.3 100.75 -107.85 100.7 L-109.1 100.75 -110.3 100.95 -112.65 101.35 -115.0 101.8 -118.2 102.4 Q-120.3 102.95 -120.15 103.85 L-120.25 104.0 -121.1 104.1 -122.0 104.3 -123.65 104.3 -125.95 104.0 -132.05 102.6 -132.1 102.6 -132.3 102.3 -132.3 101.95 -130.1 101.5 Q-128.85 101.2 -128.25 100.7 -127.7 100.2 -127.75 99.6 -127.85 99.0 -128.7 98.75 L-129.45 98.5 -130.2 98.25 Q-131.3 97.65 -130.35 96.55 L-128.55 95.0 -128.2 95.3 Q-128.0 96.45 -126.65 96.4 -125.55 96.35 -124.45 95.65 -123.4 95.0 -122.8 93.9 -122.35 93.05 -122.3 91.65 L-122.15 89.4 Q-121.4 85.35 -116.95 81.7 -116.85 81.6 -116.7 81.85 L-116.6 82.2 Q-118.2 86.45 -115.0 86.55 -113.5 86.6 -112.5 85.8 -111.6 85.0 -111.7 84.05 L-111.95 83.0 -112.2 81.95 -111.75 80.45 -111.1 79.55 -110.5 78.65 Q-110.15 78.1 -110.15 77.65 -110.15 76.95 -110.9 76.4 -111.15 76.15 -111.6 76.25 L-111.7 76.4 -113.4 76.2 -115.15 76.25 -117.75 75.8 Q-120.15 75.15 -121.85 73.7 -123.2 72.5 -124.0 70.85 L-124.95 67.75 -124.95 67.6 -124.8 67.6 Q-123.65 68.25 -122.35 67.95 -121.1 67.7 -120.65 66.8 -120.0 65.55 -121.05 63.65 L-121.1 63.4 -121.0 63.25 -120.1 63.75 -119.15 63.65 -118.45 62.75 Q-117.7 61.65 -118.85 60.1 -119.55 59.15 -120.75 58.05 L-123.0 56.2 Q-125.25 54.3 -126.0 52.9 -127.1 50.85 -125.65 49.2 L-125.45 49.4 -125.3 49.7 Q-125.25 51.25 -124.0 52.75 -122.65 54.3 -120.55 55.0 L-117.6 55.1 Q-116.75 54.75 -116.65 54.0 -116.6 53.5 -116.95 52.7 L-117.85 50.8 Q-118.3 49.7 -118.2 48.9 -118.0 47.85 -117.2 47.05 -116.4 46.25 -115.05 45.75 L-115.0 45.8 Q-114.55 46.0 -114.25 44.75 -114.15 43.85 -115.1 42.85 -116.4 41.4 -118.9 40.65 L-119.1 40.4 -119.1 40.05 Q-117.25 39.4 -113.5 40.4 L-110.15 41.35 -106.7 41.2 Q-103.65 40.0 -104.1 36.85 L-104.85 34.2 -105.6 31.9 -105.5 31.75 -105.3 31.9 -104.5 33.05 -103.6 34.2 -102.85 35.3 -101.7 36.15 -100.5 36.05 -100.2 35.05 -99.95 34.75 -99.6 34.45 Q-99.25 34.1 -99.25 33.6 -99.25 33.3 -99.55 32.75 L-99.55 32.45 Q-99.55 32.3 -99.35 32.45 -98.8 33.0 -98.45 33.95 L-98.05 35.5 -97.95 36.55 -97.85 37.6 Q-97.7 38.45 -96.9 39.1 -96.15 39.8 -94.9 40.15 L-91.6 40.25 Q-90.05 39.9 -89.05 38.9 -87.05 36.9 -87.75 33.8 -87.75 33.5 -87.6 33.55 -84.1 35.65 -82.65 36.75 -81.15 37.9 -81.75 38.8 L-83.25 40.0 -84.95 41.0 Q-86.1 41.9 -85.9 43.05 -85.7 44.05 -84.55 45.05 L-82.5 46.35 -80.05 47.4 -78.35 48.2 Q-77.5 48.7 -77.15 49.25 -76.85 49.75 -76.7 51.1 -76.6 52.3 -76.05 52.85 -75.75 53.15 -75.55 53.1 L-74.95 52.8 -74.25 52.25 Q-73.55 51.5 -73.3 50.45 -73.3 50.35 -73.2 50.4 L-73.1 50.45 -71.9 51.4 -71.6 51.65 Q-71.0 52.05 -70.75 52.4 -70.15 53.1 -70.2 54.05 -70.25 55.15 -71.05 56.6 L-71.6 57.5 -72.5 59.05 Q-73.5 60.7 -73.75 61.95 -74.05 63.55 -73.2 64.9 -72.3 66.45 -70.8 67.05 L-69.0 67.45 Q-67.9 67.45 -67.4 66.9 -67.25 66.8 -67.05 67.25 L-65.45 71.45 Q-64.65 73.9 -64.9 75.7 -65.35 78.75 -68.65 81.6 L-70.6 82.95 -72.65 84.2 Q-74.5 85.4 -75.25 87.35 L-75.65 89.4 -75.8 91.45 Q-75.85 92.8 -75.35 93.55 -74.65 94.65 -72.75 94.35 -70.35 94.0 -68.2 92.35 -66.55 91.1 -65.25 89.25 -65.2 89.2 -65.05 89.4 L-64.9 89.75 -65.2 92.1 Q-65.4 93.5 -65.85 94.45 -66.4 95.65 -67.35 96.6 L-68.65 97.6 -69.55 98.15 -70.15 98.65 -66.95 98.25 Q-65.8 97.9 -64.25 97.0 -64.1 96.95 -64.0 97.2 L-63.95 97.6 Q-66.0 99.3 -69.15 101.25 L-71.6 102.75 -72.75 103.4 Q-73.4 103.85 -73.35 104.25 L-73.5 104.45 Q-76.5 104.1 -79.9 104.4 L-82.9 104.7 -85.95 104.8 -86.2 104.6 -86.25 104.35 -86.8 104.4 -87.65 104.4 -87.9 104.15 -87.9 103.85 Q-87.5 103.6 -87.0 103.5 L-86.35 103.4 -86.5 103.3 -86.65 103.15 -86.05 103.1 -85.85 103.4 -85.7 103.65 Q-85.6 103.9 -85.75 103.9 L-86.0 104.0 -85.9 104.2 -82.95 104.1 -79.7 103.75 Q-76.65 103.5 -73.75 103.8 L-73.55 103.25 -72.8 102.65 -70.25 101.15 -66.75 98.9 -70.0 99.2 -70.15 99.1 -70.45 98.55 -70.35 97.85 Q-70.15 97.65 -69.55 97.35 L-68.7 96.85 -67.25 95.5 Q-66.15 94.3 -65.75 92.5 L-65.45 90.5 Q-66.95 92.35 -69.0 93.6 -71.8 95.25 -73.8 95.0 -75.75 94.7 -76.1 92.85 L-76.1 89.95 Q-75.95 87.7 -75.25 86.25 -74.3 84.35 -72.05 83.1 -66.75 80.1 -65.55 76.35 -64.9 74.4 -65.7 71.7 L-67.2 67.65 Q-68.15 68.45 -70.0 67.85 -71.6 67.3 -72.5 66.35 L-73.85 64.3 Q-74.3 63.2 -74.25 62.15 -74.15 61.0 -73.45 59.6 L-72.0 57.1 -71.6 56.35 -70.7 54.25 Q-70.35 53.05 -71.6 52.05 L-71.8 51.9 -72.95 51.1 -73.4 52.2 -74.1 53.0 -74.8 53.5 -75.65 53.7 Q-76.1 53.5 -76.55 52.55 L-76.9 50.9 Q-77.05 49.8 -77.5 49.3 -77.95 48.8 -79.0 48.35 L-80.8 47.65 -83.55 46.3 -85.45 44.6 Q-86.25 43.6 -86.4 42.6 -86.5 41.65 -85.65 40.8 -85.1 40.25 -83.75 39.45 L-82.95 39.0 -82.3 38.45 Q-81.85 37.95 -82.55 37.35 L-83.8 36.45 -87.3 34.25 Q-86.8 36.9 -88.1 38.75 -88.9 39.85 -90.15 40.45 -91.65 41.2 -93.4 41.0 -95.0 40.85 -96.3 40.05 -97.55 39.25 -98.0 38.2 L-98.25 37.05 -98.3 35.9 -98.75 34.2 -98.8 34.05 Q-98.85 34.55 -99.2 34.95 L-99.55 35.15 -99.9 36.05 -99.95 36.45 Q-100.2 36.9 -100.8 36.9 -101.6 36.95 -102.3 36.35 L-103.2 35.3 -104.45 33.75 -105.0 33.0 -104.5 34.4 Q-103.95 36.0 -103.75 36.9 -103.2 39.85 -105.55 41.35 -106.9 42.2 -108.65 42.1 L-111.95 41.4 -115.3 40.55 -117.95 40.45 Q-116.6 41.05 -115.6 41.9 -114.1 43.15 -113.9 44.55 L-113.9 45.55 Q-114.0 46.25 -114.5 46.45 L-114.9 46.5 -115.35 46.6 Q-115.75 46.75 -116.4 47.2 -117.25 47.8 -117.6 48.65 -118.05 49.75 -117.1 51.6 -116.05 53.6 -116.25 54.55 -116.4 55.15 -117.05 55.55 -117.7 55.95 -118.65 55.95 -120.35 55.95 -122.35 54.65 -123.9 53.65 -124.8 52.15 -125.4 51.15 -125.6 50.15 -126.5 51.45 -125.6 53.0 -124.9 54.1 -122.8 55.85 -121.15 57.25 -120.75 57.6 L-119.0 59.4 Q-117.45 61.3 -117.75 62.6 -117.95 63.35 -118.85 64.2 L-119.1 64.45 -119.55 64.55 -120.25 64.25 -120.5 64.05 Q-119.7 65.8 -120.2 67.1 -120.6 68.2 -122.0 68.55 L-124.5 68.25 Q-124.15 69.95 -123.45 71.2 -122.5 72.9 -120.75 73.95 -118.9 75.15 -116.6 75.5 L-114.2 75.6 -112.0 75.75 -112.0 75.7 -111.9 75.4 -111.8 75.4 Q-110.35 76.1 -109.95 77.2 -109.55 78.25 -110.25 79.35 L-111.4 81.1 Q-111.95 82.05 -111.7 82.95 L-111.35 84.35 Q-111.25 85.15 -111.6 85.75 -112.2 86.65 -113.6 87.05 -115.15 87.45 -116.3 86.75 -118.05 85.7 -117.3 82.85 -119.7 85.0 -120.85 87.25 -121.65 88.75 -121.85 90.25 L-121.9 91.65 -122.0 93.0 Q-122.2 94.25 -122.9 95.15 -123.8 96.25 -125.25 96.75 L-127.6 96.7 -128.4 95.7 -129.95 97.15 -130.4 97.65 -130.1 97.75 -129.1 98.05 Q-128.4 98.25 -128.0 98.55 -127.6 98.9 -127.45 99.35 -127.1 100.5 -127.9 101.25 -128.5 101.8 -129.8 102.1 L-130.85 102.35 -129.2 102.75 -126.15 103.4 -123.1 103.7 -121.4 103.6 -120.9 103.45 -120.55 103.4 Q-120.55 102.5 -118.9 101.95 L-115.7 101.25 -112.95 100.75 -110.15 100.3 -108.9 100.15 -107.7 100.15 -106.7 100.65 Q-106.5 100.75 -106.0 101.2 L-106.25 101.45 M-99.7 102.65 L-100.8 102.9 -101.9 103.15 -101.65 103.0 -99.7 102.65 M-103.3 103.4 L-104.65 103.8 Q-105.8 104.2 -106.65 104.9 L-106.7 104.9 Q-105.6 104.0 -104.05 103.55 L-103.3 103.4 M-68.2 56.95 L-68.9 58.75 Q-69.15 59.85 -68.7 60.6 L-67.9 61.5 -67.55 61.9 Q-66.2 60.2 -65.85 59.0 -65.35 57.55 -66.15 56.7 L-66.65 56.3 -67.3 56.0 Q-67.75 56.0 -67.95 56.35 L-68.2 56.95 M-68.55 56.45 L-68.35 55.85 Q-68.15 55.45 -67.8 55.4 -67.4 55.3 -66.65 55.85 -65.6 56.55 -65.35 57.65 -65.1 58.8 -65.75 60.2 -66.2 61.2 -67.35 62.6 L-67.7 62.2 -68.05 61.85 -68.5 61.45 -68.9 60.95 -69.35 59.8 -69.2 58.1 -68.55 56.45 M-86.75 102.5 L-86.85 102.5 -88.0 102.25 -88.9 101.95 -88.1 102.1 -86.85 102.45 -86.75 102.5 M-106.35 103.85 L-106.4 103.85 -106.3 103.45 -106.5 102.5 -105.6 101.7 -105.7 101.85 -106.45 102.5 -106.25 103.45 -106.35 103.85 M-127.45 60.95 Q-126.75 59.0 -126.65 57.8 -130.15 60.15 -128.4 64.3 L-127.45 60.95 M-126.3 57.15 L-126.2 57.5 Q-126.2 58.85 -127.1 61.25 -128.0 63.9 -128.05 65.15 L-128.2 65.25 -128.35 65.1 Q-129.55 62.6 -129.35 60.8 -129.1 58.45 -126.55 56.95 L-126.3 57.15" fill="#8a2300" fill-rule="evenodd" stroke="none"/>
      <path d="M-106.0 101.2 Q-106.5 100.75 -106.7 100.65 L-107.7 100.15 -108.9 100.15 -110.15 100.3 -112.95 100.75 -115.7 101.25 -118.9 101.95 Q-120.55 102.5 -120.55 103.4 L-120.9 103.45 -121.4 103.6 -123.1 103.7 -126.15 103.4 -129.2 102.75 -130.85 102.35 -129.8 102.1 Q-128.5 101.8 -127.9 101.25 -127.1 100.5 -127.45 99.35 -127.6 98.9 -128.0 98.55 -128.4 98.25 -129.1 98.05 L-130.1 97.75 -130.4 97.65 -129.95 97.15 -128.4 95.7 -127.6 96.7 -125.25 96.75 Q-123.8 96.25 -122.9 95.15 -122.2 94.25 -122.0 93.0 L-121.9 91.65 -121.85 90.25 Q-121.65 88.75 -120.85 87.25 -119.7 85.0 -117.3 82.85 -118.05 85.7 -116.3 86.75 -115.15 87.45 -113.6 87.05 -112.2 86.65 -111.6 85.75 -111.25 85.15 -111.35 84.35 L-111.7 82.95 Q-111.95 82.05 -111.4 81.1 L-110.25 79.35 Q-109.55 78.25 -109.95 77.2 -110.35 76.1 -111.8 75.4 L-111.9 75.4 -112.0 75.7 -112.0 75.75 -114.2 75.6 -116.6 75.5 Q-118.9 75.15 -120.75 73.95 -122.5 72.9 -123.45 71.2 -124.15 69.95 -124.5 68.25 L-122.0 68.55 Q-120.6 68.2 -120.2 67.1 -119.7 65.8 -120.5 64.05 L-120.25 64.25 -119.55 64.55 -119.1 64.45 -118.85 64.2 Q-117.95 63.35 -117.75 62.6 -117.45 61.3 -119.0 59.4 L-120.75 57.6 Q-121.15 57.25 -122.8 55.85 -124.9 54.1 -125.6 53.0 -126.5 51.45 -125.6 50.15 -125.4 51.15 -124.8 52.15 -123.9 53.65 -122.35 54.65 -120.35 55.95 -118.65 55.95 -117.7 55.95 -117.05 55.55 -116.4 55.15 -116.25 54.55 -116.05 53.6 -117.1 51.6 -118.05 49.75 -117.6 48.65 -117.25 47.8 -116.4 47.2 -115.75 46.75 -115.35 46.6 L-114.9 46.5 -114.5 46.45 Q-114.0 46.25 -113.9 45.55 L-113.9 44.55 Q-114.1 43.15 -115.6 41.9 -116.6 41.05 -117.95 40.45 L-115.3 40.55 -111.95 41.4 -108.65 42.1 Q-106.9 42.2 -105.55 41.35 -103.2 39.85 -103.75 36.9 -103.95 36.0 -104.5 34.4 L-105.0 33.0 -104.45 33.75 -103.2 35.3 -102.3 36.35 Q-101.6 36.95 -100.8 36.9 -100.2 36.9 -99.95 36.45 L-99.9 36.05 -99.55 35.15 -99.2 34.95 Q-98.85 34.55 -98.8 34.05 L-98.75 34.2 -98.3 35.9 -98.25 37.05 -98.0 38.2 Q-97.55 39.25 -96.3 40.05 -95.0 40.85 -93.4 41.0 -91.65 41.2 -90.15 40.45 -88.9 39.85 -88.1 38.75 -86.8 36.9 -87.3 34.25 L-83.8 36.45 -82.55 37.35 Q-81.85 37.95 -82.3 38.45 L-82.95 39.0 -83.75 39.45 Q-85.1 40.25 -85.65 40.8 -86.5 41.65 -86.4 42.6 -86.25 43.6 -85.45 44.6 L-83.55 46.3 -80.8 47.65 -79.0 48.35 Q-77.95 48.8 -77.5 49.3 -77.05 49.8 -76.9 50.9 L-76.55 52.55 Q-76.1 53.5 -75.65 53.7 L-74.8 53.5 -74.1 53.0 -73.4 52.2 -72.95 51.1 -71.8 51.9 -71.6 52.05 Q-70.35 53.05 -70.7 54.25 L-71.6 56.35 -72.0 57.1 -73.45 59.6 Q-74.15 61.0 -74.25 62.15 -74.3 63.2 -73.85 64.3 L-72.5 66.35 Q-71.6 67.3 -70.0 67.85 -68.15 68.45 -67.2 67.65 L-65.7 71.7 Q-64.9 74.4 -65.55 76.35 -66.75 80.1 -72.05 83.1 -74.3 84.35 -75.25 86.25 -75.95 87.7 -76.1 89.95 L-76.1 92.85 Q-75.75 94.7 -73.8 95.0 -71.8 95.25 -69.0 93.6 -66.95 92.35 -65.45 90.5 L-65.75 92.5 Q-66.15 94.3 -67.25 95.5 L-68.7 96.85 -69.55 97.35 Q-70.15 97.65 -70.35 97.85 L-70.45 98.55 -70.15 99.1 -70.0 99.2 -66.75 98.9 -70.25 101.15 -72.8 102.65 -73.55 103.25 -73.75 103.8 Q-76.65 103.5 -79.7 103.75 L-82.95 104.1 -85.9 104.2 -86.0 104.0 -85.75 103.9 Q-85.6 103.9 -85.7 103.65 L-85.85 103.4 -86.05 103.1 -85.6 103.0 -84.55 102.65 -82.35 101.6 -80.3 100.4 -79.0 99.4 Q-78.4 98.8 -78.7 98.25 -78.95 97.75 -79.9 97.45 L-81.6 97.25 -82.9 97.6 Q-83.7 97.8 -84.05 97.4 L-84.1 96.75 -83.9 96.05 -83.0 94.1 -81.9 92.2 -82.0 91.85 Q-82.15 91.55 -82.25 91.65 -83.45 92.45 -83.3 91.9 L-83.35 91.6 -83.65 91.35 -83.3 89.65 -82.35 87.85 -81.7 86.95 -81.35 85.95 Q-81.35 85.2 -81.7 84.75 -82.25 84.1 -83.3 84.4 L-83.4 84.6 Q-83.05 87.5 -85.45 88.65 -87.3 89.55 -88.75 89.0 -90.7 88.25 -90.4 86.0 -90.25 84.55 -89.2 83.2 L-88.2 82.15 -87.05 81.2 Q-86.2 80.45 -86.25 79.45 -86.3 78.75 -86.85 77.65 L-87.0 77.5 -87.15 77.5 Q-87.7 78.55 -89.05 78.45 -90.35 78.35 -90.85 77.35 -91.25 76.55 -90.8 75.55 -90.5 74.85 -89.6 73.9 L-89.65 73.55 Q-89.8 73.25 -89.9 73.3 L-89.95 73.35 Q-91.65 74.1 -92.45 75.65 L-93.4 78.5 -93.95 80.0 Q-94.35 80.8 -95.15 81.3 -96.3 82.05 -97.85 81.75 -99.75 81.35 -100.15 79.5 L-100.35 79.25 Q-100.5 79.1 -100.55 79.25 -101.75 83.95 -103.35 86.35 -105.95 90.4 -110.9 91.65 L-110.95 91.75 Q-111.0 92.1 -111.75 92.2 L-113.0 92.25 -113.8 92.2 -114.0 91.7 -113.7 91.1 -113.25 90.55 Q-112.7 89.85 -112.8 89.4 L-113.5 88.25 Q-113.65 88.05 -113.75 88.2 L-114.55 90.4 Q-115.05 91.75 -115.7 92.55 -116.25 93.15 -118.0 93.75 -119.8 94.4 -120.35 94.9 L-120.35 95.25 -120.1 95.5 -118.4 96.0 -116.75 96.5 Q-116.05 96.8 -115.6 97.45 L-115.45 97.65 -115.05 97.85 -111.6 98.4 -108.0 98.05 Q-106.3 97.75 -105.35 97.25 L-104.4 96.5 -104.2 96.2 -104.15 95.95 -104.0 95.95 Q-103.7 96.25 -103.9 97.6 -104.0 98.35 -104.45 99.15 -104.95 100.15 -106.0 101.2 M-68.2 56.95 L-67.95 56.35 Q-67.75 56.0 -67.3 56.0 L-66.65 56.3 -66.15 56.7 Q-65.35 57.55 -65.85 59.0 -66.2 60.2 -67.55 61.9 L-67.9 61.5 -68.7 60.6 Q-69.15 59.85 -68.9 58.75 L-68.2 56.95 M-127.45 60.95 L-128.4 64.3 Q-130.15 60.15 -126.65 57.8 -126.75 59.0 -127.45 60.95" fill="#ff4000" fill-rule="evenodd" stroke="none"/>
      <path d="M-106.25 101.45 L-106.0 101.2 Q-104.95 100.15 -104.45 99.15 -104.0 98.35 -103.9 97.6 -103.7 96.25 -104.0 95.95 L-104.15 95.95 -104.2 96.2 -104.4 96.5 -105.35 97.25 Q-106.3 97.75 -108.0 98.05 L-111.6 98.4 -115.05 97.85 -115.45 97.65 -115.6 97.45 Q-116.05 96.8 -116.75 96.5 L-118.4 96.0 -120.1 95.5 -120.35 95.25 -120.35 94.9 Q-119.8 94.4 -118.0 93.75 -116.25 93.15 -115.7 92.55 -115.05 91.75 -114.55 90.4 L-113.75 88.2 Q-113.65 88.05 -113.5 88.25 L-112.8 89.4 Q-112.7 89.85 -113.25 90.55 L-113.7 91.1 -114.0 91.7 -113.8 92.2 -113.0 92.25 -111.75 92.2 Q-111.0 92.1 -110.95 91.75 L-110.9 91.65 Q-105.95 90.4 -103.35 86.35 -101.75 83.95 -100.55 79.25 -100.5 79.1 -100.35 79.25 L-100.15 79.5 Q-99.75 81.35 -97.85 81.75 -96.3 82.05 -95.15 81.3 -94.35 80.8 -93.95 80.0 L-93.4 78.5 -92.45 75.65 Q-91.65 74.1 -89.95 73.35 L-89.9 73.3 Q-89.8 73.25 -89.65 73.55 L-89.6 73.9 Q-90.5 74.85 -90.8 75.55 -91.25 76.55 -90.85 77.35 -90.35 78.35 -89.05 78.45 -87.7 78.55 -87.15 77.5 L-87.0 77.5 -86.85 77.65 Q-86.3 78.75 -86.25 79.45 -86.2 80.45 -87.05 81.2 L-88.2 82.15 -89.2 83.2 Q-90.25 84.55 -90.4 86.0 -90.7 88.25 -88.75 89.0 -87.3 89.55 -85.45 88.65 -83.05 87.5 -83.4 84.6 L-83.3 84.4 Q-82.25 84.1 -81.7 84.75 -81.35 85.2 -81.35 85.95 L-81.7 86.95 -82.35 87.85 -83.3 89.65 -83.65 91.35 -83.35 91.6 -83.3 91.9 Q-83.45 92.45 -82.25 91.65 -82.15 91.55 -82.0 91.85 L-81.9 92.2 -83.0 94.1 -83.9 96.05 -84.1 96.75 -84.05 97.4 Q-83.7 97.8 -82.9 97.6 L-81.6 97.25 -79.9 97.45 Q-78.95 97.75 -78.7 98.25 -78.4 98.8 -79.0 99.4 L-80.3 100.4 -82.35 101.6 -84.55 102.65 -85.6 103.0 -86.05 103.1 -86.65 103.15 -86.7 103.1 -86.95 103.0 -87.1 102.95 -87.15 102.9 -87.3 102.9 -87.4 102.85 -88.25 102.65 -90.1 102.35 -91.85 102.2 -91.95 102.2 -92.05 102.2 -92.1 102.15 -94.85 102.15 -95.0 102.15 -96.45 102.25 -96.85 102.3 -99.4 102.6 -99.7 102.65 -101.65 103.0 -101.9 103.15 -102.75 103.35 -103.3 103.4 -104.05 103.55 Q-105.6 104.0 -106.7 104.9 L-106.9 104.7 -107.05 104.35 -106.7 103.45 Q-106.55 102.9 -106.85 102.6 L-107.0 102.35 -107.0 102.1 -106.25 101.45 M-86.75 102.5 L-84.8 102.05 Q-82.4 101.1 -79.95 99.4 L-79.25 98.75 Q-79.0 98.45 -79.15 98.3 L-79.7 98.1 -81.35 97.85 -82.0 98.0 -82.6 98.2 Q-83.85 98.5 -84.3 97.5 -84.65 96.75 -84.25 95.6 L-83.35 93.6 -82.85 92.75 -83.45 92.6 -83.75 91.8 -83.95 91.15 -83.9 90.2 -83.25 88.35 -82.15 86.55 Q-81.45 85.45 -81.95 85.05 L-82.7 84.95 -82.95 85.1 -82.95 85.3 -83.05 86.5 -83.4 87.7 Q-84.1 88.9 -85.8 89.5 L-89.2 89.3 Q-90.45 88.5 -90.75 87.1 -91.0 85.95 -90.6 84.6 -90.1 83.0 -88.75 81.75 L-87.85 81.0 -87.05 80.25 Q-86.6 79.7 -86.65 79.05 L-86.9 78.2 -87.55 78.8 Q-88.15 79.15 -88.9 79.1 -89.65 79.05 -90.25 78.6 L-91.05 77.75 Q-91.9 76.45 -91.0 74.8 -92.05 75.75 -92.5 77.25 L-93.05 79.2 -93.95 81.05 Q-94.6 81.9 -95.75 82.25 L-98.3 82.15 Q-99.7 81.65 -100.3 80.15 -101.35 84.05 -102.55 86.2 -104.65 89.75 -108.5 91.5 L-109.6 91.9 Q-110.35 92.15 -110.6 92.35 L-110.7 92.6 -110.95 92.8 -111.8 92.75 -112.75 92.85 -113.9 92.75 -114.35 92.15 -114.4 91.45 -115.2 92.85 Q-115.85 93.7 -117.1 94.2 L-118.65 94.75 -119.5 95.15 -117.15 95.85 Q-115.7 96.4 -115.35 97.2 L-108.4 97.5 -105.45 96.6 -104.65 95.85 -104.5 95.5 -104.25 95.2 Q-104.2 95.15 -104.1 95.25 -103.1 96.2 -103.6 98.4 -104.0 100.1 -105.6 101.7 L-106.5 102.5 -106.3 103.45 -106.4 103.85 -106.35 103.85 -104.95 103.15 -103.45 102.75 -102.65 102.65 -102.4 102.6 -102.25 102.55 -102.0 102.45 -101.95 102.4 -89.15 101.9 -89.1 101.95 -88.9 101.95 -88.0 102.25 -86.85 102.5 -86.75 102.5 M-113.45 88.85 L-114.15 90.75 -113.8 90.2 -113.4 89.8 Q-113.2 89.55 -113.25 89.3 L-113.35 88.95 -113.45 88.85" fill="#7d1f00" fill-rule="evenodd" stroke="none"/>
      <path d="M-105.6 101.7 Q-104.0 100.1 -103.6 98.4 -103.1 96.2 -104.1 95.25 -104.2 95.15 -104.25 95.2 L-104.5 95.5 -104.65 95.85 -105.45 96.6 -108.4 97.5 -115.35 97.2 Q-115.7 96.4 -117.15 95.85 L-119.5 95.15 -118.65 94.75 -117.1 94.2 Q-115.85 93.7 -115.2 92.85 L-114.4 91.45 -114.35 92.15 -113.9 92.75 -112.75 92.85 -111.8 92.75 -110.95 92.8 -110.7 92.6 -110.6 92.35 Q-110.35 92.15 -109.6 91.9 L-108.5 91.5 Q-104.65 89.75 -102.55 86.2 -101.35 84.05 -100.3 80.15 -99.7 81.65 -98.3 82.15 L-95.75 82.25 Q-94.6 81.9 -93.95 81.05 L-93.05 79.2 -92.5 77.25 Q-92.05 75.75 -91.0 74.8 -91.9 76.45 -91.05 77.75 L-90.25 78.6 Q-89.65 79.05 -88.9 79.1 -88.15 79.15 -87.55 78.8 L-86.9 78.2 -86.65 79.05 Q-86.6 79.7 -87.05 80.25 L-87.85 81.0 -88.75 81.75 Q-90.1 83.0 -90.6 84.6 -91.0 85.95 -90.75 87.1 -90.45 88.5 -89.2 89.3 L-85.8 89.5 Q-84.1 88.9 -83.4 87.7 L-83.05 86.5 -82.95 85.3 -82.95 85.1 -82.7 84.95 -81.95 85.05 Q-81.45 85.45 -82.15 86.55 L-83.25 88.35 -83.9 90.2 -83.95 91.15 -83.75 91.8 -83.45 92.6 -82.85 92.75 -83.35 93.6 -84.25 95.6 Q-84.65 96.75 -84.3 97.5 -83.85 98.5 -82.6 98.2 L-82.0 98.0 -81.35 97.85 -79.7 98.1 -79.15 98.3 Q-79.0 98.45 -79.25 98.75 L-79.95 99.4 Q-82.4 101.1 -84.8 102.05 L-86.75 102.5 -86.85 102.45 -88.1 102.1 -88.9 101.95 -89.1 101.95 -89.15 101.9 -101.95 102.4 -102.0 102.45 -102.25 102.55 -102.4 102.6 -102.65 102.65 -103.45 102.75 -104.95 103.15 -106.35 103.85 -106.25 103.45 -106.45 102.5 -105.7 101.85 -105.6 101.7 M-113.45 88.85 L-113.35 88.95 -113.25 89.3 Q-113.2 89.55 -113.4 89.8 L-113.8 90.2 -114.15 90.75 -113.45 88.85" fill="#ffe733" fill-rule="evenodd" stroke="none"/>
      <path d="M-93.5 2.6 Q-93.1 -1.0 -90.5 -2.2 -89.1 -2.95 -87.6 -2.8 L-87.55 -2.75 Q-86.4 -2.75 -84.85 -1.0 L-84.6 -1.45 -80.85 -11.25 -80.75 -11.5 -79.5 -13.1 -79.35 -13.25 Q-78.6 -14.25 -69.2 -12.35 L-68.6 -12.15 Q-66.9 -11.35 -66.7 -8.85 -66.55 -8.25 -67.45 -4.3 L-68.6 0.4 -68.7 0.65 -69.0 1.2 -66.55 2.3 -61.4 2.85 Q-60.7 2.9 -60.15 3.45 -58.6 5.0 -58.95 5.35 -58.1 5.35 -57.5 5.95 L-54.45 9.35 -42.5 8.45 -33.9 7.75 -33.2 4.6 Q-31.75 -1.0 -29.25 -3.35 L-29.2 -3.4 Q-26.4 -6.1 -26.05 -8.35 L-26.0 -8.4 Q-25.9 -9.75 -26.3 -11.75 L-26.35 -12.15 -26.2 -14.4 -26.05 -16.2 Q-26.0 -16.95 -25.45 -17.5 L-24.95 -17.85 -25.05 -19.35 Q-25.35 -24.65 -15.25 -32.15 -6.0 -39.05 -1.45 -38.9 6.35 -39.05 12.4 -29.95 L12.35 -29.95 Q17.05 -22.9 16.95 -19.1 17.2 -18.6 14.85 -15.2 L9.75 -8.85 9.55 -8.65 8.5 -7.7 7.75 -7.3 Q6.55 -4.65 4.6 -2.3 L0.8 3.85 -1.7 7.9 -1.8 8.2 -1.8 8.25 Q-3.4 12.5 -5.55 16.1 L-8.7 22.3 -9.65 23.75 -9.85 24.05 Q-12.0 26.75 -13.05 26.35 L-13.5 26.3 Q-12.85 26.65 -13.5 27.25 -15.75 29.25 -18.2 29.1 -20.65 29.85 -24.0 30.45 -31.3 31.75 -37.15 31.15 L-37.2 31.15 -54.75 28.8 -59.75 28.0 -62.95 27.45 -64.5 27.6 -64.55 27.6 -66.5 27.75 -69.0 28.55 -68.95 28.55 Q-72.55 29.5 -75.5 29.2 L-78.0 28.8 -78.9 29.9 Q-79.75 30.6 -80.55 30.6 L-80.6 31.35 -95.25 80.8 -95.5 81.3 -95.8 82.25 -95.7 82.55 -95.65 82.65 -94.85 84.8 -94.85 84.85 -94.7 85.4 -94.6 86.1 -94.8 88.15 -94.8 88.0 -95.05 88.85 -95.2 89.3 -95.55 90.1 -95.8 90.55 -97.85 93.1 -97.9 93.15 Q-99.05 94.5 -100.3 94.15 -101.3 94.1 -101.9 93.25 -102.4 92.75 -102.4 91.8 -102.4 90.95 -101.8 90.4 L-101.5 90.1 -101.3 89.55 -101.25 89.5 -100.75 88.6 -100.45 87.7 -100.4 87.5 Q-100.3 86.85 -100.6 86.35 L-100.8 86.1 -100.85 86.1 -100.9 86.05 -101.05 86.05 -101.85 86.3 -101.8 86.3 -102.85 87.45 -102.85 87.4 -103.15 88.4 -103.3 88.9 -103.45 89.5 -103.45 89.55 -103.45 90.75 Q-103.4 91.3 -103.65 91.8 L-104.35 92.65 -105.35 92.95 Q-106.6 93.2 -107.55 92.0 L-107.8 91.65 -108.0 91.2 -108.1 90.85 Q-108.55 89.35 -108.3 88.0 L-108.35 88.1 -108.0 86.7 -107.95 86.65 -107.95 86.55 -107.75 85.75 -107.3 84.7 -107.25 84.6 Q-106.7 83.15 -105.2 81.4 L-105.1 81.3 -104.65 80.8 -104.5 80.65 -103.45 80.05 -88.4 29.4 Q-88.35 28.7 -87.8 28.2 L-87.7 28.1 Q-88.8 27.25 -88.45 26.25 L-88.45 25.75 -88.95 25.4 -92.9 25.5 Q-98.55 24.6 -98.05 18.95 L-98.05 18.9 -97.3 14.45 Q-98.3 12.9 -98.0 10.65 L-98.05 10.7 Q-97.8 6.9 -93.85 5.7 L-93.75 5.7 -92.95 5.5 Q-93.75 4.2 -93.5 2.6 M-8.0 5.0 L-8.1 5.05 -7.45 5.1 -7.2 5.0 -6.75 4.2 -8.0 5.0 M-98.75 85.85 L-98.6 86.7 -98.6 86.25 -98.75 85.85" fill="#181c1d" fill-rule="evenodd" stroke="none"/>
      <path d="M-81.2 6.65 L-81.65 8.4 -82.2 10.85 Q-84.75 8.25 -89.15 6.15 -91.7 4.9 -91.5 2.8 -91.25 0.4 -89.6 -0.45 -88.75 -0.9 -87.85 -0.8 -87.2 -0.7 -86.25 0.4 L-84.6 1.45 -84.55 1.5 -84.05 2.2 -83.2 2.9 -82.8 3.15 Q-81.6 4.55 -81.2 6.65 M-61.6 4.85 L-58.95 7.35 -54.95 11.3 -42.25 10.4 -33.3 9.75 -32.65 10.0 -30.45 11.15 -26.6 12.9 Q-26.25 12.8 -31.65 6.75 L-31.3 5.1 Q-30.0 0.15 -27.85 -1.95 -24.35 -5.3 -24.05 -8.15 -23.85 -9.75 -24.35 -12.15 L-24.2 -14.3 -24.05 -16.1 Q-22.55 -8.65 -20.25 -5.3 -18.4 -2.55 -18.4 -2.0 -18.4 0.05 -17.75 1.9 -16.8 4.5 -14.8 5.6 L-14.45 5.55 -15.65 3.65 -16.8 1.4 -17.05 -1.65 Q-17.2 -4.35 -17.5 -4.75 -19.75 -7.6 -21.5 -12.45 -23.05 -16.85 -23.05 -19.35 -23.05 -23.85 -14.05 -30.55 -5.55 -36.9 -1.45 -36.9 5.35 -36.9 10.7 -28.85 14.95 -22.5 14.95 -19.1 L13.2 -16.4 8.25 -10.2 7.2 -9.25 8.55 -18.35 8.25 -20.8 7.6 -23.4 7.25 -23.6 Q7.15 -22.9 7.35 -19.9 L7.55 -16.35 Q7.55 -8.9 2.95 -3.45 L-0.9 2.8 -3.5 7.0 -3.7 7.55 Q-5.25 11.7 -7.35 15.15 L-10.5 21.35 -11.35 22.6 -11.45 22.7 -11.4 22.8 Q-12.65 24.35 -13.05 24.35 -13.25 24.3 -14.85 25.75 -16.55 27.25 -18.4 27.05 -20.85 27.85 -24.35 28.45 L-36.95 29.15 -54.5 26.8 -59.4 26.0 -62.7 25.45 -64.75 25.6 -66.85 25.7 -69.5 26.6 -75.3 27.2 -77.95 26.75 -75.65 19.65 -73.55 12.5 -72.75 14.65 -72.0 18.05 Q-71.55 19.5 -70.45 20.05 -70.05 20.55 -70.0 19.6 -70.6 17.0 -71.6 14.15 -72.55 11.55 -73.5 9.85 L-73.5 9.75 -73.6 9.7 Q-74.65 7.9 -75.8 7.15 L-77.85 10.85 Q-78.5 12.05 -79.65 11.95 L-80.4 11.25 -80.85 10.45 Q-80.45 6.7 -79.0 3.85 -76.8 -0.7 -73.05 1.25 -68.6 3.75 -67.15 4.2 L-61.6 4.85 M-8.0 5.0 L-8.1 5.05 -7.45 5.1 -7.2 5.0 -6.75 4.2 -8.0 5.0 M-79.85 14.55 Q-80.05 16.85 -82.2 17.85 -85.65 17.5 -93.8 14.75 -94.7 14.65 -95.4 13.7 -96.25 12.6 -96.05 10.85 -95.85 8.4 -93.25 7.6 L-90.55 7.25 Q-85.45 9.85 -82.55 11.95 -79.75 13.9 -79.85 14.55 M-95.35 14.8 Q-89.9 18.15 -85.9 19.05 L-82.7 19.35 -82.5 20.25 -82.5 21.85 Q-82.55 22.4 -83.45 23.25 -84.85 24.4 -86.9 24.2 -87.4 24.15 -87.75 23.75 -88.15 23.3 -88.65 23.25 L-92.6 23.5 Q-96.4 22.9 -96.05 19.1 L-95.35 14.8" fill="#c7bc58" fill-rule="evenodd" stroke="none"/>
      <path d="M-71.1 0.55 L-72.25 -0.2 -73.5 -1.1 Q-75.4 -2.05 -76.7 -1.45 -77.35 -1.1 -78.9 1.7 L-79.65 2.35 -80.6 2.6 -82.7 1.1 -82.95 0.35 -82.85 -0.5 -79.0 -10.55 -78.25 -11.6 Q-77.65 -12.0 -69.6 -10.4 -68.8 -9.95 -68.7 -8.65 L-69.4 -4.75 -70.5 -0.25 -71.1 0.55 M-78.95 13.5 Q-78.95 13.15 -77.15 11.7 L-75.3 10.25 Q-74.2 9.1 -74.55 12.95 -74.7 14.5 -75.35 16.05 L-76.35 18.5 Q-78.7 25.6 -79.4 27.1 -80.25 28.95 -80.9 28.35 -81.15 28.1 -83.95 27.5 L-84.3 27.4 Q-86.45 26.8 -86.4 26.3 L-85.75 25.75 -84.7 25.15 Q-82.95 24.1 -82.8 23.8 L-80.65 19.45 Q-79.25 16.4 -78.95 13.5" fill="#8b5c29" fill-rule="evenodd" stroke="none"/>
      <path d="M-86.4 29.75 L-86.4 29.6 -86.35 29.6 -85.05 30.0 Q-83.8 30.15 -82.55 30.75 L-97.2 80.2 -97.25 80.2 -97.85 82.0 Q-97.9 82.45 -97.55 83.3 L-96.75 85.45 -96.6 86.0 -96.6 86.1 Q-96.6 87.05 -96.75 87.55 L-97.0 88.4 -97.4 89.3 -99.45 91.85 Q-99.75 92.2 -100.05 92.15 L-100.35 91.95 -100.4 91.8 -100.1 91.5 -99.5 90.45 -99.0 89.55 Q-98.5 88.5 -98.45 87.85 -98.2 86.4 -98.95 85.2 L-99.55 84.55 Q-100.25 83.95 -101.15 84.05 -102.1 84.1 -102.9 84.6 -104.15 85.4 -104.7 86.6 L-105.15 88.1 -105.45 89.3 -105.45 90.95 -105.55 90.95 -106.0 90.75 -106.2 90.3 -106.35 88.3 -106.2 87.6 -105.95 87.05 -105.95 86.55 -105.45 85.4 Q-105.0 84.2 -103.7 82.7 L-103.25 82.2 -102.45 81.8 Q-102.1 81.6 -101.8 81.55 L-87.1 32.1 -86.4 29.75" fill="#999999" fill-rule="evenodd" stroke="none"/>
      <path d="M93.9 -13.45 L92.8 -10.15 91.9 -7.65 Q95.8 -6.0 95.65 -5.75 94.8 -3.85 94.35 -3.4 L91.35 -0.35 90.1 1.55 89.15 3.55 86.75 8.45 Q86.35 9.25 81.95 14.85 L80.35 16.15 Q78.75 17.45 78.7 17.7 78.6 18.05 78.65 21.15 L78.8 24.45 Q78.9 24.65 79.6 24.8 L80.55 24.95 83.85 25.55 Q86.05 26.15 86.05 26.7 86.05 27.7 88.15 28.95 90.6 30.45 91.6 33.95 L94.15 42.65 Q96.3 48.95 98.15 48.95 98.9 48.95 101.0 50.45 103.2 52.0 103.6 53.15 105.1 57.4 104.9 59.55 104.4 64.7 104.45 66.4 104.8 78.3 106.2 87.5 L107.5 96.95 Q107.5 98.95 106.6 103.35 105.4 109.1 103.8 110.9 L102.8 111.25 Q102.3 111.55 102.05 113.75 L100.8 122.55 Q99.25 129.45 97.6 130.5 96.6 131.15 96.6 136.35 96.6 136.85 97.45 138.2 98.3 139.55 98.45 142.4 L99.4 154.35 Q99.4 155.55 102.7 162.95 106.0 170.3 106.0 173.1 106.0 174.55 105.15 175.0 104.15 175.25 103.8 175.45 L108.15 192.8 108.8 196.05 Q108.8 197.75 105.9 199.0 103.3 200.1 101.45 199.75 101.25 203.75 98.35 205.95 96.9 207.05 95.5 207.45 L95.55 207.75 94.9 207.55 Q93.55 207.55 91.15 205.8 90.3 207.0 89.4 207.45 L87.0 207.9 Q85.35 207.9 84.4 207.1 L83.3 205.85 83.3 205.9 Q81.05 208.4 78.75 208.4 76.7 208.4 74.3 205.2 L72.15 206.0 70.7 206.35 Q69.0 206.35 66.5 204.45 63.65 202.3 63.65 200.0 63.65 198.85 66.25 195.4 68.8 191.95 68.8 190.95 L68.35 189.95 Q67.85 189.45 67.85 188.95 67.85 185.8 67.6 185.55 L66.3 184.0 65.5 182.7 Q65.5 180.05 64.5 177.2 63.45 174.35 63.45 171.65 L64.3 169.05 Q65.1 166.65 65.1 165.7 L65.5 162.7 65.85 159.7 59.95 153.9 Q58.6 153.9 56.65 139.65 56.65 136.3 59.4 137.25 59.2 134.8 59.8 132.75 L61.0 130.05 Q61.25 129.5 63.4 126.5 L65.6 123.5 66.35 123.4 66.3 122.5 Q66.3 122.0 64.8 119.85 63.0 117.3 62.5 116.2 L61.45 113.4 60.4 110.65 Q59.7 109.15 58.75 109.15 58.35 109.15 56.75 106.85 L54.6 103.75 Q52.9 107.5 51.1 109.6 49.85 111.1 49.4 111.1 47.55 111.1 47.05 107.4 46.6 101.75 45.85 97.8 45.65 100.85 46.4 106.3 46.6 110.2 44.15 110.2 41.4 110.2 39.2 108.15 36.05 105.25 36.05 99.2 L36.25 95.8 Q35.3 103.85 34.2 106.75 33.55 108.45 32.25 110.15 L31.5 111.35 30.65 113.5 Q29.8 115.75 29.8 116.3 L26.9 122.4 Q26.9 123.6 28.55 124.95 L31.8 128.05 33.8 130.1 Q35.1 131.55 35.1 132.75 35.1 142.6 35.6 144.9 35.9 146.35 38.2 149.7 39.05 146.15 40.0 144.95 40.45 144.35 41.1 144.35 42.45 144.35 43.8 147.8 L47.0 156.3 Q47.85 158.4 50.85 163.0 53.05 166.4 53.05 168.45 53.05 169.2 51.3 170.65 L58.5 188.75 58.75 189.05 58.8 189.7 Q58.8 191.05 56.25 192.55 53.4 194.25 49.8 194.25 L48.8 193.7 Q47.9 193.15 47.05 193.15 44.65 194.15 36.85 195.3 L27.25 197.0 17.5 197.45 5.95 196.6 Q-7.15 196.6 -9.25 196.25 -13.25 195.6 -13.25 192.2 -9.95 186.15 -7.85 184.45 -4.45 182.25 -0.5 180.05 L-1.3 179.1 -1.6 178.05 Q-1.6 176.45 -0.25 175.85 L2.45 175.0 7.05 173.35 Q11.1 171.7 11.35 170.6 11.75 168.85 12.0 164.55 L12.2 159.8 9.3 157.35 6.2 155.05 Q5.85 155.05 1.55 143.0 L-4.45 126.15 -5.05 122.65 -5.5 119.4 -5.45 118.55 -5.95 116.0 -6.75 116.5 -14.45 121.05 -15.0 121.3 -15.75 122.0 -16.7 122.65 Q-17.4 122.9 -17.8 122.4 -18.05 121.95 -17.75 121.0 L-9.35 100.2 -8.75 98.9 -8.9 98.1 -9.25 95.9 -8.4 92.9 -7.55 90.65 Q-3.6 78.45 -2.2 72.65 L0.35 61.95 1.85 55.2 Q2.95 50.55 4.95 49.0 L6.65 47.85 Q6.0 34.15 6.25 30.15 6.35 28.7 9.5 25.35 L12.6 21.95 Q12.6 20.4 8.5 4.15 4.05 -13.5 3.6 -15.9 L3.3 -15.05 -2.75 -1.5 Q-7.2 8.4 -8.4 8.4 L-12.0 7.8 -15.0 7.2 -20.05 5.2 Q-28.15 2.25 -31.5 -0.25 -33.6 -1.75 -33.6 -2.85 -33.6 -5.8 -31.05 -10.35 L-27.5 -15.85 Q-29.5 -17.3 -31.35 -19.3 L-32.9 -21.2 Q-32.9 -22.45 -31.9 -24.85 -31.05 -27.0 -30.0 -28.6 -29.7 -29.0 -26.3 -37.45 -21.75 -46.6 -15.5 -51.05 L-18.55 -55.4 Q-19.85 -57.3 -19.85 -57.85 -19.85 -58.45 -19.25 -59.05 L-16.6 -61.3 -15.8 -62.1 -15.05 -62.55 Q-14.1 -62.55 -13.0 -61.2 L-7.8 -54.3 Q-7.0 -56.4 -6.45 -56.95 -8.45 -58.15 -10.75 -63.55 -12.95 -68.85 -12.95 -72.1 -12.95 -73.25 -9.65 -75.85 -5.9 -78.8 0.45 -82.15 L1.2 -82.0 -0.4 -85.9 Q-1.7 -88.6 -1.7 -90.55 -1.7 -93.2 -0.6 -97.25 L1.9 -106.05 Q3.55 -112.2 9.25 -115.85 14.8 -119.4 22.2 -119.4 30.25 -119.4 35.65 -114.4 41.0 -109.55 41.9 -101.8 44.45 -103.25 46.35 -99.25 47.05 -97.75 50.3 -97.45 L57.9 -96.7 Q71.9 -94.0 77.15 -91.05 81.2 -88.75 81.2 -85.3 L80.05 -82.7 Q78.8 -80.3 78.4 -76.8 86.2 -74.9 93.3 -64.6 101.05 -53.4 101.05 -41.05 101.05 -35.75 99.65 -30.5 L98.2 -26.3 Q97.1 -24.45 95.6 -19.25 L93.9 -13.45 M30.3 -85.8 L30.35 -85.7 30.2 -85.6 30.45 -85.4 30.8 -85.2 30.3 -85.8 M6.05 -97.65 L6.0 -97.3 7.15 -97.7 6.05 -97.65 M96.45 -27.25 L95.25 -27.05 96.2 -26.8 96.45 -27.25 M-97.45 -2.75 Q-97.45 -2.5 -97.6 -2.35 -97.75 -2.2 -98.0 -2.2 -98.25 -2.2 -98.4 -2.35 L-98.55 -2.75 -98.4 -3.15 -98.0 -3.3 -97.6 -3.15 -97.45 -2.75 M-10.95 116.2 L-9.5 114.85 -8.2 113.3 Q-7.6 112.5 -6.95 112.6 L-6.5 112.7 -7.85 104.65 Q-9.0 108.2 -11.1 112.2 L-13.15 117.3 -13.05 117.45 -10.95 116.2" fill="#181c1d" fill-rule="evenodd" stroke="none"/>
      <path d="M68.8 143.8 L72.05 143.75 79.2 144.05 86.75 143.1 88.85 142.55 90.1 141.1 89.65 141.15 92.15 139.05 Q93.1 138.1 93.7 137.8 94.3 137.6 95.0 137.8 95.75 138.1 95.95 138.6 L96.1 140.3 96.45 142.6 96.55 146.95 96.75 148.95 96.8 151.05 97.1 153.0 97.35 154.1 97.8 156.25 Q94.9 158.55 90.0 159.85 L81.35 161.55 76.05 162.15 Q73.05 162.1 70.75 160.9 67.45 159.25 66.75 157.7 L66.7 157.4 66.55 157.35 66.2 157.55 63.95 155.5 Q62.25 154.15 61.75 153.05 60.65 150.9 60.0 147.7 L58.95 142.2 58.65 140.35 58.65 139.1 Q60.7 141.0 62.8 142.15 65.4 143.55 68.8 143.8 M62.45 131.7 L62.95 133.0 Q64.45 137.25 66.45 139.5 L68.9 141.65 61.8 140.8 61.1 134.1 62.45 131.7 M45.25 192.2 L32.9 193.85 29.9 194.3 Q30.1 193.8 29.9 193.6 23.25 188.15 20.2 185.05 14.75 179.65 13.75 174.25 L13.9 174.1 18.8 181.3 Q21.9 185.1 25.4 186.8 27.75 188.0 31.2 188.85 L37.2 190.25 Q41.85 191.2 45.25 192.2 M10.9 195.05 L8.65 195.05 Q7.0 195.05 6.75 194.55 L6.75 193.15 6.85 191.6 6.4 188.8 Q5.1 183.85 0.4 177.95 L6.35 175.35 Q9.95 173.75 12.15 172.45 L12.75 172.0 12.75 172.1 Q12.65 178.8 17.95 184.9 19.45 186.6 28.55 194.55 L15.5 195.35 10.9 195.05 M44.6 155.9 L48.3 162.05 Q50.55 165.7 51.05 168.5 49.6 169.3 47.15 169.85 L43.05 170.4 30.15 171.45 25.05 171.45 20.1 170.9 Q18.05 170.6 16.3 168.85 14.85 167.3 13.9 165.05 14.3 162.4 14.0 160.6 L14.65 161.1 Q18.9 163.55 24.5 162.4 31.3 161.0 35.7 159.15 41.0 156.95 43.3 154.7 L43.55 153.85 44.6 155.9 M50.15 191.8 Q49.95 191.8 49.8 192.25 L49.65 191.95 Q46.1 190.45 38.0 188.75 30.3 187.15 26.6 185.4 22.5 183.65 19.0 179.15 L13.45 170.85 Q13.9 169.75 13.55 167.45 15.8 171.8 19.35 172.6 L24.65 173.15 30.05 173.1 43.15 172.0 46.2 171.55 Q48.05 171.25 49.3 170.75 L49.35 171.2 56.3 189.1 Q57.2 190.2 56.25 190.3 L54.75 190.85 53.25 191.25 50.15 191.8 M31.55 130.6 L33.1 132.75 33.15 139.0 26.35 140.5 28.45 138.35 Q30.35 135.6 31.55 130.6 M38.15 153.45 L38.7 152.8 38.9 153.0 39.4 153.15 41.1 146.35 Q41.95 149.9 43.4 153.35 40.75 155.85 36.15 157.5 L27.95 159.95 22.8 161.0 17.6 160.5 Q14.2 159.25 13.35 157.95 L13.2 157.6 13.1 157.55 12.75 157.85 Q12.2 157.35 10.3 156.1 8.55 155.05 7.9 154.0 6.65 152.2 5.7 149.25 L4.1 144.3 3.15 141.15 Q5.45 142.95 7.85 143.85 10.45 144.95 13.8 144.75 L19.8 143.65 26.5 142.05 33.15 140.6 33.2 140.95 Q32.75 144.05 33.2 145.25 L33.2 147.35 Q34.15 147.6 34.8 148.1 L35.75 149.55 38.15 153.45 M65.55 174.9 Q67.9 180.25 69.25 182.6 L68.75 182.9 68.15 183.7 Q65.6 179.35 65.35 175.15 L65.55 174.9 M103.5 197.55 L100.85 197.75 97.7 192.65 Q96.3 190.55 95.6 190.15 L93.0 187.85 Q92.6 187.45 91.1 187.15 L89.0 186.8 86.85 186.55 84.45 186.9 80.05 187.05 75.65 187.95 69.8 189.2 70.0 185.15 70.1 181.0 65.4 171.5 Q66.0 170.35 65.9 167.95 67.7 172.75 71.15 173.95 73.4 174.8 76.4 175.2 L82.0 175.7 88.35 176.05 94.6 176.05 95.4 176.05 98.55 175.8 101.8 175.4 101.8 175.8 106.8 195.75 Q107.6 196.8 106.65 196.85 L105.7 197.25 105.0 197.4 103.5 197.55 M98.7 159.05 Q99.55 161.4 101.85 165.9 103.7 170.05 103.95 173.2 102.4 173.95 99.85 174.15 L95.55 174.4 82.35 173.95 77.15 173.35 72.15 172.3 Q70.1 171.7 68.55 169.7 67.25 167.85 66.55 165.4 67.25 162.55 67.2 160.7 L67.7 161.3 Q71.8 164.3 77.7 163.8 84.65 163.05 89.4 161.55 95.0 159.8 97.55 157.6 L97.95 156.75 98.7 159.05" fill="#6c674e" fill-rule="evenodd" stroke="none"/>
      <path d="M9.55 -86.65 L10.2 -88.15 9.7 -88.7 Q6.35 -85.95 5.9 -80.35 L6.15 -73.85 Q5.9 -76.3 5.6 -75.8 L5.3 -74.85 5.1 -74.95 4.5 -76.6 4.25 -77.25 4.1 -77.9 Q3.45 -80.85 3.45 -82.5 L3.5 -84.7 5.8 -84.25 Q6.25 -84.5 6.25 -85.65 4.05 -86.3 2.65 -87.4 0.9 -88.75 0.9 -90.4 0.9 -90.85 1.85 -93.75 L2.8 -97.55 3.35 -103.6 Q3.85 -107.55 7.6 -111.55 13.1 -117.4 22.2 -117.4 32.1 -117.4 36.9 -109.4 40.6 -103.25 40.6 -94.35 L39.35 -93.95 Q37.8 -93.3 36.5 -91.6 L36.65 -91.0 39.5 -92.35 41.25 -92.95 Q42.9 -92.95 43.55 -91.8 L43.85 -90.65 Q43.85 -89.8 42.85 -88.25 41.4 -86.05 38.95 -84.95 L38.6 -84.75 38.2 -84.45 38.2 -84.55 Q36.35 -83.6 36.1 -82.45 35.35 -78.65 34.6 -77.0 32.15 -71.6 26.5 -68.25 21.3 -65.15 15.9 -65.15 13.9 -65.15 11.8 -65.95 8.75 -67.1 8.5 -69.25 L8.65 -71.45 7.85 -71.9 Q7.05 -72.2 7.05 -72.8 L6.8 -74.65 Q6.7 -75.8 7.3 -75.8 8.0 -75.8 8.4 -76.25 L10.95 -76.55 Q13.1 -76.45 16.85 -76.65 20.95 -76.9 21.2 -77.25 23.0 -74.75 23.05 -74.25 L23.15 -74.15 23.3 -74.2 Q22.9 -77.6 20.65 -79.75 19.0 -81.4 17.8 -81.4 L10.6 -80.8 Q8.8 -80.15 7.6 -77.95 L7.2 -77.05 Q7.7 -81.2 8.8 -84.65 L9.55 -86.65 Q10.15 -85.65 11.65 -84.65 13.05 -83.7 13.7 -83.7 14.1 -83.7 16.1 -84.85 18.35 -86.15 19.4 -87.2 L22.4 -82.25 22.9 -81.2 23.1 -81.7 20.0 -87.35 Q19.05 -88.7 17.35 -89.4 16.55 -89.2 16.55 -88.25 L16.95 -88.4 17.75 -88.55 18.45 -88.2 19.2 -87.55 16.25 -86.4 14.0 -85.65 11.65 -86.15 9.55 -86.65 M4.95 -67.45 L8.4 -65.1 12.9 -62.15 Q16.05 -60.65 16.45 -60.65 20.7 -60.65 33.8 -69.5 35.45 -70.6 36.95 -76.55 38.5 -82.5 39.75 -83.35 40.7 -69.65 41.3 -69.85 40.95 -71.9 40.35 -83.95 40.9 -85.05 43.8 -87.1 L44.15 -87.1 44.45 -86.65 Q44.75 -86.4 45.2 -86.3 50.15 -85.4 53.85 -83.85 L54.05 -83.75 61.45 -78.85 60.75 -77.8 60.7 -77.65 57.3 -71.4 Q54.9 -66.6 53.35 -62.6 L51.3 -60.65 51.15 -61.25 Q53.95 -64.15 53.95 -64.65 53.95 -65.6 52.45 -66.55 L50.35 -67.9 50.3 -68.05 50.25 -67.5 Q50.25 -66.65 50.7 -66.2 51.35 -65.55 53.35 -64.95 52.35 -64.6 49.75 -62.1 L42.5 -61.6 43.55 -62.25 Q46.0 -63.7 46.0 -64.8 46.0 -65.9 45.55 -66.15 L45.4 -66.2 Q44.85 -64.95 44.1 -64.45 42.45 -63.3 37.95 -61.25 L35.15 -61.0 35.85 -62.45 Q37.15 -65.6 37.15 -70.25 L37.0 -71.1 36.8 -71.35 36.65 -71.45 36.3 -66.65 Q36.05 -64.75 34.8 -63.05 34.3 -62.35 32.65 -61.2 L32.1 -60.75 23.95 -60.2 Q18.9 -59.95 8.15 -57.4 L4.6 -56.45 2.7 -64.95 2.25 -66.6 Q3.6 -67.45 4.95 -67.45 M79.4 -73.7 Q87.9 -69.9 93.55 -60.2 99.05 -50.8 99.05 -41.05 99.05 -36.25 97.2 -32.25 95.15 -27.75 95.05 -27.05 95.15 -26.35 95.6 -25.9 L96.45 -27.3 96.5 -25.2 Q96.5 -17.95 92.0 -9.8 87.65 -1.95 84.25 -1.95 L83.1 -2.2 82.2 -2.9 Q82.0 -3.4 82.0 -2.4 82.0 -1.65 82.7 -1.0 83.6 -0.2 85.05 -0.65 84.7 5.95 80.25 10.85 75.6 14.8 75.1 15.6 73.8 14.0 69.85 12.3 L69.75 12.25 71.45 1.1 73.6 -13.5 73.8 -12.95 74.0 -12.8 74.2 -13.35 73.75 -14.65 74.95 -22.9 78.45 -23.45 Q82.45 -24.25 85.05 -25.1 L84.5 -26.6 79.65 -25.05 75.15 -24.3 76.7 -35.0 76.45 -36.0 75.6 -36.65 Q74.85 -36.85 69.7 -39.55 65.6 -41.7 63.85 -42.7 L62.9 -42.85 Q62.4 -42.8 62.05 -42.45 62.1 -42.7 60.05 -43.3 L60.1 -43.3 60.75 -43.8 61.1 -44.5 Q62.95 -56.65 68.1 -68.15 70.5 -68.35 72.45 -67.55 L72.5 -67.85 72.4 -68.9 69.3 -69.15 68.55 -69.1 72.1 -75.8 Q72.35 -75.6 72.7 -75.5 L76.05 -74.75 76.9 -74.7 79.4 -73.7 M51.05 -55.5 L51.2 -58.6 52.25 -59.6 51.05 -55.5 M51.1 -54.65 L51.0 -53.85 51.05 -54.85 51.1 -54.65 M32.25 -80.95 L33.25 -80.2 33.3 -80.05 33.3 -81.9 32.9 -81.6 Q31.55 -81.0 28.6 -84.7 L28.5 -84.9 Q30.2 -84.9 31.8 -85.55 34.65 -86.75 35.3 -89.65 L35.25 -89.85 Q34.7 -88.9 31.6 -87.1 L28.45 -85.3 28.25 -84.75 Q28.9 -83.9 32.25 -80.95 M24.15 -89.0 Q26.15 -89.0 27.05 -92.4 L26.8 -93.0 26.35 -92.75 Q27.35 -97.1 24.5 -97.1 L20.6 -96.4 Q18.1 -95.55 18.1 -94.4 18.1 -93.6 19.65 -91.6 21.7 -89.0 24.15 -89.0 M6.45 -97.7 Q5.35 -97.7 4.8 -97.05 4.5 -97.05 4.2 -96.65 L3.9 -96.0 3.6 -95.2 3.55 -93.65 3.6 -93.15 3.75 -92.65 Q4.2 -91.35 5.05 -90.2 L4.95 -90.0 6.95 -88.7 Q8.0 -88.7 9.6 -90.1 11.3 -91.55 11.95 -93.2 13.85 -97.7 6.45 -97.7 M50.6 -45.6 L50.65 -45.8 50.75 -45.55 50.6 -45.6 M76.9 142.4 Q76.75 142.4 76.85 142.6 L72.5 141.7 Q70.0 141.1 68.45 140.15 66.4 138.6 64.85 136.0 L63.5 133.0 62.8 130.9 63.75 129.05 64.8 129.0 65.15 128.15 Q66.0 126.3 67.2 124.65 L68.05 123.3 68.55 122.1 66.5 119.4 Q65.25 117.55 64.35 115.4 63.1 111.95 62.15 110.3 L60.35 107.95 59.3 106.5 59.55 105.8 60.55 93.9 62.2 96.5 62.25 96.55 63.2 97.6 Q63.9 98.1 64.4 97.95 65.5 98.05 65.85 96.8 L65.85 96.75 68.55 88.1 Q71.2 110.8 71.95 111.15 L72.15 111.3 73.9 111.4 Q75.15 112.6 77.35 118.7 77.55 119.25 78.1 119.5 L79.2 119.6 80.1 118.9 82.55 113.75 82.65 113.1 81.55 89.05 Q83.55 93.3 84.7 93.3 L85.65 98.45 Q86.65 104.0 86.6 109.55 L86.65 109.8 Q87.45 114.5 92.8 124.8 L92.7 124.9 91.5 126.6 90.15 128.1 Q89.5 128.75 88.4 130.35 L83.2 129.55 Q81.5 129.2 81.15 128.4 80.95 127.7 80.55 127.6 80.15 127.45 79.85 127.95 79.7 128.35 79.9 128.85 80.35 129.85 81.95 130.45 L88.15 131.8 88.75 131.8 89.25 131.3 Q89.85 130.25 91.0 129.0 L92.15 127.7 93.45 126.05 94.3 127.65 93.7 131.05 93.25 133.5 93.4 133.4 93.6 133.4 93.0 136.6 Q90.5 139.65 87.4 141.4 L86.3 141.6 82.0 142.25 77.25 142.7 76.9 142.4 M74.9 16.3 Q74.9 18.1 73.8 23.8 72.65 23.8 68.5 24.75 L68.75 22.55 68.55 20.0 69.55 13.5 Q74.9 15.15 74.9 16.3 M-1.95 124.2 L-1.55 119.8 -1.2 119.3 -0.9 119.1 Q-0.45 118.7 -0.4 118.15 L1.4 105.1 Q2.8 95.7 4.3 90.1 5.1 92.45 6.8 92.2 L7.25 92.2 Q8.0 95.8 8.1 98.5 L8.1 112.05 8.25 112.75 9.45 114.55 13.2 119.75 Q13.55 120.25 14.15 120.35 L15.3 120.1 Q15.8 119.7 15.9 119.1 L17.15 110.2 17.35 109.55 19.4 111.4 Q19.8 111.8 20.4 111.8 20.95 111.8 21.4 111.4 21.85 111.0 21.9 110.45 L22.75 101.8 Q23.2 97.95 24.1 95.0 L27.95 97.7 29.45 98.95 30.15 99.35 30.95 99.35 31.6 98.95 34.15 94.6 34.1 94.6 34.5 93.95 33.45 100.75 Q32.9 104.55 32.35 106.0 L31.0 108.35 29.6 110.7 Q28.8 112.25 27.9 115.65 26.65 119.35 24.5 122.3 L25.15 123.5 26.2 124.6 28.5 127.6 28.9 128.35 30.0 128.3 31.0 129.9 Q30.5 133.05 29.65 134.95 28.45 137.5 26.55 139.1 25.15 140.15 22.8 140.9 L18.7 142.3 18.6 142.0 18.2 142.45 18.15 142.45 Q12.55 143.75 8.65 142.3 5.2 140.95 2.25 138.3 L1.4 135.35 1.65 135.35 1.8 135.5 1.05 133.25 -0.25 128.9 -0.45 128.15 0.25 128.85 1.4 130.0 2.4 130.55 4.15 131.85 4.9 132.4 6.05 132.3 7.1 131.5 12.4 126.4 12.95 125.65 12.7 125.25 12.05 125.15 Q11.65 125.35 11.2 125.9 L6.6 130.5 5.65 131.25 Q5.2 131.3 4.35 130.55 L2.0 129.05 -0.25 126.65 -0.95 126.1 -1.35 126.1 -2.05 124.85 -1.95 124.2 M-6.95 194.7 L-10.2 193.75 Q-12.15 192.8 -10.35 191.8 L-8.35 191.0 -6.45 190.6 -4.9 190.25 -4.35 189.3 Q-4.2 188.5 -4.45 188.5 L-7.85 189.2 -8.6 189.1 Q-10.0 188.9 -8.8 187.7 -8.5 187.35 -6.7 186.1 -3.45 183.7 1.05 181.5 L1.15 181.4 Q6.5 188.7 6.05 194.85 -1.85 195.55 -6.95 194.7 M95.45 192.95 Q97.85 195.8 98.85 197.9 99.95 200.45 98.9 201.85 L98.45 202.35 98.1 203.45 Q97.8 204.25 97.1 204.85 L95.25 205.45 Q94.3 205.65 93.5 205.15 92.9 204.9 92.05 203.6 L91.6 202.7 90.8 202.65 90.45 203.3 89.25 204.85 Q88.45 205.7 87.7 205.75 86.4 206.0 85.05 204.8 L83.55 202.8 83.2 201.75 82.85 201.75 82.75 202.15 81.6 204.8 Q80.7 206.05 79.5 206.3 78.1 206.6 77.05 205.55 76.1 204.6 75.55 203.15 L74.4 203.0 73.15 203.55 71.3 204.3 Q70.05 204.45 68.9 203.9 L67.7 202.85 66.7 201.85 65.85 200.6 65.65 200.0 65.7 199.9 Q66.0 199.3 66.85 198.4 L67.95 196.6 68.9 194.6 70.7 191.75 71.1 191.15 71.75 189.65 78.65 188.8 Q87.3 188.0 92.15 188.9 L95.45 192.95 M-2.45 -51.2 Q-2.0 -48.4 -1.3 -47.15 L-1.35 -47.0 -1.35 -46.25 -0.7 -44.1 -0.6 -43.65 -6.4 -52.35 -3.85 -58.45 -2.45 -51.2" fill="#c7bc58" fill-rule="evenodd" stroke="none"/>
      <path d="M89.45 33.5 Q89.45 34.5 93.95 47.95 94.5 49.75 97.45 50.8 100.6 51.9 100.95 52.5 102.7 55.25 102.95 58.3 103.1 60.5 102.5 65.1 102.05 68.7 103.65 80.8 105.45 94.15 105.45 96.7 105.45 97.7 102.15 109.7 101.7 106.0 99.4 104.85 L100.1 110.7 Q100.15 118.7 96.9 129.3 89.1 115.25 88.1 109.55 88.15 103.85 87.1 98.15 L85.3 88.8 84.95 90.45 Q84.6 91.7 84.25 91.9 83.85 92.1 79.55 79.8 L80.05 89.0 81.15 113.1 78.75 118.15 Q76.15 111.0 74.55 110.0 L73.55 109.9 72.95 110.05 Q72.4 109.55 68.6 75.4 68.65 82.15 67.6 85.9 L64.4 96.35 Q64.3 96.75 63.4 95.6 62.5 94.4 61.5 92.5 59.5 88.8 59.55 87.65 L58.05 105.65 Q57.15 103.4 55.7 102.0 54.5 100.85 53.7 100.85 53.05 102.7 49.4 109.1 L46.4 87.0 Q45.3 87.6 44.15 95.2 42.9 103.55 44.15 108.15 L43.4 107.85 Q37.9 106.6 38.05 99.3 L38.25 93.9 Q38.15 91.2 36.85 90.4 34.25 91.25 32.8 93.85 L30.55 97.9 28.8 96.45 23.3 92.6 Q21.85 96.25 21.25 101.6 L20.4 110.3 16.95 107.1 Q15.65 109.25 15.65 110.2 L14.4 118.85 10.65 113.65 9.6 112.05 9.6 98.45 Q9.5 94.8 8.15 89.5 L7.7 90.3 Q7.4 90.7 6.8 90.7 5.65 90.7 5.25 87.45 L4.85 83.15 4.4 84.75 Q2.05 90.5 -0.1 104.85 L-1.9 117.95 -2.15 117.9 -3.45 119.8 -4.9 110.6 -8.1 113.85 Q-13.2 118.55 -13.85 118.4 -14.35 118.25 -12.55 113.6 L-10.2 107.95 -8.15 103.1 -6.75 99.2 -7.3 95.75 Q-0.95 77.75 2.9 59.35 4.05 53.85 4.8 52.2 5.55 50.7 6.85 49.85 L6.9 52.5 Q6.95 55.4 7.4 56.95 L7.95 57.7 8.25 57.85 8.1 58.2 Q7.9 58.6 8.05 59.1 L10.6 67.75 11.8 71.0 11.85 71.1 13.3 73.4 14.0 74.4 Q15.15 75.6 16.2 74.85 L16.3 74.8 Q16.2 75.25 21.9 78.05 L22.0 78.1 26.5 78.85 30.5 79.45 36.25 80.0 44.85 79.55 45.7 79.1 52.7 71.9 52.7 71.85 56.95 66.7 56.95 66.65 58.15 64.5 Q59.1 62.55 60.65 60.3 62.65 58.7 62.85 58.15 L63.0 57.95 63.25 56.25 Q63.3 55.3 62.2 52.65 L61.55 52.1 61.0 51.75 60.95 50.5 60.7 49.1 55.65 38.6 55.5 38.3 61.0 36.1 Q63.75 34.9 66.1 32.35 L66.15 32.3 68.5 29.65 68.85 28.85 68.9 27.7 75.55 27.3 79.65 26.95 84.0 26.6 Q82.1 27.9 85.5 30.2 89.45 32.9 89.45 33.5 M13.0 25.3 L13.2 25.2 Q13.45 26.3 13.9 26.6 L14.85 27.1 Q14.85 28.3 15.0 29.05 L14.75 28.95 Q14.45 28.55 14.0 28.45 L13.05 28.5 12.35 29.1 10.85 31.55 Q10.6 31.95 10.6 32.4 L10.85 33.2 Q11.1 33.55 11.5 33.75 L13.45 35.5 13.55 35.6 14.35 36.25 13.9 36.3 Q13.3 36.45 13.0 36.95 L9.9 42.1 8.25 45.5 8.45 32.5 Q8.45 31.9 8.9 30.25 9.35 28.35 9.75 27.85 10.65 26.7 13.0 25.3 M-98.6 -3.05 L-97.55 -3.25 -97.4 -2.5 -98.55 -2.25 -98.6 -3.05 M-1.95 117.25 L-1.95 117.4 Q-1.85 117.1 -2.25 117.1 L-1.95 117.25 M-6.05 103.65 L-6.1 103.85 -6.05 103.7 -6.05 103.65" fill="#666666" fill-rule="evenodd" stroke="none"/>
      <path d="M20.6 -95.0 Q21.05 -95.75 21.8 -95.75 L21.85 -95.75 Q22.6 -95.8 23.2 -95.1 23.8 -94.45 23.9 -93.45 24.0 -92.4 23.5 -91.7 23.05 -90.95 22.3 -90.95 L22.25 -90.95 Q21.5 -90.9 20.9 -91.6 20.35 -92.3 20.25 -93.3 20.15 -94.25 20.6 -95.0 M4.95 -94.4 Q5.45 -95.1 6.2 -95.2 6.95 -95.2 7.55 -94.5 8.15 -93.85 8.25 -92.85 8.35 -91.85 7.85 -91.1 7.4 -90.35 6.65 -90.35 L6.6 -90.35 Q5.85 -90.35 5.25 -91.0 4.65 -91.7 4.6 -92.65 4.5 -93.65 4.95 -94.4 M13.45 -80.65 L13.75 -78.15 Q13.7 -77.7 10.15 -77.35 L9.8 -77.45 Q9.7 -77.5 9.7 -78.1 9.7 -79.85 10.1 -80.05 L13.45 -80.65 M14.5 -80.7 Q17.85 -80.7 19.3 -79.7 20.65 -78.8 20.05 -77.4 L17.2 -77.55 15.45 -77.65 14.5 -77.8 Q14.3 -78.0 14.25 -79.05 L14.5 -80.7" fill="#ffffff" fill-rule="evenodd" stroke="none"/>
      <path d="M0.1 -46.65 L4.05 -49.05 5.0 -49.85 4.1 -54.8 8.5 -55.95 Q19.05 -58.45 24.0 -58.7 L38.05 -59.75 49.8 -60.6 49.45 -52.5 Q49.2 -44.6 49.5 -44.3 L63.1 -41.4 Q64.85 -40.4 69.0 -38.25 74.4 -35.4 75.2 -35.2 L69.95 0.85 66.45 23.75 Q63.55 24.1 60.9 25.1 L55.45 26.85 47.7 28.75 Q40.45 30.25 34.6 30.25 L28.7 29.9 Q22.95 29.45 22.95 28.9 22.95 28.7 19.05 27.2 L14.95 25.55 Q14.55 25.15 14.3 22.95 L12.55 15.15 Q10.75 7.75 9.85 5.4 8.8 2.5 6.85 -6.75 4.65 -17.05 4.6 -21.15 L3.2 -33.6 0.1 -46.65 M32.2 -27.35 Q32.2 -30.0 30.3 -31.9 28.4 -33.8 25.75 -33.8 23.1 -33.8 21.2 -31.9 19.3 -30.0 19.3 -27.35 19.3 -24.7 21.2 -22.8 23.1 -20.9 25.75 -20.9 28.4 -20.9 30.3 -22.8 32.2 -24.7 32.2 -27.35 M-6.15 -5.95 Q-11.95 -7.1 -22.15 -13.95 -31.5 -20.25 -31.4 -21.25 -31.3 -22.25 -30.35 -24.05 -27.65 -21.7 -20.95 -16.9 -13.0 -11.3 -11.55 -11.3 L-10.5 -13.0 -9.55 -14.75 -5.25 -21.65 0.2 -29.55 -1.3 -32.15 -10.2 -45.9 -18.35 -57.75 -15.05 -60.75 Q-15.65 -62.65 -9.3 -53.8 -3.1 -45.15 -1.1 -41.6 L-0.25 -40.1 0.25 -37.85 0.8 -35.75 1.9 -26.1 2.0 -24.75 -6.15 -5.95 M16.3 20.75 L15.3 14.3 14.8 4.65 14.95 0.7 Q15.15 -2.8 15.3 -3.2 L17.6 -4.0 20.6 -4.65 Q26.7 -6.1 31.35 -6.1 36.8 -6.1 40.75 -6.25 42.6 -6.1 47.7 -4.3 L48.05 9.9 49.15 21.05 42.8 22.7 Q35.2 24.3 26.2 24.3 25.4 24.3 16.3 20.75 M31.8 -7.95 L22.9 -6.9 17.85 -5.85 15.6 -5.5 Q14.45 -5.25 13.9 -4.6 L13.7 -2.85 13.5 -0.55 Q13.15 0.55 13.3 3.55 L13.5 8.15 13.45 10.2 Q13.55 12.4 14.0 14.9 L15.15 21.45 Q20.0 26.55 35.2 26.55 38.5 26.55 44.85 24.8 50.95 23.15 50.95 22.55 50.95 18.8 49.15 -4.75 49.15 -6.45 46.15 -7.15 L31.8 -7.95 M56.05 -37.4 Q56.05 -38.35 55.4 -39.0 54.75 -39.65 53.8 -39.65 52.85 -39.65 52.2 -39.0 51.55 -38.35 51.55 -37.4 51.55 -36.45 52.2 -35.8 52.85 -35.15 53.8 -35.15 54.75 -35.15 55.4 -35.8 56.05 -36.45 56.05 -37.4 M55.05 -30.6 Q55.05 -31.55 54.4 -32.2 53.75 -32.85 52.8 -32.85 51.85 -32.85 51.2 -32.2 50.55 -31.55 50.55 -30.6 50.55 -29.65 51.2 -29.0 51.85 -28.35 52.8 -28.35 53.75 -28.35 54.4 -29.0 55.05 -29.65 55.05 -30.6 M43.75 41.4 L48.8 41.2 Q50.45 40.9 54.25 39.2 L59.35 49.75 59.85 50.75 52.35 50.05 37.9 48.8 8.2 49.2 Q9.95 45.15 11.2 42.8 L14.25 37.75 Q16.6 39.0 28.1 40.25 L43.75 41.4 M15.5 73.5 L15.05 73.35 14.6 72.7 13.15 70.35 12.05 67.3 9.5 58.65 39.6 58.25 Q48.0 58.15 52.4 58.45 L59.4 59.45 58.25 61.2 56.8 63.85 55.75 65.75 51.6 70.85 44.6 78.05 36.25 78.5 30.75 77.95 26.65 77.5 22.55 76.7 Q15.75 73.35 15.5 73.5" fill="#8b5c29" fill-rule="evenodd" stroke="none"/>
      <path d="M66.75 -68.85 Q61.5 -57.15 59.6 -44.75 L52.0 -46.4 52.5 -55.15 Q53.9 -61.2 58.65 -70.75 L62.0 -76.95 68.15 -86.2 68.2 -86.2 74.25 -82.4 72.25 -79.3 66.75 -68.85 M46.4 -96.55 L51.65 -96.05 63.05 -94.25 Q79.65 -90.9 79.65 -85.55 L76.55 -76.15 73.0 -77.0 75.95 -82.1 76.25 -82.75 Q76.25 -83.2 73.5 -85.55 70.35 -88.25 68.1 -88.25 L67.3 -88.1 66.95 -87.5 62.2 -80.65 60.4 -82.05 Q58.75 -83.3 58.25 -83.3 57.3 -84.0 55.25 -84.9 51.2 -86.75 45.45 -87.8 46.65 -92.9 42.95 -96.05 43.7 -96.25 43.7 -96.4 L46.4 -96.55 M-11.45 -71.95 Q-11.6 -72.55 -9.15 -74.25 L0.6 -80.65 Q1.5 -80.3 3.1 -76.1 L5.2 -69.75 3.7 -69.15 1.6 -68.3 1.0 -70.2 -0.05 -72.15 -6.6 -69.8 Q-6.75 -69.7 -4.3 -61.25 -5.9 -58.35 -6.35 -58.55 -6.65 -58.7 -8.6 -63.65 -10.7 -68.95 -11.45 -71.95 M-0.8 -70.25 Q-0.2 -70.4 1.25 -64.6 L3.85 -52.55 Q4.25 -51.3 4.25 -50.3 4.25 -50.15 2.35 -48.9 0.45 -47.65 0.15 -47.65 -0.35 -47.65 -1.0 -51.45 -2.3 -59.2 -4.6 -68.5 -4.8 -69.15 -4.35 -69.35 L-0.8 -70.25 M30.25 -27.25 Q30.25 -25.4 28.95 -24.0 27.6 -22.65 25.75 -22.65 23.85 -22.65 22.55 -24.0 21.2 -25.4 21.2 -27.25 21.2 -29.15 22.55 -30.45 23.85 -31.85 25.75 -31.85 27.6 -31.85 28.95 -30.45 30.25 -29.15 30.25 -27.25 M-26.3 -14.95 L-16.4 -9.0 Q-10.4 -5.65 -7.6 -5.05 L-6.05 -4.55 -5.45 -4.4 2.1 -22.2 2.15 -19.7 Q2.25 -17.2 2.45 -17.1 L-8.4 6.9 -14.55 5.75 -19.45 3.8 Q-25.65 1.1 -32.1 -2.85 -27.9 -13.35 -26.3 -14.95 M34.5 33.65 Q36.8 33.65 50.5 30.45 64.15 27.2 66.55 27.2 67.55 27.2 67.35 28.65 L65.0 31.3 Q62.9 33.65 60.4 34.7 L52.7 37.75 Q49.55 38.75 46.05 38.75 L28.75 38.45 24.65 38.25 19.3 37.1 Q16.75 36.4 14.5 34.45 L12.1 32.35 13.6 29.9 Q14.1 30.5 21.15 31.95 29.15 33.65 34.5 33.65 M60.8 53.2 Q61.75 55.45 61.75 56.25 L61.65 57.25 60.8 57.45 50.75 56.85 43.25 56.2 8.85 56.5 7.25 51.75 21.7 51.2 36.75 51.0 52.9 52.1 60.8 53.2 M-22.75 -41.25 L-19.0 -46.15 Q-17.2 -48.25 -15.25 -49.6 L-10.75 -43.85 -7.6 -39.1 -1.65 -29.25 Q-1.65 -27.75 -5.6 -23.4 -10.15 -18.35 -11.85 -13.0 -16.75 -15.5 -23.25 -20.3 -29.7 -25.15 -29.7 -26.3 -29.7 -26.8 -28.95 -27.55 -28.25 -28.3 -28.25 -28.8 -28.25 -33.4 -22.75 -41.25" fill="#483310" fill-rule="evenodd" stroke="none"/>
      <path d="M119.2 89.05 Q120.6 89.75 121.05 90.65 121.5 91.4 121.55 92.55 121.65 94.85 119.4 96.6 117.5 98.15 115.8 98.2 L111.15 96.85 Q107.4 95.35 104.2 95.5 L102.8 96.1 Q101.7 96.7 101.25 96.7 98.05 96.85 97.2 91.5 L97.0 86.0 96.5 83.1 96.0 80.2 Q95.95 79.6 94.95 79.35 93.6 79.0 93.4 78.85 93.85 78.1 92.85 78.15 92.0 78.2 91.25 73.05 90.4 67.5 88.8 66.6 L88.25 65.4 87.95 64.35 Q87.95 63.85 87.55 63.8 87.15 63.65 87.1 63.15 87.05 61.05 88.25 58.85 89.5 56.65 89.45 55.5 89.4 55.0 89.75 54.65 89.85 54.5 89.35 54.5 88.7 54.55 88.45 49.3 L88.2 43.3 88.4 33.6 88.4 20.1 Q88.1 12.4 87.05 9.05 86.0 6.95 86.0 5.85 L86.5 3.8 Q87.8 1.65 92.1 0.7 L93.7 0.25 Q92.3 -2.3 90.1 -8.65 86.7 -18.35 86.45 -25.3 86.4 -26.5 86.9 -28.35 87.45 -30.25 87.35 -32.3 87.35 -33.3 84.6 -36.7 L77.5 -38.55 Q73.1 -39.8 71.0 -41.8 69.65 -43.0 69.6 -43.85 69.45 -47.75 70.65 -52.85 72.9 -62.25 78.85 -70.1 L86.4 -80.5 Q88.7 -83.35 90.2 -83.45 94.85 -83.6 99.65 -82.2 106.95 -80.05 110.25 -74.85 L113.0 -77.7 114.1 -78.3 Q115.05 -78.3 116.95 -76.55 118.8 -74.8 118.8 -74.05 118.85 -73.8 118.0 -72.8 L114.45 -69.35 Q115.65 -67.25 123.95 -47.7 123.95 -47.35 121.65 -46.85 119.4 -46.3 119.5 -43.65 119.55 -41.4 118.45 -40.35 117.35 -39.35 117.45 -36.15 117.55 -34.3 119.55 -30.4 121.55 -26.55 121.7 -22.3 L121.9 -19.25 Q122.0 -17.0 121.35 -16.95 120.9 -16.95 120.85 -16.65 L120.9 -14.85 Q120.6 -10.2 117.7 -1.3 L120.8 -1.55 121.65 -1.7 122.8 -0.8 Q123.2 -0.4 123.2 0.1 123.25 1.3 121.8 4.05 120.3 6.75 120.45 10.45 L121.6 18.5 Q122.75 25.7 122.95 31.55 123.45 44.45 123.0 48.9 122.5 53.55 120.4 54.95 122.25 57.2 123.25 60.75 L123.9 64.95 123.7 67.1 123.05 70.3 Q122.4 72.1 120.9 73.6 119.65 74.8 119.7 75.3 119.75 77.2 120.55 79.0 L121.3 81.85 121.25 85.6 Q120.9 88.25 119.2 89.05 M118.35 88.75 L119.0 88.95 118.4 88.5 118.35 88.75" fill="#181c1d" fill-rule="evenodd" stroke="none"/>
      <path d="M97.35 -2.25 Q95.7 -9.5 96.75 -11.45 98.45 -14.6 101.1 -15.45 L104.35 -15.95 104.35 -16.0 Q102.4 -16.85 99.4 -16.0 96.3 -15.0 95.05 -12.75 94.4 -11.45 95.7 -4.85 L96.85 0.0 96.65 0.0 96.6 0.0 95.35 0.05 Q92.55 -3.75 89.95 -13.95 86.4 -28.05 88.95 -32.0 L90.65 -30.0 92.4 -27.9 93.25 -27.6 93.45 -27.6 Q92.6 -29.0 90.15 -31.4 87.8 -33.9 86.4 -35.95 L86.05 -36.45 92.15 -35.85 Q100.9 -35.15 111.9 -40.35 L114.1 -41.45 Q112.65 -39.3 111.15 -38.0 110.05 -37.15 108.15 -36.05 L106.35 -34.9 105.2 -29.75 103.4 -27.6 Q101.5 -25.6 100.6 -24.95 L101.0 -24.8 Q102.4 -24.65 104.05 -25.9 105.25 -27.1 106.3 -28.8 107.15 -30.4 107.45 -32.25 L108.1 -34.35 Q108.1 -34.45 109.2 -35.2 L112.4 -37.7 114.95 -40.45 Q116.25 -41.95 116.6 -42.75 L117.95 -43.45 117.55 -41.8 117.25 -41.6 117.05 -41.0 116.35 -39.75 Q115.35 -36.25 116.6 -32.85 117.3 -30.85 119.2 -27.65 120.65 -24.65 119.85 -17.1 119.3 -10.75 118.05 -7.15 117.0 -4.25 116.1 -1.2 L109.05 -0.65 101.0 0.0 97.85 0.0 97.35 -2.25 M119.7 82.65 Q119.85 84.3 119.3 87.55 L118.7 87.1 117.65 87.1 Q116.8 87.6 116.8 89.1 L119.65 91.05 Q120.35 92.95 118.95 94.7 L117.55 96.25 Q116.3 96.8 115.2 96.75 113.45 96.55 111.25 94.95 110.2 94.45 106.85 94.0 L102.65 94.25 Q102.5 94.3 102.3 94.45 L101.5 95.0 Q100.65 95.4 99.9 94.3 L99.1 93.15 98.7 91.0 98.15 88.8 98.15 87.35 98.5 86.05 97.75 82.15 97.45 80.5 98.45 80.6 104.15 80.5 104.2 80.45 Q110.6 80.45 115.35 78.25 L115.9 77.7 116.55 77.55 118.5 76.2 Q119.9 80.5 119.7 82.65" fill="#c7bc58" fill-rule="evenodd" stroke="none"/>
      <path d="M90.3 -81.95 Q101.35 -82.35 109.35 -73.6 L105.4 -69.65 Q104.15 -68.45 102.65 -66.45 101.1 -64.4 101.2 -64.0 101.25 -63.65 102.45 -62.4 103.65 -61.15 104.0 -61.1 104.55 -61.0 106.7 -62.75 L110.1 -65.8 113.05 -68.7 114.55 -66.25 Q117.3 -61.45 119.85 -54.4 122.15 -48.1 122.45 -47.75 116.7 -44.3 111.25 -41.7 100.65 -36.7 92.25 -37.35 82.3 -38.1 78.05 -39.9 L71.1 -43.8 71.4 -49.0 Q72.05 -56.15 80.15 -69.35 87.9 -81.85 90.3 -81.95" fill="#8b5c29" fill-rule="evenodd" stroke="none"/>
      <path d="M121.65 -0.2 L121.25 1.3 120.75 2.65 Q119.65 4.25 119.4 5.15 118.65 7.25 118.95 10.6 L119.95 17.6 120.9 24.5 Q122.35 38.55 120.6 52.9 L120.35 53.1 120.5 53.25 120.5 53.3 115.8 54.85 115.65 51.45 116.8 50.15 Q117.1 49.25 116.75 48.45 116.3 47.55 115.4 47.25 L113.7 47.3 Q112.75 47.7 112.5 48.55 112.15 49.5 112.55 50.35 112.95 51.25 113.95 51.6 L114.2 55.2 108.7 56.25 108.15 52.55 Q108.9 52.05 109.1 51.3 109.35 50.45 109.05 49.65 108.6 48.75 107.75 48.5 L106.0 48.55 Q105.15 48.95 104.85 49.85 104.45 50.7 104.9 51.55 105.4 52.75 106.65 52.9 L107.05 56.5 102.2 57.05 101.85 53.1 Q102.7 52.8 102.9 51.95 103.25 51.05 102.9 50.3 102.45 49.4 101.55 49.1 100.7 48.7 99.85 49.1 98.95 49.55 98.6 50.4 98.35 51.25 98.65 52.1 99.1 53.1 100.25 53.4 L100.6 57.25 96.6 57.7 96.2 53.95 97.25 52.65 Q97.4 51.8 97.05 51.0 96.6 50.15 95.8 49.9 L94.0 49.95 Q93.15 50.35 92.75 51.15 92.45 52.1 92.9 52.95 93.35 54.05 94.6 54.25 L94.95 57.95 89.55 59.0 89.4 59.05 Q90.55 58.4 90.8 57.05 91.0 56.0 90.8 54.25 89.7 47.85 89.65 41.65 L89.85 29.15 Q90.1 21.5 89.6 16.7 L88.9 10.95 88.2 8.15 87.75 6.75 87.45 5.4 Q87.8 4.35 89.75 3.2 91.05 2.5 92.6 2.1 L96.7 1.5 100.95 1.5 109.15 0.85 121.3 -0.15 121.65 -0.2 M92.8 61.8 L95.4 61.55 95.7 62.95 Q94.75 63.4 94.5 64.25 94.15 65.15 94.55 66.0 94.9 66.85 95.8 67.15 L97.55 67.1 Q98.45 66.8 98.75 65.85 99.1 64.95 98.75 64.1 98.3 63.25 97.3 62.85 L97.0 61.2 100.85 60.6 100.75 63.35 Q100.1 63.75 99.8 64.6 99.6 65.5 99.95 66.25 100.4 67.1 101.25 67.4 102.15 67.8 103.0 67.4 103.9 66.95 104.15 66.1 104.55 65.2 104.1 64.3 103.6 63.3 102.4 63.05 L102.4 60.25 107.15 59.2 Q107.15 61.5 106.65 63.85 L106.6 63.85 Q105.75 64.25 105.45 65.15 105.1 66.0 105.55 66.9 105.9 67.7 106.8 68.05 107.65 68.4 108.55 68.05 109.4 67.55 109.75 66.7 110.05 65.9 109.6 65.0 109.25 64.05 108.25 63.8 108.75 61.2 108.75 58.7 L114.3 57.1 114.2 59.45 Q113.65 59.9 113.35 60.7 113.15 61.5 113.5 62.3 113.9 63.15 114.8 63.5 L116.55 63.45 Q117.4 63.0 117.7 62.15 118.1 61.25 117.65 60.4 117.15 59.25 115.85 59.1 L115.9 56.6 117.4 56.05 118.45 55.7 118.45 55.65 118.95 55.45 Q121.4 59.2 122.1 62.8 122.9 67.15 121.2 70.6 119.5 74.15 115.8 76.2 L115.0 76.35 Q114.6 76.45 114.7 76.7 L114.7 76.85 Q110.25 78.95 104.15 78.95 L98.7 79.1 Q95.2 78.85 94.05 77.25 93.5 76.45 93.05 75.1 L92.3 72.9 90.2 66.1 89.25 63.75 Q89.0 63.2 88.55 63.0 89.6 62.3 91.2 62.0 L91.25 62.1 Q91.3 62.35 92.1 62.1 92.8 61.95 92.8 61.8" fill="#cccccc" fill-rule="evenodd" stroke="none"/>
      <path d="M105.7 -68.35 L114.45 -76.85 115.9 -75.45 117.3 -73.95 108.8 -66.15 105.45 -62.85 Q104.95 -62.3 104.55 -62.3 L103.35 -63.2 102.45 -64.2 Q102.4 -64.5 102.75 -65.0 L105.7 -68.35" fill="#483310" fill-rule="evenodd" stroke="none"/>
    </g>
    <g id="sprite1" transform="matrix(1.0, 0.0, 0.0, 1.0, 25.9, 10.2)">
      <use ffdec:characterId="1034" height="20.4" transform="matrix(1.0, 0.0, 0.0, 1.0, -25.9, -10.2)" width="51.85" xlink:href="#shape2"/>
    </g>
    <g id="shape2" transform="matrix(1.0, 0.0, 0.0, 1.0, 25.9, 10.2)">
      <path d="M-21.65 -5.4 L-21.2 -6.3 -21.2 -6.35 Q-21.05 -6.9 -20.05 -7.0 L-1.9 -9.8 1.9 -10.15 7.85 -9.95 13.25 -9.5 20.45 -8.9 Q20.65 -8.45 20.45 -8.0 L20.1 -7.55 23.45 -3.1 24.3 -0.4 24.95 0.55 25.6 1.4 Q25.85 1.8 25.45 2.1 L25.5 2.2 25.9 4.2 25.9 5.4 Q25.7 6.0 25.1 6.25 21.0 7.75 19.15 8.05 L-1.15 10.05 Q-12.25 10.55 -21.6 9.6 L-24.55 8.85 -25.65 8.0 -25.9 6.35 -25.8 4.5 -25.35 3.5 -23.95 2.45 -24.0 2.4 -23.55 -0.2 -23.2 -2.0 -21.65 -5.4 M3.15 -6.9 Q3.65 -6.3 4.15 -4.55 L4.5 -2.75 Q4.2 -1.8 3.5 -0.95 2.75 0.1 1.9 0.2 3.1 -0.85 3.6 -3.1 4.15 -5.0 2.9 -6.9 L3.15 -6.9 M-14.8 -4.2 L-18.85 0.1 -21.6 2.65 -23.4 4.2 3.8 2.6 23.5 1.4 20.75 -4.7 18.6 -8.1 15.35 -8.35 15.35 -7.75 16.2 -5.85 17.4 -2.85 Q17.2 -2.8 17.0 -3.0 L13.35 -7.55 12.7 -8.0 6.7 -8.45 2.15 -8.35 -2.35 -7.95 -7.1 -7.2 -8.45 -4.55 Q-8.75 -3.35 -8.3 -1.8 L-7.55 0.3 Q-10.1 -0.95 -9.25 -4.3 L-7.75 -7.1 -11.0 -6.65 Q-13.2 -5.75 -14.8 -4.2 M-19.7 -5.55 L-21.4 -1.9 -21.85 0.7 -20.65 -0.4 -19.2 -1.95 -15.25 -5.95 -19.7 -5.55 M-1.2 -4.5 L-0.35 -3.7 Q0.05 -3.2 -0.15 -2.7 L-1.1 -1.5 Q-2.1 -0.35 -2.7 -0.2 L-3.75 -0.25 Q-4.4 -0.4 -4.65 -0.85 -5.05 -1.6 -4.95 -3.15 -4.9 -3.9 -4.55 -4.25 -4.05 -5.1 -2.9 -5.05 -2.0 -5.0 -1.2 -4.5 M-23.95 6.1 Q-23.8 6.45 -23.8 6.75 L-23.75 6.75 Q-14.0 8.85 -2.05 8.45 7.3 8.25 19.85 6.2 20.9 6.1 24.1 4.4 L23.55 2.7 -24.1 5.55 -23.95 6.1" fill="#000000" fill-rule="evenodd" stroke="none"/>
      <path d="M3.15 -6.9 L2.9 -6.9 Q4.15 -5.0 3.6 -3.1 3.1 -0.85 1.9 0.2 2.75 0.1 3.5 -0.95 4.2 -1.8 4.5 -2.75 L4.15 -4.55 Q3.65 -6.3 3.15 -6.9 M-23.95 6.1 L-24.1 5.55 23.55 2.7 24.1 4.4 Q20.9 6.1 19.85 6.2 7.3 8.25 -2.05 8.45 -14.0 8.85 -23.75 6.75 L-23.8 6.75 Q-23.8 6.45 -23.95 6.1 M-1.2 -4.5 Q-2.0 -5.0 -2.9 -5.05 -4.05 -5.1 -4.55 -4.25 -4.9 -3.9 -4.95 -3.15 -5.05 -1.6 -4.65 -0.85 -4.4 -0.4 -3.75 -0.25 L-2.7 -0.2 Q-2.1 -0.35 -1.1 -1.5 L-0.15 -2.7 Q0.05 -3.2 -0.35 -3.7 L-1.2 -4.5 M-19.7 -5.55 L-15.25 -5.95 -19.2 -1.95 -20.65 -0.4 -21.85 0.7 -21.4 -1.9 -19.7 -5.55 M-14.8 -4.2 Q-13.2 -5.75 -11.0 -6.65 L-7.75 -7.1 -9.25 -4.3 Q-10.1 -0.95 -7.55 0.3 L-8.3 -1.8 Q-8.75 -3.35 -8.45 -4.55 L-7.1 -7.2 -2.35 -7.95 2.15 -8.35 6.7 -8.45 12.7 -8.0 13.35 -7.55 17.0 -3.0 Q17.2 -2.8 17.4 -2.85 L16.2 -5.85 15.35 -7.75 15.35 -8.35 18.6 -8.1 20.75 -4.7 23.5 1.4 3.8 2.6 -23.4 4.2 -21.6 2.65 -18.85 0.1 -14.8 -4.2" fill="#cccccc" fill-rule="evenodd" stroke="none"/>
    </g>
  </defs>
</svg>
