<?xml version="1.0" encoding="UTF-8" standalone="no"?>
<svg xmlns:ffdec="https://www.free-decompiler.com/flash" xmlns:xlink="http://www.w3.org/1999/xlink" ffdec:objectType="shape" height="34.1px" width="28.75px" xmlns="http://www.w3.org/2000/svg">
  <g transform="matrix(1.0, 0.0, 0.0, 1.0, 14.35, 17.05)">
    <path d="M-13.0 12.8 L-13.25 11.55 -13.25 11.5 -13.3 6.5 -12.75 1.1 Q-12.1 -4.05 -12.35 -4.15 L-12.45 -4.25 -11.6 -6.4 -10.25 -8.8 -9.75 -9.4 -9.65 -9.4 -7.65 -10.6 Q-5.3 -11.85 -3.0 -12.05 -2.2 -11.8 1.15 -12.8 L6.2 -14.55 Q6.85 -14.85 8.7 -15.85 L8.65 -15.8 Q10.2 -16.4 11.6 -15.5 13.4 -14.3 13.4 -10.5 L13.4 -10.45 Q13.6 -6.7 12.05 -4.75 L12.0 -4.7 11.35 -4.0 11.3 -4.0 5.3 1.3 5.25 1.3 Q4.7 1.85 3.0 2.5 L2.8 2.6 Q2.45 2.9 2.15 4.25 1.35 6.05 -0.1 10.1 L-1.0 12.4 -1.05 12.45 -1.7 13.55 -1.7 13.5 -2.9 14.65 -3.3 14.95 -6.3 16.05 -6.55 15.95 -4.9 15.35 -4.1 15.05 -2.3 13.65 -1.4 12.35 -1.15 11.85 -0.45 9.95 1.05 5.85 2.25 2.6 2.65 2.25 3.2 1.95 4.85 1.25 10.55 -3.7 11.65 -4.85 12.45 -6.15 12.75 -6.7 Q13.2 -8.05 13.2 -9.65 L13.15 -10.7 13.1 -10.65 13.1 -11.2 13.05 -11.8 12.55 -14.4 Q12.2 -15.2 11.05 -15.6 L9.2 -15.65 8.45 -15.6 5.6 -14.0 Q4.25 -13.25 2.95 -13.0 L2.8 -12.9 2.65 -12.95 0.0 -12.4 -2.65 -11.9 -5.7 -11.0 -8.0 -10.05 -8.65 -9.65 Q-10.15 -8.85 -11.05 -7.15 -11.75 -5.8 -12.05 -3.95 L-12.4 -1.05 -12.45 1.9 -12.75 6.0 -12.9 8.75 -12.95 11.45 -13.0 12.8 M-7.65 15.45 L-7.95 15.3 -8.65 15.0 -8.05 15.1 -7.75 15.35 -7.65 15.45 M-9.05 14.9 L-10.0 15.05 -9.95 15.0 -11.15 15.6 -10.9 15.35 -10.4 14.9 -10.15 14.6 -9.05 14.9 M9.85 -11.1 L9.8 -11.05 9.9 -10.95 9.8 -10.7 9.6 -8.85 9.2 -6.75 6.2 -3.85 2.7 -0.7 1.9 -0.3 1.1 0.0 0.3 0.4 -0.45 1.2 -0.75 2.05 -1.25 3.35 -1.7 4.55 -1.8 4.75 -1.95 5.3 -2.9 8.65 Q-3.0 9.5 -3.25 10.2 L-3.3 10.55 -3.6 10.65 -3.7 10.7 -6.85 11.6 -7.1 11.65 -9.0 12.15 -8.9 12.25 -12.4 12.95 -12.45 9.95 -12.4 5.6 Q-12.2 1.55 -11.65 -1.9 -11.25 -4.35 -10.65 -5.85 L-10.1 -7.4 -9.4 -8.4 -8.2 -9.3 Q-6.0 -10.65 -3.15 -11.15 L1.8 -11.8 4.1 -12.65 6.55 -13.8 8.7 -14.8 Q10.1 -15.3 10.4 -14.55 L10.5 -13.85 10.4 -13.55 10.35 -13.45 10.05 -12.35 9.85 -11.1 M-0.75 1.45 L-0.5 0.9 Q-0.1 0.15 0.55 -0.15 L1.9 -0.75 3.15 -1.4 4.05 -2.15 6.4 -4.25 8.95 -7.0 8.9 -7.05 9.3 -8.35 9.55 -9.85 9.55 -10.5 6.75 -9.45 6.7 -9.6 6.8 -9.8 6.9 -9.95 9.55 -10.95 9.5 -11.65 9.6 -11.8 9.2 -11.8 8.55 -11.8 Q8.0 -11.6 7.6 -11.2 L7.1 -10.8 6.55 -10.35 5.95 -10.2 5.35 -10.4 4.6 -10.45 4.55 -10.55 4.55 -10.8 4.75 -10.95 5.4 -10.95 5.9 -10.85 6.75 -10.95 7.5 -11.6 Q8.1 -12.1 8.65 -12.25 L9.7 -12.35 9.75 -12.35 10.05 -13.3 8.6 -12.8 Q8.5 -12.75 8.55 -12.95 L8.6 -13.2 8.75 -13.3 10.1 -13.8 9.8 -14.4 Q9.3 -14.65 8.15 -14.1 L6.3 -13.25 Q6.15 -13.1 4.35 -12.3 L2.5 -11.5 -0.1 -11.05 -2.6 -10.8 -5.05 -10.25 Q-6.4 -9.9 -7.6 -9.15 L-8.5 -8.65 -6.75 -8.35 -5.85 -8.6 -4.9 -8.95 -3.7 -8.75 -3.55 -8.55 Q-2.9 -8.15 -2.55 -8.15 L-2.5 -8.1 -2.65 -7.6 -3.35 -7.8 -3.95 -8.2 Q-4.05 -8.4 -4.3 -8.4 L-4.75 -8.4 -5.7 -8.15 Q-6.6 -7.8 -7.45 -7.8 L-8.95 -8.2 -8.95 -8.3 -9.8 -7.5 -9.95 -7.2 -10.35 -6.25 -9.65 -5.9 -9.25 -5.55 -10.55 -5.7 -10.75 -4.9 -9.0 -4.9 -8.8 -4.8 -8.9 -4.6 -9.1 -4.4 -10.95 -4.35 Q-11.6 -1.65 -11.85 1.6 L-12.1 7.25 -10.95 7.15 Q-10.8 7.15 -10.8 7.25 L-10.9 7.45 -11.1 7.65 -12.1 7.7 -12.1 8.7 -11.2 8.3 -9.7 7.65 -9.5 7.75 -9.65 8.0 -9.7 8.15 Q-11.0 8.9 -12.15 9.05 L-12.15 11.0 -12.15 11.85 -11.8 12.35 -10.95 12.25 -10.15 12.0 -9.45 11.8 -6.85 6.05 -6.35 4.9 -6.0 4.15 -5.35 2.8 -5.05 1.95 -4.45 0.6 -4.2 0.05 Q-3.55 -1.75 -4.6 -3.6 L-5.4 -5.05 Q-5.85 -6.0 -5.7 -6.85 L-5.6 -7.25 -5.5 -7.35 -3.9 -6.1 -2.65 -5.2 -2.35 -5.0 -1.7 -4.75 -1.65 -4.7 Q-1.4 -4.75 -0.9 -5.1 L0.15 -6.05 1.7 -6.85 1.7 -6.65 1.65 -6.4 1.6 -6.4 0.05 -4.0 -1.45 -1.65 -2.6 -0.2 -3.55 1.25 -3.9 2.15 -4.4 3.55 -4.75 5.0 -5.45 7.85 -6.4 10.7 -6.5 11.05 -3.6 10.15 Q-3.35 9.6 -3.25 8.9 L-3.15 7.6 -2.0 4.55 -1.4 3.05 -1.3 2.75 -1.25 2.5 -0.75 1.45 M-6.05 9.15 L-4.95 5.3 -4.4 3.3 -3.65 1.2 -3.55 0.85 -2.25 -1.0 -0.95 -2.8 1.15 -6.15 0.05 -5.45 -1.05 -4.65 -1.65 -4.25 -2.2 -4.3 Q-2.55 -4.4 -3.05 -4.75 L-3.85 -5.5 -5.5 -6.65 Q-5.5 -5.85 -4.25 -3.95 -3.4 -2.35 -3.75 -0.8 L-4.95 2.2 -6.4 5.25 -9.25 11.75 -8.6 11.6 -6.35 7.05 -6.2 6.9 -6.2 7.0 Q-6.25 9.1 -7.25 11.25 L-7.15 11.25 -7.15 11.2 -6.9 11.1 -6.6 10.75 -6.05 9.15 M-7.45 11.3 Q-6.65 9.4 -6.45 7.75 L-8.35 11.6 -7.45 11.3" fill="#181c1d" fill-rule="evenodd" stroke="none"/>
    <path d="M-6.55 15.95 L-7.65 15.45 -7.75 15.35 -8.05 15.1 -8.65 15.0 -9.05 14.9 -10.15 14.6 -10.4 14.9 -10.9 15.35 -11.15 15.6 -11.25 15.65 -11.45 15.65 -11.7 15.6 -12.05 15.4 -12.2 15.15 -12.7 13.7 -13.0 12.8 -12.95 11.45 -12.9 8.75 -12.75 6.0 -12.45 1.9 -12.4 -1.05 -12.05 -3.95 Q-11.75 -5.8 -11.05 -7.15 -10.15 -8.85 -8.65 -9.65 L-8.0 -10.05 -5.7 -11.0 -2.65 -11.9 0.0 -12.4 2.65 -12.95 2.8 -12.9 2.95 -13.0 Q4.25 -13.25 5.6 -14.0 L8.45 -15.6 9.2 -15.65 11.05 -15.6 Q12.2 -15.2 12.55 -14.4 L13.05 -11.8 13.1 -11.2 13.1 -10.65 13.15 -10.7 13.2 -9.65 Q13.2 -8.05 12.75 -6.7 L12.45 -6.15 11.65 -4.85 10.55 -3.7 4.85 1.25 3.2 1.95 2.65 2.25 2.25 2.6 1.05 5.85 -0.45 9.95 -1.15 11.85 -1.4 12.35 -2.3 13.65 -4.1 15.05 -4.9 15.35 -6.55 15.95 M9.85 -11.1 L10.05 -12.35 10.35 -13.45 10.4 -13.55 10.5 -13.85 10.4 -14.55 Q10.1 -15.3 8.7 -14.8 L6.55 -13.8 4.1 -12.65 1.8 -11.8 -3.15 -11.15 Q-6.0 -10.65 -8.2 -9.3 L-9.4 -8.4 -10.1 -7.4 -10.65 -5.85 Q-11.25 -4.35 -11.65 -1.9 -12.2 1.55 -12.4 5.6 L-12.45 9.95 -12.4 12.95 -8.9 12.25 -9.0 12.15 -7.1 11.65 -6.85 11.6 -3.7 10.7 -3.6 10.65 -3.3 10.55 -3.25 10.2 Q-3.0 9.5 -2.9 8.65 L-1.95 5.3 -1.8 4.75 -1.7 4.55 -1.25 3.35 -0.75 2.05 -0.45 1.2 0.3 0.4 1.1 0.0 1.9 -0.3 2.7 -0.7 6.2 -3.85 9.2 -6.75 9.6 -8.85 9.8 -10.7 9.9 -10.95 9.8 -11.05 9.85 -11.1 M-6.05 9.15 L-6.6 10.75 -6.9 11.1 -7.15 11.2 -7.15 11.25 -7.25 11.25 Q-6.25 9.1 -6.2 7.0 L-6.2 6.9 -6.35 7.05 -8.6 11.6 -9.25 11.75 -6.4 5.25 -4.95 2.2 -3.75 -0.8 Q-3.4 -2.35 -4.25 -3.95 -5.5 -5.85 -5.5 -6.65 L-3.85 -5.5 -3.05 -4.75 Q-2.55 -4.4 -2.2 -4.3 L-1.65 -4.25 -1.05 -4.65 0.05 -5.45 1.15 -6.15 -0.95 -2.8 -2.25 -1.0 -3.55 0.85 -3.65 1.2 -4.4 3.3 -4.95 5.3 -6.05 9.15" fill="#f9f0d3" fill-rule="evenodd" stroke="none"/>
    <path d="M-0.75 1.45 L-1.25 2.5 -1.3 2.75 -1.4 3.05 -2.0 4.55 -3.15 7.6 -3.25 8.9 Q-3.35 9.6 -3.6 10.15 L-6.5 11.05 -6.4 10.7 -5.45 7.85 -4.75 5.0 -4.4 3.55 -3.9 2.15 -3.55 1.25 -2.6 -0.2 -1.45 -1.65 0.05 -4.0 1.6 -6.4 1.65 -6.4 1.7 -6.65 1.7 -6.85 0.15 -6.05 -0.9 -5.1 Q-1.4 -4.75 -1.65 -4.7 L-1.7 -4.75 -2.35 -5.0 -2.65 -5.2 -3.9 -6.1 -5.5 -7.35 -5.6 -7.25 -5.7 -6.85 Q-5.85 -6.0 -5.4 -5.05 L-4.6 -3.6 Q-3.55 -1.75 -4.2 0.05 L-4.45 0.6 -5.05 1.95 -5.35 2.8 -6.0 4.15 -6.35 4.9 -6.85 6.05 -9.45 11.8 -10.15 12.0 -10.95 12.25 -11.8 12.35 -12.15 11.85 -12.15 11.0 -12.15 9.05 Q-11.0 8.9 -9.7 8.15 L-9.65 8.0 -9.5 7.75 -9.7 7.65 -11.2 8.3 -12.1 8.7 -12.1 7.7 -11.1 7.65 -10.9 7.45 -10.8 7.25 Q-10.8 7.15 -10.95 7.15 L-12.1 7.25 -11.85 1.6 Q-11.6 -1.65 -10.95 -4.35 L-9.1 -4.4 -8.9 -4.6 -8.8 -4.8 -9.0 -4.9 -10.75 -4.9 -10.55 -5.7 -9.25 -5.55 -9.65 -5.9 -10.35 -6.25 -9.95 -7.2 -9.8 -7.5 -8.95 -8.3 -8.95 -8.2 -7.45 -7.8 Q-6.6 -7.8 -5.7 -8.15 L-4.75 -8.4 -4.3 -8.4 Q-4.05 -8.4 -3.95 -8.2 L-3.35 -7.8 -2.65 -7.6 -2.5 -8.1 -2.55 -8.15 Q-2.9 -8.15 -3.55 -8.55 L-3.7 -8.75 -4.9 -8.95 -5.85 -8.6 -6.75 -8.35 -8.5 -8.65 -7.6 -9.15 Q-6.4 -9.9 -5.05 -10.25 L-2.6 -10.8 -0.1 -11.05 2.5 -11.5 4.35 -12.3 Q6.15 -13.1 6.3 -13.25 L8.15 -14.1 Q9.3 -14.65 9.8 -14.4 L10.1 -13.8 8.75 -13.3 8.6 -13.2 8.55 -12.95 Q8.5 -12.75 8.6 -12.8 L10.05 -13.3 9.75 -12.35 9.7 -12.35 8.65 -12.25 Q8.1 -12.1 7.5 -11.6 L6.75 -10.95 5.9 -10.85 5.4 -10.95 4.75 -10.95 4.55 -10.8 4.55 -10.55 4.6 -10.45 5.35 -10.4 5.95 -10.2 6.55 -10.35 7.1 -10.8 7.6 -11.2 Q8.0 -11.6 8.55 -11.8 L9.2 -11.8 9.6 -11.8 9.5 -11.65 9.55 -10.95 6.9 -9.95 6.8 -9.8 6.7 -9.6 6.75 -9.45 9.55 -10.5 9.55 -9.85 9.3 -8.35 8.9 -7.05 8.95 -7.0 6.4 -4.25 4.05 -2.15 3.15 -1.4 1.9 -0.75 0.55 -0.15 Q-0.1 0.15 -0.5 0.9 L-0.75 1.45 M-7.45 11.3 L-8.35 11.6 -6.45 7.75 Q-6.65 9.4 -7.45 11.3" fill="#b90506" fill-rule="evenodd" stroke="none"/>
    <path d="M-12.6 16.25 L-13.1 15.55 -13.1 15.6 -13.65 14.0 Q-14.35 12.1 -14.25 11.45 L-14.3 6.4 -14.3 6.35 -13.75 0.95 -13.05 -3.4 Q-13.8 -3.95 -12.5 -6.8 L-11.1 -9.35 -10.2 -10.25 -8.15 -11.45 -8.1 -11.5 Q-5.45 -12.9 -2.9 -13.05 L-2.6 -12.95 0.85 -13.75 5.85 -15.5 8.2 -16.7 8.3 -16.75 Q10.3 -17.5 12.15 -16.35 14.4 -15.0 14.4 -10.5 14.6 -6.25 12.75 -4.05 L12.7 -4.0 12.1 -3.4 12.1 -3.35 5.95 2.0 5.95 2.05 Q5.3 2.65 3.45 3.4 L3.15 4.45 3.1 4.55 Q2.3 6.35 0.85 10.45 L0.8 10.5 -0.05 12.65 Q-0.15 13.2 -0.95 14.2 L-2.3 15.45 -2.8 15.8 Q-4.25 16.6 -6.2 17.05 L-6.35 17.05 -8.4 16.2 Q-9.2 15.8 -9.5 15.9 L-10.75 16.55 -10.9 16.6 Q-11.7 16.8 -12.6 16.25 M-6.55 15.95 L-6.3 16.05 -3.3 14.95 -2.9 14.65 -1.7 13.5 -1.7 13.55 -1.05 12.45 -1.0 12.4 -0.1 10.1 Q1.35 6.05 2.15 4.25 2.45 2.9 2.8 2.6 L3.0 2.5 Q4.7 1.85 5.25 1.3 L5.3 1.3 11.3 -4.0 11.35 -4.0 12.0 -4.7 12.05 -4.75 Q13.6 -6.7 13.4 -10.45 L13.4 -10.5 Q13.4 -14.3 11.6 -15.5 10.2 -16.4 8.65 -15.8 L8.7 -15.85 Q6.85 -14.85 6.2 -14.55 L1.15 -12.8 Q-2.2 -11.8 -3.0 -12.05 -5.3 -11.85 -7.65 -10.6 L-9.65 -9.4 -9.75 -9.4 -10.25 -8.8 -11.6 -6.4 -12.45 -4.25 -12.35 -4.15 Q-12.1 -4.05 -12.75 1.1 L-13.3 6.5 -13.25 11.5 -13.25 11.55 -13.0 12.8 -12.7 13.7 -12.2 15.15 -12.05 15.4 -11.7 15.6 -11.45 15.65 -11.25 15.65 -11.15 15.6 -9.95 15.0 -10.0 15.05 -9.05 14.9 -8.65 15.0 -7.95 15.3 -7.65 15.45 -6.55 15.95" fill="#000000" fill-rule="evenodd" stroke="none"/>
  </g>
</svg>
