<?xml version="1.0" encoding="UTF-8" standalone="no"?>
<svg xmlns:ffdec="https://www.free-decompiler.com/flash" xmlns:xlink="http://www.w3.org/1999/xlink" ffdec:objectType="shape" height="217.25px" width="149.1px" xmlns="http://www.w3.org/2000/svg">
  <g transform="matrix(1.0, 0.0, 0.0, 1.0, -23.75, 24.05)">
    <path d="M68.3 -14.0 L66.25 -14.1 63.8 -14.2 62.65 -13.85 Q60.9 -13.0 57.5 -7.25 56.1 -4.95 53.55 -4.45 51.75 -4.2 50.25 -5.05 48.9 -5.8 48.7 -7.7 47.65 -6.1 47.35 -4.45 46.95 -2.2 48.05 0.45 49.2 3.15 51.3 4.55 52.45 5.35 53.75 5.1 55.8 4.7 57.45 2.65 L59.3 -0.7 Q61.1 -3.95 62.0 -4.65 63.2 -5.65 64.15 -5.8 L65.45 -5.7 66.9 -5.35 68.4 -4.85 69.0 -4.85 Q69.55 -4.95 70.4 -5.65 L72.25 -7.25 75.25 -9.9 76.05 -10.2 Q77.8 -10.5 81.15 -7.9 L85.05 -5.15 85.35 -5.2 Q86.1 -5.35 88.2 -6.7 L91.4 -8.5 92.5 -8.8 Q95.1 -9.25 96.95 -7.6 98.25 -6.45 98.85 -4.55 99.3 -3.2 98.1 -1.05 L95.85 2.0 100.3 4.5 Q103.25 6.5 104.9 9.85 105.25 8.75 105.7 8.1 106.6 -1.65 103.2 -6.8 101.65 -9.1 99.75 -11.0 97.15 -13.65 95.1 -14.1 L91.55 -17.2 Q88.6 -19.9 85.65 -19.8 L81.1 -20.15 Q80.3 -20.25 79.45 -20.75 L77.9 -21.55 Q75.65 -22.65 74.15 -22.35 L73.85 -22.3 Q72.6 -21.9 70.85 -17.45 L69.5 -14.75 68.3 -14.0 M65.7 -16.1 Q68.3 -16.9 68.95 -18.2 L70.95 -21.7 Q72.15 -23.4 73.5 -23.85 L74.1 -23.95 Q76.05 -24.3 78.6 -23.05 L81.4 -21.6 84.45 -21.65 Q86.8 -21.8 88.1 -21.6 89.35 -21.4 91.9 -18.6 94.4 -15.85 95.25 -15.8 97.75 -15.55 101.2 -12.3 103.75 -9.95 105.5 -7.4 106.95 -5.3 107.75 -1.1 108.5 2.6 108.4 5.9 110.9 4.4 115.45 3.3 L122.8 1.55 Q123.2 1.45 123.25 1.7 124.45 4.9 122.7 8.1 121.75 9.95 119.9 11.1 L116.25 12.7 Q121.8 14.65 124.6 25.15 124.8 25.8 124.1 26.6 123.5 27.35 122.85 27.45 118.4 28.1 115.1 26.4 112.45 25.0 109.55 21.3 L109.15 21.5 109.25 22.6 Q109.7 25.75 109.2 29.65 L119.45 30.05 Q139.75 31.6 152.5 37.5 170.75 45.95 172.6 57.65 L172.65 57.85 Q173.7 65.05 168.8 72.15 165.3 77.2 158.0 83.05 L157.95 83.1 Q156.5 85.85 154.5 87.5 152.15 89.45 149.45 89.55 L146.65 89.25 151.3 96.05 151.2 96.3 151.1 96.4 Q153.45 99.7 154.55 102.35 156.35 106.65 156.5 112.2 156.8 122.65 149.8 129.3 145.9 133.05 139.6 137.6 144.35 140.25 147.1 142.4 L149.25 144.35 Q150.3 145.55 150.65 146.9 L150.95 148.9 Q152.15 149.45 152.8 150.55 155.1 154.6 151.65 161.05 L151.45 161.1 148.1 160.6 147.9 160.55 147.2 163.95 Q146.25 167.9 145.2 170.3 143.65 173.8 141.35 175.65 135.15 180.75 130.2 182.95 124.5 185.45 121.85 182.95 120.65 185.25 119.4 186.25 L117.85 187.1 Q117.4 190.4 115.45 191.85 113.6 193.2 110.9 193.2 L108.15 192.9 107.7 192.35 107.35 191.65 106.6 190.1 Q99.85 192.0 93.9 192.25 82.9 192.65 77.45 189.2 75.65 188.1 75.1 186.6 L74.95 185.75 Q74.9 184.5 76.9 183.55 79.4 182.4 82.95 181.4 L89.2 179.9 94.45 178.8 93.8 178.2 Q92.2 176.55 91.85 173.45 91.5 170.45 91.85 166.5 L92.75 159.55 94.45 149.35 Q89.7 144.15 87.4 136.45 85.15 129.1 85.9 122.05 86.85 113.0 90.0 106.05 L89.25 105.4 Q78.0 95.05 72.0 82.3 67.3 92.5 60.95 99.0 52.85 107.35 43.85 107.4 L43.5 107.2 Q41.0 108.4 38.1 108.0 35.75 107.65 34.1 106.3 32.4 104.9 31.7 102.75 31.25 104.05 30.4 104.8 29.7 105.4 28.6 105.1 L26.9 104.15 Q25.25 102.4 24.45 99.65 23.65 97.15 23.75 94.55 23.85 90.8 25.2 89.2 26.0 88.25 26.9 87.75 L29.05 87.65 Q30.15 88.4 30.8 89.9 29.7 81.9 33.1 81.85 34.25 81.85 34.85 82.4 L34.85 82.3 35.1 81.2 Q36.75 76.15 38.9 76.4 L40.55 76.8 40.55 76.35 Q43.35 69.45 48.25 63.15 53.05 56.95 59.25 52.15 54.4 46.1 51.75 39.55 48.75 32.05 49.4 25.6 49.2 24.9 50.2 23.9 50.05 21.2 50.35 18.5 50.45 16.8 51.0 14.15 49.15 12.4 48.15 10.6 46.85 8.35 47.1 5.75 47.25 4.0 47.9 2.8 45.0 -0.65 45.75 -4.65 46.2 -7.0 48.3 -9.35 50.1 -11.25 50.95 -11.45 L51.1 -11.45 50.8 -9.55 Q50.35 -7.7 50.9 -7.05 51.7 -6.1 53.6 -6.35 55.0 -6.6 55.9 -7.6 56.6 -8.25 57.55 -10.25 L59.15 -12.9 Q60.25 -14.35 61.85 -15.0 L65.7 -16.1 M92.0 -6.7 L91.65 -6.6 Q88.8 -5.75 87.5 -4.95 86.05 -4.05 85.0 -3.9 83.6 -3.65 82.55 -4.5 79.15 -7.3 75.85 -6.7 74.5 -6.45 73.5 -5.7 71.2 -3.85 69.55 -3.55 L67.6 -3.6 Q65.4 -4.5 64.0 -4.25 L63.05 -3.85 Q62.35 -3.3 60.6 -0.05 L58.7 3.45 Q57.1 5.45 55.15 6.15 52.4 13.1 52.25 19.7 52.15 22.0 52.45 24.05 57.05 26.55 59.8 25.25 60.9 24.7 62.9 23.0 64.85 21.3 66.05 20.8 L67.95 17.0 68.8 14.25 69.2 12.75 Q69.45 11.9 69.9 11.8 L69.95 11.8 70.3 12.1 70.35 12.8 70.1 14.45 69.25 18.05 68.55 20.35 73.55 20.9 78.5 21.9 Q81.6 22.45 85.05 21.8 87.65 21.3 91.35 19.9 93.95 18.95 97.15 17.05 L97.1 17.0 Q96.65 16.8 96.75 16.35 96.8 15.95 97.2 15.85 L97.5 15.85 98.35 16.3 99.9 15.2 98.7 14.3 96.55 13.4 Q95.9 13.1 96.0 12.6 96.05 12.15 96.45 12.05 L96.65 12.05 Q98.3 12.5 99.35 13.35 L100.75 14.65 101.95 13.75 98.85 11.1 Q98.05 10.5 96.1 9.7 95.35 9.4 95.3 8.85 95.2 8.3 95.65 8.2 L95.85 8.2 Q97.4 8.5 99.55 10.05 101.05 11.05 102.85 13.05 L103.5 12.55 Q101.0 9.5 98.95 8.15 97.65 7.15 96.0 6.2 94.65 5.45 94.55 5.45 94.1 5.25 94.15 4.85 94.2 4.45 94.7 4.35 L95.1 4.35 Q96.25 4.6 99.7 7.15 102.1 9.2 104.05 11.95 L104.35 11.4 Q103.15 7.7 99.45 5.25 97.9 4.25 94.2 2.75 93.5 2.5 93.7 1.95 93.85 1.45 94.05 1.45 97.65 -1.45 96.1 -4.4 94.7 -7.15 92.0 -6.7 M107.05 38.85 Q109.05 43.35 107.55 48.6 106.1 53.6 101.95 57.6 99.75 59.7 95.7 61.85 L94.0 62.5 Q93.5 62.75 93.7 63.75 95.35 71.3 97.2 76.85 100.15 85.8 105.95 95.25 L110.0 101.6 110.2 102.05 111.75 101.8 Q131.9 97.75 141.35 87.5 L140.35 87.1 Q138.7 86.55 137.3 86.75 136.65 86.8 134.35 87.55 L131.3 88.15 Q129.65 88.15 128.45 87.1 127.55 86.25 127.05 84.15 L126.9 82.25 Q127.0 79.8 128.85 78.25 130.5 76.8 133.1 76.45 L133.0 75.3 Q127.2 77.45 125.35 74.8 124.0 72.95 124.1 70.65 124.2 68.5 125.55 66.5 126.95 64.4 128.65 62.7 130.95 60.4 133.0 59.75 L131.45 56.05 131.15 55.05 Q131.0 54.2 131.4 54.25 139.1 55.8 143.15 57.3 L144.65 57.9 146.05 58.65 146.2 58.25 147.65 54.6 Q148.75 52.45 150.2 51.85 150.55 51.7 150.85 52.8 151.2 53.95 150.85 54.2 149.55 55.2 148.4 57.25 L146.8 60.9 Q145.7 63.75 145.6 65.15 L145.55 66.1 145.8 66.55 Q148.45 64.8 151.8 65.75 154.9 66.65 157.25 69.35 158.65 71.05 159.3 73.3 160.05 76.15 159.45 79.05 173.45 67.2 171.95 57.75 171.6 56.05 170.95 54.65 165.6 43.3 145.55 36.95 128.2 31.5 108.85 31.9 108.25 35.05 107.05 38.85 M120.6 8.35 Q121.85 6.85 121.55 4.85 L121.45 4.05 121.15 4.15 115.85 5.65 112.4 6.5 Q109.95 7.05 108.6 7.8 110.0 7.95 111.15 9.45 112.15 10.8 112.65 12.65 L112.75 12.5 Q114.4 11.4 118.65 9.75 L120.15 8.75 120.6 8.35 M109.95 18.6 Q111.8 17.15 112.05 15.0 112.25 12.55 110.2 10.8 109.0 9.75 107.2 10.5 107.7 13.65 107.25 16.15 L106.7 18.5 Q106.45 20.2 107.25 19.9 L109.35 18.95 109.6 18.8 109.95 18.6 M114.7 22.55 L116.1 23.55 117.1 24.1 Q119.3 25.15 121.95 25.15 118.75 15.3 112.95 14.85 112.95 17.35 111.65 19.25 L111.95 19.6 114.0 21.9 114.7 22.55 M52.3 33.05 L52.9 35.15 Q54.1 38.65 56.15 42.35 59.9 49.05 65.75 54.85 L66.05 55.15 68.6 57.55 Q74.55 62.95 81.75 67.45 L83.85 68.75 87.6 70.85 Q89.15 65.7 92.65 60.1 95.25 56.0 99.7 50.55 103.95 45.3 106.15 37.25 108.5 28.55 106.7 22.3 L106.65 22.1 Q106.05 20.05 106.4 16.2 106.75 12.2 106.25 10.25 L106.0 11.35 Q105.95 12.05 105.2 12.9 101.65 16.6 94.0 20.65 89.05 23.3 83.0 24.55 80.35 25.1 76.5 24.4 L70.1 23.05 Q66.8 22.45 63.6 24.6 59.05 27.7 57.9 28.05 55.45 28.85 51.35 26.8 51.45 29.85 52.3 33.05 M106.1 41.6 L105.9 42.15 Q104.2 46.55 100.0 52.35 L93.2 62.05 Q99.55 59.05 103.35 53.35 107.45 47.3 106.1 41.6 M62.2 55.5 L60.7 53.85 Q54.55 58.5 49.7 64.55 44.8 70.7 41.8 77.45 43.9 78.8 45.45 81.25 46.9 83.6 47.3 85.95 L47.35 86.25 Q50.75 82.25 54.05 82.45 57.0 82.65 59.05 87.7 L59.15 88.0 Q59.7 89.6 59.55 91.0 59.35 92.85 57.8 93.0 L55.5 92.65 53.4 92.75 Q52.8 93.2 52.35 94.15 L51.7 95.75 Q49.3 101.9 46.7 104.7 54.45 103.25 61.4 95.5 66.95 89.35 71.1 80.35 L70.65 79.3 Q70.5 78.9 71.45 78.65 L72.55 78.75 Q77.15 89.95 85.8 99.45 L86.05 99.45 Q91.5 102.0 96.9 102.3 91.6 96.85 87.45 87.75 84.75 81.8 81.45 71.35 L81.2 70.6 Q70.45 64.0 62.2 55.5 M88.2 73.4 Q87.5 74.15 87.0 73.9 L83.6 72.05 Q86.5 81.7 89.85 88.5 94.1 97.2 99.55 102.4 99.85 102.7 99.15 103.0 L98.25 103.25 96.9 103.25 Q92.4 103.2 87.95 101.7 L90.45 104.1 93.9 107.2 Q96.05 109.05 97.75 109.8 104.3 112.8 112.9 112.8 120.6 112.8 128.3 110.4 139.05 107.15 144.8 101.8 147.65 99.2 148.15 98.05 149.0 96.05 147.1 93.35 L143.9 88.45 142.6 87.95 Q131.8 99.2 110.35 102.9 L109.35 103.05 108.6 102.95 Q96.15 85.2 91.85 64.45 89.7 68.4 88.9 72.15 L88.2 73.4 M140.3 72.55 Q141.45 70.65 144.6 67.5 L145.0 67.15 Q143.6 65.85 140.35 67.8 137.8 69.3 136.4 71.05 134.8 73.05 134.2 74.4 L133.95 74.95 Q133.65 75.7 133.65 76.45 L133.7 76.9 133.9 77.5 134.1 77.8 Q136.0 80.35 139.15 78.75 L139.15 78.65 139.1 78.65 Q138.25 75.8 140.3 72.55 M127.5 84.05 Q127.65 85.0 129.0 85.5 130.75 86.2 133.45 85.15 136.45 83.95 137.8 84.2 L144.4 86.45 Q148.4 87.85 151.1 86.75 154.85 85.2 157.1 81.15 L157.2 80.9 157.3 80.8 Q158.1 79.25 158.35 77.9 158.95 75.45 158.45 73.55 157.85 71.6 155.8 70.15 L152.65 68.25 Q150.7 67.3 149.15 67.55 147.0 67.9 144.65 70.3 143.3 71.65 141.2 74.5 139.5 76.9 139.95 78.4 L140.7 79.6 141.8 80.7 Q142.55 81.25 143.25 80.95 145.15 80.2 147.25 77.15 L148.2 75.65 Q148.9 74.65 149.5 74.65 150.95 74.65 152.95 75.55 153.4 75.75 153.55 76.85 153.7 77.95 153.35 77.8 L151.4 77.05 Q149.95 76.65 149.5 77.3 L147.7 79.8 145.7 82.2 Q144.1 83.7 142.95 83.35 141.5 82.9 140.2 80.85 137.9 82.15 136.15 81.45 134.55 80.8 133.7 78.8 L131.15 79.5 Q130.1 80.0 128.85 81.3 127.3 82.9 127.5 84.05 M134.7 59.55 Q136.6 59.75 137.85 61.5 L139.15 63.5 Q140.0 64.7 140.95 64.8 L141.1 64.85 Q143.25 64.1 144.6 65.1 144.55 63.2 145.45 60.35 142.8 59.05 139.15 58.1 L132.6 56.7 133.8 59.6 134.7 59.55 M126.4 68.65 Q123.7 72.5 126.0 73.5 128.45 74.55 133.35 72.65 133.65 71.65 134.1 70.9 136.3 67.6 139.45 65.7 L138.1 63.65 Q136.6 61.6 134.3 62.05 132.45 62.4 130.4 64.2 128.15 66.15 126.4 68.65 M153.7 104.3 Q152.45 100.65 150.95 98.85 L150.25 97.65 Q144.25 105.7 132.7 110.15 121.75 114.4 110.25 113.85 103.7 113.55 98.4 111.55 94.9 110.3 91.35 107.2 89.45 112.05 88.2 122.05 87.35 128.95 88.75 135.15 90.35 142.45 94.75 146.9 L94.85 147.0 95.8 142.3 97.2 136.0 Q98.25 132.2 101.2 127.35 103.85 123.2 106.7 119.9 L108.2 118.1 Q109.25 116.95 110.05 116.65 L110.1 116.65 Q110.7 116.65 111.1 118.25 111.55 119.9 110.95 120.1 110.45 120.25 109.8 120.95 L108.8 122.05 Q101.2 130.4 98.85 137.75 97.9 140.75 97.05 145.0 L95.7 152.35 Q93.7 163.75 93.25 169.5 93.0 173.55 93.2 174.7 L93.7 175.25 Q94.65 176.2 96.0 177.05 103.2 181.7 111.2 183.45 L117.15 183.65 Q118.95 182.9 120.6 179.95 L120.7 179.7 121.15 178.8 Q124.55 171.75 126.05 160.8 127.35 148.3 128.25 142.2 128.3 141.6 128.55 141.35 L129.3 140.75 133.95 137.55 Q143.2 131.1 147.6 127.1 151.35 123.7 153.3 119.6 155.4 115.15 155.1 110.35 155.0 107.85 153.7 104.3 M50.7 5.45 Q50.3 5.15 49.85 5.15 49.15 5.3 49.0 6.5 48.85 7.7 49.35 9.2 49.75 10.3 51.4 12.3 52.25 9.1 53.25 6.35 51.95 6.25 50.7 5.45 M57.2 86.3 L55.6 85.05 Q53.85 84.35 52.05 85.35 49.4 86.75 47.45 89.25 L47.35 89.3 Q47.15 91.7 46.35 92.95 45.35 94.6 43.6 94.0 42.05 93.5 40.45 91.55 41.2 93.85 41.35 95.65 41.55 98.3 39.9 99.9 38.05 101.55 35.7 99.95 33.2 98.25 31.8 94.2 L32.0 97.6 32.0 101.2 32.15 101.7 32.45 102.7 Q33.4 104.75 36.4 105.45 39.0 106.05 41.45 105.4 44.65 104.55 47.0 101.35 48.65 99.15 50.3 95.1 L51.1 92.8 Q51.65 91.25 52.35 90.75 L55.1 90.55 57.75 90.5 Q58.9 89.75 58.35 88.15 58.0 87.2 57.2 86.3 M25.5 92.3 Q24.75 93.7 24.7 95.5 24.65 97.65 25.15 99.35 25.8 101.6 27.25 102.45 29.6 103.7 30.55 101.1 31.15 99.45 31.1 96.6 L30.55 91.95 Q29.8 89.0 27.75 90.0 26.3 90.7 25.5 92.3 M33.2 84.35 Q32.0 84.9 31.7 86.1 31.3 87.95 31.65 90.4 32.95 97.75 36.8 98.3 40.8 98.95 40.15 94.25 39.9 92.4 38.1 87.45 37.75 86.65 38.05 86.1 38.15 85.75 38.4 86.2 L38.5 86.4 Q39.9 89.3 41.75 90.8 44.35 93.0 45.85 89.95 47.35 87.05 45.65 83.5 43.95 80.05 40.75 79.0 38.55 78.3 37.1 80.35 36.0 81.95 35.7 84.45 35.7 85.15 35.3 84.75 34.45 83.8 33.2 84.35 M99.2 181.95 L97.0 180.7 89.25 182.3 83.1 183.75 Q79.55 184.75 77.2 185.95 L76.35 186.45 76.7 186.7 Q79.2 188.4 82.95 189.15 93.3 191.45 106.15 187.75 L106.6 188.25 107.85 190.7 110.45 190.95 Q114.85 190.8 116.4 187.4 L114.45 187.3 Q107.35 186.45 99.2 181.95 M148.7 146.65 L146.05 144.6 Q142.05 141.85 137.45 139.5 L137.2 139.3 129.7 144.5 129.65 144.55 Q129.15 147.8 128.6 153.0 L127.7 161.45 126.9 166.6 Q135.3 163.9 141.15 159.05 146.6 154.6 148.75 149.9 L149.1 149.1 Q149.0 148.45 149.2 148.45 L149.3 148.45 149.55 147.45 148.7 146.65 M147.05 158.5 Q147.1 158.3 147.3 158.3 L150.95 158.85 151.75 157.25 152.45 155.35 Q152.95 153.65 152.85 152.6 152.7 151.4 150.75 150.9 L150.6 151.35 Q148.9 156.6 143.15 161.55 136.05 167.7 126.6 170.4 126.35 170.4 126.2 170.2 125.0 175.55 123.15 180.15 L122.5 181.6 Q124.95 182.85 129.9 180.55 134.35 178.4 139.45 174.4 143.5 171.3 145.35 165.4 146.55 161.8 147.05 158.5" fill="#000000" fill-rule="evenodd" stroke="none"/>
    <path d="M68.3 -14.0 L69.5 -14.75 70.85 -17.45 Q72.6 -21.9 73.85 -22.3 L74.15 -22.35 Q75.65 -22.65 77.9 -21.55 L79.45 -20.75 Q80.3 -20.25 81.1 -20.15 L85.65 -19.8 Q88.6 -19.9 91.55 -17.2 L95.1 -14.1 Q97.15 -13.65 99.75 -11.0 101.65 -9.1 103.2 -6.8 106.6 -1.65 105.7 8.1 105.25 8.75 104.9 9.85 103.25 6.5 100.3 4.5 L95.85 2.0 98.1 -1.05 Q99.3 -3.2 98.85 -4.55 98.25 -6.45 96.95 -7.6 95.1 -9.25 92.5 -8.8 L91.4 -8.5 88.2 -6.7 Q86.1 -5.35 85.35 -5.2 L85.05 -5.15 81.15 -7.9 Q77.8 -10.5 76.05 -10.2 L75.25 -9.9 72.25 -7.25 70.4 -5.65 Q69.55 -4.95 69.0 -4.85 L68.4 -4.85 66.9 -5.35 65.45 -5.7 64.15 -5.8 Q63.2 -5.65 62.0 -4.65 61.1 -3.95 59.3 -0.7 L57.45 2.65 Q55.8 4.7 53.75 5.1 52.45 5.35 51.3 4.55 49.2 3.15 48.05 0.45 46.95 -2.2 47.35 -4.45 47.65 -6.1 48.7 -7.7 48.9 -5.8 50.25 -5.05 51.75 -4.2 53.55 -4.45 56.1 -4.95 57.5 -7.25 60.9 -13.0 62.65 -13.85 L63.8 -14.2 66.25 -14.1 68.3 -14.0 M50.7 5.45 Q51.95 6.25 53.25 6.35 52.25 9.1 51.4 12.3 49.75 10.3 49.35 9.2 48.85 7.7 49.0 6.5 49.15 5.3 49.85 5.15 50.3 5.15 50.7 5.45" fill="#ffeb33" fill-rule="evenodd" stroke="none"/>
    <path d="M107.05 38.85 Q108.25 35.05 108.85 31.9 128.2 31.5 145.55 36.95 165.6 43.3 170.95 54.65 171.6 56.05 171.95 57.75 173.45 67.2 159.45 79.05 160.05 76.15 159.3 73.3 158.65 71.05 157.25 69.35 154.9 66.65 151.8 65.75 148.45 64.8 145.8 66.55 L145.55 66.1 145.6 65.15 Q145.7 63.75 146.8 60.9 L148.4 57.25 Q149.55 55.2 150.85 54.2 151.2 53.95 150.85 52.8 150.55 51.7 150.2 51.85 148.75 52.45 147.65 54.6 L146.2 58.25 146.05 58.65 144.65 57.9 143.15 57.3 Q139.1 55.8 131.4 54.25 131.0 54.2 131.15 55.05 L131.45 56.05 133.0 59.75 Q130.95 60.4 128.65 62.7 126.95 64.4 125.55 66.5 124.2 68.5 124.1 70.65 124.0 72.95 125.35 74.8 127.2 77.45 133.0 75.3 L133.1 76.45 Q130.5 76.8 128.85 78.25 127.0 79.8 126.9 82.25 L127.05 84.15 Q127.55 86.25 128.45 87.1 129.65 88.15 131.3 88.15 L134.35 87.55 Q136.65 86.8 137.3 86.75 138.7 86.55 140.35 87.1 L141.35 87.5 Q131.9 97.75 111.75 101.8 L110.2 102.05 110.0 101.6 105.95 95.25 Q100.15 85.8 97.2 76.85 95.35 71.3 93.7 63.75 93.5 62.75 94.0 62.5 L95.7 61.85 Q99.75 59.7 101.95 57.6 106.1 53.6 107.55 48.6 109.05 43.35 107.05 38.85 M62.2 55.5 Q70.45 64.0 81.2 70.6 L81.45 71.35 Q84.75 81.8 87.45 87.75 91.6 96.85 96.9 102.3 91.5 102.0 86.05 99.45 L85.8 99.45 Q77.15 89.95 72.55 78.75 L71.45 78.65 Q70.5 78.9 70.65 79.3 L71.1 80.35 Q66.95 89.35 61.4 95.5 54.45 103.25 46.7 104.7 49.3 101.9 51.7 95.75 L52.35 94.15 Q52.8 93.2 53.4 92.75 L55.5 92.65 57.8 93.0 Q59.35 92.85 59.55 91.0 59.7 89.6 59.15 88.0 L59.05 87.7 Q57.0 82.65 54.05 82.45 50.75 82.25 47.35 86.25 L47.3 85.95 Q46.9 83.6 45.45 81.25 43.9 78.8 41.8 77.45 44.8 70.7 49.7 64.55 54.55 58.5 60.7 53.85 L62.2 55.5 M153.7 104.3 Q155.0 107.85 155.1 110.35 155.4 115.15 153.3 119.6 151.35 123.7 147.6 127.1 143.2 131.1 133.95 137.55 L129.3 140.75 128.55 141.35 Q128.3 141.6 128.25 142.2 127.35 148.3 126.05 160.8 124.55 171.75 121.15 178.8 L120.7 179.7 120.6 179.95 Q118.95 182.9 117.15 183.65 L111.2 183.45 Q103.2 181.7 96.0 177.05 94.65 176.2 93.7 175.25 L93.2 174.7 Q93.0 173.55 93.25 169.5 93.7 163.75 95.7 152.35 L97.05 145.0 Q97.9 140.75 98.85 137.75 101.2 130.4 108.8 122.05 L109.8 120.95 Q110.45 120.25 110.95 120.1 111.55 119.9 111.1 118.25 110.7 116.65 110.1 116.65 L110.05 116.65 Q109.25 116.95 108.2 118.1 L106.7 119.9 Q103.85 123.2 101.2 127.35 98.25 132.2 97.2 136.0 L95.8 142.3 94.85 147.0 94.75 146.9 Q90.35 142.45 88.75 135.15 87.35 128.95 88.2 122.05 89.45 112.05 91.35 107.2 94.9 110.3 98.4 111.55 103.7 113.55 110.25 113.85 121.75 114.4 132.7 110.15 144.25 105.7 150.25 97.65 L150.95 98.85 Q152.45 100.65 153.7 104.3 M148.7 146.65 L149.55 147.45 149.3 148.45 149.2 148.45 Q149.0 148.45 149.1 149.1 L148.75 149.9 Q146.6 154.6 141.15 159.05 135.3 163.9 126.9 166.6 L127.7 161.45 128.6 153.0 Q129.15 147.8 129.65 144.55 L129.7 144.5 137.2 139.3 137.45 139.5 Q142.05 141.85 146.05 144.6 L148.7 146.65" fill="#0067b1" fill-rule="evenodd" stroke="none"/>
    <path d="M92.0 -6.7 Q94.7 -7.15 96.1 -4.4 97.65 -1.45 94.05 1.45 93.85 1.45 93.7 1.95 93.5 2.5 94.2 2.75 97.9 4.25 99.45 5.25 103.15 7.7 104.35 11.4 L104.05 11.95 Q102.1 9.2 99.7 7.15 96.25 4.6 95.1 4.35 L94.7 4.35 Q94.2 4.45 94.15 4.85 94.1 5.25 94.55 5.45 94.65 5.45 96.0 6.2 97.65 7.15 98.95 8.15 101.0 9.5 103.5 12.55 L102.85 13.05 Q101.05 11.05 99.55 10.05 97.4 8.5 95.85 8.2 L95.65 8.2 Q95.2 8.3 95.3 8.85 95.35 9.4 96.1 9.7 98.05 10.5 98.85 11.1 L101.95 13.75 100.75 14.65 99.35 13.35 Q98.3 12.5 96.65 12.05 L96.45 12.05 Q96.05 12.15 96.0 12.6 95.9 13.1 96.55 13.4 L98.7 14.3 99.9 15.2 98.35 16.3 97.5 15.85 97.2 15.85 Q96.8 15.95 96.75 16.35 96.65 16.8 97.1 17.0 L97.15 17.05 Q93.95 18.95 91.35 19.9 87.65 21.3 85.05 21.8 81.6 22.45 78.5 21.9 L73.55 20.9 68.55 20.35 69.25 18.05 70.1 14.45 70.35 12.8 70.3 12.1 69.95 11.8 69.9 11.8 Q69.45 11.9 69.2 12.75 L68.8 14.25 67.95 17.0 66.05 20.8 Q64.85 21.3 62.9 23.0 60.9 24.7 59.8 25.25 57.05 26.55 52.45 24.05 52.15 22.0 52.25 19.7 52.4 13.1 55.15 6.15 57.1 5.45 58.7 3.45 L60.6 -0.05 Q62.35 -3.3 63.05 -3.85 L64.0 -4.25 Q65.4 -4.5 67.6 -3.6 L69.55 -3.55 Q71.2 -3.85 73.5 -5.7 74.5 -6.45 75.85 -6.7 79.15 -7.3 82.55 -4.5 83.6 -3.65 85.0 -3.9 86.05 -4.05 87.5 -4.95 88.8 -5.75 91.65 -6.6 L92.0 -6.7 M127.5 84.05 Q127.3 82.9 128.85 81.3 130.1 80.0 131.15 79.5 L133.7 78.8 Q134.55 80.8 136.15 81.45 137.9 82.15 140.2 80.85 141.5 82.9 142.95 83.35 144.1 83.7 145.7 82.2 L147.7 79.8 149.5 77.3 Q149.95 76.65 151.4 77.05 L153.35 77.8 Q153.7 77.95 153.55 76.85 153.4 75.75 152.95 75.55 150.95 74.65 149.5 74.65 148.9 74.65 148.2 75.65 L147.25 77.15 Q145.15 80.2 143.25 80.95 142.55 81.25 141.8 80.7 L140.7 79.6 139.95 78.4 Q139.5 76.9 141.2 74.5 143.3 71.65 144.65 70.3 147.0 67.9 149.15 67.55 150.7 67.3 152.65 68.25 L155.8 70.15 Q157.85 71.6 158.45 73.55 158.95 75.45 158.35 77.9 158.1 79.25 157.3 80.8 L157.2 80.9 157.1 81.15 Q154.85 85.2 151.1 86.75 148.4 87.85 144.4 86.45 L137.8 84.2 Q136.45 83.95 133.45 85.15 130.75 86.2 129.0 85.5 127.65 85.0 127.5 84.05 M140.3 72.55 Q138.25 75.8 139.1 78.65 L139.15 78.65 139.15 78.75 Q136.0 80.35 134.1 77.8 L133.9 77.5 133.7 76.9 133.65 76.45 Q133.65 75.7 133.95 74.95 L134.2 74.4 Q134.8 73.05 136.4 71.05 137.8 69.3 140.35 67.8 143.6 65.85 145.0 67.15 L144.6 67.5 Q141.45 70.65 140.3 72.55 M126.4 68.65 Q128.15 66.15 130.4 64.2 132.45 62.4 134.3 62.05 136.6 61.6 138.1 63.65 L139.45 65.7 Q136.3 67.6 134.1 70.9 133.65 71.65 133.35 72.65 128.45 74.55 126.0 73.5 123.7 72.5 126.4 68.65 M33.2 84.35 Q34.45 83.8 35.3 84.75 35.7 85.15 35.7 84.45 36.0 81.95 37.1 80.35 38.55 78.3 40.75 79.0 43.95 80.05 45.65 83.5 47.35 87.05 45.85 89.95 44.35 93.0 41.75 90.8 39.9 89.3 38.5 86.4 L38.4 86.2 Q38.15 85.75 38.05 86.1 37.75 86.65 38.1 87.45 39.9 92.4 40.15 94.25 40.8 98.95 36.8 98.3 32.95 97.75 31.65 90.4 31.3 87.95 31.7 86.1 32.0 84.9 33.2 84.35 M25.5 92.3 Q26.3 90.7 27.75 90.0 29.8 89.0 30.55 91.95 L31.1 96.6 Q31.15 99.45 30.55 101.1 29.6 103.7 27.25 102.45 25.8 101.6 25.15 99.35 24.65 97.65 24.7 95.5 24.75 93.7 25.5 92.3 M57.2 86.3 Q58.0 87.2 58.35 88.15 58.9 89.75 57.75 90.5 L55.1 90.55 52.35 90.75 Q51.65 91.25 51.1 92.8 L50.3 95.1 Q48.65 99.15 47.0 101.35 44.65 104.55 41.45 105.4 39.0 106.05 36.4 105.45 33.4 104.75 32.45 102.7 L32.15 101.7 32.0 101.2 32.0 97.6 31.8 94.2 Q33.2 98.25 35.7 99.95 38.05 101.55 39.9 99.9 41.55 98.3 41.35 95.65 41.2 93.85 40.45 91.55 42.05 93.5 43.6 94.0 45.35 94.6 46.35 92.95 47.15 91.7 47.35 89.3 L47.45 89.25 Q49.4 86.75 52.05 85.35 53.85 84.35 55.6 85.05 L57.2 86.3" fill="#ffe1ba" fill-rule="evenodd" stroke="none"/>
    <path d="M106.1 41.6 Q107.45 47.3 103.35 53.35 99.55 59.05 93.2 62.05 L100.0 52.35 Q104.2 46.55 105.9 42.15 L106.1 41.6 M88.2 73.4 L88.9 72.15 Q89.7 68.4 91.85 64.45 96.15 85.2 108.6 102.95 L109.35 103.05 110.35 102.9 Q131.8 99.2 142.6 87.95 L143.9 88.45 147.1 93.35 Q149.0 96.05 148.15 98.05 147.65 99.2 144.8 101.8 139.05 107.15 128.3 110.4 120.6 112.8 112.9 112.8 104.3 112.8 97.75 109.8 96.05 109.05 93.9 107.2 L90.45 104.1 87.95 101.7 Q92.4 103.2 96.9 103.25 L98.25 103.25 99.15 103.0 Q99.85 102.7 99.55 102.4 94.1 97.2 89.85 88.5 86.5 81.7 83.6 72.05 L87.0 73.9 Q87.5 74.15 88.2 73.4" fill="#fff773" fill-rule="evenodd" stroke="none"/>
    <path d="M99.2 181.95 Q107.35 186.45 114.45 187.3 L116.4 187.4 Q114.85 190.8 110.45 190.95 L107.85 190.7 106.6 188.25 106.15 187.75 Q93.3 191.45 82.95 189.15 79.2 188.4 76.7 186.7 L76.35 186.45 77.2 185.95 Q79.55 184.75 83.1 183.75 L89.25 182.3 97.0 180.7 99.2 181.95 M147.05 158.5 Q146.55 161.8 145.35 165.4 143.5 171.3 139.45 174.4 134.35 178.4 129.9 180.55 124.95 182.85 122.5 181.6 L123.15 180.15 Q125.0 175.55 126.2 170.2 126.35 170.4 126.6 170.4 136.05 167.7 143.15 161.55 148.9 156.6 150.6 151.35 L150.75 150.9 Q152.7 151.4 152.85 152.6 152.95 153.65 152.45 155.35 L151.75 157.25 150.95 158.85 147.3 158.3 Q147.1 158.3 147.05 158.5" fill="#8b5c29" fill-rule="evenodd" stroke="none"/>
    <path d="M120.6 8.35 L120.15 8.75 118.65 9.75 Q114.4 11.4 112.75 12.5 L112.65 12.65 Q112.15 10.8 111.15 9.45 110.0 7.95 108.6 7.8 109.95 7.05 112.4 6.5 L115.85 5.65 121.15 4.15 121.45 4.05 121.55 4.85 Q121.85 6.85 120.6 8.35 M109.95 18.6 L109.6 18.8 109.35 18.95 107.25 19.9 Q106.45 20.2 106.7 18.5 L107.25 16.15 Q107.7 13.65 107.2 10.5 109.0 9.75 110.2 10.8 112.25 12.55 112.05 15.0 111.8 17.15 109.95 18.6 M52.3 33.05 Q51.45 29.85 51.35 26.8 55.45 28.85 57.9 28.05 59.05 27.7 63.6 24.6 66.8 22.45 70.1 23.05 L76.5 24.4 Q80.35 25.1 83.0 24.55 89.05 23.3 94.0 20.65 101.65 16.6 105.2 12.9 105.95 12.05 106.0 11.35 L106.25 10.25 Q106.75 12.2 106.4 16.2 106.05 20.05 106.65 22.1 L106.7 22.3 Q108.5 28.55 106.15 37.25 103.95 45.3 99.7 50.55 95.25 56.0 92.65 60.1 89.15 65.7 87.6 70.85 L83.85 68.75 81.75 67.45 Q74.55 62.95 68.6 57.55 L66.05 55.15 65.75 54.85 Q59.9 49.05 56.15 42.35 54.1 38.65 52.9 35.15 L52.3 33.05 M114.0 21.9 L111.95 19.6 111.65 19.25 Q112.95 17.35 112.95 14.85 118.75 15.3 121.95 25.15 119.3 25.15 117.1 24.1 L116.1 23.55 114.7 22.55 114.7 22.5 114.0 21.9" fill="#b90506" fill-rule="evenodd" stroke="none"/>
    <path d="M84.7 4.4 Q83.75 7.6 80.3 10.5 81.65 11.85 82.0 14.35 82.2 15.85 81.9 17.05 81.6 18.35 81.0 18.95 L82.3 19.05 Q83.15 18.95 82.85 19.65 L81.85 20.45 Q79.8 20.7 78.1 19.55 76.55 18.35 76.1 16.3 76.1 15.8 76.9 15.4 L76.8 15.05 76.8 13.2 75.8 13.9 74.55 13.75 Q73.55 13.35 73.85 13.15 L79.05 9.15 Q81.75 6.65 82.65 3.85 L83.8 3.75 Q84.9 4.0 84.7 4.4 M66.55 6.55 Q67.05 6.7 67.0 7.05 66.7 9.15 67.75 10.05 68.05 10.35 67.65 10.45 67.15 10.55 66.9 10.2 65.6 9.1 65.95 6.7 66.0 6.45 66.55 6.55 M69.1 6.1 L69.5 6.55 Q69.25 8.65 70.05 10.3 L69.6 10.45 Q69.1 10.35 68.95 10.1 68.2 8.4 68.45 6.2 L69.1 6.1 M55.0 10.65 Q56.5 12.2 60.2 13.2 L62.9 14.05 Q63.7 14.25 63.6 15.2 63.5 16.0 62.7 16.15 L63.1 17.65 63.2 18.9 63.5 19.0 63.0 20.45 Q62.6 22.25 61.45 22.65 59.2 24.75 55.8 24.4 55.35 24.35 56.05 23.75 56.8 23.2 57.15 23.2 59.4 23.5 60.4 22.6 59.55 22.25 58.85 21.05 58.2 19.9 57.95 18.3 57.7 16.15 58.45 14.55 55.9 13.25 54.15 11.7 L54.45 10.8 54.55 10.45 54.6 10.45 55.0 10.65" fill="#000000" fill-rule="evenodd" stroke="none"/>
  </g>
</svg>
