<?xml version="1.0" encoding="UTF-8" standalone="no"?>
<svg xmlns:ffdec="https://www.free-decompiler.com/flash" xmlns:xlink="http://www.w3.org/1999/xlink" ffdec:objectType="frame" height="299.65px" width="339.65px" xmlns="http://www.w3.org/2000/svg">
  <g transform="matrix(1.0, 0.0, 0.0, 1.0, 159.6, 106.35)">
    <use ffdec:characterId="1020" height="212.4" transform="matrix(1.0, 0.0, 0.0, 1.0, 29.3, -25.05)" width="150.65" xlink:href="#shape0"/>
    <use ffdec:characterId="1018" height="171.2" transform="matrix(1.0, 0.0, 0.0, 1.0, -150.6, -97.35)" width="187.05" xlink:href="#sprite0"/>
  </g>
  <defs>
    <g id="shape0" transform="matrix(1.0, 0.0, 0.0, 1.0, -29.4, 25.15)">
      <path d="M73.25 -15.45 L72.1 -15.1 Q71.0 -14.6 69.2 -12.2 L66.85 -8.6 Q65.35 -6.25 62.85 -5.85 61.1 -5.55 59.6 -6.45 58.2 -7.2 58.1 -9.1 57.0 -7.7 56.7 -5.85 56.25 -3.6 57.3 -1.0 58.45 1.75 60.55 3.2 61.6 3.9 63.0 3.75 64.9 3.4 66.7 1.35 L68.6 -2.0 Q70.4 -5.2 71.3 -5.95 72.65 -6.9 73.5 -7.05 L74.8 -6.95 76.25 -6.55 77.7 -6.05 78.35 -6.05 Q78.95 -6.15 79.75 -6.85 L81.6 -8.4 83.05 -9.7 84.6 -11.0 85.45 -11.3 Q87.15 -11.6 90.55 -8.95 94.05 -6.2 94.4 -6.2 L94.7 -6.2 97.55 -7.7 Q99.75 -9.15 100.8 -9.45 L101.85 -9.7 Q104.45 -10.15 106.3 -8.5 107.6 -7.3 108.2 -5.4 108.65 -4.05 107.4 -1.9 L105.1 1.1 Q108.35 2.8 109.5 3.65 112.45 5.7 114.05 9.05 114.45 7.85 114.9 7.3 115.8 -2.5 112.55 -7.6 111.05 -9.9 109.2 -11.8 106.6 -14.5 104.5 -15.0 L101.05 -18.1 Q98.1 -20.9 95.15 -20.8 L90.6 -21.2 Q89.8 -21.35 88.95 -21.8 L87.45 -22.65 Q85.15 -23.7 83.65 -23.5 L83.35 -23.45 Q82.15 -23.1 80.3 -18.6 L78.95 -15.95 Q78.5 -15.35 77.7 -15.2 L75.7 -15.35 73.25 -15.45 M60.35 -12.85 L60.45 -12.85 60.15 -10.95 Q59.7 -9.05 60.25 -8.4 61.15 -7.4 62.95 -7.75 64.25 -7.9 65.25 -8.9 65.9 -9.55 66.95 -11.55 67.9 -13.4 68.55 -14.2 69.65 -15.65 71.25 -16.3 L75.15 -17.35 Q77.8 -18.1 78.45 -19.4 L80.45 -22.85 Q81.7 -24.55 83.05 -24.95 L83.65 -25.1 Q85.6 -25.4 88.1 -24.15 L90.9 -22.65 93.95 -22.65 97.6 -22.55 Q98.85 -22.35 101.4 -19.55 103.85 -16.8 104.7 -16.7 107.2 -16.45 110.65 -13.15 113.15 -10.7 114.85 -8.2 116.25 -6.05 117.05 -1.85 117.75 1.9 117.6 5.2 120.15 3.7 124.7 2.65 L132.05 0.95 Q132.45 0.85 132.5 1.15 133.6 4.3 131.9 7.55 130.95 9.35 129.05 10.45 127.85 11.2 125.4 12.05 130.8 14.05 133.6 24.6 133.75 25.25 133.1 26.05 L131.8 26.9 Q127.3 27.5 124.1 25.75 121.4 24.3 118.6 20.55 L118.15 20.8 118.25 21.85 Q118.7 25.3 118.05 29.4 129.6 29.65 140.05 31.9 151.55 34.4 160.65 39.1 177.2 47.7 179.6 58.5 L179.95 60.2 180.05 62.35 Q180.05 68.9 174.85 75.3 171.2 79.8 164.15 84.9 161.05 90.3 156.45 90.9 L160.05 96.05 159.95 96.3 Q161.75 99.0 162.35 100.55 164.0 104.15 164.35 108.85 164.65 113.15 163.8 117.5 162.75 122.6 160.6 126.65 158.05 131.35 154.3 133.95 149.0 137.55 141.55 139.7 L158.65 149.8 Q159.25 150.15 159.55 151.35 159.85 152.5 159.55 153.1 L158.8 154.45 Q159.5 155.7 159.8 156.9 L159.85 157.1 Q160.9 161.7 157.3 165.7 L157.1 165.75 153.85 164.75 153.45 166.35 Q152.15 170.7 150.05 173.9 147.2 178.45 141.55 183.05 L138.05 185.65 Q135.85 187.1 134.05 187.25 131.25 187.5 130.9 184.5 130.55 181.95 131.8 178.4 133.35 174.15 135.5 169.9 L127.65 165.7 130.05 171.6 130.4 172.8 Q130.5 173.65 130.1 173.9 L129.4 174.3 127.7 175.05 Q127.55 177.1 126.5 178.8 125.4 180.55 123.6 181.4 121.05 182.8 120.35 182.1 L117.85 179.55 117.8 179.6 116.8 180.05 Q109.7 183.05 103.35 184.2 L94.5 184.9 Q89.15 184.4 87.25 182.8 86.55 182.2 86.55 181.15 86.55 180.1 87.25 179.55 88.85 178.25 92.0 176.75 L99.9 173.25 Q89.3 159.05 84.35 148.8 82.95 146.15 82.05 143.5 80.6 139.3 81.1 136.0 81.55 132.85 83.3 129.2 84.5 126.65 86.85 122.95 88.9 119.7 93.45 114.3 L99.85 107.05 97.15 104.6 Q84.6 92.95 78.55 79.75 73.5 89.8 66.75 96.25 58.15 104.4 49.05 104.05 L48.75 103.8 Q46.2 104.9 43.2 104.35 41.0 103.95 39.4 102.5 37.9 101.1 37.2 99.0 36.65 100.5 35.7 100.85 33.75 101.65 32.05 99.7 30.55 97.95 29.85 95.0 29.2 92.3 29.5 89.75 29.85 87.2 31.35 85.0 33.25 82.2 35.45 83.9 L36.7 85.65 Q36.4 82.75 36.8 80.85 37.4 78.0 39.4 78.05 40.45 78.05 41.1 78.65 L41.25 78.15 Q41.4 77.4 41.7 76.8 42.2 75.25 43.05 74.15 44.25 72.65 45.55 72.85 L47.05 73.35 47.1 72.9 Q50.25 66.05 55.35 59.9 60.5 53.75 66.75 49.3 62.45 43.4 60.25 37.25 57.7 30.2 58.4 24.15 58.15 23.55 59.25 22.45 59.1 19.8 59.4 17.1 L60.1 12.8 Q58.2 10.8 57.3 9.2 56.05 6.95 56.3 4.35 56.5 2.6 57.15 1.4 54.3 -2.05 55.05 -6.1 55.5 -8.45 57.7 -10.75 59.45 -12.65 60.35 -12.85 M101.35 -7.65 L101.0 -7.55 Q98.0 -6.6 96.85 -5.95 95.4 -5.1 94.3 -4.9 92.85 -4.7 91.85 -5.55 88.6 -8.3 85.15 -7.8 83.75 -7.55 82.85 -6.8 80.5 -5.0 78.85 -4.7 L76.9 -4.8 Q74.75 -5.7 73.35 -5.5 L72.35 -5.1 Q71.65 -4.55 69.9 -1.3 L67.95 2.15 Q66.05 4.2 64.35 4.8 61.55 11.75 61.3 18.3 61.2 20.05 61.45 22.65 65.95 25.3 68.75 23.95 L71.95 21.75 Q73.9 20.05 75.1 19.55 L77.0 15.8 77.95 13.05 78.35 11.55 Q78.5 10.7 79.05 10.6 L79.1 10.6 79.45 10.9 79.5 11.6 79.25 13.25 78.35 16.85 77.6 19.15 82.55 19.75 87.5 20.8 Q90.6 21.4 94.05 20.8 96.75 20.35 100.4 19.0 102.9 18.1 106.25 16.15 L106.2 16.1 106.2 16.15 Q105.75 15.95 105.8 15.5 105.9 15.05 106.3 14.95 L106.6 15.0 Q106.95 15.05 107.45 15.4 L109.0 14.4 107.8 13.45 105.7 12.5 Q105.05 12.2 105.1 11.7 105.2 11.25 105.6 11.2 L105.75 11.2 Q107.1 11.45 108.45 12.5 L109.85 13.8 111.05 12.95 108.0 10.25 Q107.0 9.55 105.25 8.8 104.5 8.5 104.45 7.95 104.35 7.4 104.85 7.3 L105.05 7.3 Q106.6 7.7 108.7 9.15 110.4 10.35 111.95 12.25 L112.6 11.75 Q110.2 8.65 108.1 7.3 L105.2 5.35 103.75 4.55 Q103.3 4.35 103.35 3.95 L103.95 3.45 104.3 3.45 Q105.5 3.7 108.85 6.35 110.9 8.0 113.2 11.15 L113.45 10.6 Q112.35 6.95 108.65 4.4 107.0 3.3 103.45 1.85 102.75 1.55 102.95 1.05 L103.3 0.55 Q106.9 -2.35 105.4 -5.3 104.05 -8.05 101.35 -7.65 M102.25 62.85 Q103.65 69.45 105.1 74.15 107.75 83.15 112.2 91.0 L116.8 98.7 118.25 100.7 Q119.1 102.0 118.55 102.15 L122.65 101.35 Q137.85 98.0 148.65 89.05 L146.4 88.1 Q144.75 87.45 143.35 87.6 L140.4 88.3 137.3 88.75 Q135.6 88.65 134.5 87.55 133.7 86.75 133.25 84.95 133.0 83.75 133.1 82.7 133.3 80.3 135.15 78.8 136.85 77.5 139.4 77.2 L139.35 76.05 Q133.6 77.8 131.95 75.15 131.3 74.1 131.0 73.05 130.25 69.95 132.45 66.9 134.25 64.45 136.3 62.75 138.9 60.65 141.35 60.4 L140.45 56.15 140.4 55.6 Q140.4 55.2 140.65 55.25 147.3 56.9 151.25 58.8 L152.4 59.4 153.35 59.8 Q154.4 57.15 155.0 56.1 156.25 53.9 157.75 53.4 158.1 53.25 158.4 54.35 158.7 55.45 158.35 55.7 157.0 56.65 155.8 58.65 155.15 59.75 154.05 62.2 L154.0 62.25 Q152.4 65.8 152.5 67.55 L152.7 67.85 Q155.35 66.3 158.35 67.2 161.15 68.05 163.6 70.75 165.15 72.45 165.75 74.75 166.65 77.7 165.85 80.85 181.35 68.8 178.95 58.65 L177.9 55.9 Q174.6 49.5 166.8 44.45 160.6 40.5 152.1 37.65 135.7 32.0 117.65 31.7 116.95 35.1 115.7 38.7 117.7 43.1 116.65 48.0 115.55 52.95 111.7 56.65 102.35 63.3 102.25 62.85 M134.25 83.05 Q133.8 84.15 133.95 84.9 134.2 85.65 135.0 86.05 L139.5 85.85 Q142.5 84.85 143.85 85.15 L150.1 87.6 Q153.95 89.15 156.6 88.4 160.9 87.1 163.35 82.85 L163.5 82.65 164.65 80.0 Q165.55 76.95 165.0 74.95 164.6 73.55 163.35 72.5 161.35 70.8 160.05 70.05 157.85 68.8 156.1 69.0 152.55 69.35 147.85 75.55 146.05 77.8 146.4 79.35 146.55 80.25 147.35 81.05 L148.25 81.95 149.45 82.15 Q151.45 81.4 153.65 78.5 L154.65 77.05 Q155.4 76.05 156.0 76.1 157.5 76.15 159.4 77.15 159.8 77.35 159.95 78.45 160.1 79.6 159.85 79.4 L158.3 78.7 156.6 78.45 155.4 79.35 154.45 80.7 152.2 83.2 Q150.65 84.6 149.25 84.5 148.05 84.4 146.5 81.85 144.5 82.9 142.7 82.25 140.85 81.6 140.0 79.55 138.8 79.65 137.55 80.1 135.9 80.75 135.2 81.55 134.65 82.2 134.25 83.05 M130.75 4.25 L130.65 3.45 125.1 5.0 121.6 5.75 Q119.2 6.3 117.8 7.05 119.2 7.25 120.3 8.75 121.3 10.05 121.75 11.9 L121.9 11.8 Q123.55 10.7 127.85 9.1 131.2 7.4 130.75 4.25 M126.2 16.05 L126.15 16.0 125.0 15.15 124.95 15.1 Q123.55 14.3 122.05 14.15 122.05 16.55 120.7 18.55 123.0 21.5 125.1 22.85 127.65 24.5 130.95 24.55 129.0 18.6 126.2 16.05 M77.05 56.2 Q85.25 63.9 96.05 69.85 97.7 64.75 101.25 59.2 103.9 55.1 108.4 49.65 112.7 44.45 115.0 36.45 117.5 27.8 115.75 21.55 L115.65 21.35 Q115.1 19.3 115.5 15.45 115.9 11.45 115.45 9.5 L115.15 10.6 Q115.1 11.3 114.3 12.1 110.65 15.8 103.05 19.75 98.0 22.3 92.0 23.5 L87.4 23.6 85.5 23.3 84.95 23.2 79.1 21.9 Q75.8 21.25 72.6 23.35 68.0 26.4 66.85 26.75 64.4 27.5 60.35 25.4 60.4 27.6 60.8 29.9 L61.15 31.45 61.6 33.15 62.2 35.0 Q63.25 37.8 64.8 40.75 L64.95 41.0 Q68.7 47.85 74.7 53.9 L77.05 56.2 M118.75 9.7 L117.9 9.45 116.35 9.75 Q116.8 13.0 116.35 15.35 L115.8 17.75 Q115.5 19.45 116.3 19.15 L118.65 18.05 Q120.9 16.65 121.15 14.3 121.3 12.6 120.4 11.2 L119.35 10.05 Q119.1 9.8 118.75 9.7 M108.15 52.25 Q102.35 60.1 100.95 62.5 106.1 60.35 109.85 56.85 114.4 52.65 115.1 47.85 115.55 44.65 114.6 41.5 112.8 46.0 108.15 52.25 M68.15 51.1 Q61.9 55.35 56.75 61.4 51.65 67.3 48.35 74.1 50.0 75.25 51.3 77.25 52.5 79.15 53.1 81.25 L53.5 83.0 Q57.05 79.25 60.3 79.55 63.2 79.85 65.0 84.8 L65.1 85.05 Q65.65 86.65 65.55 88.2 65.35 90.25 63.7 90.3 L61.4 89.85 59.3 89.8 Q58.65 90.25 58.15 91.2 L57.45 92.85 Q54.8 98.75 52.05 101.5 59.95 100.3 67.3 92.7 73.2 86.65 77.7 77.75 L77.65 77.65 Q77.55 77.35 77.95 77.2 L78.25 76.6 78.6 76.95 Q79.4 76.65 79.55 77.1 84.5 89.05 94.45 99.45 L94.8 99.45 Q100.25 102.0 105.65 102.3 100.35 96.85 96.2 87.75 93.5 81.8 90.2 71.35 L89.6 69.5 Q79.0 62.85 70.85 54.25 L68.15 51.1 M97.35 71.15 L96.65 72.4 Q95.95 73.15 95.45 72.9 L92.0 71.0 Q95.0 81.05 98.35 88.0 102.7 97.05 108.3 102.4 108.6 102.7 107.9 103.0 L107.0 103.25 105.65 103.25 Q101.05 103.2 96.65 101.65 L98.25 103.25 101.75 106.45 Q103.9 108.4 105.5 109.3 111.65 112.7 120.45 112.85 128.05 113.0 135.8 110.75 145.75 107.95 151.6 103.4 155.8 100.05 157.55 97.4 158.1 96.55 156.6 94.2 L154.15 90.85 Q152.3 90.6 149.75 89.55 138.5 98.75 122.85 102.15 L118.1 103.05 117.35 102.95 Q104.6 84.7 100.35 63.5 98.15 67.7 97.35 71.15 M141.5 57.65 L142.1 60.4 Q143.4 60.45 144.35 61.65 L145.7 64.0 Q146.7 65.65 147.9 65.85 L148.1 65.95 Q150.25 65.35 151.6 66.45 151.55 64.5 152.65 61.55 148.95 59.55 141.5 57.65 M149.85 68.05 L147.75 68.45 Q145.0 69.8 143.2 71.85 141.5 73.8 140.8 75.2 L140.6 75.65 Q140.2 76.55 140.2 77.25 L140.25 77.85 140.35 78.3 Q140.55 78.9 141.15 79.4 142.9 80.9 145.5 79.7 L145.45 79.6 Q144.75 76.85 146.75 73.85 147.85 72.2 151.0 69.15 L151.8 68.45 149.85 68.05 M146.45 66.65 L145.0 64.25 144.75 63.95 Q143.8 62.85 142.4 62.75 L142.1 62.75 Q140.1 62.75 137.4 64.85 135.7 66.2 133.95 68.3 131.3 71.35 131.7 72.9 131.85 73.55 132.55 73.9 135.2 75.05 139.9 73.35 140.4 72.1 141.15 71.15 143.35 68.25 146.45 66.65 M58.2 5.1 Q58.0 6.3 58.5 7.8 58.85 8.8 60.55 10.95 61.25 8.05 62.45 5.0 61.2 4.9 59.9 4.05 59.4 3.65 59.05 3.8 58.35 3.9 58.2 5.1 M58.25 82.4 Q55.45 83.7 53.5 86.05 L53.35 86.1 Q52.95 88.6 52.0 89.9 50.8 91.5 49.05 90.5 47.65 89.75 46.35 87.9 47.1 90.55 47.1 92.15 47.2 94.8 45.45 96.3 43.6 97.95 41.25 96.25 38.8 94.4 37.65 90.35 L37.7 93.95 37.5 97.65 37.65 98.1 37.8 98.75 Q38.55 100.7 41.5 101.65 L46.7 101.95 Q49.95 101.25 52.55 98.0 54.25 95.85 56.2 91.7 L57.15 89.35 Q57.85 87.7 58.65 87.5 L61.75 87.9 Q63.75 88.3 64.35 87.25 64.8 86.3 64.3 85.05 63.45 83.05 61.8 82.25 L58.25 82.4 M36.75 92.45 Q36.65 89.0 36.35 87.75 35.6 84.8 33.35 86.1 30.55 87.7 30.45 91.8 30.35 93.9 30.8 95.6 31.4 97.9 32.95 98.55 36.55 100.15 36.75 92.45 M37.9 82.2 Q37.45 84.1 37.6 86.15 37.8 88.45 38.35 90.1 39.55 94.15 42.35 94.65 46.3 95.45 45.9 90.7 45.75 88.65 44.2 83.9 43.95 83.1 44.15 82.5 44.25 82.2 44.4 82.45 L44.7 82.95 Q46.1 86.05 48.05 87.6 50.65 89.7 52.1 86.2 53.05 83.75 52.4 81.4 51.95 79.8 50.8 78.5 L48.95 76.55 Q47.7 75.45 46.6 75.25 44.65 74.95 43.3 77.05 42.3 78.65 41.95 80.9 L41.8 81.15 41.6 81.05 Q40.75 80.05 39.45 80.55 38.2 81.0 37.9 82.2 M161.9 107.35 Q161.35 104.45 160.2 101.5 L159.2 99.1 158.85 97.9 Q152.2 106.5 139.35 110.95 126.9 115.2 115.0 113.55 110.3 112.95 106.35 111.3 104.15 110.4 101.35 108.3 94.7 114.4 88.45 123.85 85.25 128.75 84.2 131.25 82.0 136.5 82.7 141.75 82.8 142.6 83.05 143.25 L85.1 147.4 Q90.0 157.2 100.8 171.8 L101.2 172.25 101.3 172.3 102.3 172.55 Q108.1 174.0 112.95 174.05 122.35 174.25 128.5 170.9 L126.0 164.75 Q118.55 160.4 113.15 156.55 107.85 152.75 105.0 149.85 100.65 145.55 99.4 141.3 98.1 137.1 99.8 132.75 103.3 123.65 114.7 115.0 L114.75 114.95 Q115.15 114.95 115.65 116.45 116.2 118.0 115.65 118.4 105.9 125.75 101.85 133.85 100.1 137.6 100.25 140.05 L100.4 140.95 Q100.85 142.5 102.4 144.25 105.85 148.4 112.85 153.35 118.75 157.55 125.25 161.3 L125.3 161.3 Q125.5 161.0 126.0 161.7 130.4 164.3 136.1 167.15 L136.5 167.35 138.0 166.9 Q142.75 165.15 146.2 163.05 153.05 158.85 157.2 152.0 L144.2 144.3 138.3 140.8 138.25 140.8 131.15 141.85 Q130.5 141.9 130.1 140.25 129.7 138.55 130.25 138.45 L133.0 137.95 Q140.85 136.55 146.75 134.05 150.95 132.4 153.9 130.15 155.5 128.95 156.95 127.0 L159.4 123.3 Q163.7 116.7 161.9 107.35 M138.3 170.5 L137.0 170.65 Q134.8 174.95 133.4 178.4 L132.35 181.2 Q131.75 182.9 131.7 184.15 L131.7 184.55 132.35 184.9 134.65 184.7 Q137.7 183.55 141.95 179.9 146.7 175.85 148.8 172.55 152.2 167.3 153.0 162.65 153.1 162.4 153.25 162.45 L156.65 163.5 157.55 162.3 158.95 159.75 Q159.35 158.25 159.05 157.1 158.8 156.2 158.2 155.45 153.35 163.1 146.0 167.1 142.3 169.15 138.3 170.5 M122.35 179.45 L124.65 178.0 Q125.75 176.9 126.25 175.6 122.25 177.05 117.5 177.35 L120.1 179.95 121.15 179.85 122.35 179.45 M92.85 178.9 L90.55 180.05 Q89.2 180.75 88.4 181.4 L91.65 182.35 Q98.5 183.55 108.75 180.45 113.35 179.05 117.0 177.4 L108.8 177.05 Q104.35 176.4 101.75 175.6 L101.25 175.25 Q97.55 176.7 92.85 178.9" fill="#000000" fill-rule="evenodd" stroke="none"/>
      <path d="M73.25 -15.45 L75.7 -15.35 77.7 -15.2 Q78.5 -15.35 78.95 -15.95 L80.3 -18.6 Q82.15 -23.1 83.35 -23.45 L83.65 -23.5 Q85.15 -23.7 87.45 -22.65 L88.95 -21.8 Q89.8 -21.35 90.6 -21.2 L95.15 -20.8 Q98.1 -20.9 101.05 -18.1 L104.5 -15.0 Q106.6 -14.5 109.2 -11.8 111.05 -9.9 112.55 -7.6 115.8 -2.5 114.9 7.3 114.45 7.85 114.05 9.05 112.45 5.7 109.5 3.65 108.35 2.8 105.1 1.1 L107.4 -1.9 Q108.65 -4.05 108.2 -5.4 107.6 -7.3 106.3 -8.5 104.45 -10.15 101.85 -9.7 L100.8 -9.45 Q99.75 -9.15 97.55 -7.7 L94.7 -6.2 94.4 -6.2 Q94.05 -6.2 90.55 -8.95 87.15 -11.6 85.45 -11.3 L84.6 -11.0 83.05 -9.7 81.6 -8.4 79.75 -6.85 Q78.95 -6.15 78.35 -6.05 L77.7 -6.05 76.25 -6.55 74.8 -6.95 73.5 -7.05 Q72.65 -6.9 71.3 -5.95 70.4 -5.2 68.6 -2.0 L66.7 1.35 Q64.9 3.4 63.0 3.75 61.6 3.9 60.55 3.2 58.45 1.75 57.3 -1.0 56.25 -3.6 56.7 -5.85 57.0 -7.7 58.1 -9.1 58.2 -7.2 59.6 -6.45 61.1 -5.55 62.85 -5.85 65.35 -6.25 66.85 -8.6 L69.2 -12.2 Q71.0 -14.6 72.1 -15.1 L73.25 -15.45 M58.2 5.1 Q58.35 3.9 59.05 3.8 59.4 3.65 59.9 4.05 61.2 4.9 62.45 5.0 61.25 8.05 60.55 10.95 58.85 8.8 58.5 7.8 58.0 6.3 58.2 5.1" fill="#ffeb33" fill-rule="evenodd" stroke="none"/>
      <path d="M102.25 62.85 Q102.35 63.3 111.7 56.65 115.55 52.95 116.65 48.0 117.7 43.1 115.7 38.7 116.95 35.1 117.65 31.7 135.7 32.0 152.1 37.65 160.6 40.5 166.8 44.45 174.6 49.5 177.9 55.9 L178.95 58.65 Q181.35 68.8 165.85 80.85 166.65 77.7 165.75 74.75 165.15 72.45 163.6 70.75 161.15 68.05 158.35 67.2 155.35 66.3 152.7 67.85 L152.5 67.55 Q152.4 65.8 154.0 62.25 L154.05 62.2 Q155.15 59.75 155.8 58.65 157.0 56.65 158.35 55.7 158.7 55.45 158.4 54.35 158.1 53.25 157.75 53.4 156.25 53.9 155.0 56.1 154.4 57.15 153.35 59.8 L152.4 59.4 151.25 58.8 Q147.3 56.9 140.65 55.25 140.4 55.2 140.4 55.6 L140.45 56.15 141.35 60.4 Q138.9 60.65 136.3 62.75 134.25 64.45 132.45 66.9 130.25 69.95 131.0 73.05 131.3 74.1 131.95 75.15 133.6 77.8 139.35 76.05 L139.4 77.2 Q136.85 77.5 135.15 78.8 133.3 80.3 133.1 82.7 133.0 83.75 133.25 84.95 133.7 86.75 134.5 87.55 135.6 88.65 137.3 88.75 L140.4 88.3 143.35 87.6 Q144.75 87.45 146.4 88.1 L148.65 89.05 Q137.85 98.0 122.65 101.35 L118.55 102.15 Q119.1 102.0 118.25 100.7 L116.8 98.7 112.2 91.0 Q107.75 83.15 105.1 74.15 103.65 69.45 102.25 62.85 M68.15 51.1 L70.85 54.25 Q79.0 62.85 89.6 69.5 L90.2 71.35 Q93.5 81.8 96.2 87.75 100.35 96.85 105.65 102.3 100.25 102.0 94.8 99.45 L94.45 99.45 Q84.5 89.05 79.55 77.1 79.4 76.65 78.6 76.95 L78.25 76.6 77.95 77.2 Q77.55 77.35 77.65 77.65 L77.7 77.75 Q73.2 86.65 67.3 92.7 59.95 100.3 52.05 101.5 54.8 98.75 57.45 92.85 L58.15 91.2 Q58.65 90.25 59.3 89.8 L61.4 89.85 63.7 90.3 Q65.35 90.25 65.55 88.2 65.65 86.65 65.1 85.05 L65.0 84.8 Q63.2 79.85 60.3 79.55 57.05 79.25 53.5 83.0 L53.1 81.25 Q52.5 79.15 51.3 77.25 50.0 75.25 48.35 74.1 51.65 67.3 56.75 61.4 61.9 55.35 68.15 51.1 M161.9 107.35 Q163.7 116.7 159.4 123.3 L156.95 127.0 Q155.5 128.95 153.9 130.15 150.95 132.4 146.75 134.05 140.85 136.55 133.0 137.95 L130.25 138.45 Q129.7 138.55 130.1 140.25 130.5 141.9 131.15 141.85 L138.25 140.8 138.3 140.8 144.2 144.3 157.2 152.0 Q153.05 158.85 146.2 163.05 142.75 165.15 138.0 166.9 L136.5 167.35 136.1 167.15 Q130.4 164.3 126.0 161.7 125.5 161.0 125.3 161.3 L125.25 161.3 Q118.75 157.55 112.85 153.35 105.85 148.4 102.4 144.25 100.85 142.5 100.4 140.95 L100.25 140.05 Q100.1 137.6 101.85 133.85 105.9 125.75 115.65 118.4 116.2 118.0 115.65 116.45 115.15 114.95 114.75 114.95 L114.7 115.0 Q103.3 123.65 99.8 132.75 98.1 137.1 99.4 141.3 100.65 145.55 105.0 149.85 107.85 152.75 113.15 156.55 118.55 160.4 126.0 164.75 L128.5 170.9 Q122.35 174.25 112.95 174.05 108.1 174.0 102.3 172.55 L101.3 172.3 101.2 172.25 100.8 171.8 Q90.0 157.2 85.1 147.4 L83.05 143.25 Q82.8 142.6 82.7 141.75 82.0 136.5 84.2 131.25 85.25 128.75 88.45 123.85 94.7 114.4 101.35 108.3 104.15 110.4 106.35 111.3 110.3 112.95 115.0 113.55 126.9 115.2 139.35 110.95 152.2 106.5 158.85 97.9 L159.2 99.1 160.2 101.5 Q161.35 104.45 161.9 107.35" fill="#0067b1" fill-rule="evenodd" stroke="none"/>
      <path d="M101.35 -7.65 Q104.05 -8.05 105.4 -5.3 106.9 -2.35 103.3 0.55 L102.95 1.05 Q102.75 1.55 103.45 1.85 107.0 3.3 108.65 4.4 112.35 6.95 113.45 10.6 L113.2 11.15 Q110.9 8.0 108.85 6.35 105.5 3.7 104.3 3.45 L103.95 3.45 103.35 3.95 Q103.3 4.35 103.75 4.55 L105.2 5.35 108.1 7.3 Q110.2 8.65 112.6 11.75 L111.95 12.25 Q110.4 10.35 108.7 9.15 106.6 7.7 105.05 7.3 L104.85 7.3 Q104.35 7.4 104.45 7.95 104.5 8.5 105.25 8.8 107.0 9.55 108.0 10.25 L111.05 12.95 109.85 13.8 108.45 12.5 Q107.1 11.45 105.75 11.2 L105.6 11.2 Q105.2 11.25 105.1 11.7 105.05 12.2 105.7 12.5 L107.8 13.45 109.0 14.4 107.45 15.4 Q106.95 15.05 106.6 15.0 L106.3 14.95 Q105.9 15.05 105.8 15.5 105.75 15.95 106.2 16.15 L106.2 16.1 106.25 16.15 Q102.9 18.1 100.4 19.0 96.75 20.35 94.05 20.8 90.6 21.4 87.5 20.8 L82.55 19.75 77.6 19.15 78.35 16.85 79.25 13.25 79.5 11.6 79.45 10.9 79.1 10.6 79.05 10.6 Q78.5 10.7 78.35 11.55 L77.95 13.05 77.0 15.8 75.1 19.55 Q73.9 20.05 71.95 21.75 L68.75 23.95 Q65.95 25.3 61.45 22.65 61.2 20.05 61.3 18.3 61.55 11.75 64.35 4.8 66.05 4.2 67.95 2.15 L69.9 -1.3 Q71.65 -4.55 72.35 -5.1 L73.35 -5.5 Q74.75 -5.7 76.9 -4.8 L78.85 -4.7 Q80.5 -5.0 82.85 -6.8 83.75 -7.55 85.15 -7.8 88.6 -8.3 91.85 -5.55 92.85 -4.7 94.3 -4.9 95.4 -5.1 96.85 -5.95 98.0 -6.6 101.0 -7.55 L101.35 -7.65 M134.25 83.05 Q134.65 82.2 135.2 81.55 135.9 80.75 137.55 80.1 138.8 79.65 140.0 79.55 140.85 81.6 142.7 82.25 144.5 82.9 146.5 81.85 148.05 84.4 149.25 84.5 150.65 84.6 152.2 83.2 L154.45 80.7 155.4 79.35 156.6 78.45 158.3 78.7 159.85 79.4 Q160.1 79.6 159.95 78.45 159.8 77.35 159.4 77.15 157.5 76.15 156.0 76.1 155.4 76.05 154.65 77.05 L153.65 78.5 Q151.45 81.4 149.45 82.15 L148.25 81.95 147.35 81.05 Q146.55 80.25 146.4 79.35 146.05 77.8 147.85 75.55 152.55 69.35 156.1 69.0 157.85 68.8 160.05 70.05 161.35 70.8 163.35 72.5 164.6 73.55 165.0 74.95 165.55 76.95 164.65 80.0 L163.5 82.65 163.35 82.85 Q160.9 87.1 156.6 88.4 153.95 89.15 150.1 87.6 L143.85 85.15 Q142.5 84.85 139.5 85.85 L135.0 86.05 Q134.2 85.65 133.95 84.9 133.8 84.15 134.25 83.05 M146.45 66.65 Q143.35 68.25 141.15 71.15 140.4 72.1 139.9 73.35 135.2 75.05 132.55 73.9 131.85 73.55 131.7 72.9 131.3 71.35 133.95 68.3 135.7 66.2 137.4 64.85 140.1 62.75 142.1 62.75 L142.4 62.75 Q143.8 62.85 144.75 63.95 L145.0 64.25 146.45 66.65 M149.85 68.05 L151.8 68.45 151.0 69.15 Q147.85 72.2 146.75 73.85 144.75 76.85 145.45 79.6 L145.5 79.7 Q142.9 80.9 141.15 79.4 140.55 78.9 140.35 78.3 L140.25 77.85 140.2 77.25 Q140.2 76.55 140.6 75.65 L140.8 75.2 Q141.5 73.8 143.2 71.85 145.0 69.8 147.75 68.45 L149.85 68.05 M37.9 82.2 Q38.2 81.0 39.45 80.55 40.75 80.05 41.6 81.05 L41.8 81.15 41.95 80.9 Q42.3 78.65 43.3 77.05 44.65 74.95 46.6 75.25 47.7 75.45 48.95 76.55 L50.8 78.5 Q51.95 79.8 52.4 81.4 53.05 83.75 52.1 86.2 50.65 89.7 48.05 87.6 46.1 86.05 44.7 82.95 L44.4 82.45 Q44.25 82.2 44.15 82.5 43.95 83.1 44.2 83.9 45.75 88.65 45.9 90.7 46.3 95.45 42.35 94.65 39.55 94.15 38.35 90.1 37.8 88.45 37.6 86.15 37.45 84.1 37.9 82.2 M36.75 92.45 Q36.55 100.15 32.95 98.55 31.4 97.9 30.8 95.6 30.35 93.9 30.45 91.8 30.55 87.7 33.35 86.1 35.6 84.8 36.35 87.75 36.65 89.0 36.75 92.45 M58.25 82.4 L61.8 82.25 Q63.45 83.05 64.3 85.05 64.8 86.3 64.35 87.25 63.75 88.3 61.75 87.9 L58.65 87.5 Q57.85 87.7 57.15 89.35 L56.2 91.7 Q54.25 95.85 52.55 98.0 49.95 101.25 46.7 101.95 L41.5 101.65 Q38.55 100.7 37.8 98.75 L37.65 98.1 37.5 97.65 37.7 93.95 37.65 90.35 Q38.8 94.4 41.25 96.25 43.6 97.95 45.45 96.3 47.2 94.8 47.1 92.15 47.1 90.55 46.35 87.9 47.65 89.75 49.05 90.5 50.8 91.5 52.0 89.9 52.95 88.6 53.35 86.1 L53.5 86.05 Q55.45 83.7 58.25 82.4" fill="#ffe1ba" fill-rule="evenodd" stroke="none"/>
      <path d="M108.15 52.25 Q112.8 46.0 114.6 41.5 115.55 44.65 115.1 47.85 114.4 52.65 109.85 56.85 106.1 60.35 100.95 62.5 102.35 60.1 108.15 52.25 M97.35 71.15 Q98.15 67.7 100.35 63.5 104.6 84.7 117.35 102.95 L118.1 103.05 122.85 102.15 Q138.5 98.75 149.75 89.55 152.3 90.6 154.15 90.85 L156.6 94.2 Q158.1 96.55 157.55 97.4 155.8 100.05 151.6 103.4 145.75 107.95 135.8 110.75 128.05 113.0 120.45 112.85 111.65 112.7 105.5 109.3 103.9 108.4 101.75 106.45 L98.25 103.25 96.65 101.65 Q101.05 103.2 105.65 103.25 L107.0 103.25 107.9 103.0 Q108.6 102.7 108.3 102.4 102.7 97.05 98.35 88.0 95.0 81.05 92.0 71.0 L95.45 72.9 Q95.95 73.15 96.65 72.4 L97.35 71.15" fill="#fff773" fill-rule="evenodd" stroke="none"/>
      <path d="M92.85 178.9 Q97.55 176.7 101.25 175.25 L101.75 175.6 Q104.35 176.4 108.8 177.05 L117.0 177.4 Q113.35 179.05 108.75 180.45 98.5 183.55 91.65 182.35 L88.4 181.4 Q89.2 180.75 90.55 180.05 L92.85 178.9 M122.35 179.45 L121.15 179.85 120.1 179.95 117.5 177.35 Q122.25 177.05 126.25 175.6 125.75 176.9 124.65 178.0 L122.35 179.45 M138.3 170.5 Q142.3 169.15 146.0 167.1 153.35 163.1 158.2 155.45 158.8 156.2 159.05 157.1 159.35 158.25 158.95 159.75 L157.55 162.3 156.65 163.5 153.25 162.45 Q153.1 162.4 153.0 162.65 152.2 167.3 148.8 172.55 146.7 175.85 141.95 179.9 137.7 183.55 134.65 184.7 L132.35 184.9 131.7 184.55 131.7 184.15 Q131.75 182.9 132.35 181.2 L133.4 178.4 Q134.8 174.95 137.0 170.65 L138.3 170.5" fill="#8b5c29" fill-rule="evenodd" stroke="none"/>
      <path d="M130.75 4.25 Q131.2 7.4 127.85 9.1 123.55 10.7 121.9 11.8 L121.75 11.9 Q121.3 10.05 120.3 8.75 119.2 7.25 117.8 7.05 119.2 6.3 121.6 5.75 L125.1 5.0 130.65 3.45 130.75 4.25 M77.05 56.2 L74.7 53.9 Q68.7 47.85 64.95 41.0 L64.8 40.75 Q63.25 37.8 62.2 35.0 L61.6 33.15 61.15 31.45 60.8 29.9 Q60.4 27.6 60.35 25.4 64.4 27.5 66.85 26.75 68.0 26.4 72.6 23.35 75.8 21.25 79.1 21.9 L84.95 23.2 85.5 23.3 87.4 23.6 92.0 23.5 Q98.0 22.3 103.05 19.75 110.65 15.8 114.3 12.1 115.1 11.3 115.15 10.6 L115.45 9.5 Q115.9 11.45 115.5 15.45 115.1 19.3 115.65 21.35 L115.75 21.55 Q117.5 27.8 115.0 36.45 112.7 44.45 108.4 49.65 103.9 55.1 101.25 59.2 97.7 64.75 96.05 69.85 85.25 63.9 77.05 56.2 M126.2 16.05 Q129.0 18.6 130.95 24.55 127.65 24.5 125.1 22.85 123.0 21.5 120.7 18.55 122.05 16.55 122.05 14.15 123.55 14.3 124.95 15.1 L125.0 15.15 126.15 16.0 126.2 16.05 M118.75 9.7 Q119.1 9.8 119.35 10.05 L120.4 11.2 Q121.3 12.6 121.15 14.3 120.9 16.65 118.65 18.05 L116.3 19.15 Q115.5 19.45 115.8 17.75 L116.35 15.35 Q116.8 13.0 116.35 9.75 L117.9 9.45 118.75 9.7" fill="#b90506" fill-rule="evenodd" stroke="none"/>
      <path d="M93.9 3.2 Q92.95 6.4 89.5 9.3 90.85 10.65 91.2 13.15 91.4 14.65 91.1 15.85 90.8 17.15 90.2 17.75 L91.5 17.85 Q92.35 17.75 92.05 18.45 L91.05 19.25 Q89.0 19.5 87.3 18.35 85.75 17.15 85.3 15.1 85.3 14.6 86.1 14.2 L86.0 13.85 86.0 12.0 85.0 12.7 83.75 12.55 Q82.75 12.15 83.05 11.95 L88.25 7.95 Q90.95 5.45 91.85 2.65 L93.0 2.55 Q94.1 2.8 93.9 3.2 M78.3 4.9 L78.7 5.35 Q78.45 7.45 79.25 9.1 L78.8 9.25 Q78.3 9.15 78.15 8.9 77.4 7.2 77.65 5.0 L78.3 4.9 M75.75 5.35 Q76.25 5.5 76.2 5.85 75.9 7.95 76.95 8.85 77.25 9.15 76.85 9.25 76.35 9.35 76.1 9.0 74.8 7.9 75.15 5.5 75.2 5.25 75.75 5.35 M64.2 9.45 Q65.7 11.0 69.4 12.0 L72.1 12.85 Q72.9 13.05 72.8 14.0 72.7 14.8 71.9 14.95 L72.3 16.45 72.4 17.7 72.7 17.8 72.2 19.25 Q71.8 21.05 70.65 21.45 68.4 23.55 65.0 23.2 64.55 23.15 65.25 22.55 66.0 22.0 66.35 22.0 68.6 22.3 69.6 21.4 68.75 21.05 68.05 19.85 67.4 18.7 67.15 17.1 66.9 14.95 67.65 13.35 65.1 12.05 63.35 10.5 L63.65 9.6 63.75 9.25 63.8 9.25 64.2 9.45" fill="#000000" fill-rule="evenodd" stroke="none"/>
    </g>
    <g id="sprite0" transform="matrix(1.0, 0.0, 0.0, 1.0, 93.55, 85.6)">
      <use ffdec:characterId="1017" height="171.2" transform="matrix(1.0, 0.0, 0.0, 1.0, -93.55, -85.6)" width="187.05" xlink:href="#shape1"/>
    </g>
    <g id="shape1" transform="matrix(1.0, 0.0, 0.0, 1.0, 93.55, 85.6)">
      <path d="M-84.95 17.75 Q-87.05 10.75 -87.2 5.15 -87.35 -0.5 -86.3 -8.55 L-85.45 -14.2 -85.7 -14.15 -86.0 -14.2 -86.3 -14.05 -87.85 -13.7 -88.6 -8.75 Q-89.75 -0.5 -89.55 4.8 -89.35 10.15 -87.35 17.15 L-85.9 21.75 -83.05 23.35 -84.95 17.75 M-91.2 -7.25 Q-92.1 0.15 -91.9 3.65 -91.7 7.25 -89.7 15.05 L-88.2 20.5 -88.05 20.45 -87.8 20.45 -87.5 20.6 -86.8 21.1 -88.35 15.2 Q-90.05 8.15 -90.1 5.0 -90.25 -0.15 -88.1 -13.6 L-90.45 -13.1 -91.2 -7.25 M-92.1 -13.4 L-86.35 -14.7 -87.3 -16.75 -87.35 -17.25 -87.3 -17.8 -85.0 -21.1 -81.65 -25.55 -76.6 -32.1 -78.7 -30.35 -82.05 -27.65 Q-84.4 -25.15 -88.55 -19.75 L-92.25 -14.85 -92.1 -13.4 M-80.5 17.8 Q-82.8 9.2 -82.85 6.2 -82.95 3.05 -81.95 -7.1 L-81.1 -15.0 -81.85 -14.9 -84.85 -14.35 -85.45 -7.75 Q-86.3 2.45 -85.95 6.55 -85.6 10.7 -83.4 18.5 L-81.8 23.95 -79.7 24.75 -78.45 25.1 -80.5 17.8 M-60.85 -16.2 L-61.15 -17.25 -60.45 -19.0 -59.45 -20.95 Q-58.1 -23.85 -54.15 -28.85 L-50.4 -33.25 -51.4 -33.8 -52.4 -34.25 Q-57.8 -36.0 -64.85 -35.2 L-70.35 -34.85 Q-72.35 -34.6 -75.35 -33.1 L-75.4 -33.05 -75.55 -32.6 -82.6 -23.1 -87.0 -17.35 -85.8 -14.8 -81.95 -15.55 -73.5 -16.4 -62.95 -16.5 -61.7 -16.3 -60.85 -16.2 M-93.3 4.2 Q-93.75 0.15 -93.3 -3.6 L-92.65 -7.8 -92.85 -11.85 -93.45 -16.25 -82.4 -30.25 -74.4 -36.5 -64.4 -45.65 -64.05 -47.65 -33.5 -74.35 -17.75 -79.1 -17.3 -73.7 -31.15 -68.95 -53.6 -50.75 -47.15 -53.35 -44.4 -53.65 -38.8 -57.45 -34.5 -59.0 -27.75 -56.2 -16.3 -58.1 22.75 -84.2 33.2 -85.6 32.3 -81.7 24.9 -80.0 -5.55 -59.45 39.35 -67.95 41.65 -65.95 39.7 -63.0 -14.55 -53.35 -23.25 -47.1 -25.55 -46.95 -23.25 -44.75 -21.85 -45.55 -20.45 -45.9 Q-17.75 -45.9 -16.1 -42.9 -14.75 -40.45 -14.75 -37.6 -14.75 -37.35 -15.25 -36.05 -15.8 -34.45 -16.4 -33.6 -9.85 -27.1 -8.45 -25.25 L-2.2 -29.2 Q-1.0 -29.9 -0.3 -29.9 1.85 -29.9 1.85 -26.75 L1.75 -25.95 1.65 -25.9 -5.5 -20.9 -1.6 -12.15 7.85 -12.95 Q8.5 -12.95 9.15 -12.6 10.15 -12.05 10.15 -10.95 10.15 -9.65 8.65 -8.8 6.25 -7.4 -0.25 -6.65 1.75 8.55 2.45 9.9 L2.55 12.45 2.8 14.05 Q2.85 14.85 2.25 14.85 1.7 14.85 0.55 17.4 -0.55 19.95 -1.9 19.95 L-4.2 22.2 12.0 27.4 93.5 47.4 87.6 51.05 -8.9 29.25 -12.6 33.65 -12.3 33.9 26.35 58.2 63.95 81.65 60.0 85.6 -19.35 39.5 -23.75 42.3 -23.95 42.45 Q-11.55 53.1 -6.85 57.95 -4.45 60.35 -4.6 60.65 L-6.1 62.5 -29.1 45.05 -36.15 45.85 Q-43.4 47.55 -44.45 51.75 -44.6 52.3 -41.75 53.85 -38.8 55.4 -38.8 55.5 L6.9 80.1 Q7.75 80.6 8.5 81.6 9.35 82.65 9.35 83.3 L7.75 84.7 -40.65 61.15 -41.8 61.75 -42.95 62.1 Q-45.35 62.1 -46.85 61.3 -48.2 60.6 -48.2 59.6 -48.2 59.0 -53.1 56.7 -55.6 55.55 -58.05 54.5 L-61.35 55.85 -51.5 73.2 -53.8 74.9 -64.5 57.25 -71.1 60.3 -71.45 60.2 -74.7 57.4 -78.75 59.35 -86.85 58.6 -89.25 48.2 -75.0 41.05 -80.95 38.45 Q-87.25 35.1 -88.7 31.35 L-90.75 25.4 -91.35 22.45 -90.6 21.3 Q-89.9 20.1 -90.0 19.45 L-91.75 12.45 Q-92.9 8.05 -93.3 4.2 M-32.0 -71.15 L-18.55 -75.25 -18.8 -76.5 -32.85 -72.55 -63.25 -45.95 -63.05 -44.75 -72.6 -36.0 -73.0 -35.65 -72.9 -35.05 -65.05 -38.3 -64.25 -40.3 -62.75 -40.85 -59.15 -48.05 -56.8 -49.45 -32.0 -71.15 M-41.8 -50.6 L-41.65 -49.6 -40.6 -48.85 -40.3 -48.5 -39.6 -47.4 -39.15 -48.0 -38.95 -48.5 -38.85 -49.15 -39.4 -50.45 -39.85 -50.85 -41.8 -50.6 M-34.45 -57.35 L-34.45 -57.4 -36.55 -56.65 -38.65 -55.9 -38.65 -55.85 -42.25 -53.6 -42.9 -51.9 -42.05 -50.85 -39.6 -51.1 -39.05 -50.5 -38.75 -49.8 -38.7 -48.25 -39.45 -47.1 -39.0 -46.05 -38.65 -45.05 Q-36.8 -45.55 -36.05 -46.05 L-35.5 -46.5 -34.95 -47.0 -33.1 -49.0 -32.6 -49.45 -31.9 -49.35 -31.35 -49.15 -31.3 -49.15 -31.0 -49.1 Q-30.8 -49.1 -30.7 -49.2 L-29.4 -50.3 -28.25 -51.15 -27.2 -51.85 -26.65 -51.8 -26.75 -52.2 -28.05 -54.65 -34.45 -57.35 M-27.65 -54.65 L-26.35 -52.3 -21.1 -53.35 -16.65 -56.45 -27.65 -54.65 M-28.2 -45.9 L-26.3 -48.7 -24.2 -48.45 23.7 -81.5 31.05 -83.05 32.05 -84.2 22.8 -82.15 -24.6 -50.65 -27.25 -51.45 -30.85 -48.65 -32.75 -48.85 -35.65 -45.85 -37.9 -44.75 -38.45 -44.9 -48.15 -40.1 -48.0 -39.0 -47.6 -37.3 -44.55 -36.55 -39.65 -36.95 -35.65 -41.15 -35.75 -42.4 -35.05 -43.05 -33.7 -43.2 -28.2 -45.9 M39.45 -65.8 L-9.9 -57.55 -14.25 -54.65 39.25 -65.15 39.45 -65.8 M-48.6 -43.05 L-47.4 -45.8 -42.55 -46.15 -43.05 -46.8 -44.1 -47.55 -44.7 -48.1 -44.8 -48.85 -44.8 -49.6 -44.15 -50.2 -43.3 -50.3 -42.05 -49.75 -42.0 -50.15 -43.4 -51.8 -47.05 -51.7 -55.0 -49.65 -59.05 -47.6 -62.5 -40.45 -64.0 -39.9 -65.5 -36.85 -65.35 -36.55 -60.2 -36.6 -58.05 -36.55 -52.9 -39.05 -48.65 -40.8 -47.6 -41.15 -47.45 -42.8 -48.6 -43.05 M-46.65 -43.15 L-45.35 -43.05 -44.15 -43.15 -46.2 -45.45 -46.6 -45.45 -47.05 -45.35 -47.35 -44.95 -47.5 -44.55 -47.1 -43.85 -46.65 -43.15 M-39.65 -46.55 L-40.15 -47.5 -40.55 -48.25 -42.8 -49.7 -43.8 -49.9 -44.15 -49.8 -44.45 -49.3 -44.45 -48.75 -44.4 -48.3 -43.85 -47.85 -42.85 -47.2 -41.6 -45.3 -40.9 -43.9 -40.85 -43.95 -39.1 -44.95 -38.95 -44.95 -39.65 -46.55 M-46.9 -41.45 L-44.7 -42.5 -46.75 -42.6 -46.9 -41.45 M-45.95 -40.25 L-46.05 -39.9 -46.5 -39.65 -47.0 -39.6 -47.3 -39.85 -47.15 -40.2 -46.75 -40.45 -46.25 -40.45 Q-46.0 -40.45 -45.95 -40.25 M-28.75 -20.9 L-27.6 -20.15 -26.45 -19.2 -25.05 -17.5 -23.95 -15.6 -23.35 -12.1 -22.95 -9.2 -21.25 -10.25 -19.4 -9.95 -17.75 -9.25 -15.25 -9.45 Q-13.9 -10.65 -12.2 -10.65 -10.9 -10.65 -9.75 -9.95 L-3.4 -10.45 Q-5.0 -16.05 -8.1 -21.0 L-15.3 -16.15 -15.55 -14.7 -15.55 -14.65 Q-16.05 -12.9 -17.9 -12.6 L-18.15 -12.6 -19.45 -13.15 Q-21.25 -14.35 -21.1 -16.4 L-20.95 -17.0 -20.75 -17.5 Q-19.4 -18.85 -17.6 -18.7 L-16.6 -18.4 -9.4 -22.9 Q-11.9 -26.4 -15.2 -29.6 -18.05 -32.35 -21.2 -34.55 L-21.3 -34.35 -21.55 -34.15 -22.15 -34.2 -22.75 -34.35 -23.85 -34.75 -26.1 -35.8 -26.1 -35.85 -27.7 -37.1 -28.75 -38.05 -28.75 -38.35 -28.85 -38.45 -29.0 -38.85 -28.95 -38.85 Q-31.9 -40.15 -35.0 -41.0 L-35.0 -40.95 -35.15 -40.7 -39.55 -36.25 -44.5 -35.9 -47.75 -36.7 -48.0 -36.9 -48.25 -37.15 -48.8 -40.05 -52.65 -38.45 -52.65 -38.4 -57.7 -35.95 -52.2 -34.9 -51.05 -34.35 -50.1 -33.85 -49.85 -33.55 -49.75 -33.25 -49.7 -33.2 Q-37.95 -29.6 -28.9 -21.25 L-28.75 -20.9 M-40.25 -38.15 Q-40.25 -37.9 -40.5 -37.75 -40.7 -37.55 -40.95 -37.55 L-41.45 -37.75 -41.65 -38.15 -41.45 -38.6 -40.95 -38.8 -40.5 -38.6 -40.25 -38.15 M-50.4 -43.2 Q-50.4 -42.85 -50.65 -42.65 -50.9 -42.35 -51.25 -42.35 -51.6 -42.35 -51.9 -42.65 L-52.15 -43.2 -51.9 -43.85 -51.25 -44.05 Q-50.9 -44.05 -50.65 -43.85 L-50.4 -43.2 M-53.3 -41.8 Q-53.3 -41.45 -53.55 -41.2 -53.8 -40.95 -54.2 -40.95 L-54.8 -41.2 -55.05 -41.8 -54.8 -42.4 -54.2 -42.65 Q-53.8 -42.65 -53.55 -42.4 L-53.3 -41.8 M-46.9 -34.0 Q-46.9 -33.65 -47.15 -33.45 -47.45 -33.2 -47.8 -33.2 -48.2 -33.2 -48.5 -33.45 L-48.75 -34.0 -48.5 -34.55 -47.8 -34.75 -47.15 -34.55 -46.9 -34.0 M-76.0 -33.3 L-76.75 -32.75 -76.55 -32.75 -76.3 -32.65 -76.0 -33.3 M-73.55 -35.05 L-75.3 -33.85 -73.4 -34.7 -73.55 -35.05 M-64.9 -35.85 L-64.55 -35.9 -65.3 -35.9 -66.1 -36.5 -66.15 -36.8 -66.1 -37.1 -69.95 -35.5 -64.9 -35.85 M-63.65 25.95 L-63.4 26.9 -59.25 26.65 -58.35 26.5 -58.35 26.45 -59.85 20.85 Q-60.65 17.85 -61.3 13.6 -61.9 9.3 -61.95 6.2 -61.95 3.6 -60.45 -8.4 L-59.55 -15.55 -60.25 -15.6 -60.5 -15.65 -60.75 -15.6 -61.0 -15.6 -61.65 -15.65 -61.75 -15.65 -62.4 -15.7 -62.7 -15.85 -62.95 -15.8 -64.5 -15.8 -64.75 -14.8 Q-66.0 -9.75 -66.35 -6.05 -66.85 -1.25 -66.8 4.95 -66.75 11.75 -66.05 15.65 -65.25 20.1 -63.65 25.95 M-77.9 22.15 L-77.0 25.5 -72.65 26.3 -74.15 21.7 Q-76.4 14.1 -77.2 7.2 -78.0 0.3 -76.75 -9.2 L-75.75 -15.55 -79.35 -15.2 -80.3 -10.55 Q-81.75 -2.35 -80.95 5.65 -80.15 13.7 -77.9 22.15 M-74.45 -9.7 Q-75.75 0.65 -75.05 7.35 -74.35 14.1 -71.9 22.25 L-70.5 26.55 -66.0 26.75 -65.85 26.75 -65.55 26.8 -66.8 22.85 Q-69.4 14.2 -69.95 5.2 -70.5 -3.85 -68.95 -11.55 L-67.95 -15.8 -73.5 -15.75 -73.6 -15.75 -74.45 -9.7 M-44.0 -10.35 L-43.25 -14.7 -45.65 -14.9 -46.0 -15.0 -46.25 -14.95 -49.7 -15.1 -49.95 -12.0 -50.65 -3.65 Q-50.85 -2.0 -50.55 4.35 L-49.7 15.3 Q-49.25 19.1 -48.0 23.55 L-44.7 22.25 -44.6 22.25 -43.05 21.65 -44.3 16.85 Q-44.9 13.85 -45.35 0.7 -45.45 -2.0 -44.0 -10.35 M-34.3 -15.3 L-29.2 -19.95 -29.4 -20.75 Q-38.25 -29.0 -49.9 -32.6 -54.5 -28.65 -57.5 -23.45 L-59.4 -19.7 -60.55 -17.1 -60.4 -16.65 -60.2 -16.25 -46.25 -15.65 -37.25 -14.85 -35.9 -14.85 -34.3 -15.3 M-52.65 -10.45 L-51.8 -15.2 -57.55 -15.45 -58.55 -10.6 -58.55 -10.45 -58.55 -10.4 -59.2 -4.15 Q-59.75 2.25 -59.55 7.05 -59.3 11.9 -56.95 21.5 L-55.8 25.95 -50.6 24.5 -50.4 24.45 Q-51.95 18.85 -53.0 12.25 -53.9 6.5 -54.1 2.1 -54.25 -1.1 -52.65 -10.45 M-41.6 -11.15 Q-42.4 -5.35 -42.45 -2.65 L-42.05 5.9 -41.05 15.85 -40.05 19.3 Q-38.3 17.1 -37.2 14.45 L-36.7 13.05 -37.35 4.3 -36.8 -7.75 -36.35 -13.9 -36.4 -14.05 -36.4 -14.1 -36.4 -14.2 -37.3 -14.2 -41.15 -14.55 -41.6 -11.15 M-24.55 -40.1 Q-23.8 -39.2 -23.35 -39.2 L-20.95 -41.25 -19.7 -42.2 -19.6 -42.05 -20.4 -41.45 Q-19.9 -40.65 -19.35 -39.05 -19.1 -38.25 -19.1 -37.15 L-19.1 -36.45 -19.3 -35.7 -19.4 -35.6 -19.35 -36.3 -20.25 -37.05 -20.8 -37.65 -21.1 -38.3 -21.85 -39.0 -22.5 -39.55 -22.6 -39.45 -22.65 -39.3 -21.25 -37.85 -21.3 -37.5 -21.4 -37.2 -21.55 -36.5 -20.95 -35.55 Q-20.1 -34.55 -19.1 -34.55 -18.2 -34.55 -17.5 -35.8 -16.95 -36.8 -16.95 -37.5 L-17.55 -40.65 Q-18.5 -43.75 -20.3 -43.75 -20.8 -43.75 -22.5 -42.7 -24.55 -41.35 -24.55 -40.1 M-0.45 -27.8 L-16.2 -18.0 -17.6 -17.0 -17.7 -16.85 -17.65 -16.45 -17.45 -16.1 -17.2 -15.9 -17.0 -15.8 -0.05 -27.25 -0.45 -27.8 M-24.9 -40.65 L-24.45 -41.35 -24.05 -42.1 -25.6 -44.4 -27.0 -46.85 -28.0 -45.5 -25.95 -41.7 -25.35 -41.05 -24.9 -40.65 M-28.4 -40.95 Q-28.15 -41.2 -29.15 -43.05 L-31.15 -42.05 -28.4 -40.95 M-33.05 -35.5 L-37.0 -32.5 -37.05 -32.4 -37.8 -31.75 -38.4 -31.25 -39.15 -31.25 -39.65 -31.75 -39.6 -32.3 -38.85 -33.15 Q-37.0 -34.95 -34.8 -36.2 -32.95 -37.3 -30.8 -37.85 L-30.0 -37.5 -30.1 -37.15 -33.05 -35.5 M-28.15 -38.35 L-27.3 -37.6 -25.7 -36.35 Q-25.1 -35.9 -23.65 -35.4 L-22.25 -34.9 -21.5 -37.95 -22.45 -38.85 -22.9 -39.2 -23.45 -38.95 -24.1 -39.35 -24.8 -39.9 -24.8 -40.3 -25.6 -40.6 -28.15 -38.35 M-28.4 -23.25 Q-28.4 -22.85 -28.7 -22.6 -29.0 -22.35 -29.45 -22.35 -29.85 -22.35 -30.15 -22.6 L-30.45 -23.25 -30.15 -23.85 -29.45 -24.1 -28.7 -23.85 -28.4 -23.25 M-29.6 -9.95 L-29.6 -10.05 -29.15 -11.65 -28.55 -12.8 -27.9 -12.8 Q-26.85 -11.75 -26.5 -10.2 L-26.15 -7.3 Q-25.8 -2.3 -25.75 2.7 -25.7 6.1 -26.05 9.5 L-26.7 14.0 -27.65 14.9 -28.9 14.55 -28.75 11.4 -28.55 7.0 -28.65 0.95 -29.0 -4.2 -29.6 -9.95 M-34.4 27.55 L-30.45 23.2 -30.45 23.15 Q-28.25 17.5 -27.7 16.9 L-26.0 15.5 Q-24.95 14.7 -24.6 13.95 L-23.9 9.15 -23.35 4.6 Q-23.2 -0.6 -23.75 -5.5 -24.75 -13.75 -24.9 -14.2 -25.25 -15.55 -26.35 -17.0 L-27.65 -18.35 -28.6 -19.45 -28.7 -19.55 -28.75 -19.5 -34.25 -14.65 -35.75 -14.25 -35.5 -12.35 -34.95 -4.35 Q-34.8 -0.4 -34.8 3.55 -34.8 6.0 -35.05 8.45 -35.4 11.75 -36.6 14.7 -38.05 18.1 -40.5 20.75 L-40.3 20.9 -37.05 23.95 -34.55 26.5 -34.45 26.95 -34.5 27.65 -34.4 27.55 M-20.3 -17.0 L-20.45 -16.35 Q-20.6 -14.7 -19.1 -13.7 -18.6 -13.4 -18.0 -13.25 -17.4 -13.35 -17.1 -13.8 -16.85 -14.2 -17.1 -14.25 L-17.6 -14.45 -18.1 -14.85 -18.75 -15.85 -19.1 -16.85 -18.45 -18.0 Q-19.5 -17.85 -20.3 -17.0 M-19.5 -4.9 L-19.25 -5.1 -20.75 -6.85 Q-21.0 -7.65 -20.7 -9.65 L-20.95 -9.7 -22.35 -8.9 Q-22.3 -7.55 -21.8 -6.35 -21.45 -5.5 -20.7 -4.8 L-19.5 -4.9 M-1.7 1.85 Q-1.7 -3.25 -2.75 -7.9 L-7.4 -7.35 -7.35 -7.25 -6.9 -6.45 Q-5.85 -6.25 -5.05 -4.95 -4.2 -3.5 -4.2 -1.55 -4.2 0.45 -5.05 1.85 L-5.35 2.3 Q-5.6 6.3 -7.35 9.3 -9.35 12.7 -12.2 12.7 -15.05 12.7 -17.05 9.3 -19.1 5.85 -19.1 1.0 -19.1 -2.7 -17.9 -5.55 L-19.05 -4.4 Q-19.25 -4.25 -19.45 -4.25 L-20.65 -4.15 -20.95 -4.2 -21.15 -4.35 Q-22.0 -5.15 -22.4 -6.1 L-22.65 -6.9 -22.4 -4.5 Q-22.05 0.15 -22.2 5.25 -22.2 5.75 -22.35 6.05 L-22.7 9.35 -22.85 10.8 -23.1 13.4 Q-23.45 14.9 -24.25 15.8 L-25.6 16.8 -26.95 18.1 -27.45 19.2 Q-28.2 21.2 -29.05 22.7 L-27.95 23.35 -27.7 23.5 -27.85 22.0 -27.75 21.6 -25.35 17.6 -25.05 17.3 -24.65 17.3 -23.75 17.5 -20.25 18.35 -13.95 19.4 -13.9 19.4 -11.15 19.7 -10.9 19.75 -10.65 19.9 -9.3 21.6 -8.15 21.85 Q-7.95 21.9 -7.75 22.1 L-7.05 22.95 Q-5.7 20.55 -4.7 18.0 L-4.9 17.9 -5.1 17.65 -5.7 16.0 -5.85 15.0 -5.8 13.85 -5.5 12.6 -4.85 10.85 -3.9 9.0 -3.6 8.75 -3.25 8.65 -2.2 8.75 Q-1.7 5.4 -1.7 1.85 M-15.95 -16.3 L-17.05 -15.45 -17.6 -15.85 -17.9 -16.4 -17.9 -16.8 -17.85 -17.1 -16.85 -17.8 -17.5 -18.0 -17.95 -17.5 -18.2 -17.0 -18.35 -16.5 -18.1 -15.9 -17.5 -15.3 -17.0 -15.0 Q-16.9 -15.0 -16.55 -15.25 L-15.95 -16.3 M-12.2 -9.8 L-13.4 -9.6 -11.65 -9.75 -12.2 -9.8 M-18.2 -6.2 L-17.95 -6.55 -19.2 -6.55 -19.5 -6.8 -19.95 -7.45 -20.05 -7.85 -20.05 -8.3 -19.95 -8.65 -18.3 -8.9 -19.6 -9.35 -20.1 -9.5 -20.15 -9.2 Q-20.65 -7.6 -19.6 -6.25 L-19.25 -5.9 -18.85 -5.7 -18.75 -5.6 -18.2 -6.2 M-7.65 8.6 Q-6.2 6.15 -5.85 2.9 -6.6 3.5 -7.5 3.45 -9.0 3.5 -9.95 1.85 -10.85 0.45 -10.85 -1.55 -10.85 -3.5 -10.0 -4.95 L-9.95 -4.95 Q-9.0 -6.55 -7.6 -6.55 L-7.65 -6.65 -8.05 -7.3 -16.95 -6.3 Q-18.6 -3.2 -18.6 1.0 -18.6 5.45 -16.75 8.6 -14.85 11.8 -12.2 11.8 -9.5 11.8 -7.65 8.6 M7.8 -9.8 L7.95 -10.8 -19.8 -8.4 -19.85 -7.8 -19.4 -6.95 -19.05 -6.75 -18.8 -6.75 7.8 -9.8 M-4.85 -1.55 Q-4.85 -3.35 -5.65 -4.6 -6.4 -5.9 -7.5 -5.9 -8.65 -5.9 -9.4 -4.6 -10.2 -3.35 -10.2 -1.55 -10.2 0.25 -9.4 1.5 -8.65 2.8 -7.5 2.8 -6.4 2.8 -5.65 1.5 -4.85 0.25 -4.85 -1.55 M-5.85 -1.45 Q-5.85 -1.0 -6.0 -0.7 -6.2 -0.4 -6.4 -0.4 L-6.85 -0.7 -7.0 -1.45 -6.85 -2.25 -6.4 -2.55 -6.0 -2.25 Q-5.85 -1.95 -5.85 -1.45 M89.15 48.1 L60.55 41.05 11.1 28.75 11.25 29.65 Q11.25 30.15 10.85 30.85 L59.8 42.45 87.75 49.1 Q88.05 48.7 88.5 48.6 L89.15 48.1 M-0.6 15.9 Q0.0 15.15 0.1 14.5 0.4 12.9 0.3 12.15 L-0.05 10.95 Q-0.15 10.55 -0.6 10.1 L-0.65 10.1 -1.35 11.45 -1.7 12.85 -1.85 14.85 -1.7 17.15 -0.6 15.9 M10.2 27.95 L-2.25 24.0 -3.3 24.4 -2.45 25.1 -2.2 25.9 -2.3 26.5 -2.45 27.1 -2.8 27.6 -4.05 28.3 -3.95 28.6 9.95 31.35 10.45 30.75 10.75 30.25 10.9 29.45 10.55 28.4 10.2 27.95 M-38.95 57.7 L-39.2 59.05 6.4 82.15 Q6.6 82.05 6.1 81.7 L5.6 81.3 Q5.65 81.25 -16.65 69.5 L-38.95 57.7 M58.7 82.85 L59.5 82.35 60.25 81.8 -3.5 42.6 -3.75 43.4 -3.95 43.85 -4.6 44.65 58.7 82.85 M-3.3 9.3 L-4.25 11.1 -4.75 12.6 -5.15 13.95 -5.1 15.8 -4.5 17.35 -2.25 17.75 -2.2 17.75 -2.25 17.7 -2.4 15.75 -2.4 14.0 -2.25 12.7 -2.05 11.55 -1.2 9.5 -3.3 9.3 M-24.8 17.9 L-27.2 21.9 -27.05 23.45 -19.2 25.75 -13.0 26.8 -10.35 26.9 -8.55 23.85 -11.2 20.35 -14.0 20.05 -20.4 19.0 -24.8 17.9 M-9.8 26.9 L-4.75 28.0 -4.6 28.0 -4.45 28.05 -3.95 27.85 -3.5 27.55 -2.75 26.85 -2.6 26.45 -2.65 25.75 -2.9 25.2 -3.85 24.5 -7.4 23.55 -8.3 22.5 -8.95 22.35 -8.1 23.8 -9.8 26.9 M-33.95 27.95 L-36.65 31.1 -31.3 34.45 Q-30.7 34.45 -28.2 35.65 L-25.85 36.9 -23.2 35.4 -20.8 35.8 -19.75 34.45 -19.9 30.15 -18.95 28.7 -24.35 26.0 -28.25 23.95 -29.35 23.25 Q-29.75 23.75 -30.05 23.7 L-33.95 27.95 M-28.5 25.0 L-28.65 25.5 -29.0 25.7 -29.35 25.5 -29.5 25.0 -29.35 24.5 Q-29.2 24.3 -29.0 24.3 L-28.65 24.5 Q-28.5 24.7 -28.5 25.0 M-23.75 27.7 L-23.9 28.2 Q-24.05 28.4 -24.3 28.4 L-24.7 28.2 -24.85 27.7 -24.7 27.2 -24.3 27.0 Q-24.05 27.0 -23.9 27.2 -23.75 27.4 -23.75 27.7 M-47.75 46.3 Q-31.65 46.3 -19.5 37.05 L-20.7 36.3 -20.85 36.35 -21.15 36.4 -23.05 36.05 -25.5 37.45 -25.8 37.55 -26.15 37.45 -28.5 36.25 -28.55 36.25 Q-30.8 35.15 -31.3 35.1 L-31.65 35.0 -37.0 31.7 -37.25 31.4 -37.3 31.0 -37.25 30.9 Q-41.2 34.05 -45.5 36.15 L-45.7 36.2 -45.9 36.35 -46.75 36.75 -47.0 36.8 -47.1 36.8 -47.4 37.05 -48.85 37.6 -51.35 38.45 -51.6 38.5 -51.8 38.6 -51.95 38.65 -52.4 38.55 -53.2 38.35 -53.2 38.5 -53.3 38.9 -53.7 39.1 -56.95 39.8 -57.15 39.75 -57.4 39.85 -58.75 40.0 -59.05 40.0 -59.3 39.9 -59.4 40.0 -59.85 40.15 -62.3 40.3 -62.65 40.2 -63.0 40.3 -64.8 40.3 -65.05 40.25 -65.4 40.15 -65.85 40.3 -67.55 40.2 -67.95 40.05 -68.0 40.05 -68.4 40.15 -72.55 39.45 Q-61.65 46.3 -47.75 46.3 M-89.25 22.4 L-87.95 26.25 -85.75 29.45 -84.45 26.65 -82.15 31.05 -81.45 28.85 -80.55 28.55 -78.1 33.1 -77.3 30.55 -76.5 30.4 -73.75 34.15 -73.15 31.35 -71.25 31.7 -69.2 37.95 -69.15 36.7 -67.7 31.45 -65.65 31.35 -63.9 37.75 -63.95 35.55 -62.6 30.8 -61.7 30.55 -60.8 30.5 -58.5 35.85 -57.05 29.55 -56.35 29.25 -55.65 28.95 -53.8 33.0 -51.55 37.85 -49.1 37.0 -47.65 36.4 -52.3 34.6 -52.6 31.8 -50.7 27.5 -49.65 27.35 -45.8 35.55 Q-40.15 32.85 -35.25 28.25 L-35.1 26.85 -37.5 24.4 -40.7 21.4 -44.35 22.85 -50.4 25.1 Q-54.65 26.6 -59.15 27.25 -62.55 27.8 -65.95 27.4 -73.15 27.5 -79.9 25.35 -84.15 24.0 -87.9 21.1 L-88.95 21.3 -89.25 22.4 M-27.35 42.15 L-28.25 42.7 -28.4 42.8 -28.45 42.9 -28.45 42.95 -28.4 43.1 -28.35 43.1 -17.6 52.05 -6.9 60.75 -6.5 60.95 -6.6 61.05 -6.0 60.7 Q-5.8 60.6 -6.0 60.4 L-6.05 60.35 -6.15 60.25 -6.65 59.8 -8.65 58.1 -16.55 51.3 -27.05 42.45 -27.05 42.4 -27.05 42.25 -27.15 42.15 -27.2 42.1 -27.35 42.15 M-15.2 33.3 Q-12.35 30.55 -10.1 27.55 L-13.05 27.45 -19.4 26.35 -25.8 24.55 -24.05 25.4 -18.7 28.1 -18.4 28.35 -18.3 28.7 -18.4 29.05 -19.25 30.3 -19.05 32.05 -15.9 33.95 -15.2 33.3 M-20.2 35.85 L-17.8 37.5 -16.7 37.55 -16.1 37.25 -15.65 36.95 Q-15.05 36.45 -15.2 35.7 L-15.6 35.1 -16.0 34.65 -19.25 32.65 -19.35 34.75 -20.2 35.85 M-17.3 38.8 Q-11.55 41.6 -5.85 44.35 L-5.0 44.45 -4.15 43.5 -3.85 42.45 -3.85 42.4 -4.35 41.35 -15.05 34.5 -15.4 34.6 -15.05 35.0 -14.85 35.5 -14.85 36.1 Q-14.9 36.65 -15.05 36.8 L-15.4 37.25 -16.3 37.85 -17.15 38.0 -17.7 37.95 -17.3 38.8 M-67.4 31.8 L-68.7 36.8 -68.75 38.05 -64.8 39.65 -63.0 39.65 -64.1 38.55 -65.95 31.75 -67.4 31.8 M-61.1 30.9 L-62.25 31.1 -63.55 35.8 -63.5 37.5 -58.8 39.35 -57.5 39.2 -61.1 30.9 M-68.25 39.5 L-69.95 37.75 -71.75 32.05 -72.75 31.75 -73.9 35.7 -73.9 37.95 -73.15 38.65 -68.25 39.5 M-82.5 35.85 L-78.8 36.5 -78.8 34.9 -78.3 33.75 -80.75 29.1 -81.15 29.2 -82.4 33.3 -82.5 35.85 M-74.35 38.15 L-74.35 35.55 -73.95 34.7 -76.6 30.9 -77.1 31.0 -78.05 34.5 -78.3 35.0 -78.2 37.4 -74.35 38.15 M-70.3 52.7 L-71.05 44.5 -77.7 44.05 -79.35 44.7 -75.7 44.95 -72.05 45.25 -71.55 49.3 -71.15 53.3 -70.3 52.7 M-80.6 45.55 L-82.8 46.6 -79.3 46.65 -75.7 46.8 -75.15 50.9 -74.7 54.9 -71.8 53.45 -72.6 45.8 -80.6 45.55 M-59.85 39.5 L-63.85 37.85 -63.65 38.35 -62.35 39.65 -59.85 39.5 M-65.85 39.65 L-68.6 38.6 -67.55 39.55 -65.85 39.65 M-70.35 47.8 L-69.95 50.45 -67.15 49.4 -67.6 46.45 -70.35 47.8 M-50.45 28.0 L-52.1 31.75 -52.15 34.2 -47.05 36.15 -46.2 35.75 -49.9 27.85 -50.45 28.0 M-51.95 37.95 L-55.8 29.5 -56.7 29.9 -58.1 35.65 -57.9 36.85 -55.1 37.35 -52.05 38.0 -51.95 37.95 M-53.85 38.45 L-57.9 37.35 -57.05 39.15 -53.85 38.45 M-51.4 48.35 Q-53.1 50.4 -52.4 53.0 L-51.9 54.65 -51.2 54.6 Q-51.95 51.95 -51.05 49.5 L-50.6 48.5 -51.25 48.3 -51.4 48.35 M-71.15 54.5 L-71.15 54.6 -72.6 55.0 -68.85 56.35 Q-66.4 55.5 -64.2 54.3 L-61.25 52.65 Q-59.4 51.6 -57.35 51.0 L-57.35 50.05 Q-59.6 50.9 -61.7 52.0 L-64.85 53.75 Q-66.75 54.7 -68.8 55.25 L-71.15 54.5 M-55.85 50.3 L-56.65 50.3 -56.8 51.25 -56.45 53.7 -55.75 53.85 -55.85 52.85 -55.85 50.3 M-48.05 49.45 L-48.3 49.5 Q-48.85 49.7 -49.0 50.2 -49.35 51.0 -49.3 51.95 -49.25 53.65 -47.65 54.3 L-46.95 54.2 -46.65 53.4 -46.9 53.4 -47.4 53.6 -48.1 53.4 -48.75 51.8 Q-49.2 50.4 -48.05 49.45 M-79.75 48.25 L-78.8 57.15 -75.55 55.45 -76.4 47.3 -84.0 47.05 -86.15 48.25 -79.75 48.25 M-86.15 56.9 L-79.45 57.15 -80.5 48.95 -87.25 48.95 -86.15 56.9 M-85.95 33.3 L-82.9 33.95 -82.9 33.2 -82.35 31.65 -84.5 27.4 -86.0 31.15 -85.95 33.3 M-85.15 50.7 L-81.95 50.7 -81.45 55.55 -84.75 55.35 -85.15 50.7" fill="#181c1d" fill-opacity="0.9882353" fill-rule="evenodd" stroke="none"/>
      <path d="M-32.0 -71.15 L-56.8 -49.45 -59.15 -48.05 -62.75 -40.85 -64.25 -40.3 -65.05 -38.3 -72.9 -35.05 -73.0 -35.65 -72.6 -36.0 -63.05 -44.75 -63.25 -45.95 -32.85 -72.55 -18.8 -76.5 -18.55 -75.25 -32.0 -71.15 M39.45 -65.8 L39.25 -65.15 -14.25 -54.65 -9.9 -57.55 39.45 -65.8 M-28.2 -45.9 L-33.7 -43.2 -35.05 -43.05 -35.75 -42.4 -35.65 -41.15 -39.65 -36.95 -44.55 -36.55 -47.6 -37.3 -48.0 -39.0 -48.15 -40.1 -38.45 -44.9 -37.9 -44.75 -35.65 -45.85 -32.75 -48.85 -30.85 -48.65 -27.25 -51.45 -24.6 -50.65 22.8 -82.15 32.05 -84.2 31.05 -83.05 23.7 -81.5 -24.2 -48.45 -26.3 -48.7 -28.2 -45.9 M-27.65 -54.65 L-16.65 -56.45 -21.1 -53.35 -26.35 -52.3 -27.65 -54.65 M-45.95 -40.25 Q-46.0 -40.45 -46.25 -40.45 L-46.75 -40.45 -47.15 -40.2 -47.3 -39.85 -47.0 -39.6 -46.5 -39.65 -46.05 -39.9 -45.95 -40.25 M-40.25 -38.15 L-40.5 -38.6 -40.95 -38.8 -41.45 -38.6 -41.65 -38.15 -41.45 -37.75 -40.95 -37.55 Q-40.7 -37.55 -40.5 -37.75 -40.25 -37.9 -40.25 -38.15 M89.15 48.1 L88.5 48.6 Q88.05 48.7 87.75 49.1 L59.8 42.45 10.85 30.85 Q11.25 30.15 11.25 29.65 L11.1 28.75 60.55 41.05 89.15 48.1 M58.7 82.85 L-4.6 44.65 -3.95 43.85 -3.75 43.4 -3.5 42.6 60.25 81.8 59.5 82.35 58.7 82.85 M-23.75 27.7 Q-23.75 27.4 -23.9 27.2 -24.05 27.0 -24.3 27.0 L-24.7 27.2 -24.85 27.7 -24.7 28.2 -24.3 28.4 Q-24.05 28.4 -23.9 28.2 L-23.75 27.7 M-28.5 25.0 Q-28.5 24.7 -28.65 24.5 L-29.0 24.3 Q-29.2 24.3 -29.35 24.5 L-29.5 25.0 -29.35 25.5 -29.0 25.7 -28.65 25.5 -28.5 25.0 M-33.95 27.95 L-30.05 23.7 Q-29.75 23.75 -29.35 23.25 L-28.25 23.95 -24.35 26.0 -18.95 28.7 -19.9 30.15 -19.75 34.45 -20.8 35.8 -23.2 35.4 -25.85 36.9 -28.2 35.65 Q-30.7 34.45 -31.3 34.45 L-36.65 31.1 -33.95 27.95 M-9.8 26.9 L-8.1 23.8 -8.95 22.35 -8.3 22.5 -7.4 23.55 -3.85 24.5 -2.9 25.2 -2.65 25.75 -2.6 26.45 -2.75 26.85 -3.5 27.55 -3.95 27.85 -4.45 28.05 -4.6 28.0 -4.75 28.0 -9.8 26.9 M-24.8 17.9 L-20.4 19.0 -14.0 20.05 -11.2 20.35 -8.55 23.85 -10.35 26.9 -13.0 26.8 -19.2 25.75 -27.05 23.45 -27.2 21.9 -24.8 17.9 M-27.35 42.15 L-27.2 42.1 -27.15 42.15 -27.05 42.25 -27.05 42.4 -27.05 42.45 -16.55 51.3 -8.65 58.1 -6.65 59.8 -6.15 60.25 -6.05 60.35 -6.0 60.4 Q-5.8 60.6 -6.0 60.7 L-6.6 61.05 -6.5 60.95 -6.9 60.75 -17.6 52.05 -28.35 43.1 -28.4 43.1 -28.45 42.95 -28.45 42.9 -28.4 42.8 -28.25 42.7 -27.35 42.15 M-20.2 35.85 L-19.35 34.75 -19.25 32.65 -16.0 34.65 -15.6 35.1 -15.2 35.7 Q-15.05 36.45 -15.65 36.95 L-16.1 37.25 -16.7 37.55 -17.8 37.5 -20.2 35.85" fill="#8a8679" fill-rule="evenodd" stroke="none"/>
      <path d="M-34.45 -57.35 L-28.05 -54.65 -26.75 -52.2 -26.65 -51.8 -27.2 -51.85 -28.25 -51.15 -29.4 -50.3 -30.7 -49.2 Q-30.8 -49.1 -31.0 -49.1 L-31.3 -49.15 -31.35 -49.15 -31.9 -49.35 -32.6 -49.45 -33.1 -49.0 -34.95 -47.0 -35.5 -46.5 -36.05 -46.05 Q-36.8 -45.55 -38.65 -45.05 L-39.0 -46.05 -39.45 -47.1 -38.7 -48.25 -38.75 -49.8 -39.05 -50.5 -39.6 -51.1 -42.05 -50.85 -42.9 -51.9 -42.25 -53.6 -38.65 -55.85 -38.65 -55.9 -36.55 -56.65 -34.45 -57.4 -34.45 -57.35 M-48.6 -43.05 L-47.45 -42.8 -47.6 -41.15 -48.65 -40.8 -52.9 -39.05 -58.05 -36.55 -60.2 -36.6 -65.35 -36.55 -65.5 -36.85 -64.0 -39.9 -62.5 -40.45 -59.05 -47.6 -55.0 -49.65 -47.05 -51.7 -43.4 -51.8 -42.0 -50.15 -42.05 -49.75 -43.3 -50.3 -44.15 -50.2 -44.8 -49.6 -44.8 -48.85 -44.7 -48.1 -44.1 -47.55 -43.05 -46.8 -42.55 -46.15 -47.4 -45.8 -48.6 -43.05 M-46.9 -41.45 L-46.75 -42.6 -44.7 -42.5 -46.9 -41.45 M-28.75 -20.9 L-28.9 -21.25 Q-37.95 -29.6 -49.7 -33.2 L-49.75 -33.25 -49.85 -33.55 -50.1 -33.85 -51.05 -34.35 -52.2 -34.9 -57.7 -35.95 -52.65 -38.4 -52.65 -38.45 -48.8 -40.05 -48.25 -37.15 -48.0 -36.9 -47.75 -36.7 -44.5 -35.9 -39.55 -36.25 -35.15 -40.7 -35.0 -40.95 -35.0 -41.0 Q-31.9 -40.15 -28.95 -38.85 L-29.0 -38.85 -28.85 -38.45 -28.75 -38.35 -28.75 -38.05 -27.7 -37.1 -26.1 -35.85 -26.1 -35.8 -23.85 -34.75 -22.75 -34.35 -22.15 -34.2 -21.55 -34.15 -21.3 -34.35 -21.2 -34.55 Q-18.05 -32.35 -15.2 -29.6 -11.9 -26.4 -9.4 -22.9 L-16.6 -18.4 -17.6 -18.7 Q-19.4 -18.85 -20.75 -17.5 L-20.95 -17.0 -21.1 -16.4 Q-21.25 -14.35 -19.45 -13.15 L-18.15 -12.6 -17.9 -12.6 Q-16.05 -12.9 -15.55 -14.65 L-15.55 -14.7 -15.3 -16.15 -8.1 -21.0 Q-5.0 -16.05 -3.4 -10.45 L-9.75 -9.95 Q-10.9 -10.65 -12.2 -10.65 -13.9 -10.65 -15.25 -9.45 L-17.75 -9.25 -19.4 -9.95 -21.25 -10.25 -22.95 -9.2 -23.35 -12.1 -23.95 -15.6 -25.05 -17.5 -26.45 -19.2 -27.6 -20.15 -28.75 -20.9 M-46.9 -34.0 L-47.15 -34.55 -47.8 -34.75 -48.5 -34.55 -48.75 -34.0 -48.5 -33.45 Q-48.2 -33.2 -47.8 -33.2 -47.45 -33.2 -47.15 -33.45 -46.9 -33.65 -46.9 -34.0 M-53.3 -41.8 L-53.55 -42.4 Q-53.8 -42.65 -54.2 -42.65 L-54.8 -42.4 -55.05 -41.8 -54.8 -41.2 -54.2 -40.95 Q-53.8 -40.95 -53.55 -41.2 -53.3 -41.45 -53.3 -41.8 M-50.4 -43.2 L-50.65 -43.85 Q-50.9 -44.05 -51.25 -44.05 L-51.9 -43.85 -52.15 -43.2 -51.9 -42.65 Q-51.6 -42.35 -51.25 -42.35 -50.9 -42.35 -50.65 -42.65 -50.4 -42.85 -50.4 -43.2 M-64.9 -35.85 L-69.95 -35.5 -66.1 -37.1 -66.15 -36.8 -66.1 -36.5 -65.3 -35.9 -64.55 -35.9 -64.9 -35.85 M-0.45 -27.8 L-0.05 -27.25 -17.0 -15.8 -17.2 -15.9 -17.45 -16.1 -17.65 -16.45 -17.7 -16.85 -17.6 -17.0 -16.2 -18.0 -0.45 -27.8 M-33.05 -35.5 L-30.1 -37.15 -30.0 -37.5 -30.8 -37.85 Q-32.95 -37.3 -34.8 -36.2 -37.0 -34.95 -38.85 -33.15 L-39.6 -32.3 -39.65 -31.75 -39.15 -31.25 -38.4 -31.25 -37.8 -31.75 -37.05 -32.4 -37.0 -32.5 -33.05 -35.5 M-28.4 -23.25 L-28.7 -23.85 -29.45 -24.1 -30.15 -23.85 -30.45 -23.25 -30.15 -22.6 Q-29.85 -22.35 -29.45 -22.35 -29.0 -22.35 -28.7 -22.6 -28.4 -22.85 -28.4 -23.25 M-1.7 1.85 Q-1.7 5.4 -2.2 8.75 L-3.25 8.65 -3.6 8.75 -3.9 9.0 -4.85 10.85 -5.5 12.6 -5.8 13.85 -5.85 15.0 -5.7 16.0 -5.1 17.65 -4.9 17.9 -4.7 18.0 Q-5.7 20.55 -7.05 22.95 L-7.75 22.1 Q-7.95 21.9 -8.15 21.85 L-9.3 21.6 -10.65 19.9 -10.9 19.75 -11.15 19.7 -13.9 19.4 -13.95 19.4 -20.25 18.35 -23.75 17.5 -24.65 17.3 -25.05 17.3 -25.35 17.6 -27.75 21.6 -27.85 22.0 -27.7 23.5 -27.95 23.35 -29.05 22.7 Q-28.2 21.2 -27.45 19.2 L-26.95 18.1 -25.6 16.8 -24.25 15.8 Q-23.45 14.9 -23.1 13.4 L-22.85 10.8 -22.7 9.35 -22.35 6.05 Q-22.2 5.75 -22.2 5.25 -22.05 0.15 -22.4 -4.5 L-22.65 -6.9 -22.4 -6.1 Q-22.0 -5.15 -21.15 -4.35 L-20.95 -4.2 -20.65 -4.15 -19.45 -4.25 Q-19.25 -4.25 -19.05 -4.4 L-17.9 -5.55 Q-19.1 -2.7 -19.1 1.0 -19.1 5.85 -17.05 9.3 -15.05 12.7 -12.2 12.7 -9.35 12.7 -7.35 9.3 -5.6 6.3 -5.35 2.3 L-5.05 1.85 Q-4.2 0.45 -4.2 -1.55 -4.2 -3.5 -5.05 -4.95 -5.85 -6.25 -6.9 -6.45 L-7.35 -7.25 -7.4 -7.35 -2.75 -7.9 Q-1.7 -3.25 -1.7 1.85 M7.8 -9.8 L-18.8 -6.75 -19.05 -6.75 -19.4 -6.95 -19.85 -7.8 -19.8 -8.4 7.95 -10.8 7.8 -9.8 M-7.65 8.6 Q-9.5 11.8 -12.2 11.8 -14.85 11.8 -16.75 8.6 -18.6 5.45 -18.6 1.0 -18.6 -3.2 -16.95 -6.3 L-8.05 -7.3 -7.65 -6.65 -7.6 -6.55 Q-9.0 -6.55 -9.95 -4.95 L-10.0 -4.95 Q-10.85 -3.5 -10.85 -1.55 -10.85 0.45 -9.95 1.85 -9.0 3.5 -7.5 3.45 -6.6 3.5 -5.85 2.9 -6.2 6.15 -7.65 8.6 M-38.95 57.7 L-16.65 69.5 Q5.65 81.25 5.6 81.3 L6.1 81.7 Q6.6 82.05 6.4 82.15 L-39.2 59.05 -38.95 57.7" fill="#8a836a" fill-rule="evenodd" stroke="none"/>
      <path d="M-91.2 -7.25 L-90.45 -13.1 -88.1 -13.6 Q-90.25 -0.15 -90.1 5.0 -90.05 8.15 -88.35 15.2 L-86.8 21.1 -87.5 20.6 -87.8 20.45 -88.05 20.45 -88.2 20.5 -89.7 15.05 Q-91.7 7.25 -91.9 3.65 -92.1 0.15 -91.2 -7.25 M-84.95 17.75 L-83.05 23.35 -85.9 21.75 -87.35 17.15 Q-89.35 10.15 -89.55 4.8 -89.75 -0.5 -88.6 -8.75 L-87.85 -13.7 -86.3 -14.05 -86.0 -14.2 -85.7 -14.15 -85.45 -14.2 -86.3 -8.55 Q-87.35 -0.5 -87.2 5.15 -87.05 10.75 -84.95 17.75 M-80.5 17.8 L-78.45 25.1 -79.7 24.75 -81.8 23.95 -83.4 18.5 Q-85.6 10.7 -85.95 6.55 -86.3 2.45 -85.45 -7.75 L-84.85 -14.35 -81.85 -14.9 -81.1 -15.0 -81.95 -7.1 Q-82.95 3.05 -82.85 6.2 -82.8 9.2 -80.5 17.8 M-39.65 -46.55 L-38.95 -44.95 -39.1 -44.95 -40.85 -43.95 -40.9 -43.9 -41.6 -45.3 -42.85 -47.2 -43.85 -47.85 -44.4 -48.3 -44.45 -48.75 -44.45 -49.3 -44.15 -49.8 -43.8 -49.9 -42.8 -49.7 -40.55 -48.25 -40.15 -47.5 -39.65 -46.55 M-46.65 -43.15 L-47.1 -43.85 -47.5 -44.55 -47.35 -44.95 -47.05 -45.35 -46.6 -45.45 -46.2 -45.45 -44.15 -43.15 -45.35 -43.05 -46.65 -43.15 M-44.0 -10.35 Q-45.45 -2.0 -45.35 0.7 -44.9 13.85 -44.3 16.85 L-43.05 21.65 -44.6 22.25 -44.7 22.25 -48.0 23.55 Q-49.25 19.1 -49.7 15.3 L-50.55 4.35 Q-50.85 -2.0 -50.65 -3.65 L-49.95 -12.0 -49.7 -15.1 -46.25 -14.95 -46.0 -15.0 -45.65 -14.9 -43.25 -14.7 -44.0 -10.35 M-74.45 -9.7 L-73.6 -15.75 -73.5 -15.75 -67.95 -15.8 -68.95 -11.55 Q-70.5 -3.85 -69.95 5.2 -69.4 14.2 -66.8 22.85 L-65.55 26.8 -65.85 26.75 -66.0 26.75 -70.5 26.55 -71.9 22.25 Q-74.35 14.1 -75.05 7.35 -75.75 0.65 -74.45 -9.7 M-77.9 22.15 Q-80.15 13.7 -80.95 5.65 -81.75 -2.35 -80.3 -10.55 L-79.35 -15.2 -75.75 -15.55 -76.75 -9.2 Q-78.0 0.3 -77.2 7.2 -76.4 14.1 -74.15 21.7 L-72.65 26.3 -77.0 25.5 -77.9 22.15 M-63.65 25.95 Q-65.25 20.1 -66.05 15.65 -66.75 11.75 -66.8 4.95 -66.85 -1.25 -66.35 -6.05 -66.0 -9.75 -64.75 -14.8 L-64.5 -15.8 -62.95 -15.8 -62.7 -15.85 -62.4 -15.7 -61.75 -15.65 -61.65 -15.65 -61.0 -15.6 -60.75 -15.6 -60.5 -15.65 -60.25 -15.6 -59.55 -15.55 -60.45 -8.4 Q-61.95 3.6 -61.95 6.2 -61.9 9.3 -61.3 13.6 -60.65 17.85 -59.85 20.85 L-58.35 26.45 -58.35 26.5 -59.25 26.65 -63.4 26.9 -63.65 25.95 M-41.6 -11.15 L-41.15 -14.55 -37.3 -14.2 -36.4 -14.2 -36.4 -14.1 -36.4 -14.05 -36.35 -13.9 -36.8 -7.75 -37.35 4.3 -36.7 13.05 -37.2 14.45 Q-38.3 17.1 -40.05 19.3 L-41.05 15.85 -42.05 5.9 -42.45 -2.65 Q-42.4 -5.35 -41.6 -11.15 M-52.65 -10.45 Q-54.25 -1.1 -54.1 2.1 -53.9 6.5 -53.0 12.25 -51.95 18.85 -50.4 24.45 L-50.6 24.5 -55.8 25.95 -56.95 21.5 Q-59.3 11.9 -59.55 7.05 -59.75 2.25 -59.2 -4.15 L-58.55 -10.4 -58.55 -10.45 -58.55 -10.6 -57.55 -15.45 -51.8 -15.2 -52.65 -10.45 M-61.1 30.9 L-57.5 39.2 -58.8 39.35 -63.5 37.5 -63.55 35.8 -62.25 31.1 -61.1 30.9 M-67.4 31.8 L-65.95 31.75 -64.1 38.55 -63.0 39.65 -64.8 39.65 -68.75 38.05 -68.7 36.8 -67.4 31.8 M-74.35 38.15 L-78.2 37.4 -78.3 35.0 -78.05 34.5 -77.1 31.0 -76.6 30.9 -73.95 34.7 -74.35 35.55 -74.35 38.15 M-82.5 35.85 L-82.4 33.3 -81.15 29.2 -80.75 29.1 -78.3 33.75 -78.8 34.9 -78.8 36.5 -82.5 35.85 M-68.25 39.5 L-73.15 38.65 -73.9 37.95 -73.9 35.7 -72.75 31.75 -71.75 32.05 -69.95 37.75 -68.25 39.5 M-70.35 47.8 L-67.6 46.45 -67.15 49.4 -69.95 50.45 -70.35 47.8 M-51.95 37.95 L-52.05 38.0 -55.1 37.35 -57.9 36.85 -58.1 35.65 -56.7 29.9 -55.8 29.5 -51.95 37.95 M-50.45 28.0 L-49.9 27.85 -46.2 35.75 -47.05 36.15 -52.15 34.2 -52.1 31.75 -50.45 28.0 M-51.4 48.35 L-51.25 48.3 -50.6 48.5 -51.05 49.5 Q-51.95 51.95 -51.2 54.6 L-51.9 54.65 -52.4 53.0 Q-53.1 50.4 -51.4 48.35 M-48.05 49.45 Q-49.2 50.4 -48.75 51.8 L-48.1 53.4 -47.4 53.6 -46.9 53.4 -46.65 53.4 -46.95 54.2 -47.65 54.3 Q-49.25 53.65 -49.3 51.95 -49.35 51.0 -49.0 50.2 -48.85 49.7 -48.3 49.5 L-48.05 49.45 M-55.85 50.3 L-55.85 52.85 -55.75 53.85 -56.45 53.7 -56.8 51.25 -56.65 50.3 -55.85 50.3 M-71.15 54.5 L-68.8 55.25 Q-66.75 54.7 -64.85 53.75 L-61.7 52.0 Q-59.6 50.9 -57.35 50.05 L-57.35 51.0 Q-59.4 51.6 -61.25 52.65 L-64.2 54.3 Q-66.4 55.5 -68.85 56.35 L-72.6 55.0 -71.15 54.6 -71.15 54.5 M-85.95 33.3 L-86.0 31.15 -84.5 27.4 -82.35 31.65 -82.9 33.2 -82.9 33.95 -85.95 33.3" fill="#403f35" fill-rule="evenodd" stroke="none"/>
      <path d="M-92.1 -13.4 L-92.25 -14.85 -88.55 -19.75 Q-84.4 -25.15 -82.05 -27.65 L-78.7 -30.35 -76.6 -32.1 -81.65 -25.55 -85.0 -21.1 -87.3 -17.8 -87.35 -17.25 -87.3 -16.75 -86.35 -14.7 -92.1 -13.4 M-60.85 -16.2 L-61.7 -16.3 -62.95 -16.5 -73.5 -16.4 -81.95 -15.55 -85.8 -14.8 -87.0 -17.35 -82.6 -23.1 -75.55 -32.6 -75.4 -33.05 -75.35 -33.1 Q-72.35 -34.6 -70.35 -34.85 L-64.85 -35.2 Q-57.8 -36.0 -52.4 -34.25 L-51.4 -33.8 -50.4 -33.25 -54.15 -28.85 Q-58.1 -23.85 -59.45 -20.95 L-60.45 -19.0 -61.15 -17.25 -60.85 -16.2 M-34.3 -15.3 L-35.9 -14.85 -37.25 -14.85 -46.25 -15.65 -60.2 -16.25 -60.4 -16.65 -60.55 -17.1 -59.4 -19.7 -57.5 -23.45 Q-54.5 -28.65 -49.9 -32.6 -38.25 -29.0 -29.4 -20.75 L-29.2 -19.95 -34.3 -15.3 M-24.55 -40.1 Q-24.55 -41.35 -22.5 -42.7 -20.8 -43.75 -20.3 -43.75 -18.5 -43.75 -17.55 -40.65 L-16.95 -37.5 Q-16.95 -36.8 -17.5 -35.8 -18.2 -34.55 -19.1 -34.55 -20.1 -34.55 -20.95 -35.55 L-21.55 -36.5 -21.4 -37.2 -21.3 -37.5 -21.25 -37.85 -22.65 -39.3 -22.6 -39.45 -22.5 -39.55 -21.85 -39.0 -21.1 -38.3 -20.8 -37.65 -20.25 -37.05 -19.35 -36.3 -19.4 -35.6 -19.3 -35.7 -19.1 -36.45 -19.1 -37.15 Q-19.1 -38.25 -19.35 -39.05 -19.9 -40.65 -20.4 -41.45 L-19.6 -42.05 -19.7 -42.2 -20.95 -41.25 -23.35 -39.2 Q-23.8 -39.2 -24.55 -40.1 M-24.9 -40.65 L-25.35 -41.05 -25.95 -41.7 -28.0 -45.5 -27.0 -46.85 -25.6 -44.4 -24.05 -42.1 -24.45 -41.35 -24.9 -40.65 M-34.4 27.55 L-34.5 27.65 -34.45 26.95 -34.55 26.5 -37.05 23.95 -40.3 20.9 -40.5 20.75 Q-38.05 18.1 -36.6 14.7 -35.4 11.75 -35.05 8.45 -34.8 6.0 -34.8 3.55 -34.8 -0.4 -34.95 -4.35 L-35.5 -12.35 -35.75 -14.25 -34.25 -14.65 -28.75 -19.5 -28.7 -19.55 -28.6 -19.45 -27.65 -18.35 -26.35 -17.0 Q-25.25 -15.55 -24.9 -14.2 -24.75 -13.75 -23.75 -5.5 -23.2 -0.6 -23.35 4.6 L-23.9 9.15 -24.6 13.95 Q-24.95 14.7 -26.0 15.5 L-27.7 16.9 Q-28.25 17.5 -30.45 23.15 L-30.45 23.2 -34.4 27.55 M-29.6 -9.95 L-29.0 -4.2 -28.65 0.95 -28.55 7.0 -28.75 11.4 -28.9 14.55 -27.65 14.9 -26.7 14.0 -26.05 9.5 Q-25.7 6.1 -25.75 2.7 -25.8 -2.3 -26.15 -7.3 L-26.5 -10.2 Q-26.85 -11.75 -27.9 -12.8 L-28.55 -12.8 -29.15 -11.65 -29.6 -10.05 -29.6 -9.95 M-20.3 -17.0 Q-19.5 -17.85 -18.45 -18.0 L-19.1 -16.85 -18.75 -15.85 -18.1 -14.85 -17.6 -14.45 -17.1 -14.25 Q-16.85 -14.2 -17.1 -13.8 -17.4 -13.35 -18.0 -13.25 -18.6 -13.4 -19.1 -13.7 -20.6 -14.7 -20.45 -16.35 L-20.3 -17.0 M-19.5 -4.9 L-20.7 -4.8 Q-21.45 -5.5 -21.8 -6.35 -22.3 -7.55 -22.35 -8.9 L-20.95 -9.7 -20.7 -9.65 Q-21.0 -7.65 -20.75 -6.85 L-19.25 -5.1 -19.5 -4.9 M-15.95 -16.3 L-16.55 -15.25 Q-16.9 -15.0 -17.0 -15.0 L-17.5 -15.3 -18.1 -15.9 -18.35 -16.5 -18.2 -17.0 -17.95 -17.5 -17.5 -18.0 -16.85 -17.8 -17.85 -17.1 -17.9 -16.8 -17.9 -16.4 -17.6 -15.85 -17.05 -15.45 -15.95 -16.3 M-18.2 -6.2 L-18.75 -5.6 -18.85 -5.7 -19.25 -5.9 -19.6 -6.25 Q-20.65 -7.6 -20.15 -9.2 L-20.1 -9.5 -19.6 -9.35 -18.3 -8.9 -19.95 -8.65 -20.05 -8.3 -20.05 -7.85 -19.95 -7.45 -19.5 -6.8 -19.2 -6.55 -17.95 -6.55 -18.2 -6.2 M-4.85 -1.55 Q-4.85 0.25 -5.65 1.5 -6.4 2.8 -7.5 2.8 -8.65 2.8 -9.4 1.5 -10.2 0.25 -10.2 -1.55 -10.2 -3.35 -9.4 -4.6 -8.65 -5.9 -7.5 -5.9 -6.4 -5.9 -5.65 -4.6 -4.85 -3.35 -4.85 -1.55 M-5.85 -1.45 Q-5.85 -1.95 -6.0 -2.25 L-6.4 -2.55 -6.85 -2.25 -7.0 -1.45 -6.85 -0.7 -6.4 -0.4 Q-6.2 -0.4 -6.0 -0.7 -5.85 -1.0 -5.85 -1.45 M10.2 27.95 L10.55 28.4 10.9 29.45 10.75 30.25 10.45 30.75 9.95 31.35 -3.95 28.6 -4.05 28.3 -2.8 27.6 -2.45 27.1 -2.3 26.5 -2.2 25.9 -2.45 25.1 -3.3 24.4 -2.25 24.0 10.2 27.95 M-0.6 15.9 L-1.7 17.15 -1.85 14.85 -1.7 12.85 -1.35 11.45 -0.65 10.1 -0.6 10.1 Q-0.15 10.55 -0.05 10.95 L0.3 12.15 Q0.4 12.9 0.1 14.5 0.0 15.15 -0.6 15.9 M-3.3 9.3 L-1.2 9.5 -2.05 11.55 -2.25 12.7 -2.4 14.0 -2.4 15.75 -2.25 17.7 -2.2 17.75 -2.25 17.75 -4.5 17.35 -5.1 15.8 -5.15 13.95 -4.75 12.6 -4.25 11.1 -3.3 9.3 M-89.25 22.4 L-88.95 21.3 -87.9 21.1 Q-84.15 24.0 -79.9 25.35 -73.15 27.5 -65.95 27.4 -62.55 27.8 -59.15 27.25 -54.65 26.6 -50.4 25.1 L-44.35 22.85 -40.7 21.4 -37.5 24.4 -35.1 26.85 -35.25 28.25 Q-40.15 32.85 -45.8 35.55 L-49.65 27.35 -50.7 27.5 -52.6 31.8 -52.3 34.6 -47.65 36.4 -49.1 37.0 -51.55 37.85 -53.8 33.0 -55.65 28.95 -56.35 29.25 -57.05 29.55 -58.5 35.85 -60.8 30.5 -61.7 30.55 -62.6 30.8 -63.95 35.55 -63.9 37.75 -65.65 31.35 -67.7 31.45 -69.15 36.7 -69.2 37.95 -71.25 31.7 -73.15 31.35 -73.75 34.15 -76.5 30.4 -77.3 30.55 -78.1 33.1 -80.55 28.55 -81.45 28.85 -82.15 31.05 -84.45 26.65 -85.75 29.45 -87.95 26.25 -89.25 22.4 M-17.3 38.8 L-17.7 37.95 -17.15 38.0 -16.3 37.85 -15.4 37.25 -15.05 36.8 Q-14.9 36.65 -14.85 36.1 L-14.85 35.5 -15.05 35.0 -15.4 34.6 -15.05 34.5 -4.35 41.35 -3.85 42.4 -3.85 42.45 -4.15 43.5 -5.0 44.45 -5.85 44.35 Q-11.55 41.6 -17.3 38.8 M-59.85 39.5 L-62.35 39.65 -63.65 38.35 -63.85 37.85 -59.85 39.5 M-65.85 39.65 L-67.55 39.55 -68.6 38.6 -65.85 39.65 M-53.85 38.45 L-57.05 39.15 -57.9 37.35 -53.85 38.45" fill="#8e6a4f" fill-rule="evenodd" stroke="none"/>
      <path d="M-41.8 -50.6 L-39.85 -50.85 -39.4 -50.45 -38.85 -49.15 -38.95 -48.5 -39.15 -48.0 -39.6 -47.4 -40.3 -48.5 -40.6 -48.85 -41.65 -49.6 -41.8 -50.6 M-73.55 -35.05 L-73.4 -34.7 -75.3 -33.85 -73.55 -35.05 M-76.0 -33.3 L-76.3 -32.65 -76.55 -32.75 -76.75 -32.75 -76.0 -33.3 M-28.15 -38.35 L-25.6 -40.6 -24.8 -40.3 -24.8 -39.9 -24.1 -39.35 -23.45 -38.95 -22.9 -39.2 -22.45 -38.85 -21.5 -37.95 -22.25 -34.9 -23.65 -35.4 Q-25.1 -35.9 -25.7 -36.35 L-27.3 -37.6 -28.15 -38.35 M-12.2 -9.8 L-11.65 -9.75 -13.4 -9.6 -12.2 -9.8" fill="#566167" fill-rule="evenodd" stroke="none"/>
      <path d="M-47.75 46.3 Q-61.65 46.3 -72.55 39.45 L-68.4 40.15 -68.0 40.05 -67.95 40.05 -67.55 40.2 -65.85 40.3 -65.4 40.15 -65.05 40.25 -64.8 40.3 -63.0 40.3 -62.65 40.2 -62.3 40.3 -59.85 40.15 -59.4 40.0 -59.3 39.9 -59.05 40.0 -58.75 40.0 -57.4 39.85 -57.15 39.75 -56.95 39.8 -53.7 39.1 -53.3 38.9 -53.2 38.5 -53.2 38.35 -52.4 38.55 -51.95 38.65 -51.8 38.6 -51.6 38.5 -51.35 38.45 -48.85 37.6 -47.4 37.05 -47.1 36.8 -47.0 36.8 -46.75 36.75 -45.9 36.35 -45.7 36.2 -45.5 36.15 Q-41.2 34.05 -37.25 30.9 L-37.3 31.0 -37.25 31.4 -37.0 31.7 -31.65 35.0 -31.3 35.1 Q-30.8 35.15 -28.55 36.25 L-28.5 36.25 -26.15 37.45 -25.8 37.55 -25.5 37.45 -23.05 36.05 -21.15 36.4 -20.85 36.35 -20.7 36.3 -19.5 37.05 Q-31.65 46.3 -47.75 46.3 M-15.2 33.3 L-15.9 33.95 -19.05 32.05 -19.25 30.3 -18.4 29.05 -18.3 28.7 -18.4 28.35 -18.7 28.1 -24.05 25.4 -25.8 24.55 -19.4 26.35 -13.05 27.45 -10.1 27.55 Q-12.35 30.55 -15.2 33.3 M-80.6 45.55 L-72.6 45.8 -71.8 53.45 -74.7 54.9 -75.15 50.9 -75.7 46.8 -79.3 46.65 -82.8 46.6 -80.6 45.55 M-86.15 56.9 L-87.25 48.95 -80.5 48.95 -79.45 57.15 -86.15 56.9 M-85.15 50.7 L-84.75 55.35 -81.45 55.55 -81.95 50.7 -85.15 50.7" fill="#675742" fill-rule="evenodd" stroke="none"/>
      <path d="M-70.3 52.7 L-71.15 53.3 -71.55 49.3 -72.05 45.25 -75.7 44.95 -79.35 44.7 -77.7 44.05 -71.05 44.5 -70.3 52.7 M-79.75 48.25 L-86.15 48.25 -84.0 47.05 -76.4 47.3 -75.55 55.45 -78.8 57.15 -79.75 48.25" fill="#433e39" fill-rule="evenodd" stroke="none"/>
    </g>
  </defs>
</svg>
