<?xml version="1.0" encoding="UTF-8"?>
<svg id="Layer_1" xmlns="http://www.w3.org/2000/svg" version="1.1" xmlns:ffdec="https://www.free-decompiler.com/flash" viewBox="0 0 31.6 35.3">
  <!-- Generator: Adobe Illustrator 29.6.1, SVG Export Plug-In . SVG Version: 2.1.1 Build 9)  -->
  <defs>
    <style>
      .st0 {
        fill-rule: evenodd;
      }
    </style>
  </defs>
  <g id="Layer_11" data-name="Layer_1" ffdec:objectType="shape">
    <g>
      <path class="st0" d="M15.8,0L.5,8.8v17.7l15.3,8.8,15.3-8.8V8.8L15.8,0ZM28.75,25.1l-12.95,7.55-12.95-7.55v-14.9L15.8,2.65l12.95,7.55v14.9Z"/>
      <g>
        <path d="M14.55,20.55l.1.05h2.2l.1-.05.15-.2.8-4.6.9-5.35c0-.9-.32-1.63-.95-2.2-.6-.67-1.33-1-2.2-1s-1.6.33-2.2,1c-.63.57-.95,1.3-.95,2.2l1.9,9.95.15.2Z"/>
        <path d="M17.8,22.75c-.57-.6-1.28-.9-2.15-.9s-1.6.32-2.2.95c-.63.53-.95,1.27-.95,2.2,0,.87.32,1.62.95,2.25s1.33.9,2.2.9,1.6-.3,2.2-.9c.63-.63.95-1.38.95-2.25,0-.93-.32-1.67-.95-2.2l-.05-.05Z"/>
      </g>
    </g>
  </g>
</svg>