<?xml version="1.0" encoding="UTF-8" standalone="no"?>
<svg xmlns:ffdec="https://www.free-decompiler.com/flash" xmlns:xlink="http://www.w3.org/1999/xlink" ffdec:objectType="frame" height="107.5px" width="116.45px" xmlns="http://www.w3.org/2000/svg">
  <g transform="matrix(1.0, 0.0, 0.0, 1.0, 58.75, 54.25)">
    <use ffdec:characterId="159" height="107.5" transform="matrix(1.0, 0.0, 0.0, 1.0, -58.75, -54.25)" width="116.45" xlink:href="#shape0"/>
  </g>
  <defs>
    <g id="shape0" transform="matrix(1.0, 0.0, 0.0, 1.0, 58.75, 54.25)">
      <path d="M-0.5 -50.85 Q-3.1 -50.85 -7.75 -49.8 -14.05 -48.2 -17.3 -45.6 -23.0 -40.6 -24.1 -36.65 L-53.8 -36.65 -0.5 48.1 52.75 -36.65 22.85 -36.65 Q21.8 -40.8 16.1 -45.6 L13.05 -47.55 9.95 -44.7 9.55 -40.35 3.2 -36.4 3.85 -32.75 6.0 -31.2 6.7 -29.0 8.85 -27.05 12.6 -26.4 14.3 -24.45 11.7 -26.15 9.1 -26.15 9.1 -24.45 8.2 -26.4 6.0 -28.1 5.35 -30.95 2.95 -32.3 2.35 -34.45 1.25 -34.9 -2.5 -30.95 -3.55 -27.5 -5.75 -25.95 -6.85 -24.0 -8.8 -23.55 -10.6 -20.5 -9.25 -23.75 -9.9 -24.85 -12.1 -25.95 -9.25 -25.3 -8.6 -24.2 -7.5 -24.45 -6.65 -25.95 -4.45 -28.1 -4.25 -31.85 -0.95 -35.8 0.35 -37.95 7.6 -41.5 7.8 -44.5 6.9 -46.25 7.35 -49.55 Q2.1 -50.85 -0.3 -50.85 L-0.5 -50.85 M-2.7 -53.25 L-0.3 -53.0 -0.1 -53.0 8.0 -51.75 9.75 -51.3 9.3 -47.35 9.3 -47.1 12.6 -50.15 13.9 -49.55 Q15.45 -48.9 17.6 -47.1 22.85 -42.75 24.4 -38.8 L56.7 -38.8 -0.5 52.25 -57.75 -38.8 -25.6 -38.8 Q-24.1 -43.0 -18.65 -47.1 -13.4 -51.75 -2.7 -52.8 L-2.7 -53.25 M11.7 -6.5 L9.75 -6.75 Q6.45 -7.6 5.2 -10.0 L3.4 -13.75 Q2.95 -14.8 3.4 -15.45 L4.95 -18.1 6.45 -19.35 8.0 -20.05 8.2 -20.05 13.25 -19.6 16.7 -18.3 Q18.25 -17.2 18.25 -11.75 18.25 -9.8 18.05 -9.35 17.85 -8.25 15.9 -7.4 14.1 -6.5 11.7 -6.5 M15.2 -30.5 L16.1 -31.6 Q17.4 -33.35 17.6 -34.45 17.6 -36.2 18.95 -39.25 L19.35 -40.15 19.55 -40.15 18.5 -35.8 Q18.5 -34.45 19.15 -33.55 L19.8 -33.2 20.2 -33.8 20.2 -36.65 20.65 -34.0 20.45 -33.55 Q20.45 -32.3 20.9 -31.6 22.6 -29.25 20.45 -27.5 L20.2 -26.85 20.65 -24.2 Q21.1 -23.1 20.65 -22.05 L21.35 -18.3 Q21.8 -16.75 23.5 -14.15 L24.2 -23.75 23.75 -30.95 42.75 -30.95 -0.5 37.6 -43.8 -30.95 -24.8 -30.95 Q-25.2 -27.5 -25.2 -23.75 L-24.55 -14.15 Q-23.0 -16.75 -22.55 -18.3 L-21.7 -22.45 -21.95 -21.6 -22.15 -23.3 -21.7 -26.85 -21.95 -27.5 Q-23.2 -29.25 -22.55 -31.2 L-22.4 -31.4 Q-21.7 -32.5 -21.95 -33.55 -22.15 -34.25 -21.7 -35.95 L-21.7 -34.25 -21.5 -33.8 -21.05 -33.2 Q-20.7 -33.35 -20.4 -33.55 -19.7 -34.7 -19.95 -35.95 L-20.85 -39.5 -20.85 -40.15 Q-19.1 -36.65 -19.1 -35.15 -18.9 -32.95 -16.9 -30.95 L-16.7 -30.75 Q-17.55 -30.95 -18.45 -31.85 L-19.1 -32.75 -19.55 -33.2 -19.95 -32.75 Q-21.7 -31.4 -21.7 -30.1 -21.7 -28.1 -20.6 -27.65 L-20.6 -27.3 -21.5 -23.1 Q-21.5 -16.55 -22.4 -13.75 -23.45 -10.7 -25.0 -7.85 L-25.0 -6.3 Q-25.0 -4.75 -24.1 -3.65 L-21.25 0.05 -15.35 -0.15 -16.25 -3.45 -13.4 -0.8 -11.65 7.25 -8.2 8.35 -8.4 2.85 -6.4 3.75 -6.4 8.75 -1.6 9.0 -1.4 4.2 0.35 4.2 0.35 9.0 5.2 8.75 5.2 3.75 7.15 2.85 6.9 8.35 10.65 7.25 12.15 -0.8 15.2 -3.45 14.3 -0.15 20.2 0.05 22.85 -3.65 Q23.95 -5.2 23.95 -6.3 L23.75 -7.85 Q22.15 -10.7 21.1 -13.75 20.45 -15.9 20.45 -22.05 L19.15 -27.05 19.35 -27.9 Q21.35 -29.25 19.8 -31.6 L18.7 -32.95 18.25 -33.2 17.6 -32.75 Q16.95 -31.4 15.65 -30.75 L15.2 -30.5 M-20.15 2.25 L-0.5 33.45 19.15 2.25 13.9 2.0 12.35 8.75 11.25 9.2 7.6 10.3 7.35 10.55 7.15 10.55 4.75 11.4 4.75 11.0 -3.8 11.15 -5.75 11.0 -5.75 11.4 -8.2 10.55 -8.6 10.55 -8.8 10.3 -13.65 8.75 -14.95 2.0 -20.15 2.25 M26.15 -28.8 L26.35 -23.75 25.25 -9.55 25.7 -8.7 25.9 -8.45 38.75 -28.8 26.15 -28.8 M11.7 -8.7 Q13.9 -8.7 15.0 -9.35 L16.1 -10.0 16.1 -11.75 Q16.1 -15.05 15.2 -16.75 L13.05 -17.4 8.0 -17.85 6.45 -16.35 5.35 -14.6 6.9 -11.05 Q8.4 -8.9 10.2 -8.9 L11.7 -8.7 M-12.95 -6.5 Q-15.15 -6.5 -16.9 -7.4 -18.9 -8.25 -19.3 -9.35 L-19.3 -11.75 Q-19.3 -17.2 -18.0 -18.3 L-14.25 -19.6 -9.45 -20.05 -9.25 -20.05 Q-8.4 -20.05 -7.75 -19.35 L-6.2 -18.1 -4.45 -15.45 Q-4.0 -14.8 -4.45 -13.75 L-6.2 -10.0 Q-7.75 -7.6 -10.8 -6.75 L-12.95 -6.5 M-39.8 -28.8 L-26.95 -8.45 -26.95 -8.7 -26.5 -9.55 -27.4 -23.75 -27.2 -28.8 -39.8 -28.8 M-16.5 -16.75 Q-17.1 -14.15 -17.1 -11.75 L-17.1 -10.0 -16.05 -9.35 Q-14.95 -8.7 -12.95 -8.7 L-11.4 -8.7 Q-9.0 -9.55 -8.2 -11.05 L-6.4 -14.6 -7.75 -16.35 -9.25 -17.85 -14.05 -17.4 -16.5 -16.75 M-0.5 -11.3 L-0.3 -11.3 -0.1 -11.95 0.1 -12.2 0.35 -11.95 Q1.45 -10.7 2.35 -7.6 L2.75 -3.65 Q2.75 -2.75 2.35 -2.75 L1.45 -3.0 -0.5 -4.35 -0.95 -4.1 -2.7 -2.75 -3.1 -2.6 Q-3.55 -2.6 -3.55 -3.2 -3.55 -8.45 -1.6 -11.75 L-1.15 -12.2 -0.7 -11.75 -0.5 -11.3 M-0.5 -9.1 Q-1.15 -7.85 -1.15 -6.3 L-0.5 -6.5 0.1 -6.3 0.1 -7.15 -0.3 -9.1 -0.5 -9.1" fill="#000000" fill-rule="evenodd" stroke="none"/>
      <path d="M-0.5 -50.85 L-0.3 -50.85 Q2.1 -50.85 7.35 -49.55 L6.9 -46.25 7.8 -44.5 7.6 -41.5 0.35 -37.95 -0.95 -35.8 -4.25 -31.85 -4.45 -28.1 -6.65 -25.95 -7.5 -24.45 -8.6 -24.2 -9.25 -25.3 -12.1 -25.95 -9.9 -24.85 -9.25 -23.75 -10.6 -20.5 -8.8 -23.55 -6.85 -24.0 -5.75 -25.95 -3.55 -27.5 -2.5 -30.95 1.25 -34.9 2.35 -34.45 2.95 -32.3 5.35 -30.95 6.0 -28.1 8.2 -26.4 9.1 -24.45 9.1 -26.15 11.7 -26.15 14.3 -24.45 12.6 -26.4 8.85 -27.05 6.7 -29.0 6.0 -31.2 3.85 -32.75 3.2 -36.4 9.55 -40.35 9.95 -44.7 13.05 -47.55 16.1 -45.6 Q21.8 -40.8 22.85 -36.65 L52.75 -36.65 -0.5 48.1 -53.8 -36.65 -24.1 -36.65 Q-23.0 -40.6 -17.3 -45.6 -14.05 -48.2 -7.75 -49.8 -3.1 -50.85 -0.5 -50.85 M15.2 -30.5 L15.65 -30.75 Q16.95 -31.4 17.6 -32.75 L18.25 -33.2 18.7 -32.95 19.8 -31.6 Q21.35 -29.25 19.35 -27.9 L19.15 -27.05 20.45 -22.05 Q20.45 -15.9 21.1 -13.75 22.15 -10.7 23.75 -7.85 L23.95 -6.3 Q23.95 -5.2 22.85 -3.65 L20.2 0.05 14.3 -0.15 15.2 -3.45 12.15 -0.8 10.65 7.25 6.9 8.35 7.15 2.85 5.2 3.75 5.2 8.75 0.35 9.0 0.35 4.2 -1.4 4.2 -1.6 9.0 -6.4 8.75 -6.4 3.75 -8.4 2.85 -8.2 8.35 -11.65 7.25 -13.4 -0.8 -16.25 -3.45 -15.35 -0.15 -21.25 0.05 -24.1 -3.65 Q-25.0 -4.75 -25.0 -6.3 L-25.0 -7.85 Q-23.45 -10.7 -22.4 -13.75 -21.5 -16.55 -21.5 -23.1 L-20.6 -27.3 -20.6 -27.65 Q-21.7 -28.1 -21.7 -30.1 -21.7 -31.4 -19.95 -32.75 L-19.55 -33.2 -19.1 -32.75 -18.45 -31.85 Q-17.55 -30.95 -16.7 -30.75 L-16.9 -30.95 Q-18.9 -32.95 -19.1 -35.15 -19.1 -36.65 -20.85 -40.15 L-20.85 -39.5 -19.95 -35.95 Q-19.7 -34.7 -20.4 -33.55 -20.7 -33.35 -21.05 -33.2 L-21.5 -33.8 -21.7 -34.25 -21.7 -35.95 Q-22.15 -34.25 -21.95 -33.55 -21.7 -32.5 -22.4 -31.4 L-22.55 -31.2 Q-23.2 -29.25 -21.95 -27.5 L-21.7 -26.85 -22.15 -23.3 -21.95 -21.6 -21.7 -22.45 -22.55 -18.3 Q-23.0 -16.75 -24.55 -14.15 L-25.2 -23.75 Q-25.2 -27.5 -24.8 -30.95 L-43.8 -30.95 -0.5 37.6 42.75 -30.95 23.75 -30.95 24.2 -23.75 23.5 -14.15 Q21.8 -16.75 21.35 -18.3 L20.65 -22.05 Q21.1 -23.1 20.65 -24.2 L20.2 -26.85 20.45 -27.5 Q22.6 -29.25 20.9 -31.6 20.45 -32.3 20.45 -33.55 L20.65 -34.0 20.2 -36.65 20.2 -33.8 19.8 -33.2 19.15 -33.55 Q18.5 -34.45 18.5 -35.8 L19.55 -40.15 19.35 -40.15 18.95 -39.25 Q17.6 -36.2 17.6 -34.45 17.4 -33.35 16.1 -31.6 L15.2 -30.5 M11.7 -6.5 Q14.1 -6.5 15.9 -7.4 17.85 -8.25 18.05 -9.35 18.25 -9.8 18.25 -11.75 18.25 -17.2 16.7 -18.3 L13.25 -19.6 8.2 -20.05 8.0 -20.05 6.45 -19.35 4.95 -18.1 3.4 -15.45 Q2.95 -14.8 3.4 -13.75 L5.2 -10.0 Q6.45 -7.6 9.75 -6.75 L11.7 -6.5 M-12.95 -6.5 L-10.8 -6.75 Q-7.75 -7.6 -6.2 -10.0 L-4.45 -13.75 Q-4.0 -14.8 -4.45 -15.45 L-6.2 -18.1 -7.75 -19.35 Q-8.4 -20.05 -9.25 -20.05 L-9.45 -20.05 -14.25 -19.6 -18.0 -18.3 Q-19.3 -17.2 -19.3 -11.75 L-19.3 -9.35 Q-18.9 -8.25 -16.9 -7.4 -15.15 -6.5 -12.95 -6.5 M-0.5 -11.3 L-0.7 -11.75 -1.15 -12.2 -1.6 -11.75 Q-3.55 -8.45 -3.55 -3.2 -3.55 -2.6 -3.1 -2.6 L-2.7 -2.75 -0.95 -4.1 -0.5 -4.35 1.45 -3.0 2.35 -2.75 Q2.75 -2.75 2.75 -3.65 L2.35 -7.6 Q1.45 -10.7 0.35 -11.95 L0.1 -12.2 -0.1 -11.95 -0.3 -11.3 -0.5 -11.3" fill="#f6cd63" fill-rule="evenodd" stroke="none"/>
      <path d="M-2.7 -53.25 L-2.7 -52.8 Q-13.4 -51.75 -18.65 -47.1 -24.1 -43.0 -25.6 -38.8 L-57.75 -38.8 -0.5 52.25 56.7 -38.8 24.4 -38.8 Q22.85 -42.75 17.6 -47.1 15.45 -48.9 13.9 -49.55 L12.6 -50.15 9.3 -47.1 9.3 -47.35 9.75 -51.3 8.0 -51.75 -0.1 -53.0 -0.3 -53.0 -2.7 -53.25 M11.7 -8.7 L10.2 -8.9 Q8.4 -8.9 6.9 -11.05 L5.35 -14.6 6.45 -16.35 8.0 -17.85 13.05 -17.4 15.2 -16.75 Q16.1 -15.05 16.1 -11.75 L16.1 -10.0 15.0 -9.35 Q13.9 -8.7 11.7 -8.7 M26.15 -28.8 L38.75 -28.8 25.9 -8.45 25.7 -8.7 25.25 -9.55 26.35 -23.75 26.15 -28.8 M-20.15 2.25 L-14.95 2.0 -13.65 8.75 -8.8 10.3 -8.6 10.55 -8.2 10.55 -5.75 11.4 -5.75 11.0 -3.8 11.15 4.75 11.0 4.75 11.4 7.15 10.55 7.35 10.55 7.6 10.3 11.25 9.2 12.35 8.75 13.9 2.0 19.15 2.25 -0.5 33.45 -20.15 2.25 M-16.5 -16.75 L-14.05 -17.4 -9.25 -17.85 -7.75 -16.35 -6.4 -14.6 -8.2 -11.05 Q-9.0 -9.55 -11.4 -8.7 L-12.95 -8.7 Q-14.95 -8.7 -16.05 -9.35 L-17.1 -10.0 -17.1 -11.75 Q-17.1 -14.15 -16.5 -16.75 M-39.8 -28.8 L-27.2 -28.8 -27.4 -23.75 -26.5 -9.55 -26.95 -8.7 -26.95 -8.45 -39.8 -28.8 Z" fill="none" stroke="#000000" stroke-linecap="round" stroke-linejoin="round" stroke-width="2.0"/>
    </g>
  </defs>
</svg>
