<?xml version="1.0" encoding="UTF-8" standalone="no"?>
<svg xmlns:ffdec="https://www.free-decompiler.com/flash" xmlns:xlink="http://www.w3.org/1999/xlink" ffdec:objectType="shape" height="26.9px" width="29.1px" xmlns="http://www.w3.org/2000/svg">
  <g transform="matrix(1.0, 0.0, 0.0, 1.0, 14.55, 13.45)">
    <path d="M0.05 -2.15 L-0.15 -1.45 0.05 -1.5 0.15 -1.45 0.15 -1.65 0.1 -2.15 0.05 -2.15 M0.05 -2.7 L0.1 -2.7 0.15 -2.85 0.15 -2.9 0.25 -2.85 0.75 -1.75 0.85 -0.75 0.75 -0.55 0.5 -0.6 0.05 -0.95 -0.1 -0.9 -0.5 -0.55 -0.6 -0.5 -0.75 -0.65 Q-0.75 -1.95 -0.25 -2.8 L-0.15 -2.9 0.0 -2.8 0.05 -2.7 M-3.1 -1.5 L-4.05 -1.7 -4.65 -2.2 -4.65 -2.8 Q-4.65 -4.15 -4.35 -4.45 L-3.4 -4.75 -2.2 -4.85 -2.15 -4.85 -1.8 -4.7 -1.4 -4.4 -0.95 -3.7 -0.95 -3.3 -1.4 -2.35 Q-1.8 -1.75 -2.55 -1.55 L-3.1 -1.5 M-3.35 -3.95 L-3.75 -3.85 -3.85 -2.8 -3.85 -2.5 -3.7 -2.4 -3.75 -2.4 -3.1 -2.3 -2.75 -2.3 -2.1 -2.75 -1.75 -3.5 -2.25 -4.05 -3.35 -3.95 M-6.9 -6.8 L-9.35 -6.8 -6.75 -2.7 -6.95 -5.75 -6.9 -6.8 M-3.8 0.9 L-4.45 0.95 0.05 8.05 4.5 0.95 3.8 0.9 3.5 2.4 3.45 2.5 3.35 2.55 3.05 2.7 2.15 2.95 2.1 3.0 2.0 3.05 1.95 3.05 1.4 3.25 1.25 3.25 1.15 3.15 -0.8 3.2 -1.1 3.15 -1.2 3.25 -1.35 3.25 -1.95 3.05 -2.0 3.05 -2.15 2.95 -2.2 2.95 -3.35 2.6 -3.45 2.5 -3.5 2.4 -3.8 0.9 M3.1 -2.3 L3.75 -2.4 3.8 -2.4 3.9 -2.5 3.9 -2.8 3.75 -3.85 3.4 -3.95 2.25 -4.05 1.95 -3.8 1.75 -3.5 2.1 -2.75 2.1 -2.7 Q2.4 -2.35 2.7 -2.35 L2.75 -2.35 3.1 -2.3 M3.05 -1.5 L2.6 -1.55 Q1.75 -1.75 1.45 -2.35 L1.0 -3.3 1.0 -3.7 1.4 -4.4 1.75 -4.7 2.15 -4.85 3.45 -4.75 4.3 -4.45 Q4.7 -4.15 4.7 -2.8 L4.65 -2.2 4.1 -1.7 3.05 -1.5 M9.4 -6.8 L6.95 -6.8 7.0 -5.75 6.75 -2.6 9.4 -6.8 M0.05 -12.55 L-1.8 -12.3 Q-3.35 -11.9 -4.15 -11.25 -5.6 -10.0 -5.85 -9.0 L-13.3 -9.0 0.05 12.2 13.35 -9.0 5.85 -9.0 Q5.6 -10.05 4.15 -11.25 L3.4 -11.75 2.65 -11.05 2.55 -9.95 0.95 -8.95 1.1 -8.05 1.65 -7.65 1.8 -7.1 2.35 -6.6 3.3 -6.45 3.7 -5.95 3.05 -6.4 2.4 -6.4 2.4 -5.95 2.2 -6.45 1.65 -6.9 1.5 -7.6 0.9 -7.95 0.75 -8.45 0.45 -8.6 -0.45 -7.6 -0.75 -6.75 -1.3 -6.35 -1.55 -5.85 -2.05 -5.75 -2.5 -5.0 -2.15 -5.8 -2.3 -6.05 -2.85 -6.35 -2.15 -6.2 -2.0 -5.9 -1.7 -5.95 -1.5 -6.35 -0.95 -6.9 -0.9 -7.8 -0.1 -8.8 0.25 -9.35 2.05 -10.25 2.1 -11.0 1.85 -11.4 2.0 -12.25 0.1 -12.55 0.05 -12.55 M3.95 -7.5 L4.15 -7.75 4.55 -8.45 Q4.55 -8.9 4.9 -9.65 L5.0 -9.9 5.05 -9.9 4.75 -8.8 4.95 -8.25 5.1 -8.15 5.2 -8.3 5.2 -9.0 5.3 -8.35 5.25 -8.25 5.35 -7.75 Q5.8 -7.15 5.25 -6.75 L5.2 -6.55 5.3 -5.9 5.3 -5.35 5.5 -4.45 Q5.6 -4.05 6.0 -3.4 L6.2 -5.8 6.1 -7.6 10.85 -7.6 0.05 9.55 -10.8 -7.6 -6.05 -7.6 -6.15 -5.8 -6.0 -3.4 Q-5.6 -4.05 -5.5 -4.45 L-5.25 -5.45 -5.35 -5.25 -5.4 -5.7 -5.25 -6.55 -5.35 -6.75 Q-5.65 -7.15 -5.5 -7.65 L-5.45 -7.7 Q-5.25 -8.0 -5.35 -8.25 L-5.25 -8.85 -5.25 -8.4 -5.2 -8.3 -5.1 -8.15 -4.95 -8.25 Q-4.75 -8.55 -4.85 -8.85 L-5.05 -9.75 -5.05 -9.9 -4.6 -8.65 -4.05 -7.6 -4.0 -7.55 Q-4.25 -7.6 -4.45 -7.8 L-4.6 -8.05 -4.75 -8.15 -4.85 -8.05 -5.25 -7.4 -5.0 -6.75 -5.0 -6.7 -5.2 -5.65 Q-5.2 -4.0 -5.45 -3.3 L-6.1 -1.8 -6.1 -1.45 -5.85 -0.75 -5.15 0.15 -3.7 0.1 -3.9 -0.7 -3.2 -0.05 -2.75 1.95 -1.9 2.25 -1.95 0.85 -1.45 1.1 -1.45 2.35 -0.25 2.4 -0.2 1.2 0.25 1.2 0.25 2.4 1.45 2.35 1.45 1.1 1.95 0.85 1.85 2.25 2.8 1.95 3.2 -0.05 3.95 -0.7 3.7 0.1 5.2 0.15 5.85 -0.75 6.15 -1.45 6.1 -1.8 5.4 -3.3 Q5.25 -3.85 5.25 -5.35 L4.95 -6.6 5.0 -6.85 Q5.5 -7.15 5.1 -7.75 L4.8 -8.1 4.7 -8.15 4.55 -8.05 4.05 -7.55 3.95 -7.5 M-4.65 -11.8 Q-3.35 -13.0 -0.75 -13.3 L-0.6 -13.4 -0.5 -13.4 0.15 -13.35 2.2 -13.05 2.65 -12.9 2.8 -12.8 2.85 -12.65 2.8 -12.25 3.15 -12.6 3.25 -12.65 3.4 -12.6 3.7 -12.45 3.75 -12.45 4.7 -11.8 Q5.95 -10.75 6.4 -9.8 L14.3 -9.8 14.5 -9.75 14.55 -9.6 14.55 -9.4 0.25 13.35 0.1 13.45 -0.05 13.45 -0.2 13.35 -14.5 -9.4 -14.55 -9.6 -14.45 -9.75 -14.3 -9.8 -6.4 -9.8 Q-6.0 -10.85 -4.65 -11.8" fill="#f5cb5b" fill-opacity="0.29803923" fill-rule="evenodd" stroke="none"/>
    <path d="M3.95 -7.5 L4.35 -7.75 4.55 -8.05 Q4.9 -8.25 5.1 -7.75 L5.25 -7.0 5.15 -6.65 5.3 -4.05 Q5.3 -3.15 5.7 -2.45 L6.15 -1.45 Q5.95 -0.55 5.2 0.15 L3.7 0.1 3.95 -0.7 3.2 -0.05 2.8 1.95 1.85 2.25 1.95 0.85 1.45 1.1 1.45 2.35 0.25 2.4 0.25 1.2 -0.2 1.2 -0.25 2.4 -1.45 2.35 -1.45 1.1 -1.95 0.85 -1.9 2.25 -2.75 1.95 -3.2 -0.05 -3.9 -0.7 -3.7 0.1 -5.15 0.15 Q-5.95 -0.55 -6.1 -1.45 L-5.4 -3.65 -5.2 -4.85 -5.0 -6.7 -5.25 -7.4 -4.85 -8.05 -4.75 -8.15 -4.0 -7.55 Q-4.6 -8.15 -4.65 -8.8 -4.65 -9.35 -5.05 -9.9 -4.55 -8.85 -5.1 -8.15 L-5.2 -8.4 -5.25 -8.85 -5.4 -7.15 -5.25 -6.55 -5.3 -5.35 -5.25 -5.45 Q-5.45 -4.35 -6.0 -3.4 -6.2 -5.45 -6.05 -7.6 L-10.8 -7.6 0.05 9.55 10.85 -7.6 6.1 -7.6 6.0 -3.4 Q5.15 -4.95 5.25 -6.75 5.8 -7.2 5.45 -7.8 5.3 -8.05 5.3 -8.35 L5.2 -9.0 5.0 -8.2 4.95 -8.25 4.85 -8.8 4.95 -9.7 Q4.65 -8.5 3.95 -7.5 M0.05 -12.55 L2.0 -12.25 1.85 -11.4 2.1 -11.0 2.05 -10.25 0.25 -9.35 -0.9 -7.8 -0.95 -6.9 -1.7 -5.95 -2.8 -6.3 -2.3 -6.05 -2.5 -5.0 -2.05 -5.75 -1.55 -5.85 -0.75 -6.75 0.45 -8.6 0.9 -7.95 1.5 -7.6 1.65 -6.9 2.4 -5.95 2.4 -6.4 3.05 -6.4 3.7 -5.95 3.3 -6.45 2.35 -6.6 1.8 -7.1 1.65 -7.65 1.1 -8.05 0.95 -8.95 2.55 -9.95 2.65 -11.05 3.4 -11.75 Q5.15 -10.75 5.85 -9.0 L13.35 -9.0 0.05 12.2 -13.3 -9.0 -5.85 -9.0 Q-4.9 -10.95 -3.15 -11.8 L-1.8 -12.3 -0.7 -12.4 -0.25 -12.5 0.05 -12.55 M3.05 -1.5 L4.1 -1.7 4.5 -1.9 Q4.9 -2.55 4.7 -3.35 L4.5 -4.2 Q3.2 -5.35 1.75 -4.7 1.1 -4.3 0.95 -3.5 1.35 -2.05 2.6 -1.55 L3.05 -1.5 M-3.1 -1.5 Q-2.0 -1.45 -1.45 -2.4 L-0.9 -3.5 -1.5 -4.3 -2.15 -4.85 -4.35 -4.45 -4.6 -3.35 -4.65 -2.2 -4.05 -1.7 -3.6 -1.55 -3.1 -1.5 M0.05 -2.7 Q-0.2 -2.95 -0.25 -2.8 L-0.55 -1.75 -0.7 -0.5 -0.1 -0.9 Q0.35 -0.65 0.75 -0.55 1.05 -1.35 0.6 -2.4 0.25 -3.15 0.05 -2.75 L0.05 -2.7" fill="#ffffcb" fill-rule="evenodd" stroke="none"/>
    <path d="M3.95 -7.5 L4.35 -7.75 4.55 -8.05 Q4.9 -8.25 5.1 -7.75 L5.25 -7.0 5.15 -6.65 5.3 -4.05 Q5.3 -3.15 5.7 -2.45 L6.15 -1.45 Q5.95 -0.55 5.2 0.15 L3.7 0.1 3.95 -0.7 3.2 -0.05 2.8 1.95 1.85 2.25 1.95 0.85 1.45 1.1 1.45 2.35 0.25 2.4 0.25 1.2 -0.2 1.2 -0.25 2.4 -1.45 2.35 -1.45 1.1 -1.95 0.85 -1.9 2.25 -2.75 1.95 -3.2 -0.05 -3.9 -0.7 -3.7 0.1 -5.15 0.15 Q-5.95 -0.55 -6.1 -1.45 L-5.4 -3.65 -5.2 -4.85 -5.0 -6.7 -5.25 -7.4 -4.85 -8.05 -4.75 -8.15 -4.0 -7.55 Q-4.6 -8.15 -4.65 -8.8 -4.65 -9.35 -5.05 -9.9 -4.55 -8.85 -5.1 -8.15 L-5.2 -8.4 -5.25 -8.85 -5.4 -7.15 -5.25 -6.55 -5.3 -5.35 -5.25 -5.45 Q-5.45 -4.35 -6.0 -3.4 -6.2 -5.45 -6.05 -7.6 L-10.8 -7.6 0.05 9.55 10.85 -7.6 6.1 -7.6 6.0 -3.4 Q5.15 -4.95 5.25 -6.75 5.8 -7.2 5.45 -7.8 5.3 -8.05 5.3 -8.35 L5.2 -9.0 5.0 -8.2 4.95 -8.25 4.85 -8.8 4.95 -9.7 Q4.65 -8.5 3.95 -7.5 M0.05 -12.55 L2.0 -12.25 1.85 -11.4 2.1 -11.0 2.05 -10.25 0.25 -9.35 -0.9 -7.8 -0.95 -6.9 -1.7 -5.95 -2.8 -6.3 -2.3 -6.05 -2.5 -5.0 -2.05 -5.75 -1.55 -5.85 -0.75 -6.75 0.45 -8.6 0.9 -7.95 1.5 -7.6 1.65 -6.9 2.4 -5.95 2.4 -6.4 3.05 -6.4 3.7 -5.95 3.3 -6.45 2.35 -6.6 1.8 -7.1 1.65 -7.65 1.1 -8.05 0.95 -8.95 2.55 -9.95 2.65 -11.05 3.4 -11.75 Q5.15 -10.75 5.85 -9.0 L13.35 -9.0 0.05 12.2 -13.3 -9.0 -5.85 -9.0 Q-4.9 -10.95 -3.15 -11.8 L-1.8 -12.3 -0.7 -12.4 -0.25 -12.5 0.05 -12.55 M3.05 -1.5 L4.1 -1.7 4.5 -1.9 Q4.9 -2.55 4.7 -3.35 L4.5 -4.2 Q3.2 -5.35 1.75 -4.7 1.1 -4.3 0.95 -3.5 1.35 -2.05 2.6 -1.55 L3.05 -1.5 M-3.1 -1.5 Q-2.0 -1.45 -1.45 -2.4 L-0.9 -3.5 -1.5 -4.3 -2.15 -4.85 -4.35 -4.45 -4.6 -3.35 -4.65 -2.2 -4.05 -1.7 -3.6 -1.55 -3.1 -1.5 M0.05 -2.7 Q-0.2 -2.95 -0.25 -2.8 L-0.55 -1.75 -0.7 -0.5 -0.1 -0.9 Q0.35 -0.65 0.75 -0.55 1.05 -1.35 0.6 -2.4 0.25 -3.15 0.05 -2.75 L0.05 -2.7 Z" fill="none" stroke="#f5cb5b" stroke-linecap="round" stroke-linejoin="round" stroke-opacity="0.29803923" stroke-width="1.0"/>
  </g>
</svg>
