<?xml version="1.0" encoding="UTF-8" standalone="no"?>
<svg xmlns:ffdec="https://www.free-decompiler.com/flash" xmlns:xlink="http://www.w3.org/1999/xlink" ffdec:objectType="shape" height="41.55px" width="50.15px" xmlns="http://www.w3.org/2000/svg">
  <g transform="matrix(1.0, 0.0, 0.0, 1.0, 24.45, 20.05)">
    <path d="M-1.05 0.15 L-0.85 0.45 -0.5 0.55 -0.2 0.45 0.0 -0.05 -0.65 -1.45 -1.5 -3.15 -1.9 -3.9 -2.35 -4.35 -2.75 -4.0 -2.85 -3.7 -2.75 -3.6 -2.75 -3.5 -1.05 0.15 M5.8 11.45 L5.55 10.8 5.05 10.6 4.6 10.8 4.4 11.45 4.6 12.0 5.05 12.2 5.55 12.0 5.8 11.45 M-6.95 14.9 L-3.85 12.75 -0.85 10.7 -0.5 10.7 0.25 10.95 1.4 10.6 Q2.7 10.2 2.9 9.85 L4.3 8.15 4.6 7.5 3.85 5.15 3.1 3.9 2.7 3.05 Q2.45 3.05 2.25 3.35 L1.85 3.9 Q1.3 4.65 0.85 4.65 0.55 4.65 0.55 4.2 L1.2 2.7 Q1.5 1.95 1.95 1.3 L1.85 1.1 1.5 1.0 1.4 1.0 0.65 1.4 -0.95 2.7 -1.05 2.8 -1.25 2.8 -2.0 2.7 Q-2.35 2.7 -2.55 4.4 L-2.75 6.25 -2.55 7.1 -1.7 8.9 -1.6 9.0 -1.6 9.1 -1.7 9.55 -2.0 9.65 -2.55 9.45 -3.0 8.8 -3.3 8.25 Q-3.5 7.95 -3.85 7.95 L-10.0 11.35 -10.45 11.8 -10.55 12.0 -8.85 13.6 -6.95 14.9 M16.55 3.25 L16.75 0.8 Q16.75 -2.55 15.5 -5.5 14.3 -8.3 12.1 -10.55 9.85 -12.9 6.95 -14.05 3.95 -15.35 0.75 -15.35 -2.55 -15.35 -5.55 -14.05 -8.4 -12.75 -10.65 -10.55 -12.9 -8.3 -14.2 -5.5 -15.35 -2.55 -15.35 0.8 -15.35 4.3 -13.75 7.6 L-12.5 9.75 -11.5 10.5 -10.25 9.85 -6.4 7.85 -4.05 6.45 -3.95 6.0 -3.85 5.35 -3.5 4.0 -3.3 2.7 Q-3.2 1.85 -2.75 1.55 L-2.45 1.2 -2.35 0.9 -3.3 -1.45 Q-4.45 -3.7 -4.7 -3.7 L-5.75 -3.25 -7.55 -2.75 -9.7 -2.55 -11.2 -2.3 -11.75 -2.55 Q-12.15 -2.85 -12.15 -3.4 -12.15 -4.0 -10.55 -5.85 L-8.4 -7.95 -4.8 -10.45 Q-1.7 -12.25 -1.05 -12.25 L-0.5 -12.15 -0.2 -11.7 1.6 -8.4 1.85 -7.95 Q1.85 -7.55 0.45 -6.7 L-0.5 -6.05 -0.95 -5.5 -0.95 -5.2 1.3 -0.8 Q1.7 -0.2 2.15 -0.2 L4.5 -0.5 5.25 -0.2 5.45 0.35 5.45 0.45 5.25 1.2 Q5.25 1.65 5.65 1.95 L6.3 2.5 Q7.4 3.65 7.4 7.1 L6.85 8.05 6.3 8.45 6.2 8.9 6.2 9.0 7.4 11.35 7.5 11.65 7.5 12.0 7.5 12.4 7.05 12.65 6.4 13.05 4.8 13.9 4.6 14.0 4.4 14.0 Q4.05 14.0 3.85 13.7 L3.45 12.85 3.0 12.1 Q2.8 11.8 2.35 11.8 L1.1 11.9 Q0.0 12.1 -0.65 12.65 L-1.6 13.05 -2.85 13.7 -4.6 15.0 -4.9 15.2 -5.0 15.2 -5.1 15.5 Q-5.1 16.05 -2.55 16.5 L0.75 16.8 Q3.45 16.8 6.2 15.85 8.85 14.9 11.1 13.05 13.35 11.25 14.75 8.8 16.25 6.1 16.55 3.25 M23.9 -3.4 Q24.05 -1.9 23.5 -0.3 L22.65 1.55 21.9 1.85 20.95 1.95 20.1 2.05 Q19.65 2.15 19.65 2.4 L19.65 2.7 19.85 2.7 20.4 2.7 21.05 2.6 21.15 2.6 21.15 2.7 Q21.15 5.35 20.3 6.75 L19.65 7.5 19.25 7.85 18.8 7.85 18.35 7.95 17.2 9.95 16.25 11.8 Q13.7 15.75 8.85 17.85 6.85 18.85 4.6 19.35 L0.65 19.8 -3.2 19.35 Q-5.2 18.85 -7.25 17.95 -11.75 15.95 -14.2 12.55 L-15.45 10.6 -16.65 8.7 Q-17.05 7.7 -17.5 7.7 L-17.8 7.7 -18.15 7.6 Q-19.0 7.2 -19.4 5.9 -19.95 4.65 -19.95 2.9 L-19.95 2.6 -19.75 2.5 -19.1 2.6 -18.25 2.7 -18.25 2.5 Q-18.45 2.15 -19.65 1.95 L-20.5 1.85 -21.0 1.65 Q-21.75 1.2 -22.2 0.25 L-22.75 -3.15 -22.6 -3.4 -22.4 -3.4 -19.2 -2.95 -18.05 -2.85 -17.8 -3.5 -17.3 -5.1 Q-16.45 -7.95 -14.95 -10.0 -12.5 -13.65 -8.4 -15.85 -4.15 -18.35 0.45 -18.35 4.4 -18.35 8.15 -16.7 10.9 -15.45 13.35 -13.4 L15.3 -11.4 17.2 -8.7 18.35 -5.75 19.45 -2.85 20.2 -2.95 23.9 -3.4" fill="#ffffcb" fill-rule="evenodd" stroke="none"/>
    <path d="M23.7 -5.1 Q24.45 -5.2 25.0 -4.65 25.55 -4.35 25.65 -3.5 25.85 -1.8 25.2 0.35 L25.1 0.35 24.05 2.6 23.8 2.7 22.95 3.35 Q22.85 6.1 21.8 7.7 L20.85 8.9 19.65 9.55 19.45 9.55 18.8 10.8 18.7 10.8 17.85 12.4 17.65 12.75 Q14.95 17.0 9.6 19.45 7.5 20.55 5.05 21.05 L4.9 21.05 0.65 21.5 -3.5 21.05 Q-5.75 20.55 -7.9 19.55 -12.9 17.35 -15.55 13.6 L-16.95 11.55 -18.15 9.55 -19.1 9.1 Q-20.4 8.45 -21.1 6.45 L-21.1 6.55 Q-21.65 5.15 -21.65 3.35 L-21.85 3.25 -22.0 3.15 Q-23.15 2.5 -23.8 0.9 -24.35 -0.7 -24.45 -3.05 L-24.2 -3.9 -24.2 -4.15 -23.45 -4.85 -22.6 -5.1 -22.4 -5.1 -19.3 -4.65 -18.9 -5.6 Q-18.05 -8.7 -16.3 -11.05 -13.65 -15.0 -9.3 -17.35 -4.7 -20.05 0.45 -20.05 4.7 -20.05 8.75 -18.35 11.85 -17.05 14.55 -14.8 L14.4 -14.8 16.65 -12.45 18.7 -9.7 18.7 -9.55 20.0 -6.35 20.6 -4.75 23.7 -5.1 M23.9 -3.4 L20.2 -2.95 19.45 -2.85 18.35 -5.75 17.2 -8.7 15.3 -11.4 13.35 -13.4 Q10.9 -15.45 8.15 -16.7 4.4 -18.35 0.45 -18.35 -4.15 -18.35 -8.4 -15.85 -12.5 -13.65 -14.95 -10.0 -16.45 -7.95 -17.3 -5.1 L-17.8 -3.5 -18.05 -2.85 -19.2 -2.95 -22.4 -3.4 -22.6 -3.4 -22.75 -3.15 -22.2 0.25 Q-21.75 1.2 -21.0 1.65 L-20.5 1.85 -19.65 1.95 Q-18.45 2.15 -18.25 2.5 L-18.25 2.7 -19.1 2.6 -19.75 2.5 -19.95 2.6 -19.95 2.9 Q-19.95 4.65 -19.4 5.9 -19.0 7.2 -18.15 7.6 L-17.8 7.7 -17.5 7.7 Q-17.05 7.7 -16.65 8.7 L-15.45 10.6 -14.2 12.55 Q-11.75 15.95 -7.25 17.95 -5.2 18.85 -3.2 19.35 L0.65 19.8 4.6 19.35 Q6.85 18.85 8.85 17.85 13.7 15.75 16.25 11.8 L17.2 9.95 18.35 7.95 18.8 7.85 19.25 7.85 19.65 7.5 20.3 6.75 Q21.15 5.35 21.15 2.7 L21.15 2.6 21.05 2.6 20.4 2.7 19.85 2.7 19.65 2.7 19.65 2.4 Q19.65 2.15 20.1 2.05 L20.95 1.95 21.9 1.85 22.65 1.55 23.5 -0.3 Q24.05 -1.9 23.9 -3.4 M16.55 3.25 Q16.25 6.1 14.75 8.8 13.35 11.25 11.1 13.05 8.85 14.9 6.2 15.85 3.45 16.8 0.75 16.8 L-2.55 16.5 Q-5.1 16.05 -5.1 15.5 L-5.0 15.2 -4.9 15.2 -4.6 15.0 -2.85 13.7 -1.6 13.05 -0.65 12.65 Q0.0 12.1 1.1 11.9 L2.35 11.8 Q2.8 11.8 3.0 12.1 L3.45 12.85 3.85 13.7 Q4.05 14.0 4.4 14.0 L4.6 14.0 4.8 13.9 6.4 13.05 7.05 12.65 7.5 12.4 7.5 12.0 7.5 11.65 7.4 11.35 6.2 9.0 6.2 8.9 6.3 8.45 6.85 8.05 7.4 7.1 Q7.4 3.65 6.3 2.5 L5.65 1.95 Q5.25 1.65 5.25 1.2 L5.45 0.45 5.45 0.35 5.25 -0.2 4.5 -0.5 2.15 -0.2 Q1.7 -0.2 1.3 -0.8 L-0.95 -5.2 -0.95 -5.5 -0.5 -6.05 0.45 -6.7 Q1.85 -7.55 1.85 -7.95 L1.6 -8.4 -0.2 -11.7 -0.5 -12.15 -1.05 -12.25 Q-1.7 -12.25 -4.8 -10.45 L-8.4 -7.95 -10.55 -5.85 Q-12.15 -4.0 -12.15 -3.4 -12.15 -2.85 -11.75 -2.55 L-11.2 -2.3 -9.7 -2.55 -7.55 -2.75 -5.75 -3.25 -4.7 -3.7 Q-4.45 -3.7 -3.3 -1.45 L-2.35 0.9 -2.45 1.2 -2.75 1.55 Q-3.2 1.85 -3.3 2.7 L-3.5 4.0 -3.85 5.35 -3.95 6.0 -4.05 6.45 -6.4 7.85 -10.25 9.85 -11.5 10.5 -12.5 9.75 -13.75 7.6 Q-15.35 4.3 -15.35 0.8 -15.35 -2.55 -14.2 -5.5 -12.9 -8.3 -10.65 -10.55 -8.4 -12.75 -5.55 -14.05 -2.55 -15.35 0.75 -15.35 3.95 -15.35 6.95 -14.05 9.85 -12.9 12.1 -10.55 14.3 -8.3 15.5 -5.5 16.75 -2.55 16.75 0.8 L16.55 3.25 M-6.95 14.9 L-8.85 13.6 -10.55 12.0 -10.45 11.8 -10.0 11.35 -3.85 7.95 Q-3.5 7.95 -3.3 8.25 L-3.0 8.8 -2.55 9.45 -2.0 9.65 -1.7 9.55 -1.6 9.1 -1.6 9.0 -1.7 8.9 -2.55 7.1 -2.75 6.25 -2.55 4.4 Q-2.35 2.7 -2.0 2.7 L-1.25 2.8 -1.05 2.8 -0.95 2.7 0.65 1.4 1.4 1.0 1.5 1.0 1.85 1.1 1.95 1.3 Q1.5 1.95 1.2 2.7 L0.55 4.2 Q0.55 4.65 0.85 4.65 1.3 4.65 1.85 3.9 L2.25 3.35 Q2.45 3.05 2.7 3.05 L3.1 3.9 3.85 5.15 4.6 7.5 4.3 8.15 2.9 9.85 Q2.7 10.2 1.4 10.6 L0.25 10.95 -0.5 10.7 -0.85 10.7 -3.85 12.75 -6.95 14.9 M5.8 11.45 L5.55 12.0 5.05 12.2 4.6 12.0 4.4 11.45 4.6 10.8 5.05 10.6 5.55 10.8 5.8 11.45 M-1.05 0.15 L-2.75 -3.5 -2.75 -3.6 -2.85 -3.7 -2.75 -4.0 -2.35 -4.35 -1.9 -3.9 -1.5 -3.15 -0.65 -1.45 0.0 -0.05 -0.2 0.45 -0.5 0.55 -0.85 0.45 -1.05 0.15" fill="#181c1d" fill-rule="evenodd" stroke="none"/>
  </g>
</svg>
