<?xml version="1.0" encoding="UTF-8" standalone="no"?>
<svg xmlns:ffdec="https://www.free-decompiler.com/flash" xmlns:xlink="http://www.w3.org/1999/xlink" ffdec:objectType="frame" height="12.0px" width="12.0px" xmlns="http://www.w3.org/2000/svg">
  <g transform="matrix(1.0, 0.0, 0.0, 1.0, 0.0, 0.0)">
    <use ffdec:characterId="96" height="12.0" transform="matrix(1.0, 0.0, 0.0, 1.0, 0.0, 0.0)" width="12.0" xlink:href="#shape0"/>
  </g>
  <defs>
    <g id="shape0" transform="matrix(1.0, 0.0, 0.0, 1.0, 0.0, 0.0)">
      <path d="M10.55 8.5 Q11.25 7.3 11.1 5.85 11.0 4.35 10.1 3.4 L9.8 3.15 9.8 3.3 Q9.8 3.75 9.0 4.1 9.75 5.25 9.75 6.9 9.75 8.5 9.0 9.7 9.95 9.5 10.55 8.5 M12.0 6.0 Q12.0 8.5 10.25 10.25 8.5 12.0 6.0 12.0 3.5 12.0 1.75 10.25 0.0 8.5 0.0 6.0 0.0 3.5 1.75 1.75 3.5 0.0 6.0 0.0 8.5 0.0 10.25 1.75 12.0 3.5 12.0 6.0 M2.65 3.35 L2.95 3.2 3.8 2.7 6.0 2.4 8.3 2.7 9.15 3.2 9.45 3.35 9.45 3.15 Q9.3 2.75 8.35 2.45 L6.0 2.1 3.7 2.45 Q2.8 2.75 2.65 3.15 L2.65 3.35 M2.65 6.85 Q2.65 8.45 3.65 9.6 4.6 10.75 6.0 10.75 7.4 10.75 8.35 9.6 9.35 8.45 9.35 6.85 9.35 5.4 8.55 4.35 L6.0 4.7 3.45 4.35 Q2.65 5.4 2.65 6.85 M7.9 5.7 L8.4 6.75 7.05 7.2 7.9 5.7 M5.3 7.7 L6.0 6.2 6.6 7.7 5.3 7.7 M3.15 7.6 Q4.0 8.05 6.4 8.3 L6.9 9.05 7.45 8.2 8.95 7.45 8.6 8.45 7.45 9.9 6.35 10.2 5.7 10.2 5.3 9.4 4.95 10.05 4.15 9.5 Q3.35 8.75 3.15 7.6 M3.6 6.85 L3.75 5.65 4.9 7.15 3.6 6.85 M1.5 8.5 Q2.1 9.5 3.05 9.7 2.3 8.5 2.3 6.9 2.3 5.25 3.05 4.05 2.3 3.75 2.3 3.3 L2.3 3.15 2.0 3.4 Q1.05 4.35 0.95 5.85 0.85 7.3 1.5 8.5" fill="#000000" fill-rule="evenodd" stroke="none"/>
      <path d="M10.55 8.5 Q9.95 9.5 9.0 9.7 9.75 8.5 9.75 6.9 9.75 5.25 9.0 4.1 9.8 3.75 9.8 3.3 L9.8 3.15 10.1 3.4 Q11.0 4.35 11.1 5.85 11.25 7.3 10.55 8.5 M2.65 6.85 Q2.65 5.4 3.45 4.35 L6.0 4.7 8.55 4.35 Q9.35 5.4 9.35 6.85 9.35 8.45 8.35 9.6 7.4 10.75 6.0 10.75 4.6 10.75 3.65 9.6 2.65 8.45 2.65 6.85 M2.65 3.35 L2.65 3.15 Q2.8 2.75 3.7 2.45 L6.0 2.1 8.35 2.45 Q9.3 2.75 9.45 3.15 L9.45 3.35 9.15 3.2 8.3 2.7 6.0 2.4 3.8 2.7 2.95 3.2 2.65 3.35 M1.5 8.5 Q0.85 7.3 0.95 5.85 1.05 4.35 2.0 3.4 L2.3 3.15 2.3 3.3 Q2.3 3.75 3.05 4.05 2.3 5.25 2.3 6.9 2.3 8.5 3.05 9.7 2.1 9.5 1.5 8.5 M3.6 6.85 L4.9 7.15 3.75 5.65 3.6 6.85 M3.15 7.6 Q3.35 8.75 4.15 9.5 L4.95 10.05 5.3 9.4 5.7 10.2 6.35 10.2 7.45 9.9 8.6 8.45 8.95 7.45 7.45 8.2 6.9 9.05 6.4 8.3 Q4.0 8.05 3.15 7.6 M5.3 7.7 L6.6 7.7 6.0 6.2 5.3 7.7 M7.9 5.7 L7.05 7.2 8.4 6.75 7.9 5.7" fill="#f5894a" fill-rule="evenodd" stroke="none"/>
    </g>
  </defs>
</svg>
