<?xml version="1.0" encoding="UTF-8" standalone="no"?>
<svg xmlns:ffdec="https://www.free-decompiler.com/flash" xmlns:xlink="http://www.w3.org/1999/xlink" ffdec:objectType="shape" height="16.0px" width="16.0px" xmlns="http://www.w3.org/2000/svg">
  <g transform="matrix(1.0, 0.0, 0.0, 1.0, 0.0, 0.0)">
    <path d="M12.95 13.0 L12.95 3.05 3.0 3.05 3.0 13.0 12.95 13.0 M15.5 0.5 Q16.0 1.0 16.0 1.65 L15.65 2.8 Q15.3 3.5 15.3 4.4 L15.5 5.9 15.65 6.85 Q15.65 7.6 15.2 8.05 L15.45 8.35 15.65 9.25 15.5 10.15 15.3 11.65 Q15.3 12.55 15.65 13.25 L16.0 14.4 Q16.0 15.05 15.5 15.55 15.05 16.0 14.35 16.0 L13.2 15.7 11.6 15.35 10.1 15.55 9.15 15.7 8.25 15.5 7.95 15.25 Q7.55 15.7 6.75 15.7 L5.85 15.55 4.35 15.35 Q3.45 15.35 2.75 15.7 L1.6 16.0 Q0.9 16.0 0.45 15.55 0.0 15.1 0.0 14.4 0.0 14.0 0.35 13.25 L0.65 11.65 0.5 10.15 0.3 9.25 Q0.3 8.75 0.55 8.35 L0.75 8.0 Q0.3 7.6 0.3 6.8 L0.5 5.9 0.65 4.4 0.35 2.8 Q0.0 2.05 0.0 1.65 0.0 0.95 0.45 0.5 0.95 0.0 1.6 0.0 L2.75 0.35 4.35 0.7 5.85 0.55 6.8 0.35 Q7.55 0.35 8.0 0.8 L8.3 0.6 9.2 0.35 10.1 0.55 11.6 0.7 13.2 0.35 14.35 0.0 Q15.0 0.0 15.5 0.5" fill="#f1c75f" fill-rule="evenodd" stroke="none"/>
  </g>
</svg>
