<?xml version="1.0" encoding="UTF-8" standalone="no"?>
<svg xmlns:ffdec="https://www.free-decompiler.com/flash" xmlns:xlink="http://www.w3.org/1999/xlink" ffdec:objectType="shape" height="23.75px" width="25.95px" xmlns="http://www.w3.org/2000/svg">
  <g transform="matrix(1.0, 0.0, 0.0, 1.0, 1.0, 1.0)">
    <path d="M22.9 -1.0 L23.35 -0.9 23.6 -0.8 Q24.65 -0.4 24.95 0.8 L24.95 1.0 24.95 1.4 24.95 1.6 24.85 2.15 24.85 2.2 20.05 20.3 20.05 20.25 19.45 21.55 19.4 21.65 Q18.35 22.75 16.8 22.75 L1.3 22.75 Q-0.1 22.75 -0.7 21.65 L-0.75 21.6 -0.9 21.2 -1.0 20.75 -1.0 20.35 -0.95 20.2 -0.9 19.95 4.0 1.25 Q4.4 -0.45 6.15 -0.85 L6.6 -0.95 6.85 -1.0 22.9 -1.0 M6.85 0.0 L6.4 0.1 Q5.25 0.4 4.95 1.5 L0.05 20.2 0.0 20.35 0.0 20.75 0.15 21.15 Q0.5 21.75 1.3 21.75 L16.8 21.75 Q17.9 21.75 18.65 20.95 L19.05 20.05 23.85 1.95 23.95 1.4 23.95 1.0 Q23.8 0.3 23.15 0.1 L22.9 0.0 6.85 0.0" fill="#000000" fill-rule="evenodd" stroke="none"/>
    <path d="M6.85 0.0 L22.9 0.0 23.15 0.1 Q23.8 0.3 23.95 1.0 L23.95 1.4 23.85 1.95 19.05 20.05 18.65 20.95 Q17.9 21.75 16.8 21.75 L1.3 21.75 Q0.5 21.75 0.15 21.15 L0.0 20.75 0.0 20.35 0.05 20.2 4.95 1.5 Q5.25 0.4 6.4 0.1 L6.85 0.0 M17.95 5.5 L18.45 3.6 17.5 4.1 17.25 4.4 17.0 5.25 16.7 5.55 16.5 5.65 16.35 6.2 16.75 6.2 16.7 6.5 15.9 9.7 Q15.8 10.25 16.35 10.25 L17.15 10.25 17.25 10.15 17.45 9.5 17.3 9.45 Q16.95 9.45 17.0 9.1 L17.05 8.95 17.65 6.65 17.8 6.3 18.15 6.2 18.35 6.1 18.5 5.5 17.95 5.5 M13.6 8.2 L12.75 8.2 12.55 8.3 12.35 9.3 12.5 9.95 13.1 10.2 14.3 10.2 15.05 9.65 15.4 8.2 Q15.4 7.75 15.1 7.6 L14.4 7.25 Q14.0 7.1 14.05 6.6 14.15 6.05 14.7 6.05 15.05 6.05 14.95 6.35 L14.85 7.0 15.65 7.0 15.8 6.85 15.95 6.1 Q16.05 5.4 15.35 5.4 L14.2 5.35 Q13.7 5.35 13.4 5.85 L13.0 6.85 Q12.8 7.45 13.35 7.8 L13.6 7.95 14.15 8.2 Q14.45 8.3 14.35 8.6 L14.2 9.1 13.75 9.4 Q13.35 9.4 13.4 9.0 L13.6 8.2 M5.2 18.3 L8.25 18.35 8.6 18.05 12.25 3.95 12.35 3.65 7.6 5.1 7.3 5.4 7.0 6.65 6.95 6.8 8.25 6.5 5.2 18.3" fill="#f5cb5b" fill-rule="evenodd" stroke="none"/>
  </g>
</svg>
