<?xml version="1.0" encoding="UTF-8" standalone="no"?>
<svg xmlns:ffdec="https://www.free-decompiler.com/flash" xmlns:xlink="http://www.w3.org/1999/xlink" ffdec:objectType="frame" height="19.8px" width="19.8px" xmlns="http://www.w3.org/2000/svg">
  <g transform="matrix(1.0, 0.0, 0.0, 1.0, 9.75, 9.7)">
    <use ffdec:characterId="128" height="19.2" transform="matrix(1.0, 0.0, 0.0, 1.0, -9.5, -9.45)" width="19.2" xlink:href="#shape0"/>
    <use ffdec:characterId="130" height="19.8" transform="matrix(1.0, 0.0, 0.0, 1.0, -9.75, -9.7)" width="19.8" xlink:href="#shape1"/>
  </g>
  <defs>
    <g id="shape0" transform="matrix(1.0, 0.0, 0.0, 1.0, 9.5, 9.45)">
      <path d="M0.1 9.75 Q-3.85 9.75 -6.7 6.95 -9.5 4.1 -9.5 0.15 -9.5 -3.8 -6.7 -6.65 -3.85 -9.45 0.1 -9.45 4.05 -9.45 6.9 -6.65 9.7 -3.8 9.7 0.15 9.7 4.1 6.9 6.95 4.05 9.75 0.1 9.75 M0.1 -8.8 Q-3.6 -8.8 -6.2 -6.15 -8.85 -3.55 -8.85 0.15 -8.85 3.85 -6.2 6.5 -3.6 9.1 0.1 9.1 3.8 9.1 6.4 6.5 9.05 3.85 9.05 0.15 9.05 -3.55 6.4 -6.15 3.85 -8.8 0.1 -8.8" fill="#ffffcb" fill-rule="evenodd" stroke="none"/>
    </g>
    <g id="shape1" transform="matrix(1.0, 0.0, 0.0, 1.0, 9.75, 9.7)">
      <path d="M0.15 10.1 Q-3.95 10.1 -6.85 7.2 -9.75 4.25 -9.75 0.2 -9.75 -3.9 -6.85 -6.8 -3.95 -9.7 0.15 -9.7 4.25 -9.7 7.15 -6.8 10.05 -3.9 10.05 0.2 10.05 4.25 7.15 7.2 4.2 10.1 0.15 10.1 M0.15 9.5 Q4.0 9.5 6.75 6.8 9.45 4.05 9.45 0.2 9.45 -3.65 6.75 -6.4 4.0 -9.1 0.15 -9.1 -3.7 -9.1 -6.45 -6.4 -9.15 -3.65 -9.15 0.2 -9.15 4.05 -6.45 6.8 -3.7 9.5 0.15 9.5" fill="#f5cb5b" fill-opacity="0.29803923" fill-rule="evenodd" stroke="none"/>
      <path d="M6.5 -3.5 L4.8 -1.85 3.85 -1.75 3.4 -2.15 Q3.1 -2.45 3.1 -2.75 3.1 -3.1 3.4 -3.45 L5.0 -5.0 4.35 -5.0 3.5 -5.0 Q2.3 -4.85 1.9 -4.0 1.5 -3.1 1.6 -2.25 1.7 -1.45 1.2 -1.0 L0.0 0.3 -0.65 -0.3 -2.35 -1.85 -2.35 -1.9 Q-2.15 -2.15 -2.2 -2.35 L-2.2 -2.7 -1.75 -3.6 -0.35 -3.75 0.25 -3.6 Q0.5 -3.55 0.6 -3.75 L0.65 -3.95 0.5 -4.15 Q-0.1 -5.0 -1.15 -5.1 -2.2 -5.2 -3.55 -4.4 -3.9 -4.1 -4.15 -4.2 L-4.45 -4.1 -5.5 -3.0 -5.65 -2.75 -5.75 -2.1 Q-5.9 -1.65 -6.35 -1.55 L-6.65 -1.45 -7.35 -0.75 -7.35 -0.3 -6.0 1.05 Q-5.85 1.25 -5.6 1.05 L-5.0 0.4 -4.75 0.0 -4.2 -0.55 -3.75 -0.7 -3.35 -0.85 -3.3 -0.9 -1.15 1.4 -4.1 4.05 Q-4.6 4.4 -4.5 5.15 -4.35 5.9 -3.65 5.95 -2.9 6.15 -2.55 5.55 L0.2 2.8 2.95 5.75 Q3.25 6.15 3.7 5.95 L4.4 5.45 4.6 4.85 4.3 4.2 3.3 3.3 1.35 1.5 2.45 0.35 Q2.95 -0.15 3.6 -0.1 L4.45 -0.1 Q5.4 -0.25 5.8 -0.6 6.3 -1.0 6.5 -1.85 6.7 -2.65 6.5 -3.5 Z" fill="none" stroke="#ffffcb" stroke-linecap="square" stroke-linejoin="round" stroke-width="0.75"/>
      <path d="M6.25 -3.75 L4.55 -2.1 4.05 -2.05 3.65 -2.45 3.7 -2.4 3.5 -2.75 3.65 -3.15 5.3 -4.75 5.4 -5.0 5.3 -5.25 5.0 -5.35 4.4 -5.35 3.4 -5.35 Q2.0 -5.15 1.55 -4.15 1.1 -3.15 1.25 -2.2 1.3 -1.6 0.95 -1.25 L0.0 -0.2 -0.4 -0.55 -0.35 -0.55 -1.85 -1.9 Q-1.75 -2.2 -1.8 -2.45 L-1.85 -2.55 -1.45 -3.35 -0.45 -3.4 -0.4 -3.35 0.2 -3.2 Q0.65 -3.15 0.9 -3.45 L1.05 -3.95 1.0 -4.05 0.75 -4.4 Q0.05 -5.35 -1.1 -5.45 -2.3 -5.6 -3.75 -4.7 L-3.8 -4.65 -3.95 -4.55 -4.65 -4.4 -4.7 -4.35 -5.75 -3.25 -6.0 -2.8 -6.1 -2.15 -6.4 -1.9 -6.45 -1.9 -6.8 -1.75 -6.9 -1.7 -7.6 -1.0 -7.65 -0.9 Q-8.0 -0.35 -7.6 0.0 L-6.25 1.35 -6.3 1.3 -5.8 1.55 Q-5.6 1.55 -5.35 1.35 L-5.3 1.35 -4.7 0.65 -4.35 0.1 -4.1 -0.15 -4.0 -0.2 -3.55 -0.35 -3.65 -0.3 -3.35 -0.4 -1.65 1.4 -4.3 3.75 Q-5.0 4.2 -4.85 5.2 L-4.85 5.25 Q-4.65 6.25 -3.65 6.35 -2.7 6.55 -2.2 5.75 L0.2 3.35 2.7 6.0 Q3.15 6.6 3.85 6.3 L4.7 5.75 Q5.05 5.35 5.0 4.85 L5.0 4.8 4.6 3.95 4.55 3.95 3.55 3.05 1.9 1.5 2.75 0.6 2.75 0.65 Q3.1 0.25 3.55 0.3 L3.6 0.3 4.5 0.3 Q5.55 0.1 6.05 -0.3 6.65 -0.8 6.9 -1.75 7.1 -2.65 6.9 -3.55 L6.75 -3.8 6.5 -3.85 6.25 -3.75 M5.05 -1.55 L6.25 -2.7 6.15 -1.95 6.15 -1.9 5.6 -0.9 5.55 -0.85 4.4 -0.45 3.65 -0.45 Q2.8 -0.55 2.2 0.1 L1.1 1.25 1.0 1.55 1.1 1.8 3.05 3.6 4.05 4.5 4.25 4.85 4.25 4.9 4.15 5.2 3.55 5.6 3.25 5.55 0.5 2.55 0.25 2.45 Q0.05 2.4 -0.05 2.55 L-2.85 5.35 -3.55 5.6 -3.6 5.6 Q-4.05 5.55 -4.1 5.1 -4.2 4.6 -3.85 4.35 L-0.9 1.7 -0.75 1.4 -0.85 1.15 -3.0 -1.15 -3.2 -1.25 -3.4 -1.25 -3.55 -1.15 -3.85 -1.05 -3.9 -1.0 -4.35 -0.85 -4.3 -0.9 Q-4.9 -0.8 -5.1 -0.1 L-5.1 0.0 -5.2 0.1 -5.3 0.2 -5.8 0.7 -7.0 -0.5 -6.4 -1.15 -6.25 -1.15 Q-5.6 -1.3 -5.4 -1.95 L-5.35 -2.05 -5.25 -2.7 -5.25 -2.75 -5.2 -2.7 -5.2 -2.75 -4.2 -3.8 Q-3.8 -3.7 -3.3 -4.1 L-3.35 -4.05 Q-2.1 -4.8 -1.15 -4.7 -0.35 -4.65 0.15 -4.0 L-0.3 -4.1 -0.25 -4.1 Q-1.55 -4.5 -2.0 -3.85 L-2.05 -3.8 -2.55 -2.8 -2.55 -2.25 -2.65 -2.1 -2.7 -1.9 -2.7 -1.85 -2.7 -1.7 -2.6 -1.55 -0.9 0.0 -0.25 0.6 0.05 0.7 Q0.15 0.65 0.3 0.55 L1.45 -0.7 1.5 -0.75 Q2.1 -1.3 2.0 -2.3 1.9 -3.05 2.25 -3.85 2.6 -4.5 3.55 -4.6 L3.65 -4.65 4.15 -4.65 3.2 -3.75 3.15 -3.7 Q2.7 -3.25 2.75 -2.75 2.7 -2.3 3.15 -1.85 L3.2 -1.85 3.65 -1.4 Q4.4 -1.0 5.05 -1.55 M0.3 -3.95 L0.3 -3.9 0.3 -3.95 M0.35 -3.8 L0.3 -3.8 0.3 -3.85 0.35 -3.8 Z" fill="none" stroke="#f5cb5b" stroke-linecap="square" stroke-linejoin="round" stroke-opacity="0.29803923" stroke-width="0.5"/>
    </g>
  </defs>
</svg>
