<?xml version="1.0" standalone="no"?>
<!DOCTYPE svg PUBLIC "-//W3C//DTD SVG 20010904//EN"
 "http://www.w3.org/TR/2001/REC-SVG-20010904/DTD/svg10.dtd">
<svg version="1.0" xmlns="http://www.w3.org/2000/svg"
 width="686.000000pt" height="386.000000pt" viewBox="0 0 686.000000 386.000000"
 preserveAspectRatio="xMidYMid meet">

<g transform="translate(0.000000,386.000000) scale(0.100000,-0.100000)"
fill="#000000" stroke="none">
<path d="M3456 3798 c-2 -7 -9 -28 -15 -47 -6 -19 -11 -94 -11 -167 l0 -134
-107 0 c-60 0 -125 -4 -145 -9 -22 -5 -40 -5 -46 1 -5 5 -20 8 -33 6 -18 -2
-24 -10 -25 -30 -1 -34 -84 -136 -95 -116 -4 7 -14 65 -23 128 -35 245 -72
324 -126 275 -25 -22 -26 -91 -6 -232 8 -54 22 -150 32 -213 l17 -116 -67 -89
c-37 -50 -102 -145 -144 -212 -42 -67 -80 -122 -83 -123 -11 0 -91 174 -119
262 -49 151 -93 223 -155 255 -57 30 -189 8 -366 -60 l-67 -25 -64 61 c-66 65
-131 117 -144 117 -18 0 -62 -53 -56 -68 8 -22 104 -147 111 -145 3 1 7 -10 7
-23 2 -19 -12 -33 -68 -70 -94 -63 -129 -94 -121 -106 3 -6 2 -8 -4 -5 -20 13
-200 -184 -187 -204 4 -7 3 -9 -3 -6 -14 9 -77 -89 -67 -104 4 -8 3 -9 -5 -5
-8 5 -28 -27 -62 -97 -53 -112 -72 -195 -49 -222 10 -12 6 -18 -24 -36 -28
-17 -36 -27 -36 -51 0 -17 4 -27 10 -23 5 3 7 0 4 -9 -6 -17 32 -40 86 -51 19
-4 64 -17 100 -30 36 -12 108 -28 160 -35 52 -6 111 -16 131 -21 20 -5 66 -9
101 -9 119 0 151 -8 177 -46 l23 -34 -76 -74 c-42 -41 -84 -76 -93 -78 -10 -2
-20 -14 -22 -28 -1 -14 -23 -52 -47 -84 -47 -62 -52 -89 -19 -94 15 -2 35 16
74 68 63 82 56 81 221 45 63 -14 160 -34 214 -45 55 -12 101 -22 103 -24 1 -1
-20 -70 -47 -152 -30 -87 -50 -163 -48 -182 3 -33 1 -34 -77 -65 l-80 -32 -2
-58 -1 -58 46 -23 c26 -13 81 -29 122 -35 62 -10 301 -40 321 -41 3 0 -2 -35
-11 -77 l-16 -78 -80 -6 c-43 -4 -107 -4 -140 -1 l-62 5 -6 57 c-11 98 -52
104 -86 14 -11 -30 -20 -67 -20 -81 l0 -26 -137 7 c-75 4 -142 11 -148 16 -6
5 -17 26 -24 47 -21 58 -42 84 -79 100 -31 13 -36 12 -53 -3 -35 -31 -28 -72
42 -259 20 -55 51 -144 68 -198 l32 -97 -36 -31 c-29 -25 -35 -38 -35 -69 0
-28 5 -40 18 -44 9 -3 71 -1 137 5 217 20 257 21 281 9 25 -14 58 -10 120 14
23 8 82 18 130 22 87 6 90 6 113 -20 32 -34 61 -35 61 -1 l0 25 128 0 c94 0
139 -4 174 -17 40 -14 54 -15 100 -4 42 10 86 10 208 1 284 -21 506 -9 665 35
28 7 75 19 105 25 65 14 99 34 102 58 1 9 4 -49 8 -130 5 -128 8 -151 26 -175
41 -55 107 -55 148 0 18 24 22 50 29 197 9 156 8 174 -11 237 -11 37 -30 106
-42 153 -28 113 -40 130 -90 130 -31 0 -43 -5 -56 -25 -17 -26 -49 -32 -112
-19 -25 5 -34 14 -45 47 -7 22 -21 45 -30 51 -27 17 -70 -5 -89 -46 -17 -35
-18 -36 -55 -27 -21 5 -80 12 -130 15 -77 6 -93 10 -93 23 0 21 -28 61 -42 61
-6 0 -25 -16 -43 -35 l-32 -35 -189 2 -189 3 -7 60 c-5 38 -14 65 -25 73 -33
24 -49 10 -77 -69 l-23 -64 -159 0 -159 0 -3 71 -3 71 75 12 c41 6 164 14 273
17 248 9 367 -4 468 -49 l70 -32 315 -2 c206 -1 362 -7 450 -17 261 -29 256
-29 279 1 27 33 26 54 -1 81 -30 27 -57 37 -146 52 l-74 12 7 37 c4 20 8 38
10 40 2 1 32 -6 67 -17 35 -12 81 -24 103 -27 22 -4 65 -16 94 -27 96 -34 181
-50 197 -37 16 13 19 33 4 24 -6 -3 -7 1 -4 9 4 12 -6 21 -37 35 -43 19 -43
20 -16 26 15 4 34 19 41 34 12 23 12 32 -5 76 -10 28 -19 53 -19 57 0 9 -14
13 200 -62 96 -34 227 -80 290 -102 63 -22 134 -48 158 -59 23 -10 52 -19 64
-19 35 0 83 40 125 104 58 89 164 306 157 318 -4 6 -2 8 4 5 17 -11 52 75 68
164 8 44 12 84 10 88 -2 3 -9 89 -15 191 -11 177 -13 188 -45 255 -18 39 -48
87 -67 107 -64 71 -181 91 -369 63 -63 -9 -151 -21 -195 -27 -49 -6 -88 -16
-100 -27 -11 -9 -66 -36 -122 -60 -56 -23 -122 -56 -147 -72 -79 -49 -126 -71
-126 -57 0 7 5 52 10 100 9 81 -1 364 -16 443 -5 27 2 38 61 98 36 37 105 111
153 165 48 53 93 103 100 110 57 61 80 123 48 135 -30 12 -65 -14 -354 -255
-60 -51 -72 -56 -72 -33 0 58 -82 211 -155 289 -25 27 -45 55 -45 62 0 14 120
148 199 222 41 39 44 44 29 58 -9 10 -24 14 -35 10 -19 -6 -180 -165 -220
-219 l-22 -28 -38 20 c-21 12 -55 27 -75 35 l-38 15 46 108 c25 59 48 114 51
121 7 17 30 15 99 -8 52 -17 61 -17 74 -4 27 26 -1 47 -96 73 -49 13 -100 24
-114 25 -23 1 -25 -3 -26 -44 -1 -28 -17 -83 -44 -148 -42 -99 -44 -103 -69
-97 -14 4 -27 8 -28 9 -4 3 35 107 51 136 7 14 30 64 51 113 30 71 35 90 25
102 -8 9 -21 13 -31 10 -11 -4 -19 -2 -19 3 0 13 -27 23 -44 16 -8 -3 -16 -15
-19 -26 -4 -14 -11 -19 -23 -14 -33 13 -217 28 -260 21 -24 -3 -50 -13 -58
-21 -20 -19 -9 -47 15 -41 12 3 17 1 13 -5 -5 -8 9 -9 44 -4 64 8 64 8 18
-124 l-32 -95 -55 3 c-32 2 -59 9 -65 18 -6 7 -14 46 -17 86 -8 91 -29 164
-58 194 -11 12 -24 38 -28 56 -5 24 -13 34 -29 36 -12 2 -24 -3 -26 -10z m524
-175 c0 -3 -19 -59 -41 -125 -34 -97 -45 -118 -62 -118 -15 0 -18 5 -13 23 3
12 6 66 6 119 0 92 1 97 23 101 37 7 87 7 87 0z m-271 -348 c6 -3 11 -38 11
-78 0 -40 4 -78 9 -85 14 -23 45 -9 51 23 10 45 49 115 64 115 10 0 16 -24 21
-89 7 -92 18 -112 48 -88 7 7 22 42 32 80 14 53 21 67 36 67 12 0 23 -10 29
-25 11 -28 37 -33 55 -9 10 15 16 14 63 -10 l51 -26 -52 -102 -52 -103 -75
-36 c-46 -22 -111 -43 -167 -54 -53 -10 -103 -25 -117 -36 l-24 -19 -59 81
c-32 45 -95 133 -140 197 -46 64 -97 133 -114 155 -17 21 -29 40 -26 43 18 19
326 18 356 -1z m-506 -52 c14 -21 54 -67 87 -103 34 -36 114 -132 179 -215 64
-82 135 -170 158 -195 37 -40 46 -45 86 -45 36 0 53 7 86 33 50 40 119 70 191
84 114 21 138 44 230 221 25 48 47 87 50 86 8 0 55 -65 115 -158 49 -74 85
-156 74 -164 -29 -21 -203 -180 -231 -210 -36 -39 -38 -40 -56 -24 -10 9 -22
14 -26 10 -4 -5 -6 -2 -4 6 8 33 -165 90 -238 78 -51 -8 -196 -76 -227 -105
-16 -15 -43 -58 -62 -97 -102 -215 -104 -388 -6 -513 53 -67 53 -68 36 -102
-36 -69 4 -115 61 -71 28 22 41 18 70 -18 7 -8 16 -11 24 -6 9 5 11 4 6 -3 -4
-7 16 -23 53 -42 73 -36 163 -42 213 -12 68 39 175 250 192 377 4 28 0 98 -8
159 l-14 110 111 118 c60 65 111 118 112 118 5 0 -29 -254 -50 -370 -19 -98
-29 -194 -32 -296 l-6 -151 -55 -59 c-174 -185 -286 -296 -340 -337 l-61 -48
-168 40 c-92 22 -213 50 -268 62 -55 12 -138 32 -185 45 -47 13 -159 42 -250
64 -238 58 -228 54 -240 103 -38 145 -64 237 -82 286 -44 119 -198 448 -225
482 -17 20 -7 49 17 49 24 0 44 26 69 95 13 37 54 104 104 171 104 140 211
269 214 257 1 -4 11 -61 23 -126 l20 -118 -38 -57 c-86 -126 -122 -226 -122
-338 0 -64 3 -77 33 -120 44 -67 91 -97 142 -91 22 2 47 7 56 11 13 6 17 -2
23 -46 12 -90 45 -119 87 -77 18 18 20 31 18 126 l-2 105 39 46 c51 61 129
191 154 258 30 80 36 178 16 247 -22 77 -50 106 -107 113 -40 6 -55 2 -108
-26 -34 -18 -63 -31 -65 -29 -1 2 -13 60 -26 129 -12 69 -24 130 -27 135 -8
23 125 184 153 185 1 0 13 -17 27 -37z m-1014 -210 c6 -21 11 -47 11 -59 0
-11 16 -47 36 -80 36 -60 144 -293 144 -312 0 -6 16 -31 35 -56 19 -26 35 -52
35 -59 0 -6 -13 -39 -28 -72 -16 -33 -34 -85 -41 -115 -20 -85 -21 -90 -35
-90 -8 0 -19 15 -27 33 -18 44 -116 200 -133 209 -19 11 -59 -20 -51 -41 6
-17 71 -129 112 -194 l23 -37 -22 -9 c-76 -30 -151 -68 -206 -103 -37 -24 -67
-37 -72 -32 -5 5 -28 43 -52 84 -50 84 -76 98 -103 56 -10 -15 -15 -35 -12
-48 6 -23 6 -23 -92 -18 -88 5 -100 8 -130 33 -18 15 -42 29 -54 31 -12 3 -69
14 -126 25 -57 11 -108 24 -112 28 -5 5 6 31 24 58 128 192 236 317 435 503
l119 111 59 -85 c54 -78 99 -138 177 -238 51 -65 106 -36 88 45 -12 52 -77
194 -134 293 l-51 89 29 24 c35 29 103 62 127 63 11 0 21 -13 27 -37z m1032
-303 c25 -14 28 -80 3 -80 -17 0 -66 -35 -59 -42 2 -2 -8 -4 -23 -3 -25 0 -27
3 -26 39 1 34 6 43 40 67 46 33 40 32 65 19z m-5 -191 c-10 -65 -70 -169 -98
-169 -13 0 -9 88 6 124 11 27 76 86 95 86 2 0 1 -18 -3 -41z m-217 -79 c1 -35
-47 -152 -68 -164 -36 -23 -17 119 25 192 24 40 28 44 35 27 4 -11 8 -36 8
-55z m894 59 c47 2 118 -30 147 -66 11 -15 19 -28 17 -30 -2 -1 -37 8 -77 22
-42 14 -96 25 -127 25 -29 0 -53 3 -53 8 0 17 32 52 43 45 6 -4 29 -6 50 -4z
m56 -208 c11 -7 2 -28 -44 -103 -33 -51 -70 -108 -84 -127 -22 -29 -26 -31
-32 -15 -17 43 -9 115 21 180 23 52 33 64 47 60 10 -3 25 -1 33 4 19 12 41 12
59 1z m-1422 -286 c28 -71 54 -146 58 -165 4 -19 22 -75 40 -125 18 -49 36
-100 40 -112 l6 -22 -68 20 c-37 10 -169 40 -293 65 -124 25 -272 56 -328 70
-57 13 -114 24 -127 24 -42 0 -36 17 26 74 98 91 230 173 373 233 72 30 138
62 148 70 9 8 19 31 23 51 11 58 17 58 35 1 9 -30 40 -112 67 -184z m2826 219
c157 -7 155 -6 186 -166 35 -187 61 -363 61 -411 0 -155 -40 -274 -137 -408
-55 -78 -57 -79 -100 -79 -35 0 -79 18 -221 89 -125 63 -206 97 -278 116
l-101 27 -50 -26 -51 -25 -16 42 c-23 63 -35 129 -46 272 -5 72 -13 151 -16
176 l-6 47 93 22 c114 26 275 29 359 5 30 -8 76 -20 101 -26 45 -12 46 -12 62
-74 9 -35 17 -79 17 -97 0 -44 21 -74 45 -64 16 6 17 15 12 79 -3 39 -12 90
-20 112 -13 36 -13 44 0 69 44 84 -80 148 -317 162 -80 5 -122 3 -177 -10 -93
-21 -107 -20 -60 5 21 11 35 24 32 28 -2 5 1 8 8 8 6 -1 46 15 87 35 161 76
270 107 355 102 28 -2 107 -7 178 -10z m-1202 -90 c12 -52 9 -138 -5 -192 -56
-210 -215 -297 -297 -163 -28 47 -25 61 15 61 109 0 194 103 212 254 5 42 11
56 28 64 30 15 40 10 47 -24z m-1688 -560 c12 -4 -2 -108 -39 -282 -4 -21 -8
-22 -89 -20 -61 2 -85 7 -85 16 0 7 16 52 34 100 19 48 43 113 52 146 l17 58
49 -6 c26 -4 54 -9 61 -12z m163 -40 c91 -23 95 -35 58 -161 -15 -54 -33 -101
-39 -105 -5 -4 -45 -8 -88 -8 l-79 0 6 28 c3 15 15 80 28 145 15 80 26 117 35
117 8 0 43 -7 79 -16z m1808 -104 c17 -42 32 -67 38 -63 7 3 8 1 4 -6 -7 -11
101 -207 131 -237 20 -20 6 -18 -87 12 -45 14 -151 38 -235 54 -84 15 -161 32
-170 38 -15 8 0 24 96 105 63 52 130 111 149 131 19 19 38 35 41 35 3 1 18
-31 33 -69z m-1519 34 l65 -16 -6 -42 c-8 -69 -26 -153 -34 -165 -5 -10 -17
-10 -49 -1 -32 8 -41 16 -42 33 0 12 -4 64 -7 115 -4 50 -3 92 1 92 4 0 37 -7
72 -16z m235 -59 c36 -9 105 -28 153 -43 l89 -27 -7 -70 c-8 -95 -12 -105 -40
-105 -33 0 -307 40 -317 46 -4 3 -4 14 2 24 14 27 42 162 36 177 -7 16 4 16
84 -2z m-397 -107 c4 -29 2 -38 -9 -38 -16 0 -17 5 -8 49 8 38 9 37 17 -11z
m915 -30 c47 -13 48 -18 29 -93 l-13 -50 -91 4 c-50 2 -106 6 -125 10 -33 7
-33 8 -30 57 1 27 5 68 8 90 l5 42 87 -24 c48 -14 106 -30 130 -36z m170 -47
c10 -6 1 -16 -33 -35 -26 -15 -48 -26 -49 -24 -2 1 1 18 6 36 7 26 13 32 36
32 15 0 33 -4 40 -9z m283 -61 c45 -10 83 -21 85 -22 2 -2 -2 -23 -8 -47 -9
-36 -14 -42 -32 -37 -12 2 -70 12 -131 21 -137 21 -152 28 -105 49 19 8 49 24
65 36 36 24 26 24 126 0z m-1921 -84 c0 -11 -19 -15 -25 -6 -3 5 1 10 9 10 9
0 16 -2 16 -4z m548 -23 c-10 -2 -26 -2 -35 0 -10 3 -2 5 17 5 19 0 27 -2 18
-5z m1109 -79 c-3 -3 -12 -4 -19 -1 -8 3 -5 6 6 6 11 1 17 -2 13 -5z m-1798
-259 c4 -5 30 -211 31 -246 0 -29 10 -25 -133 -45 l-42 -6 -58 145 c-31 79
-57 150 -57 157 0 10 28 11 128 5 70 -4 129 -9 131 -10z m309 -21 l72 -7 0
-123 0 -124 -109 0 -109 0 -12 48 c-7 26 -15 87 -18 136 l-5 89 54 -6 c30 -4
87 -9 127 -13z m405 -40 l77 -7 0 -98 0 -99 -150 0 -150 0 0 113 0 113 73 -7
c39 -4 107 -10 150 -15z m541 -3 c5 -8 -19 -180 -26 -186 -2 -1 -69 -5 -150
-9 l-148 -6 0 62 c0 35 3 80 6 100 l7 37 91 4 c50 1 119 4 153 5 34 1 64 -2
67 -7z m467 -3 c0 -7 6 -48 13 -91 7 -43 10 -80 7 -81 -3 -2 -86 -7 -183 -11
-176 -8 -178 -7 -178 13 0 19 25 141 35 170 3 9 43 12 155 12 113 0 150 -3
151 -12z m255 -1 c9 -9 13 -74 7 -124 l-6 -53 -42 0 -42 0 -11 58 c-19 99 -21
119 -14 127 7 7 100 0 108 -8z"/>
<path d="M5117 1704 c-12 -12 -8 -41 8 -54 20 -17 47 5 43 34 -3 21 -37 34
-51 20z"/>
<path d="M5174 1555 c-12 -30 4 -45 46 -43 49 2 76 19 67 42 -9 22 -105 23
-113 1z"/>
</g>
</svg>
