<?xml version="1.0" encoding="UTF-8" standalone="no"?>
<svg xmlns:ffdec="https://www.free-decompiler.com/flash" xmlns:xlink="http://www.w3.org/1999/xlink" ffdec:objectType="shape" height="272.875px" width="291.375px" xmlns="http://www.w3.org/2000/svg">
  <g transform="matrix(2.5, 0.0, 0.0, 2.5, -11.5, -30.875)">
    <path d="M13.1 104.15 L12.3 107.4 91.45 107.4 92.25 104.15 13.1 104.15 M25.35 58.3 L24.45 61.45 54.05 61.45 54.85 58.3 25.35 58.3 M21.2 73.75 L20.4 76.95 50.15 76.95 50.95 73.75 21.2 73.75 M33.4 27.9 L32.55 31.1 61.75 31.1 62.55 27.9 33.4 27.9 M29.4 43.1 L28.45 46.3 57.9 46.3 58.7 43.1 29.4 43.1 M112.55 27.9 L66.7 27.9 53.3 80.9 98.45 80.9 112.55 27.9 M17.2 88.95 L16.3 92.1 95.45 92.1 96.35 88.95 17.2 88.95 M33.55 12.35 L121.15 12.35 92.2 121.5 4.6 121.5 33.55 12.35" fill="#ebc25c" fill-rule="evenodd" stroke="none"/>
  </g>
</svg>
