<?xml version="1.0" encoding="UTF-8" standalone="no"?>
<svg xmlns:ffdec="https://www.free-decompiler.com/flash" xmlns:xlink="http://www.w3.org/1999/xlink" ffdec:objectType="shape" height="24.0px" width="20.45px" xmlns="http://www.w3.org/2000/svg">
  <g transform="matrix(1.0, 0.0, 0.0, 1.0, 0.0, 0.0)">
    <path d="M18.5 21.3 L18.5 23.15 Q18.5 23.95 17.75 23.95 L17.15 23.95 Q16.55 23.8 16.55 23.1 L16.55 21.3 4.15 21.3 4.15 22.95 Q4.15 24.15 2.85 24.0 2.15 23.8 2.1 23.1 L2.1 21.35 1.25 21.25 Q0.7 21.2 0.35 20.75 0.0 20.3 0.0 19.7 L0.0 1.6 Q0.0 1.0 0.45 0.55 0.9 0.05 1.5 0.05 L18.8 0.0 Q19.5 0.0 19.95 0.5 20.45 1.0 20.45 1.65 L20.45 19.7 Q20.45 20.35 19.95 20.8 19.45 21.3 18.8 21.3 L18.5 21.3 M18.45 6.4 L18.45 4.45 Q18.45 3.9 17.9 3.9 L15.9 3.95 Q15.6 4.05 15.55 4.15 L15.4 4.65 15.4 6.4 Q15.4 7.0 16.0 7.0 L17.85 7.0 Q18.45 7.0 18.45 6.4 M13.65 6.05 L13.65 2.5 13.6 2.3 Q13.45 1.95 12.85 1.95 L2.7 1.95 Q2.0 1.95 2.0 2.65 L2.0 6.05 3.55 6.05 3.55 3.9 Q3.55 3.6 3.9 3.6 L5.35 3.55 5.6 3.85 5.6 6.05 6.85 6.05 6.85 4.0 Q6.85 3.6 7.25 3.6 L8.5 3.6 Q8.85 3.6 8.85 3.9 L8.85 6.05 10.1 6.05 10.15 3.9 Q10.15 3.6 10.5 3.6 L11.6 3.55 12.15 3.65 12.2 4.15 12.2 6.05 13.65 6.05 M10.1 11.25 L10.1 9.15 Q10.1 8.8 10.5 8.8 L11.8 8.8 Q12.2 8.8 12.2 9.2 L12.2 11.25 13.65 11.25 13.65 7.3 2.0 7.3 2.0 11.25 3.55 11.25 3.55 9.05 Q3.55 8.75 3.9 8.75 L5.25 8.75 Q5.6 8.75 5.6 9.1 L5.6 11.25 6.85 11.25 6.85 9.05 Q6.85 8.75 7.15 8.75 L8.55 8.75 8.85 9.05 8.85 11.25 10.1 11.25 M18.6 9.15 L18.5 8.65 Q18.35 8.5 17.8 8.5 17.3 8.55 17.3 9.15 L17.45 9.7 18.05 9.8 Q18.6 9.8 18.6 9.15 M16.45 9.2 L16.45 9.0 Q16.55 8.55 16.15 8.55 L15.95 8.5 15.3 8.65 15.2 9.35 15.3 9.6 16.2 9.75 16.45 9.2 M16.45 11.4 L16.45 10.85 16.2 10.55 15.45 10.5 15.2 10.8 15.15 11.35 Q15.15 11.75 15.5 11.75 L16.25 11.7 16.45 11.4 M18.6 11.15 Q18.6 10.5 18.1 10.5 L17.45 10.55 Q17.3 10.7 17.3 11.2 17.25 11.75 17.95 11.8 L18.5 11.65 18.6 11.15 M13.25 13.85 L2.85 13.8 2.25 14.05 Q1.95 14.35 1.95 14.7 L2.0 17.1 2.2 17.65 2.85 17.8 13.25 17.8 Q13.9 17.7 13.9 17.1 L13.9 14.5 Q13.9 13.85 13.25 13.85" fill="#f1c75f" fill-rule="evenodd" stroke="none"/>
  </g>
</svg>
