<?xml version="1.0" encoding="UTF-8" standalone="no"?>
<svg xmlns:ffdec="https://www.free-decompiler.com/flash" xmlns:xlink="http://www.w3.org/1999/xlink" ffdec:objectType="shape" height="24.0px" width="20.3px" xmlns="http://www.w3.org/2000/svg">
  <g transform="matrix(1.0, 0.0, 0.0, 1.0, -1.85, 0.05)">
    <path d="M12.0 11.8 L12.0 2.15 4.0 3.6 Q3.35 7.75 4.25 11.8 L12.0 11.8 12.0 21.4 Q13.45 20.55 15.05 19.1 18.3 16.2 19.25 13.4 L19.7 11.8 12.0 11.8 M21.9 2.2 L22.15 6.2 Q22.15 10.7 21.0 14.1 19.85 17.5 16.05 20.95 14.15 22.7 12.3 23.9 L12.0 23.95 11.65 23.9 7.9 20.95 Q4.1 17.5 2.95 14.1 1.8 10.7 1.85 6.2 1.85 3.95 2.1 2.2 2.2 1.75 2.6 1.7 L11.9 0.0 12.1 0.0 21.4 1.7 21.9 2.2" fill="#f1c75f" fill-rule="evenodd" stroke="none"/>
  </g>
</svg>
