<?xml version="1.0" encoding="UTF-8" standalone="no"?>
<svg xmlns:ffdec="https://www.free-decompiler.com/flash" xmlns:xlink="http://www.w3.org/1999/xlink" ffdec:objectType="shape" height="23.95px" width="24.0px" xmlns="http://www.w3.org/2000/svg">
  <g transform="matrix(1.0, 0.0, 0.0, 1.0, 0.0, 0.0)">
    <path d="M12.8 14.9 L12.8 19.65 16.4 21.55 16.7 21.7 16.7 16.9 12.8 14.9 M7.2 17.0 L7.25 21.7 11.2 19.65 11.15 14.9 7.2 17.0 M5.6 16.95 L1.7 14.85 1.7 19.65 5.6 21.7 5.6 16.95 M2.7 13.5 L2.95 13.6 6.4 15.45 6.45 15.4 10.1 13.45 9.85 13.35 6.45 11.55 6.3 11.55 2.7 13.5 M11.15 12.0 L11.15 7.2 7.25 5.15 7.25 9.9 7.3 9.95 11.15 12.0 M15.7 3.75 L12.0 1.8 8.3 3.75 8.25 3.75 11.1 5.25 11.4 5.45 11.95 5.7 12.55 5.45 15.7 3.75 M12.85 7.25 L12.85 12.0 16.8 9.9 16.8 5.2 16.55 5.3 12.85 7.25 M18.05 17.05 L18.4 17.05 18.4 21.7 18.65 21.6 22.35 19.6 22.35 14.9 18.45 16.9 18.05 17.05 M21.3 13.5 L21.3 13.45 17.55 11.5 17.5 11.55 13.85 13.5 17.6 15.45 21.3 13.5 M23.25 12.5 L23.2 12.5 Q24.0 12.85 24.0 13.8 L24.0 19.9 Q24.0 20.75 23.25 21.1 L18.1 23.85 17.55 23.95 17.05 23.85 12.1 21.2 11.9 21.2 7.0 23.8 Q6.4 24.05 5.85 23.8 L0.65 21.1 Q0.0 20.75 0.0 19.9 L0.0 13.75 Q-0.05 12.95 0.65 12.6 L5.4 10.1 5.55 9.8 5.55 4.1 Q5.55 3.25 6.3 2.85 L11.45 0.15 Q11.95 -0.15 12.55 0.15 L17.7 2.85 Q18.4 3.2 18.4 4.05 L18.4 9.8 18.55 10.05 23.25 12.5" fill="#f1c75f" fill-rule="evenodd" stroke="none"/>
    <path d="M12.0 6.75 L12.0 13.5 6.75 10.5 6.75 4.5 12.0 6.75" fill="#f1c75f" fill-rule="evenodd" stroke="none"/>
    <path d="M6.75 16.5 L6.75 22.85 0.75 20.25 0.75 14.25 6.75 16.5" fill="#f1c75f" fill-rule="evenodd" stroke="none"/>
    <path d="M17.25 16.5 L17.25 22.85 12.0 20.25 12.75 14.25 17.25 16.5" fill="#f1c75f" fill-rule="evenodd" stroke="none"/>
  </g>
</svg>
