<?xml version="1.0" encoding="UTF-8" standalone="no"?>
<svg xmlns:ffdec="https://www.free-decompiler.com/flash" xmlns:xlink="http://www.w3.org/1999/xlink" ffdec:objectType="shape" height="18.0px" width="18.05px" xmlns="http://www.w3.org/2000/svg">
  <g transform="matrix(1.0, 0.0, 0.0, 1.0, 0.0, -0.05)">
    <path d="M17.85 6.15 Q18.3 6.6 17.85 7.0 L13.2 11.65 Q13.05 11.85 12.85 11.65 L6.25 5.1 6.2 4.95 6.5 4.7 10.9 0.3 Q11.45 -0.2 11.95 0.3 L12.35 0.7 Q12.8 1.15 12.5 1.8 L12.85 1.7 Q13.2 1.55 13.55 1.85 L15.4 3.7 Q15.85 4.15 15.45 4.65 L14.4 6.25 14.45 6.3 15.0 6.0 16.0 5.25 17.0 5.35 17.85 6.15" fill="#f1c75f" fill-rule="evenodd" stroke="none"/>
    <path d="M11.85 12.45 L12.15 12.7 10.75 14.1 Q10.35 14.5 9.85 14.1 L8.5 12.8 Q8.0 12.45 7.5 12.5 7.0 12.6 6.65 13.1 L4.4 16.55 3.05 17.85 Q2.25 18.25 1.35 17.85 0.45 17.45 0.2 16.65 -0.45 14.9 1.15 13.85 L4.85 11.4 Q5.75 10.8 5.5 9.95 L5.05 9.3 3.95 8.2 Q3.5 7.75 3.9 7.3 L5.15 6.1 5.45 6.1 11.85 12.45" fill="#f1c75f" fill-rule="evenodd" stroke="none"/>
  </g>
</svg>
