<?xml version="1.0" encoding="UTF-8" standalone="no"?>
<svg xmlns:ffdec="https://www.free-decompiler.com/flash" xmlns:xlink="http://www.w3.org/1999/xlink" ffdec:objectType="shape" height="21.7px" width="24.0px" xmlns="http://www.w3.org/2000/svg">
  <g transform="matrix(1.0, 0.0, 0.0, 1.0, 0.0, 0.0)">
    <path d="M11.95 18.85 L2.9 18.85 Q2.05 18.85 1.5 18.3 0.9 17.75 0.9 16.95 L0.9 10.55 0.85 10.4 0.75 10.3 0.15 9.65 0.0 8.85 0.3 7.9 Q0.6 7.55 1.1 7.45 L1.35 7.4 2.75 7.4 Q3.45 7.4 3.95 7.95 4.45 8.45 4.45 9.15 L4.45 11.8 4.45 14.4 Q4.45 15.15 4.95 15.65 L6.15 16.1 9.4 16.1 12.65 16.1 17.85 16.1 19.0 15.65 Q19.45 15.2 19.45 14.5 L19.5 11.9 19.45 9.35 Q19.45 8.7 19.85 8.15 20.25 7.6 21.05 7.4 L21.2 7.4 21.85 7.4 22.5 7.4 Q23.0 7.4 23.4 7.7 23.85 8.05 23.95 8.6 L23.85 9.6 23.15 10.3 23.05 10.4 23.05 10.55 23.05 16.85 Q23.05 17.6 22.65 18.1 L21.55 18.8 21.0 18.85 11.95 18.85 M18.5 11.7 L17.65 11.5 16.8 11.5 6.4 11.5 5.9 11.55 5.4 11.65 5.4 9.2 Q5.4 8.1 4.75 7.35 L4.7 7.25 4.65 7.1 4.65 2.25 Q4.65 1.5 5.2 0.85 5.75 0.2 6.45 0.05 L7.15 0.0 16.9 0.0 Q17.75 0.0 18.45 0.6 19.1 1.15 19.25 2.0 L19.3 2.45 19.25 7.1 19.25 7.25 19.15 7.4 Q18.55 8.15 18.5 9.15 L18.5 10.4 18.5 11.7 M17.5 15.15 L6.45 15.15 5.7 14.9 Q5.4 14.6 5.4 14.15 L5.4 13.8 5.4 13.45 Q5.4 13.0 5.7 12.7 6.05 12.4 6.5 12.4 L12.6 12.4 17.4 12.4 18.15 12.65 18.55 13.45 18.55 14.15 18.25 14.9 17.5 15.15 M5.7 19.6 L5.4 20.5 5.1 21.35 4.9 21.55 4.45 21.7 3.95 21.6 3.8 21.35 3.8 21.05 3.9 19.75 3.95 19.65 4.05 19.6 5.7 19.6 M18.25 19.6 L19.85 19.6 19.95 19.65 20.0 19.75 20.15 21.2 20.05 21.55 19.7 21.65 19.25 21.65 19.0 21.55 18.85 21.35 18.55 20.5 18.25 19.6" fill="#f1c75f" fill-rule="evenodd" stroke="none"/>
  </g>
</svg>
