<svg xmlns:ffdec="https://www.free-decompiler.com/flash" xmlns:xlink="http://www.w3.org/1999/xlink" ffdec:objectType="frame" xmlns="http://www.w3.org/2000/svg" viewBox="14.32 17.38 31.67 35.32">
  <g transform="matrix(1.0, 0.0, 0.0, 1.0, 30.15, 35.05)">
    <use ffdec:characterId="287" height="41.0" transform="matrix(0.8579, 0.0, 0.0, 0.8579, -15.1631, -17.6259)" width="35.4" xlink:href="#sprite0"/>
    <use ffdec:characterId="288" height="35.3" transform="matrix(1.0, 0.0, 0.0, 1.0, -15.8, -17.65)" width="31.6" xlink:href="#shape1"/>
  </g>
  <defs>
    <g id="sprite0" transform="matrix(1.0, 0.0, 0.0, 1.0, -1.5, -3.35)">
      <use ffdec:characterId="286" height="41.0" transform="matrix(1.0, 0.0, 0.0, 1.0, 1.5, 3.35)" width="35.4" xlink:href="#shape0"/>
    </g>
    <g id="shape0" transform="matrix(1.0, 0.0, 0.0, 1.0, -1.5, -3.35)">
      <path d="M19.2 44.35 L1.5 34.0 1.5 13.7 19.2 3.35 36.9 13.7 36.9 34.0 19.2 44.35" fill="#f5cb5b" fill-rule="evenodd" stroke="none"/>
    </g>
    <g id="shape1" transform="matrix(1.0, 0.0, 0.0, 1.0, 15.8, 17.65)">
      <path d="M-15.8 -15.8 L15.8 -15.8 15.8 15.8 -15.8 15.8 -15.8 -15.8" fill="#ff00ff" fill-opacity="0.0" fill-rule="evenodd" stroke="none"/>
      <path d="M0.0 17.65 L-15.3 8.85 -15.3 -8.85 0.0 -17.65 15.3 -8.85 15.3 8.85 0.0 17.65" fill="#181c1d" fill-opacity="0.7490196" fill-rule="evenodd" stroke="none"/>
      <path d="M0.0 15.0 L-12.95 7.45 -12.95 -7.45 0.0 -15.0 12.95 -7.45 12.95 7.45 0.0 15.0" fill="url(#gradient0)" fill-rule="evenodd" stroke="none"/>
      <path d="M0.0 15.0 L-12.95 7.45 -12.95 -7.45 0.0 -15.0 12.95 -7.45 12.95 7.45 0.0 15.0 Z" fill="none" stroke="#ffffcb" stroke-linecap="square" stroke-linejoin="miter-clip" stroke-miterlimit="3.0" stroke-width="1.0"/>
      <path d="M2.55 -7.25 L1.6 -2.0 0.8 2.45 -0.9 2.45 -2.75 -7.25 Q-2.75 -8.4 -2.0 -9.1 -1.2 -9.95 -0.15 -9.95 1.0 -9.95 1.7 -9.1 2.55 -8.4 2.55 -7.25 M2.55 7.35 Q2.55 8.45 1.7 9.3 1.0 10.0 -0.15 10.0 -1.2 10.0 -2.0 9.3 -2.75 8.45 -2.75 7.35 -2.75 6.15 -2.0 5.5 -1.2 4.7 -0.15 4.7 1.0 4.7 1.7 5.5 2.55 6.15 2.55 7.35" fill="#000000" fill-opacity="0.84705883" fill-rule="evenodd" stroke="none"/>
      <path d="M2.55 -7.25 Q2.55 -8.4 1.7 -9.1 1.0 -9.95 -0.15 -9.95 -1.2 -9.95 -2.0 -9.1 -2.75 -8.4 -2.75 -7.25 L-0.9 2.45 0.8 2.45 1.6 -2.0 2.55 -7.25 M2.1 -1.9 L1.3 2.7 1.15 2.9 1.05 2.95 -1.15 2.95 -1.25 2.9 -1.4 2.7 -3.3 -7.25 Q-3.3 -8.6 -2.35 -9.45 -1.45 -10.45 -0.15 -10.45 1.15 -10.45 2.05 -9.45 3.0 -8.6 3.0 -7.25 L2.1 -1.9 M2.55 7.35 Q2.55 6.15 1.7 5.5 1.0 4.7 -0.15 4.7 -1.2 4.7 -2.0 5.5 -2.75 6.15 -2.75 7.35 -2.75 8.45 -2.0 9.3 -1.2 10.0 -0.15 10.0 1.0 10.0 1.7 9.3 2.55 8.45 2.55 7.35 M2.05 9.6 Q1.15 10.5 -0.15 10.5 -1.45 10.5 -2.35 9.6 -3.3 8.65 -3.3 7.35 -3.3 5.95 -2.35 5.15 -1.45 4.2 -0.15 4.2 1.15 4.2 2.0 5.1 L2.05 5.15 Q3.0 5.95 3.0 7.35 3.0 8.65 2.05 9.6" fill="#ffffcb" fill-rule="evenodd" stroke="none"/>
    </g>
    <radialGradient cx="0" cy="0" gradientTransform="matrix(0.0183, 0.0, 0.0, 0.0183, 0.0, 0.0)" gradientUnits="userSpaceOnUse" id="gradient0" r="819.2" spreadMethod="pad">
      <stop offset="0.20784313725490197" stop-color="#ffffcb"/>
      <stop offset="1.0" stop-color="#f5cb5b"/>
    </radialGradient>
  </defs>
</svg>