<?xml version="1.0" encoding="UTF-8" standalone="no"?>
<svg xmlns:ffdec="https://www.free-decompiler.com/flash" xmlns:xlink="http://www.w3.org/1999/xlink" ffdec:objectType="shape" height="17.05px" width="20.95px" xmlns="http://www.w3.org/2000/svg">
  <g transform="matrix(1.0, 0.0, 0.0, 1.0, 0.0, 0.0)">
    <path d="M11.1 10.1 Q11.85 9.45 12.75 9.05 L13.9 8.7 15.05 8.6 Q16.5 8.55 17.95 9.35 L19.5 10.65 Q20.35 11.7 20.65 12.8 L20.9 14.15 20.95 15.65 20.8 15.85 14.1 15.85 13.95 15.7 13.85 14.85 13.6 13.8 13.0 12.45 12.05 11.05 11.15 10.2 11.1 10.1 M11.8 4.25 Q11.8 3.05 12.5 1.95 13.3 0.9 14.45 0.7 L16.35 0.9 17.1 1.4 Q17.85 2.05 18.15 3.1 L18.3 4.0 18.1 5.5 17.5 6.6 16.25 7.6 14.85 7.85 Q13.75 7.7 13.1 7.1 12.1 6.25 11.85 4.85 L11.8 4.25 M5.15 0.25 L6.3 0.0 7.55 0.25 Q8.1 0.45 8.7 0.95 9.6 1.65 9.95 2.9 L10.1 3.85 10.15 4.4 9.75 6.05 Q9.5 6.75 8.85 7.4 L7.15 8.35 6.0 8.45 Q5.3 8.4 4.6 7.95 4.1 7.65 3.7 7.2 2.95 6.45 2.7 5.25 L2.55 3.9 Q2.7 2.5 3.35 1.7 4.1 0.6 5.15 0.25 M0.0 17.0 L0.05 15.7 0.35 14.2 Q0.8 13.0 1.35 12.3 L2.35 11.25 Q3.05 10.6 3.8 10.35 L5.05 9.95 6.75 9.85 8.0 10.05 Q9.05 10.25 10.05 11.0 L11.25 12.2 Q12.1 13.2 12.4 14.45 L12.6 15.45 12.7 16.8 12.5 17.05 0.0 17.0" fill="#f1c75f" fill-rule="evenodd" stroke="none"/>
  </g>
</svg>
