<svg id="Scissors--Streamline-Openmoji" viewBox="0 0 32 32" xmlns="http://www.w3.org/2000/svg" height="32" width="32">
  <desc>
    Scissors Streamline Emoji: https://streamlinehq.com
  </desc>
  <g id="color">
    <path fill="#ea5a47" stroke="none" d="M10.063199999999998 24.348355555555553c-0.3144888888888889 1.5557333333333332 -0.254 2.8873777777777776 0.1763111111111111 3.8511111111111105 1.1877333333333333 2.6600444444444444 4.316977777777778 3.8605777777777774 6.979022222222222 2.671511111111111 1.2889777777777776 -0.5753777777777778 2.276933333333333 -1.6180444444444444 2.781022222222222 -2.936355555555555 0.5047999999999999 -1.3182222222222222 0.4659111111111111 -2.7542666666666666 -0.10946666666666666 -4.043288888888889 -0.6346666666666666 -1.4214666666666667 -1.4286666666666668 -2.517022222222222 -2.9295555555555555 -2.9505777777777777 -0.17897777777777776 -0.05151111111111111 -0.022755555555555557 -0.6540888888888888 0.04848888888888889 -0.8252888888888888l0.48546666666666666 -1.6264 -4.393733333333333 -1.4628444444444444c-1.9783555555555554 4.469111111111111 -2.9516444444444443 6.894355555555555 -3.0375555555555556 7.3221333333333325Zm5.8012444444444435 -1.159688888888889c0.7085777777777778 0.16168888888888888 1.311911111111111 0.5894666666666667 1.6985777777777777 1.2047555555555556 0.38653333333333334 0.6153333333333333 0.5100444444444444 1.3445777777777776 0.34831111111111107 2.0532 -0.1617333333333333 0.7086222222222222 -0.5895111111111111 1.3119999999999998 -1.2048444444444444 1.6985777777777777 -0.4392 0.2756444444444444 -0.9363555555555554 0.4177333333333333 -1.4420888888888888 0.4177333333333333 -0.2034222222222222 0 -0.40817777777777775 -0.022977777777777778 -0.6110666666666666 -0.06937777777777777 -0.7086222222222222 -0.1617333333333333 -1.3119555555555555 -0.5894666666666667 -1.6985777777777777 -1.2047999999999999 -0.3866222222222222 -0.6153333333333333 -0.5100888888888888 -1.3445333333333331 -0.3483555555555556 -2.0531555555555556 0.16168888888888888 -0.7086666666666667 0.5895111111111111 -1.3119999999999998 1.2048444444444444 -1.698622222222222 0.6162666666666666 -0.3866222222222222 1.3473777777777778 -0.5095555555555555 2.0532 -0.34831111111111107Z" stroke-width="0.4444"></path>
    <path fill="#d0cfce" stroke="none" d="M17.30324444444444 18.543022222222223 24.319066666666664 1.1703555555555556c-1.2644444444444445 0.4019111111111111 -2.6339111111111113 0.7170666666666666 -3.7584444444444443 1.8583555555555555 -1.4125777777777777 1.4336 -2.4430666666666667 3.6959111111111107 -2.4430666666666667 3.6959111111111107s-4.385377777777778 9.553022222222221 -4.598177777777778 10.028666666666666c-0.0077333333333333325 0.017377777777777777 3.7838666666666665 1.7897333333333334 3.7838666666666665 1.7897333333333334Z" stroke-width="0.4444"></path>
    <path fill="#9b9b9a" stroke="none" d="M31.18222222222222 8.37951111111111s-8.841733333333332 2.9952 -8.564933333333332 2.8629333333333333c-0.0007555555555555554 -0.00031111111111111107 -0.0015555555555555555 -0.0024 -0.002266666666666667 -0.002711111111111111l-2.2817777777777777 0.9531999999999998 -2.9698666666666664 7.497333333333333 3.301111111111111 -1.5868 0.0009333333333333332 -0.0088c-0.059333333333333335 0.019644444444444444 5.443777777777777 -3.262 5.544266666666666 -3.313822222222222 2.3270222222222223 -1.2016444444444443 4.063377777777777 -3.552533333333333 4.972488888888889 -6.4013333333333335Z" stroke-width="0.4444"></path>
    <path fill="#d22f27" stroke="none" d="M8.528088888888888 13.227333333333334c-2.360311111111111 -1.0536444444444444 -6.0133777777777775 0.11982222222222222 -7.067022222222222 2.479022222222222 -1.0537333333333332 2.360888888888889 -0.10333333333333333 6.031866666666667 2.2569777777777777 7.0855999999999995 0.854311111111111 0.38168888888888886 2.2796 0.6106666666666667 3.660222222222222 0.33173333333333327 0.059288888888888884 -0.011866666666666666 1.946533333333333 -0.13146666666666668 1.7217333333333331 0.014666666666666666l1.3213333333333332 -0.6147111111111111c0.6812888888888888 -1.718 2.7271555555555556 -6.558222222222222 2.8945777777777777 -6.931644444444444l-1.5831999999999997 0.7595999999999999 -0.0035999999999999995 0.006666666666666666c-0.010177777777777777 0.16408888888888887 -2.010711111111111 -2.5989777777777774 -3.201022222222222 -3.130933333333333Zm-0.14368888888888887 5.984933333333333c-0.37337777777777775 0.5942222222222222 -0.9560444444444444 1.0073777777777777 -1.6404444444444444 1.1636 -0.19595555555555555 0.044844444444444444 -0.39186666666666664 0.06653333333333333 -0.5850666666666666 0.06653333333333333 -1.198711111111111 0 -2.2841333333333336 -0.8267111111111111 -2.5614222222222223 -2.043422222222222 -0.15662222222222222 -0.6843555555555555 -0.036977777777777776 -1.3885777777777777 0.33644444444444443 -1.9828888888888887 0.3733333333333333 -0.5942666666666666 0.9560888888888888 -1.0073777777777777 1.6403999999999999 -1.1635555555555555 0.6834666666666667 -0.15617777777777778 1.388222222222222 -0.03648888888888889 1.9829333333333332 0.33644444444444443 0.5942222222222222 0.3733333333333333 1.0073777777777777 0.9560444444444444 1.1635555555555555 1.6404444444444444 0.15617777777777778 0.6843111111111111 0.036933333333333325 1.3886222222222222 -0.3364 1.9828444444444444Z" stroke-width="0.4444"></path>
  </g>
  <g id="hair"></g>
  <g id="skin"></g>
  <g id="skin-shadow"></g>
  <g id="line">
    <path fill="none" stroke="#000000" stroke-linecap="round" stroke-linejoin="round" stroke-miterlimit="10" stroke-width="0.8889" d="M13.009777777777776 17.122977777777777c1.7682666666666667 -3.9783555555555554 3.8466666666666662 -8.467511111111111 4.509955555555555 -9.751911111111111 1.1979111111111111 -2.319822222222222 3.3152888888888885 -5.892266666666666 7.251955555555555 -6.472844444444444L17.450622222222222 18.565155555555553"></path>
    <path fill="none" stroke="#000000" stroke-linecap="round" stroke-linejoin="round" stroke-miterlimit="10" stroke-width="0.8889" d="M19.878355555555554 23.688355555555553c-0.657911111111111 -1.4740444444444445 -1.9107555555555553 -2.4947555555555554 -3.3488444444444445 -2.9105777777777777l0.921111111111111 -2.212622222222222 -4.440844444444444 -1.4421777777777776c-1.4485777777777777 3.2610666666666663 -2.8216 6.485288888888888 -2.9442222222222223 7.091688888888889 -0.20888888888888887 1.0334666666666665 -0.35644444444444445 2.529155555555555 0.19564444444444443 3.766222222222222 1.1852888888888888 2.6556888888888888 4.299111111111111 3.847644444444444 6.954755555555555 2.6624 2.655733333333333 -1.1853333333333331 3.8476888888888885 -4.2992 2.6624 -6.954933333333333Zm-2.0526666666666666 2.7386222222222223c-0.32355555555555554 1.4176 -1.7351555555555556 2.304488888888889 -3.1527555555555553 1.9808888888888887 -1.4176444444444445 -0.3236444444444444 -2.3045777777777774 -1.7351555555555556 -1.980933333333333 -3.1527999999999996 0.32359999999999994 -1.4176888888888888 1.7351999999999999 -2.3045777777777774 3.152844444444444 -1.980933333333333 1.4176 0.3236444444444444 2.304488888888889 1.7351999999999999 1.9808444444444444 3.152844444444444Z"></path>
    <path fill="none" stroke="#000000" stroke-linecap="round" stroke-linejoin="round" stroke-miterlimit="10" stroke-width="0.8889" d="M11.153155555555555 16.322755555555553c-0.4532 -1.3448888888888888 -1.4434666666666665 -2.5040444444444443 -2.8415555555555554 -3.128133333333333 -2.6556888888888888 -1.1852444444444443 -5.769511111111111 0.006622222222222222 -6.954844444444444 2.662444444444444 -1.1853333333333331 2.6556444444444445 0.006711111111111111 5.769422222222222 2.6623555555555556 6.95471111111111 1.2370666666666665 0.5522222222222222 2.7327555555555554 0.4045333333333333 3.766222222222222 0.19568888888888888 0.16933333333333334 -0.03426666666666667 0.5194222222222222 -0.15595555555555554 1.0071555555555554 -0.34528888888888887m-2.047511111111111 -2.2811555555555554c-1.4176888888888888 0.3236444444444444 -2.8292444444444445 -0.5632444444444444 -3.1527999999999996 -1.980933333333333 -0.3236444444444444 -1.4176444444444445 0.5631555555555555 -2.8291555555555554 1.9808888888888887 -3.1527555555555553 1.4176 -0.3236444444444444 2.8292 0.5631555555555555 3.1527999999999996 1.9808000000000001 0.32359999999999994 1.4176888888888888 -0.5632444444444444 2.8292444444444445 -1.9808888888888887 3.1528888888888886Z"></path>
    <path fill="none" stroke="#000000" stroke-linecap="round" stroke-linejoin="round" stroke-miterlimit="10" stroke-width="0.8889" d="M22.863688888888888 11.760044444444445 31.101777777777777 8.301333333333334c-0.5805333333333333 3.9366666666666665 -4.152977777777778 6.054088888888889 -6.472844444444444 7.252 -0.7584888888888888 0.39168888888888886 -1.9147999999999998 0.9789777777777777 -4.143288888888889 2.0023555555555554"></path>
  </g>
</svg>